0
SECTION
2
HEADER
9
$ANGDIR
70
1
9
$AUNITS
70
0
9
$PROJECTNAME
1
driver
9
$TDCREATE
40
2458761.57037046
9
$INSUNITS
70
4
0
ENDSEC
0
SECTION
2
ENTITIES
0
POLYLINE
66
1
8
outline
10
0.0
20
0.0
30
0.0
70
1
0
VERTEX
8
0
10
0
20
-3.81
30
0
0
VERTEX
8
0
10
40.64
20
-3.81
30
0
0
VERTEX
8
0
10
40.64
20
39.370000000000005
30
0
0
VERTEX
8
0
10
0
20
39.370000000000005
30
0
0
VERTEX
8
0
10
0
20
-3.81
30
0
0
SEQEND
0
POLYLINE
66
1
8
1_copper
10
0.0
20
0.0
30
0.0
70
1
0
VERTEX
8
0
10
7.73194375
20
34.0433375
30
0
42
0.3578057741447831
0
VERTEX
8
0
10
8.382
20
34.760565625
30
0
0
VERTEX
8
0
10
8.382
20
36.359434375
30
0
42
0.9520795017710562
0
VERTEX
8
0
10
6.8580000000000005
20
36.359434375
30
0
0
VERTEX
8
0
10
6.8580000000000005
20
34.760565625
30
0
0
VERTEX
8
0
10
6.865337500000001
20
34.68605625
30
0
0
VERTEX
8
0
10
6.879943750000001
20
34.612625
30
0
0
VERTEX
8
0
10
6.901678125
20
34.54098125
30
0
0
VERTEX
8
0
10
6.930328125
20
34.471809375
30
0
0
VERTEX
8
0
10
6.965621875
20
34.405781250000004
30
0
0
VERTEX
8
0
10
7.007218750000001
20
34.343531250000005
30
0
0
VERTEX
8
0
10
7.054715625
20
34.28565625
30
0
0
VERTEX
8
0
10
7.107656250000001
20
34.232715625000004
30
0
0
VERTEX
8
0
10
7.16553125
20
34.185218750000004
30
0
0
VERTEX
8
0
10
7.2277812500000005
20
34.143621875
30
0
0
VERTEX
8
0
10
7.293809375
20
34.108328125
30
0
0
VERTEX
8
0
10
7.362981250000001
20
34.079678125
30
0
0
VERTEX
8
0
10
7.4346250000000005
20
34.05794375
30
0
0
VERTEX
8
0
10
7.50805625
20
34.0433375
30
0
0
VERTEX
8
0
10
7.582565625
20
34.036
30
0
0
VERTEX
8
0
10
7.657434375
20
34.036
30
0
0
SEQEND
0
POLYLINE
66
1
8
1_copper
10
0.0
20
0.0
30
0.0
70
1
0
VERTEX
8
0
10
7.73194375
20
8.643337500000001
30
0
42
0.3578057741447831
0
VERTEX
8
0
10
8.382
20
9.360565625000001
30
0
0
VERTEX
8
0
10
8.382
20
10.959434375
30
0
42
0.9520795017710562
0
VERTEX
8
0
10
6.8580000000000005
20
10.959434375
30
0
0
VERTEX
8
0
10
6.8580000000000005
20
9.360565625000001
30
0
0
VERTEX
8
0
10
6.865337500000001
20
9.28605625
30
0
0
VERTEX
8
0
10
6.879943750000001
20
9.212625000000001
30
0
0
VERTEX
8
0
10
6.901678125
20
9.140981250000001
30
0
0
VERTEX
8
0
10
6.930328125
20
9.071809375
30
0
0
VERTEX
8
0
10
6.965621875
20
9.00578125
30
0
0
VERTEX
8
0
10
7.007218750000001
20
8.943531250000001
30
0
0
VERTEX
8
0
10
7.054715625
20
8.88565625
30
0
0
VERTEX
8
0
10
7.107656250000001
20
8.832715625
30
0
0
VERTEX
8
0
10
7.16553125
20
8.78521875
30
0
0
VERTEX
8
0
10
7.2277812500000005
20
8.743621875
30
0
0
VERTEX
8
0
10
7.293809375
20
8.708328125
30
0
0
VERTEX
8
0
10
7.362981250000001
20
8.679678125
30
0
0
VERTEX
8
0
10
7.4346250000000005
20
8.657943750000001
30
0
0
VERTEX
8
0
10
7.50805625
20
8.643337500000001
30
0
0
VERTEX
8
0
10
7.582565625
20
8.636000000000001
30
0
0
VERTEX
8
0
10
7.657434375
20
8.636000000000001
30
0
0
SEQEND
0
POLYLINE
66
1
8
1_copper
10
0.0
20
0.0
30
0.0
70
1
0
VERTEX
8
0
10
5.2024187500000005
20
4.425959375000001
30
0
42
0.9063462356499619
0
VERTEX
8
0
10
5.13784375
20
5.7404
30
0
0
VERTEX
8
0
10
3.75215625
20
5.7404
30
0
42
0.9520786018124834
0
VERTEX
8
0
10
3.75215625
20
4.4196
30
0
0
VERTEX
8
0
10
5.13784375
20
4.4196
30
0
0
SEQEND
0
POLYLINE
66
1
8
16_copper
10
0.0
20
0.0
30
0.0
70
1
0
VERTEX
8
0
10
7.73194375
20
34.0433375
30
0
42
0.3578057741447831
0
VERTEX
8
0
10
8.382
20
34.760565625
30
0
0
VERTEX
8
0
10
8.382
20
36.359434375
30
0
42
0.9520795017710562
0
VERTEX
8
0
10
6.8580000000000005
20
36.359434375
30
0
0
VERTEX
8
0
10
6.8580000000000005
20
34.760565625
30
0
0
VERTEX
8
0
10
6.865337500000001
20
34.68605625
30
0
0
VERTEX
8
0
10
6.879943750000001
20
34.612625
30
0
0
VERTEX
8
0
10
6.901678125
20
34.54098125
30
0
0
VERTEX
8
0
10
6.930328125
20
34.471809375
30
0
0
VERTEX
8
0
10
6.965621875
20
34.405781250000004
30
0
0
VERTEX
8
0
10
7.007218750000001
20
34.343531250000005
30
0
0
VERTEX
8
0
10
7.054715625
20
34.28565625
30
0
0
VERTEX
8
0
10
7.107656250000001
20
34.232715625000004
30
0
0
VERTEX
8
0
10
7.16553125
20
34.185218750000004
30
0
0
VERTEX
8
0
10
7.2277812500000005
20
34.143621875
30
0
0
VERTEX
8
0
10
7.293809375
20
34.108328125
30
0
0
VERTEX
8
0
10
7.362981250000001
20
34.079678125
30
0
0
VERTEX
8
0
10
7.4346250000000005
20
34.05794375
30
0
0
VERTEX
8
0
10
7.50805625
20
34.0433375
30
0
0
VERTEX
8
0
10
7.582565625
20
34.036
30
0
0
VERTEX
8
0
10
7.657434375
20
34.036
30
0
0
SEQEND
0
POLYLINE
66
1
8
16_copper
10
0.0
20
0.0
30
0.0
70
1
0
VERTEX
8
0
10
7.73194375
20
8.643337500000001
30
0
42
0.3578057741447831
0
VERTEX
8
0
10
8.382
20
9.360565625000001
30
0
0
VERTEX
8
0
10
8.382
20
10.959434375
30
0
42
0.9520795017710562
0
VERTEX
8
0
10
6.8580000000000005
20
10.959434375
30
0
0
VERTEX
8
0
10
6.8580000000000005
20
9.360565625000001
30
0
0
VERTEX
8
0
10
6.865337500000001
20
9.28605625
30
0
0
VERTEX
8
0
10
6.879943750000001
20
9.212625000000001
30
0
0
VERTEX
8
0
10
6.901678125
20
9.140981250000001
30
0
0
VERTEX
8
0
10
6.930328125
20
9.071809375
30
0
0
VERTEX
8
0
10
6.965621875
20
9.00578125
30
0
0
VERTEX
8
0
10
7.007218750000001
20
8.943531250000001
30
0
0
VERTEX
8
0
10
7.054715625
20
8.88565625
30
0
0
VERTEX
8
0
10
7.107656250000001
20
8.832715625
30
0
0
VERTEX
8
0
10
7.16553125
20
8.78521875
30
0
0
VERTEX
8
0
10
7.2277812500000005
20
8.743621875
30
0
0
VERTEX
8
0
10
7.293809375
20
8.708328125
30
0
0
VERTEX
8
0
10
7.362981250000001
20
8.679678125
30
0
0
VERTEX
8
0
10
7.4346250000000005
20
8.657943750000001
30
0
0
VERTEX
8
0
10
7.50805625
20
8.643337500000001
30
0
0
VERTEX
8
0
10
7.582565625
20
8.636000000000001
30
0
0
VERTEX
8
0
10
7.657434375
20
8.636000000000001
30
0
0
SEQEND
0
POLYLINE
66
1
8
16_copper
10
0.0
20
0.0
30
0.0
70
1
0
VERTEX
8
0
10
5.2024187500000005
20
4.425959375000001
30
0
42
0.9063462356499619
0
VERTEX
8
0
10
5.13784375
20
5.7404
30
0
0
VERTEX
8
0
10
3.75215625
20
5.7404
30
0
42
0.9520786018124834
0
VERTEX
8
0
10
3.75215625
20
4.4196
30
0
0
VERTEX
8
0
10
5.13784375
20
4.4196
30
0
0
SEQEND
0
POLYLINE
66
1
8
1_copper
10
0.0
20
0.0
30
0.0
70
1
0
VERTEX
8
0
10
19.444537500000003
20
37.7825
30
0
0
VERTEX
8
0
10
18.655462500000002
20
37.7825
30
0
0
VERTEX
8
0
10
18.0975
20
37.224537500000004
30
0
0
VERTEX
8
0
10
18.0975
20
37.033212500000005
30
0
0
VERTEX
8
0
10
17.843500000000002
20
37.033212500000005
30
0
0
VERTEX
8
0
10
17.843500000000002
20
37.32974375
30
0
0
VERTEX
8
0
10
18.520875
20
38.007115625000004
30
0
42
0.6681786379192989
0
VERTEX
8
0
10
18.377190625
20
38.354
30
0
0
VERTEX
8
0
10
15.145703125
20
38.354
30
0
42
0.6681786379192989
0
VERTEX
8
0
10
15.002018750000001
20
38.007115625000004
30
0
0
VERTEX
8
0
10
15.294284375
20
37.714853125000005
30
0
0
VERTEX
8
0
10
15.532096875
20
37.140721875000004
30
0
0
VERTEX
8
0
10
15.532096875
20
36.519275
30
0
0
VERTEX
8
0
10
15.294284375
20
35.94514375
30
0
0
VERTEX
8
0
10
14.854853125
20
35.5057125
30
0
0
VERTEX
8
0
10
14.280721875000001
20
35.267900000000004
30
0
0
VERTEX
8
0
10
13.659275000000001
20
35.267900000000004
30
0
0
VERTEX
8
0
10
13.08514375
20
35.5057125
30
0
42
0.23542976053169795
0
VERTEX
8
0
10
12.9212875
20
35.5854
30
0
0
VERTEX
8
0
10
12.0297
20
35.5854
30
0
42
0.198912367379658
0
VERTEX
8
0
10
11.886015625
20
35.525884375000004
30
0
0
VERTEX
8
0
10
11.591112500000001
20
35.230984375
30
0
42
0.198912367379658
0
VERTEX
8
0
10
11.531596875
20
35.0873
30
0
0
VERTEX
8
0
10
11.531596875
20
34.52516875
30
0
0
VERTEX
8
0
10
11.420065625000001
20
34.255909375
30
0
42
0.09849332019684784
0
VERTEX
8
0
10
11.404596875000001
20
34.178146875
30
0
0
VERTEX
8
0
10
11.404596875000001
20
32.218290625
30
0
42
0.09849332019684784
0
VERTEX
8
0
10
11.420065625000001
20
32.140528125
30
0
0
VERTEX
8
0
10
11.473596875
20
32.011290625
30
0
0
VERTEX
8
0
10
11.473596875
20
31.48870625
30
0
0
VERTEX
8
0
10
11.273615625
20
31.005906250000002
30
0
0
VERTEX
8
0
10
10.904090625
20
30.636381250000003
30
0
0
VERTEX
8
0
10
10.518862500000001
20
30.476815625
30
0
42
0.6442050560414677
0
VERTEX
8
0
10
10.521884375
20
30.10079375
30
0
0
VERTEX
8
0
10
10.662096875000001
20
30.029353125
30
0
0
VERTEX
8
0
10
10.784096875000001
20
29.940715625000003
30
0
0
VERTEX
8
0
10
10.8798125
20
29.845000000000002
30
0
0
VERTEX
8
0
10
10.423025
20
29.845000000000002
30
0
0
VERTEX
8
0
10
9.91670625
20
30.35131875
30
0
42
0.2438386922531038
0
VERTEX
8
0
10
9.784190625
20
30.483834375
30
0
0
VERTEX
8
0
10
8.893834375
20
31.374190625
30
0
0
VERTEX
8
0
10
8.846400000000001
20
31.48870625
30
0
0
VERTEX
8
0
10
8.846400000000001
20
32.011290625
30
0
0
VERTEX
8
0
10
8.89993125
20
32.140528125
30
0
42
0.09849332019684784
0
VERTEX
8
0
10
8.9154
20
32.218290625
30
0
0
VERTEX
8
0
10
8.9154
20
33.663103125
30
0
42
0.6681786379192989
0
VERTEX
8
0
10
8.568515625
20
33.8067875
30
0
0
VERTEX
8
0
10
8.39694375
20
33.6352125
30
0
0
VERTEX
8
0
10
7.892828125
20
33.4264
30
0
0
VERTEX
8
0
10
7.347168750000001
20
33.4264
30
0
0
VERTEX
8
0
10
6.843053125
20
33.6352125
30
0
0
VERTEX
8
0
10
6.457212500000001
20
34.021053125
30
0
0
VERTEX
8
0
10
6.34213125
20
34.29888125
30
0
42
0.5540476828106252
0
VERTEX
8
0
10
6.0029
20
34.355368750000004
30
0
0
VERTEX
8
0
10
5.991859375000001
20
34.343065625
30
0
42
0.05338249485523249
0
VERTEX
8
0
10
5.967040625
20
34.300984375
30
0
0
VERTEX
8
0
10
5.777446875
20
34.490578125
30
0
42
0.09177503123834403
0
VERTEX
8
0
10
5.8420000000000005
20
34.760565625
30
0
0
VERTEX
8
0
10
5.8420000000000005
20
36.359434375
30
0
42
0.3044751469716126
0
VERTEX
8
0
10
5.3340000000000005
20
37.0412375
30
0
0
VERTEX
8
0
10
5.3340000000000005
20
37.30775
30
0
0
VERTEX
8
0
10
5.4700218750000005
20
37.26355625
30
0
0
VERTEX
8
0
10
5.612484375
20
37.190965625000004
30
0
0
VERTEX
8
0
10
5.741878125
20
37.096956250000005
30
0
0
VERTEX
8
0
10
5.85495625
20
36.983878125000004
30
0
0
VERTEX
8
0
10
5.9489656250000005
20
36.854487500000005
30
0
42
0.7352884124479374
0
VERTEX
8
0
10
6.34213125
20
36.821115625000004
30
0
0
VERTEX
8
0
10
6.457212500000001
20
37.098943750000004
30
0
0
VERTEX
8
0
10
6.843053125
20
37.484784375000004
30
0
0
VERTEX
8
0
10
7.347168750000001
20
37.693596875000004
30
0
0
VERTEX
8
0
10
7.892828125
20
37.693596875000004
30
0
0
VERTEX
8
0
10
8.39694375
20
37.484784375000004
30
0
0
VERTEX
8
0
10
8.746315625000001
20
37.1354125
30
0
42
0.41421356237309503
0
VERTEX
8
0
10
9.033684375
20
37.1354125
30
0
0
VERTEX
8
0
10
9.383053125
20
37.484784375000004
30
0
0
VERTEX
8
0
10
9.88716875
20
37.693596875000004
30
0
0
VERTEX
8
0
10
10.449300000000001
20
37.693596875000004
30
0
42
0.19891519361010276
0
VERTEX
8
0
10
10.592984375
20
37.753115625
30
0
0
VERTEX
8
0
10
10.72498125
20
37.885115625000005
30
0
0
VERTEX
8
0
10
10.913178125
20
37.963065625
30
0
42
0.8206840204897636
0
VERTEX
8
0
10
10.83541875
20
38.354
30
0
0
VERTEX
8
0
10
1.219196875
20
38.354
30
0
42
0.41421356237309503
0
VERTEX
8
0
10
1.0159968750000001
20
38.150800000000004
30
0
0
VERTEX
8
0
10
1.0159968750000001
20
-2.5908
30
0
42
0.41421356237309503
0
VERTEX
8
0
10
1.219196875
20
-2.794
30
0
0
VERTEX
8
0
10
39.4208
20
-2.794
30
0
42
0.41421356237309503
0
VERTEX
8
0
10
39.624
20
-2.5908
30
0
0
VERTEX
8
0
10
39.624
20
38.150800000000004
30
0
42
0.41421356237309503
0
VERTEX
8
0
10
39.4208
20
38.354
30
0
0
VERTEX
8
0
10
19.72280625
20
38.354
30
0
42
0.6681786379192989
0
VERTEX
8
0
10
19.579121875000002
20
38.007115625000004
30
0
0
VERTEX
8
0
10
20.256496875
20
37.32974375
30
0
0
VERTEX
8
0
10
20.256496875
20
37.033212500000005
30
0
0
VERTEX
8
0
10
20.0025
20
37.033212500000005
30
0
0
VERTEX
8
0
10
20.0025
20
37.224537500000004
30
0
0
SEQEND
0
POLYLINE
66
1
8
1_copper
10
0.0
20
0.0
30
0.0
70
1
0
VERTEX
8
0
10
4.063996875
20
35.814
30
0
0
VERTEX
8
0
10
4.064
20
36.40196875
30
0
0
VERTEX
8
0
10
4.089015625
20
36.5599
30
0
0
VERTEX
8
0
10
4.138440625
20
36.712021875000005
30
0
0
VERTEX
8
0
10
4.2110312500000004
20
36.854484375
30
0
0
VERTEX
8
0
10
4.305040625
20
36.983878125000004
30
0
0
VERTEX
8
0
10
4.4181187500000005
20
37.096956250000005
30
0
0
VERTEX
8
0
10
4.5475125
20
37.190965625000004
30
0
0
VERTEX
8
0
10
4.6899750000000004
20
37.26355625
30
0
0
VERTEX
8
0
10
4.82599375
20
37.30775
30
0
0
VERTEX
8
0
10
4.82599375
20
37.041234375
30
0
42
0.30447266367912973
0
VERTEX
8
0
10
4.3180000000000005
20
36.359434375
30
0
0
VERTEX
8
0
10
4.3180000000000005
20
35.814
30
0
0
SEQEND
0
POLYLINE
66
1
8
1_copper
10
0.0
20
0.0
30
0.0
70
1
0
VERTEX
8
0
10
19.254071875
20
-1.8796000000000002
30
0
0
VERTEX
8
0
10
18.360940625
20
-0.98646875
30
0
0
VERTEX
8
0
10
18.298009375
20
-0.834534375
30
0
42
0.1323421444777269
0
VERTEX
8
0
10
18.233540625
20
-0.75075
30
0
0
VERTEX
8
0
10
18.221565625
20
-0.743175
30
0
42
0.2431279017410739
0
VERTEX
8
0
10
18.02199375
20
-0.729984375
30
0
0
VERTEX
8
0
10
18.008653125000002
20
-0.73633125
30
0
42
0.027921495082891497
0
VERTEX
8
0
10
17.9832
20
-0.7433437500000001
30
0
0
VERTEX
8
0
10
17.9832
20
-0.25
30
0
42
0.43957203864512717
0
VERTEX
8
0
10
18.23463125
20
-0.079009375
30
0
0
VERTEX
8
0
10
18.2372
20
-0.0468
30
0
42
0.5470996305663492
0
VERTEX
8
0
10
18.034000000000002
20
0.25
30
0
0
VERTEX
8
0
10
17.91
20
0.25
30
0
0
VERTEX
8
0
10
17.91
20
0.5
30
0
0
VERTEX
8
0
10
17.61
20
0.5
30
0
0
VERTEX
8
0
10
17.61
20
0.753996875
30
0
0
VERTEX
8
0
10
17.9259625
20
0.753996875
30
0
42
0.6681786379192989
0
VERTEX
8
0
10
18.069646875
20
1.10088125
30
0
0
VERTEX
8
0
10
17.502840625
20
1.667684375
30
0
42
0.198912367379658
0
VERTEX
8
0
10
17.35915625
20
1.7272
30
0
0
VERTEX
8
0
10
13.767418750000001
20
1.7272
30
0
42
0.198912367379658
0
VERTEX
8
0
10
13.623734375000002
20
1.667684375
30
0
0
VERTEX
8
0
10
13.419396875
20
1.463346875
30
0
42
0.5619483542666459
0
VERTEX
8
0
10
13.342115625
20
1.12499375
30
0
0
VERTEX
8
0
10
13.348496875
20
1.1182218750000001
30
0
42
0.09257678111972395
0
VERTEX
8
0
10
13.419396875
20
1.07665
30
0
0
VERTEX
8
0
10
13.623734375000002
20
0.8723125
30
0
42
0.198912367379658
0
VERTEX
8
0
10
13.767418750000001
20
0.8127968750000001
30
0
0
VERTEX
8
0
10
14.476528125000002
20
0.8127968750000001
30
0
42
0.19891519361010276
0
VERTEX
8
0
10
14.620212500000001
20
0.872315625
30
0
0
VERTEX
8
0
10
14.764684375
20
1.016790625
30
0
0
VERTEX
8
0
10
14.988740625
20
1.109596875
30
0
0
VERTEX
8
0
10
16.33125625
20
1.109596875
30
0
0
VERTEX
8
0
10
16.55530625
20
1.01679375
30
0
0
VERTEX
8
0
10
16.743578125
20
0.8285218750000001
30
0
42
0.22457264894866227
0
VERTEX
8
0
10
16.9003875
20
0.753996875
30
0
0
VERTEX
8
0
10
17.10999375
20
0.753996875
30
0
0
VERTEX
8
0
10
17.10999375
20
0.5
30
0
0
VERTEX
8
0
10
16.810000000000002
20
0.5
30
0
0
VERTEX
8
0
10
16.810000000000002
20
-0.5
30
0
0
VERTEX
8
0
10
17.10999375
20
-0.5
30
0
0
VERTEX
8
0
10
17.10999375
20
-0.753996875
30
0
0
VERTEX
8
0
10
16.9003875
20
-0.753996875
30
0
42
0.2237061041258945
0
VERTEX
8
0
10
16.742625
20
-0.8294750000000001
30
0
0
VERTEX
8
0
10
16.55530625
20
-1.01679375
30
0
0
VERTEX
8
0
10
16.434578125
20
-1.0668
30
0
0
VERTEX
8
0
10
14.885418750000001
20
-1.0668
30
0
0
VERTEX
8
0
10
14.764684375
20
-1.016790625
30
0
0
VERTEX
8
0
10
14.620212500000001
20
-0.872315625
30
0
42
0.19891519361010276
0
VERTEX
8
0
10
14.476528125000002
20
-0.8127968750000001
30
0
0
VERTEX
8
0
10
13.767418750000001
20
-0.8127968750000001
30
0
42
0.198912367379658
0
VERTEX
8
0
10
13.623734375000002
20
-0.8723125
30
0
0
VERTEX
8
0
10
13.429246875
20
-1.0668
30
0
0
VERTEX
8
0
10
11.97075
20
-1.0668
30
0
0
VERTEX
8
0
10
11.62334375
20
-0.71939375
30
0
0
VERTEX
8
0
10
11.437084375000001
20
-0.269721875
30
0
42
0.5345132620753135
0
VERTEX
8
0
10
11.105668750000001
20
-0.20379687500000002
30
0
0
VERTEX
8
0
10
10.620409375000001
20
-0.689059375
30
0
0
VERTEX
8
0
10
10.321678125
20
-0.8127968750000001
30
0
0
VERTEX
8
0
10
6.17281875
20
-0.8127968750000001
30
0
42
0.198912367379658
0
VERTEX
8
0
10
6.029134375
20
-0.8723125
30
0
0
VERTEX
8
0
10
5.834646875000001
20
-1.0668
30
0
0
VERTEX
8
0
10
3.0553500000000002
20
-1.0668
30
0
0
VERTEX
8
0
10
2.70794375
20
-0.71939375
30
0
0
VERTEX
8
0
10
2.5146
20
-0.25261875
30
0
0
VERTEX
8
0
10
2.5146
20
0.25261875
30
0
0
VERTEX
8
0
10
2.70794375
20
0.71939375
30
0
0
VERTEX
8
0
10
3.0553500000000002
20
1.0668
30
0
0
VERTEX
8
0
10
5.834646875000001
20
1.0668
30
0
0
VERTEX
8
0
10
6.029134375
20
0.8723125
30
0
42
0.198912367379658
0
VERTEX
8
0
10
6.17281875
20
0.8127968750000001
30
0
0
VERTEX
8
0
10
9.73915625
20
0.8127968750000001
30
0
42
0.198912367379658
0
VERTEX
8
0
10
9.882840625
20
0.8723125
30
0
0
VERTEX
8
0
10
11.370484375
20
2.35995625
30
0
42
0.198912367379658
0
VERTEX
8
0
10
11.43
20
2.503640625
30
0
0
VERTEX
8
0
10
11.43
20
2.79261875
30
0
0
VERTEX
8
0
10
11.497184375
20
2.954815625
30
0
0
VERTEX
8
0
10
12.149168750000001
20
3.6068000000000002
30
0
0
VERTEX
8
0
10
13.226056250000001
20
3.6068000000000002
30
0
42
0.1790211619919043
0
VERTEX
8
0
10
13.369584375
20
3.6425343750000003
30
0
0
VERTEX
8
0
10
13.377062500000001
20
3.6369687500000003
30
0
42
0.05357591597378447
0
VERTEX
8
0
10
13.419396875
20
3.6166500000000004
30
0
0
VERTEX
8
0
10
13.623734375000002
20
3.4123125
30
0
42
0.198912367379658
0
VERTEX
8
0
10
13.767418750000001
20
3.352796875
30
0
0
VERTEX
8
0
10
17.35915625
20
3.352796875
30
0
42
0.198912367379658
0
VERTEX
8
0
10
17.502840625
20
3.4123125
30
0
0
VERTEX
8
0
10
18.990484375
20
4.89995625
30
0
42
0.198912367379658
0
VERTEX
8
0
10
19.05
20
5.043640625
30
0
0
VERTEX
8
0
10
19.05
20
5.33261875
30
0
0
VERTEX
8
0
10
19.24334375
20
5.79939375
30
0
0
VERTEX
8
0
10
19.600603125
20
6.156653125
30
0
0
VERTEX
8
0
10
20.086040625000003
20
6.357725
30
0
42
0.6988743411961533
0
VERTEX
8
0
10
20.072034375
20
6.7391125
30
0
0
VERTEX
8
0
10
19.968978125
20
6.7725968750000005
30
0
0
VERTEX
8
0
10
19.84075
20
6.837934375000001
30
0
0
VERTEX
8
0
10
19.7243125
20
6.922528125
30
0
0
VERTEX
8
0
10
19.622528125000002
20
7.024312500000001
30
0
0
VERTEX
8
0
10
19.537934375000003
20
7.140750000000001
30
0
0
VERTEX
8
0
10
19.472596875
20
7.268978125
30
0
0
VERTEX
8
0
10
19.4281125
20
7.4058906250000005
30
0
0
VERTEX
8
0
10
19.4263875
20
7.4167812500000005
30
0
0
VERTEX
8
0
10
20.319965625000002
20
7.4167812500000005
30
0
42
0.4143081503068603
0
VERTEX
8
0
10
20.5232125
20
7.62003125
30
0
0
VERTEX
8
0
10
20.5232125
20
8.513609375
30
0
42
0.4899390446878349
0
VERTEX
8
0
10
20.7772
20
8.711296875
30
0
0
VERTEX
8
0
10
20.7772
20
13.07124375
30
0
42
0.09849332019684784
0
VERTEX
8
0
10
20.76173125
20
13.149006250000001
30
0
0
VERTEX
8
0
10
20.733600000000003
20
13.216921875
30
0
0
VERTEX
8
0
10
20.733600000000003
20
15.358078125
30
0
0
VERTEX
8
0
10
20.8573375
20
15.656809375
30
0
0
VERTEX
8
0
10
21.114565625
20
15.914037500000001
30
0
0
VERTEX
8
0
10
21.486884375000002
20
16.286353125
30
0
42
0.198912367379658
0
VERTEX
8
0
10
21.546400000000002
20
16.4300375
30
0
0
VERTEX
8
0
10
21.546400000000002
20
16.771290625000002
30
0
0
VERTEX
8
0
10
21.746381250000002
20
17.254090625
30
0
0
VERTEX
8
0
10
22.12860625
20
17.636315625
30
0
42
0.41421356237309503
0
VERTEX
8
0
10
22.12860625
20
17.923684375
30
0
0
VERTEX
8
0
10
21.746381250000002
20
18.30590625
30
0
0
VERTEX
8
0
10
21.546400000000002
20
18.78870625
30
0
0
VERTEX
8
0
10
21.546400000000002
20
19.311290625
30
0
0
VERTEX
8
0
10
21.746381250000002
20
19.794090625000003
30
0
0
VERTEX
8
0
10
21.987684375
20
20.03539375
30
0
42
0.198912367379658
0
VERTEX
8
0
10
22.0472
20
20.179078125
30
0
0
VERTEX
8
0
10
22.0472
20
20.46091875
30
0
42
0.198912367379658
0
VERTEX
8
0
10
21.987684375
20
20.604603125
30
0
0
VERTEX
8
0
10
21.746381250000002
20
20.845906250000002
30
0
0
VERTEX
8
0
10
21.546400000000002
20
21.32870625
30
0
0
VERTEX
8
0
10
21.546400000000002
20
21.851290625
30
0
0
VERTEX
8
0
10
21.746381250000002
20
22.334090625
30
0
0
VERTEX
8
0
10
22.12860625
20
22.716315625
30
0
42
0.41421356237309503
0
VERTEX
8
0
10
22.12860625
20
23.003684375000002
30
0
0
VERTEX
8
0
10
21.746381250000002
20
23.38590625
30
0
0
VERTEX
8
0
10
21.546400000000002
20
23.868706250000002
30
0
0
VERTEX
8
0
10
21.546400000000002
20
24.391290625
30
0
0
VERTEX
8
0
10
21.746381250000002
20
24.874090625
30
0
0
VERTEX
8
0
10
22.12860625
20
25.256315625000003
30
0
42
0.41421356237309503
0
VERTEX
8
0
10
22.12860625
20
25.543684375
30
0
0
VERTEX
8
0
10
21.746381250000002
20
25.92590625
30
0
0
VERTEX
8
0
10
21.563715625
20
26.366903125
30
0
42
0.5345132620753135
0
VERTEX
8
0
10
21.232300000000002
20
26.432828125
30
0
0
VERTEX
8
0
10
11.533112500000001
20
16.733640625
30
0
42
0.198912367379658
0
VERTEX
8
0
10
11.473596875
20
16.58995625
30
0
0
VERTEX
8
0
10
11.473596875
20
16.24870625
30
0
0
VERTEX
8
0
10
11.273615625
20
15.76590625
30
0
0
VERTEX
8
0
10
10.904090625
20
15.396381250000001
30
0
0
VERTEX
8
0
10
10.518862500000001
20
15.236815625
30
0
42
0.6442050560414677
0
VERTEX
8
0
10
10.521884375
20
14.860793750000001
30
0
0
VERTEX
8
0
10
10.662096875000001
20
14.789353125
30
0
0
VERTEX
8
0
10
10.784096875000001
20
14.700715625
30
0
0
VERTEX
8
0
10
10.890715625
20
14.594096875
30
0
0
VERTEX
8
0
10
10.979353125000001
20
14.472096875
30
0
0
VERTEX
8
0
10
11.047812500000001
20
14.337734375
30
0
0
VERTEX
8
0
10
11.094190625000001
20
14.195
30
0
0
VERTEX
8
0
10
10.18181875
20
14.195
30
0
42
0.47204778039471107
0
VERTEX
8
0
10
9.93499375
20
13.948178125
30
0
0
VERTEX
8
0
10
9.93499375
20
13.03580625
30
0
0
VERTEX
8
0
10
9.7922625
20
13.082184375
30
0
0
VERTEX
8
0
10
9.6579
20
13.15064375
30
0
0
VERTEX
8
0
10
9.5359
20
13.239281250000001
30
0
0
VERTEX
8
0
10
9.42928125
20
13.3459
30
0
0
VERTEX
8
0
10
9.34064375
20
13.4679
30
0
0
VERTEX
8
0
10
9.272184375
20
13.6022625
30
0
0
VERTEX
8
0
10
9.2255875
20
13.745665625
30
0
0
VERTEX
8
0
10
9.202
20
13.89459375
30
0
42
0.699463550688076
0
VERTEX
8
0
10
8.855115625
20
14.055646875
30
0
0
VERTEX
8
0
10
7.4399500000000005
20
12.64048125
30
0
42
0.6681786379192989
0
VERTEX
8
0
10
7.583634375
20
12.293596875
30
0
0
VERTEX
8
0
10
7.892828125
20
12.293596875
30
0
0
VERTEX
8
0
10
8.39694375
20
12.084784375
30
0
0
VERTEX
8
0
10
8.782784375
20
11.69894375
30
0
0
VERTEX
8
0
10
8.897865625
20
11.421112500000001
30
0
42
0.554215674955936
0
VERTEX
8
0
10
9.237165625000001
20
11.364703125
30
0
0
VERTEX
8
0
10
9.2481375
20
11.376928125000001
30
0
42
0.1010584466352356
0
VERTEX
8
0
10
9.2910375
20
11.454493750000001
30
0
0
VERTEX
8
0
10
9.385040625
20
11.583878125
30
0
0
VERTEX
8
0
10
9.49811875
20
11.696956250000001
30
0
0
VERTEX
8
0
10
9.6275125
20
11.790965625
30
0
0
VERTEX
8
0
10
9.769975
20
11.86355625
30
0
0
VERTEX
8
0
10
9.90599375
20
11.90775
30
0
0
VERTEX
8
0
10
9.90599375
20
11.641234375
30
0
42
0.30447266367912973
0
VERTEX
8
0
10
9.398
20
10.959434375
30
0
0
VERTEX
8
0
10
9.398
20
9.360565625000001
30
0
42
0.30447266367912973
0
VERTEX
8
0
10
9.90599375
20
8.678765625
30
0
0
VERTEX
8
0
10
9.90599375
20
8.412246875000001
30
0
0
VERTEX
8
0
10
9.76998125
20
8.4564375
30
0
42
0.2332933670347947
0
VERTEX
8
0
10
9.577878125
20
8.465528125
30
0
0
VERTEX
8
0
10
9.565771875000001
20
8.458428125000001
30
0
42
0.29812125144681745
0
VERTEX
8
0
10
9.462731250000001
20
8.261646875
30
0
0
VERTEX
8
0
10
9.465362500000001
20
8.247796875
30
0
42
0.14114713529004194
0
VERTEX
8
0
10
9.5212375
20
8.138228125000001
30
0
0
VERTEX
8
0
10
9.60761875
20
8.05185
30
0
0
VERTEX
8
0
10
9.607637500000001
20
8.051828125
30
0
0
VERTEX
8
0
10
10.016315625
20
7.643153125
30
0
42
0.41421356237309503
0
VERTEX
8
0
10
10.303684375000001
20
7.643153125
30
0
0
VERTEX
8
0
10
10.712359375
20
8.051828125
30
0
0
VERTEX
8
0
10
10.712375
20
8.051846875
30
0
0
VERTEX
8
0
10
10.798759375000001
20
8.138228125000001
30
0
42
0.14482180081845597
0
VERTEX
8
0
10
10.8551625
20
8.251043750000001
30
0
0
VERTEX
8
0
10
10.85756875
20
8.264934375000001
30
0
42
0.27928657815879976
0
VERTEX
8
0
10
10.763887500000001
20
8.453528125
30
0
0
VERTEX
8
0
10
10.751365625
20
8.460006250000001
30
0
42
0.24577752737083397
0
VERTEX
8
0
10
10.550015625
20
8.4564375
30
0
0
VERTEX
8
0
10
10.414
20
8.412246875000001
30
0
0
VERTEX
8
0
10
10.414
20
8.678762500000001
30
0
42
0.3044751469716126
0
VERTEX
8
0
10
10.922
20
9.360565625000001
30
0
0
VERTEX
8
0
10
10.922
20
9.90599375
30
0
0
VERTEX
8
0
10
11.175996875000001
20
9.90599375
30
0
0
VERTEX
8
0
10
11.175996875000001
20
9.318028125
30
0
0
VERTEX
8
0
10
11.150981250000001
20
9.160096875
30
0
0
VERTEX
8
0
10
11.10155625
20
9.007975
30
0
0
VERTEX
8
0
10
11.028965625
20
8.865512500000001
30
0
0
VERTEX
8
0
10
10.93495625
20
8.736121875
30
0
42
0.9142915823633652
0
VERTEX
8
0
10
11.12521875
20
8.373521875
30
0
0
VERTEX
8
0
10
11.268321875
20
8.432796875000001
30
0
0
VERTEX
8
0
10
11.632578125
20
8.432796875000001
30
0
42
0.198912367379658
0
VERTEX
8
0
10
11.776262500000001
20
8.4923125
30
0
0
VERTEX
8
0
10
11.980603125
20
8.696653125000001
30
0
0
VERTEX
8
0
10
12.447378125
20
8.889996875
30
0
0
VERTEX
8
0
10
12.952618750000001
20
8.889996875
30
0
0
VERTEX
8
0
10
13.419393750000001
20
8.696653125000001
30
0
0
VERTEX
8
0
10
13.7668
20
8.349246875
30
0
0
VERTEX
8
0
10
13.7668
20
6.890750000000001
30
0
0
VERTEX
8
0
10
13.419396875
20
6.543346875
30
0
42
0.5619152265317648
0
VERTEX
8
0
10
13.34209375
20
6.20500625
30
0
0
VERTEX
8
0
10
13.348503125
20
6.19820625
30
0
42
0.09256389098542384
0
VERTEX
8
0
10
13.419400000000001
20
6.156646875
30
0
0
VERTEX
8
0
10
13.7668
20
5.809246875
30
0
0
VERTEX
8
0
10
13.7668
20
4.6381125
30
0
0
VERTEX
8
0
10
13.141887500000001
20
4.0132
30
0
0
VERTEX
8
0
10
12.065000000000001
20
4.0132
30
0
42
0.10326913052412184
0
VERTEX
8
0
10
11.980590625000001
20
4.003353125
30
0
0
VERTEX
8
0
10
11.88539375
20
4.0985531250000005
30
0
42
0.4142231176680115
0
VERTEX
8
0
10
11.598021875
20
4.0985531250000005
30
0
0
VERTEX
8
0
10
11.512634375000001
20
4.0131625
30
0
0
VERTEX
8
0
10
11.3791125
20
3.8796406250000004
30
0
42
0.198912367379658
0
VERTEX
8
0
10
11.319596875
20
3.73595625
30
0
0
VERTEX
8
0
10
11.319596875
20
3.6087406250000003
30
0
0
VERTEX
8
0
10
11.22679375
20
3.384690625
30
0
0
VERTEX
8
0
10
11.055306250000001
20
3.213203125
30
0
0
VERTEX
8
0
10
10.831256250000001
20
3.1204
30
0
0
VERTEX
8
0
10
10.7040375
20
3.1204
30
0
42
0.198912367379658
0
VERTEX
8
0
10
10.560353125
20
3.060884375
30
0
0
VERTEX
8
0
10
9.607637500000001
20
2.1081656250000003
30
0
0
VERTEX
8
0
10
9.350409375
20
1.8509375000000001
30
0
0
VERTEX
8
0
10
9.051678125
20
1.7272
30
0
0
VERTEX
8
0
10
6.17281875
20
1.7272
30
0
42
0.198912367379658
0
VERTEX
8
0
10
6.029134375
20
1.667684375
30
0
0
VERTEX
8
0
10
5.83465
20
1.4732
30
0
0
VERTEX
8
0
10
3.055346875
20
1.4732
30
0
0
VERTEX
8
0
10
2.70794375
20
1.820603125
30
0
0
VERTEX
8
0
10
2.5146
20
2.287378125
30
0
0
VERTEX
8
0
10
2.5146
20
2.79261875
30
0
0
VERTEX
8
0
10
2.70794375
20
3.25939375
30
0
0
VERTEX
8
0
10
3.0652000000000004
20
3.6166500000000004
30
0
42
0.5619104380842326
0
VERTEX
8
0
10
3.1425
20
3.954990625
30
0
0
VERTEX
8
0
10
3.13609375
20
3.9617875000000002
30
0
42
0.0925614517348298
0
VERTEX
8
0
10
3.0652000000000004
20
4.003346875
30
0
0
VERTEX
8
0
10
2.70794375
20
4.360603125
30
0
0
VERTEX
8
0
10
2.5146
20
4.827378125
30
0
0
VERTEX
8
0
10
2.5146
20
5.33261875
30
0
0
VERTEX
8
0
10
2.70794375
20
5.79939375
30
0
0
VERTEX
8
0
10
3.065203125
20
6.156653125
30
0
0
VERTEX
8
0
10
3.531978125
20
6.349996875
30
0
0
VERTEX
8
0
10
5.35801875
20
6.349996875
30
0
0
VERTEX
8
0
10
5.82479375
20
6.156653125
30
0
0
VERTEX
8
0
10
6.182053125
20
5.79939375
30
0
0
VERTEX
8
0
10
6.375396875000001
20
5.33261875
30
0
0
VERTEX
8
0
10
6.375396875000001
20
4.827378125
30
0
0
VERTEX
8
0
10
6.182053125
20
4.360603125
30
0
0
VERTEX
8
0
10
5.8247968750000005
20
4.003346875
30
0
42
0.5619483542666459
0
VERTEX
8
0
10
5.747515625
20
3.6649937500000003
30
0
0
VERTEX
8
0
10
5.753896875000001
20
3.658221875
30
0
42
0.09257678111972395
0
VERTEX
8
0
10
5.8247968750000005
20
3.6166500000000004
30
0
0
VERTEX
8
0
10
6.029134375
20
3.4123125
30
0
42
0.198912367379658
0
VERTEX
8
0
10
6.17281875
20
3.352796875
30
0
0
VERTEX
8
0
10
8.469156250000001
20
3.352796875
30
0
42
0.198912367379658
0
VERTEX
8
0
10
8.612840625
20
3.4123125
30
0
0
VERTEX
8
0
10
8.940884375
20
3.7403531250000004
30
0
42
0.198912367379658
0
VERTEX
8
0
10
9.0004
20
3.8840375000000003
30
0
0
VERTEX
8
0
10
9.0004
20
4.8512562500000005
30
0
0
VERTEX
8
0
10
9.0629375
20
5.0022343750000005
30
0
42
0.19891262182077102
0
VERTEX
8
0
10
9.0629375
20
5.15775625
30
0
0
VERTEX
8
0
10
9.0004
20
5.3087375
30
0
0
VERTEX
8
0
10
9.0004
20
6.275959375
30
0
42
0.198912367379658
0
VERTEX
8
0
10
8.940884375
20
6.4196437500000005
30
0
0
VERTEX
8
0
10
8.61284375
20
6.747684375
30
0
42
0.198912367379658
0
VERTEX
8
0
10
8.469159375
20
6.8072
30
0
0
VERTEX
8
0
10
7.29658125
20
6.8072
30
0
0
VERTEX
8
0
10
6.997850000000001
20
6.930937500000001
30
0
0
VERTEX
8
0
10
6.740621875
20
7.188165625000001
30
0
0
VERTEX
8
0
10
5.83743125
20
8.091359375
30
0
42
0.3033487567235335
0
VERTEX
8
0
10
5.615984375
20
8.13540625
30
0
0
VERTEX
8
0
10
5.352828125
20
8.0264
30
0
0
VERTEX
8
0
10
4.807168750000001
20
8.0264
30
0
0
VERTEX
8
0
10
4.303053125
20
8.235212500000001
30
0
0
VERTEX
8
0
10
3.9172125
20
8.621053125
30
0
0
VERTEX
8
0
10
3.7084
20
9.12516875
30
0
0
VERTEX
8
0
10
3.7084
20
11.194828125
30
0
0
VERTEX
8
0
10
3.9172125
20
11.69894375
30
0
0
VERTEX
8
0
10
4.303053125
20
12.084784375
30
0
0
VERTEX
8
0
10
4.7475625
20
12.26890625
30
0
42
0.09848948651819747
0
VERTEX
8
0
10
4.813484375
20
12.312953125
30
0
0
VERTEX
8
0
10
8.786884375
20
16.28635625
30
0
42
0.198912367379658
0
VERTEX
8
0
10
8.846400000000001
20
16.430040625
30
0
0
VERTEX
8
0
10
8.846400000000001
20
16.771290625000002
30
0
0
VERTEX
8
0
10
9.04638125
20
17.254090625
30
0
0
VERTEX
8
0
10
9.250809375000001
20
17.458515625
30
0
42
0.6681786379192989
0
VERTEX
8
0
10
9.107125
20
17.805400000000002
30
0
0
VERTEX
8
0
10
6.46185
20
17.805400000000002
30
0
42
0.09849332019684784
0
VERTEX
8
0
10
6.384087500000001
20
17.789931250000002
30
0
0
VERTEX
8
0
10
6.114828125000001
20
17.6784
30
0
0
VERTEX
8
0
10
4.04516875
20
17.6784
30
0
0
VERTEX
8
0
10
3.5410531250000004
20
17.8872125
30
0
0
VERTEX
8
0
10
3.1552125
20
18.273053125
30
0
0
VERTEX
8
0
10
2.9464
20
18.77716875
30
0
0
VERTEX
8
0
10
2.9464
20
19.322828125
30
0
0
VERTEX
8
0
10
3.1552125
20
19.82694375
30
0
0
VERTEX
8
0
10
3.5045843750000003
20
20.176315625
30
0
42
0.41421356237309503
0
VERTEX
8
0
10
3.5045843750000003
20
20.463684375
30
0
0
VERTEX
8
0
10
3.1552125
20
20.813053125
30
0
0
VERTEX
8
0
10
2.9464
20
21.31716875
30
0
0
VERTEX
8
0
10
2.9464
20
21.862828125
30
0
0
VERTEX
8
0
10
3.1552125
20
22.36694375
30
0
0
VERTEX
8
0
10
3.5045843750000003
20
22.716315625
30
0
42
0.41421356237309503
0
VERTEX
8
0
10
3.5045843750000003
20
23.003684375000002
30
0
0
VERTEX
8
0
10
3.1552125
20
23.353053125000002
30
0
0
VERTEX
8
0
10
2.9464
20
23.85716875
30
0
0
VERTEX
8
0
10
2.9464
20
24.402828125000003
30
0
0
VERTEX
8
0
10
3.1552125
20
24.90694375
30
0
0
VERTEX
8
0
10
3.5045843750000003
20
25.256315625000003
30
0
42
0.41421356237309503
0
VERTEX
8
0
10
3.5045843750000003
20
25.543684375
30
0
0
VERTEX
8
0
10
3.1552125
20
25.893053125
30
0
0
VERTEX
8
0
10
2.9464
20
26.397168750000002
30
0
0
VERTEX
8
0
10
2.9464
20
26.942828125000002
30
0
0
VERTEX
8
0
10
3.1552125
20
27.446943750000003
30
0
0
VERTEX
8
0
10
3.5410531250000004
20
27.832784375000003
30
0
0
VERTEX
8
0
10
4.04516875
20
28.041596875
30
0
0
VERTEX
8
0
10
6.114828125000001
20
28.041596875
30
0
0
VERTEX
8
0
10
6.384087500000001
20
27.930065625
30
0
42
0.09849332019684784
0
VERTEX
8
0
10
6.46185
20
27.914596875
30
0
0
VERTEX
8
0
10
9.691709375
20
27.914596875
30
0
42
0.8504917127167131
0
VERTEX
8
0
10
9.7981125
20
28.319203125
30
0
0
VERTEX
8
0
10
9.6579
20
28.390643750000002
30
0
0
VERTEX
8
0
10
9.5359
20
28.47928125
30
0
0
VERTEX
8
0
10
9.42928125
20
28.585900000000002
30
0
0
VERTEX
8
0
10
9.34064375
20
28.707900000000002
30
0
0
VERTEX
8
0
10
9.272184375
20
28.8422625
30
0
0
VERTEX
8
0
10
9.22580625
20
28.98499375
30
0
0
VERTEX
8
0
10
9.486981250000001
20
28.98499375
30
0
0
VERTEX
8
0
10
9.7109875
20
28.760987500000002
30
0
42
0.198912367379658
0
VERTEX
8
0
10
10.16
20
28.575000000000003
30
0
0
VERTEX
8
0
10
10.879815625
20
28.575000000000003
30
0
0
VERTEX
8
0
10
10.784096875000001
20
28.47928125
30
0
0
VERTEX
8
0
10
10.662096875000001
20
28.390643750000002
30
0
0
VERTEX
8
0
10
10.520531250000001
20
28.3185125
30
0
42
0.6708509403520795
0
VERTEX
8
0
10
10.518862500000001
20
27.943181250000002
30
0
0
VERTEX
8
0
10
10.904090625
20
27.783615625000003
30
0
0
VERTEX
8
0
10
11.273615625
20
27.414090625
30
0
0
VERTEX
8
0
10
11.473596875
20
26.931290625000003
30
0
0
VERTEX
8
0
10
11.473596875
20
26.40870625
30
0
0
VERTEX
8
0
10
11.273615625
20
25.92590625
30
0
0
VERTEX
8
0
10
10.891390625
20
25.543681250000002
30
0
42
0.41421356237309503
0
VERTEX
8
0
10
10.891390625
20
25.2563125
30
0
0
VERTEX
8
0
10
11.273615625
20
24.874090625
30
0
0
VERTEX
8
0
10
11.473596875
20
24.391290625
30
0
0
VERTEX
8
0
10
11.473596875
20
23.868706250000002
30
0
0
VERTEX
8
0
10
11.273615625
20
23.38590625
30
0
0
VERTEX
8
0
10
10.891390625
20
23.00368125
30
0
42
0.41421356237309503
0
VERTEX
8
0
10
10.891390625
20
22.7163125
30
0
0
VERTEX
8
0
10
11.273615625
20
22.334090625
30
0
0
VERTEX
8
0
10
11.473596875
20
21.851290625
30
0
0
VERTEX
8
0
10
11.473596875
20
21.32870625
30
0
0
VERTEX
8
0
10
11.273615625
20
20.845906250000002
30
0
0
VERTEX
8
0
10
10.891390625
20
20.46368125
30
0
42
0.41421356237309503
0
VERTEX
8
0
10
10.891390625
20
20.1763125
30
0
0
VERTEX
8
0
10
11.273615625
20
19.794090625000003
30
0
0
VERTEX
8
0
10
11.45628125
20
19.353090625
30
0
42
0.5345132620753135
0
VERTEX
8
0
10
11.787696875
20
19.287165625
30
0
0
VERTEX
8
0
10
20.082684375
20
27.582153125
30
0
42
0.198912367379658
0
VERTEX
8
0
10
20.142200000000003
20
27.7258375
30
0
0
VERTEX
8
0
10
20.142200000000003
20
31.864390625000002
30
0
0
VERTEX
8
0
10
20.2659375
20
32.163121875
30
0
0
VERTEX
8
0
10
23.081875
20
34.979059375
30
0
0
VERTEX
8
0
10
23.38060625
20
35.102796875
30
0
0
VERTEX
8
0
10
29.032715625
20
35.102796875
30
0
42
0.30334848944388554
0
VERTEX
8
0
10
29.220446875
20
35.2282375
30
0
0
VERTEX
8
0
10
29.40334375
20
35.669793750000004
30
0
0
VERTEX
8
0
10
29.760603125000003
20
36.027053125
30
0
0
VERTEX
8
0
10
30.227378125
20
36.220396875
30
0
0
VERTEX
8
0
10
30.73261875
20
36.220396875
30
0
0
VERTEX
8
0
10
30.980746875
20
36.11761875
30
0
42
0.3033487567235335
0
VERTEX
8
0
10
31.202193750000003
20
36.161665625000005
30
0
0
VERTEX
8
0
10
31.949987500000002
20
36.909459375000004
30
0
0
VERTEX
8
0
10
32.24871875
20
37.033196875
30
0
0
VERTEX
8
0
10
33.707734375
20
37.033196875
30
0
0
VERTEX
8
0
10
34.006465625000004
20
36.909459375000004
30
0
0
VERTEX
8
0
10
34.97905
20
35.936875
30
0
42
0.41438977545819206
0
VERTEX
8
0
10
35.235743750000005
20
35.806496875
30
0
0
VERTEX
8
0
10
35.345878125
20
35.842284375
30
0
0
VERTEX
8
0
10
35.356781250000004
20
35.844009375
30
0
0
VERTEX
8
0
10
35.356781250000004
20
35.578871875000004
30
0
42
0.3117939855615763
0
VERTEX
8
0
10
34.8996
20
34.98284375
30
0
0
VERTEX
8
0
10
34.8996
20
33.597156250000005
30
0
42
0.3117939855615763
0
VERTEX
8
0
10
35.356781250000004
20
33.001128125
30
0
0
VERTEX
8
0
10
35.356781250000004
20
32.7359875
30
0
42
0.4899344475283609
0
VERTEX
8
0
10
35.102796875
20
32.5383
30
0
0
VERTEX
8
0
10
35.102796875
20
27.151696875000003
30
0
42
0.4899344475283609
0
VERTEX
8
0
10
35.356781250000004
20
26.954009375000002
30
0
0
VERTEX
8
0
10
35.356781250000004
20
26.688871875
30
0
42
0.3117939855615763
0
VERTEX
8
0
10
34.8996
20
26.09284375
30
0
0
VERTEX
8
0
10
34.8996
20
24.70715625
30
0
42
0.3117939855615763
0
VERTEX
8
0
10
35.356781250000004
20
24.111128125
30
0
0
VERTEX
8
0
10
35.356781250000004
20
23.8459875
30
0
42
0.4899344475283609
0
VERTEX
8
0
10
35.102796875
20
23.648300000000003
30
0
0
VERTEX
8
0
10
35.102796875
20
18.261696875000002
30
0
42
0.4899344475283609
0
VERTEX
8
0
10
35.356781250000004
20
18.064009375
30
0
0
VERTEX
8
0
10
35.356781250000004
20
17.798871875
30
0
42
0.3117939855615763
0
VERTEX
8
0
10
34.8996
20
17.20284375
30
0
0
VERTEX
8
0
10
34.8996
20
15.81715625
30
0
42
0.3117939855615763
0
VERTEX
8
0
10
35.356781250000004
20
15.221128125
30
0
0
VERTEX
8
0
10
35.356781250000004
20
14.9559875
30
0
42
0.4899344475283609
0
VERTEX
8
0
10
35.102796875
20
14.7583
30
0
0
VERTEX
8
0
10
35.102796875
20
9.371696875
30
0
42
0.4899344475283609
0
VERTEX
8
0
10
35.356781250000004
20
9.174009375
30
0
0
VERTEX
8
0
10
35.356781250000004
20
8.908871875
30
0
42
0.3117939855615763
0
VERTEX
8
0
10
34.8996
20
8.31284375
30
0
0
VERTEX
8
0
10
34.8996
20
6.92715625
30
0
42
0.2191917549630182
0
VERTEX
8
0
10
35.155665625000005
20
6.437103125
30
0
0
VERTEX
8
0
10
33.5953625
20
4.8768
30
0
0
VERTEX
8
0
10
32.24871875
20
4.8768
30
0
0
VERTEX
8
0
10
31.949987500000002
20
5.0005375
30
0
0
VERTEX
8
0
10
31.692759375
20
5.257765625
30
0
0
VERTEX
8
0
10
31.202193750000003
20
5.748334375000001
30
0
42
0.3033487567235335
0
VERTEX
8
0
10
30.980746875
20
5.79238125
30
0
0
VERTEX
8
0
10
30.73261875
20
5.6896
30
0
0
VERTEX
8
0
10
30.227378125
20
5.6896
30
0
0
VERTEX
8
0
10
29.760603125000003
20
5.88294375
30
0
0
VERTEX
8
0
10
29.40334375
20
6.240203125000001
30
0
0
VERTEX
8
0
10
29.220446875
20
6.681759375
30
0
42
0.30334848944388554
0
VERTEX
8
0
10
29.032715625
20
6.8072
30
0
0
VERTEX
8
0
10
28.360837500000002
20
6.8072
30
0
42
0.198912367379658
0
VERTEX
8
0
10
28.217153125000003
20
6.747684375
30
0
0
VERTEX
8
0
10
21.6495125
20
0.18004375
30
0
42
0.198912367379658
0
VERTEX
8
0
10
21.589996875
20
0.036359375
30
0
0
VERTEX
8
0
10
21.589996875
20
-0.254
30
0
42
0.41421356237309503
0
VERTEX
8
0
10
21.793196875
20
-0.4572
30
0
0
VERTEX
8
0
10
22.43915625
20
-0.4572
30
0
42
0.198912367379658
0
VERTEX
8
0
10
22.582840625
20
-0.39768437500000003
30
0
0
VERTEX
8
0
10
22.673484375
20
-0.307040625
30
0
42
0.198912367379658
0
VERTEX
8
0
10
22.733
20
-0.16335625
30
0
0
VERTEX
8
0
10
22.733
20
0.27788125
30
0
0
VERTEX
8
0
10
22.945678125
20
0.79133125
30
0
0
VERTEX
8
0
10
23.338665625
20
1.18431875
30
0
0
VERTEX
8
0
10
23.852115625
20
1.3969968750000001
30
0
0
VERTEX
8
0
10
24.407881250000003
20
1.3969968750000001
30
0
0
VERTEX
8
0
10
24.92133125
20
1.18431875
30
0
0
VERTEX
8
0
10
25.31431875
20
0.79133125
30
0
0
VERTEX
8
0
10
25.395425
20
0.595521875
30
0
42
0.5345132620753135
0
VERTEX
8
0
10
25.726840625
20
0.5295968750000001
30
0
0
VERTEX
8
0
10
26.238637500000003
20
1.041396875
30
0
0
VERTEX
8
0
10
26.46678125
20
1.041396875
30
0
0
VERTEX
8
0
10
26.46678125
20
0.7874
30
0
0
VERTEX
8
0
10
26.34385
20
0.7874
30
0
0
VERTEX
8
0
10
25.8826
20
0.32615
30
0
0
VERTEX
8
0
10
25.8826
20
-0.32615
30
0
0
VERTEX
8
0
10
25.969540625
20
-0.41309062500000004
30
0
0
VERTEX
8
0
10
25.7899375
20
-0.59269375
30
0
42
0.6758320350091446
0
VERTEX
8
0
10
25.395425
20
-0.595521875
30
0
0
VERTEX
8
0
10
25.31431875
20
-0.79133125
30
0
0
VERTEX
8
0
10
24.92133125
20
-1.18431875
30
0
0
VERTEX
8
0
10
24.407881250000003
20
-1.3969968750000001
30
0
0
VERTEX
8
0
10
23.966640625
20
-1.3969968750000001
30
0
42
0.198912367379658
0
VERTEX
8
0
10
23.82295625
20
-1.4565125
30
0
0
VERTEX
8
0
10
23.39986875
20
-1.8796000000000002
30
0
0
SEQEND
0
POLYLINE
66
1
8
1_copper
10
0.0
20
0.0
30
0.0
70
1
0
VERTEX
8
0
10
17.843500000000002
20
36.62678125
30
0
0
VERTEX
8
0
10
17.948756250000002
20
36.62678125
30
0
0
VERTEX
8
0
10
17.843500000000002
20
36.521525000000004
30
0
0
SEQEND
0
POLYLINE
66
1
8
1_copper
10
0.0
20
0.0
30
0.0
70
1
0
VERTEX
8
0
10
19.2532125
20
35.6235
30
0
0
VERTEX
8
0
10
19.2532125
20
35.877500000000005
30
0
0
VERTEX
8
0
10
19.444537500000003
20
35.877500000000005
30
0
0
VERTEX
8
0
10
20.0025
20
36.4354625
30
0
0
VERTEX
8
0
10
20.0025
20
36.62678125
30
0
0
VERTEX
8
0
10
20.256496875
20
36.62678125
30
0
0
VERTEX
8
0
10
20.256496875
20
36.330253125
30
0
0
VERTEX
8
0
10
19.54974375
20
35.6235
30
0
0
SEQEND
0
POLYLINE
66
1
8
1_copper
10
0.0
20
0.0
30
0.0
70
1
0
VERTEX
8
0
10
36.220400000000005
20
34.4932125
30
0
0
VERTEX
8
0
10
36.220400000000005
20
34.98284375
30
0
42
0.31179645523362176
0
VERTEX
8
0
10
35.7632125
20
35.578871875000004
30
0
0
VERTEX
8
0
10
35.7632125
20
35.844009375
30
0
0
VERTEX
8
0
10
35.77410625
20
35.842284375
30
0
0
VERTEX
8
0
10
35.911018750000004
20
35.7978
30
0
0
VERTEX
8
0
10
36.039246875
20
35.732462500000004
30
0
0
VERTEX
8
0
10
36.155684375
20
35.64786875
30
0
0
VERTEX
8
0
10
36.25746875
20
35.546084375
30
0
0
VERTEX
8
0
10
36.342062500000004
20
35.429646875
30
0
0
VERTEX
8
0
10
36.4074
20
35.30141875
30
0
0
VERTEX
8
0
10
36.451884375
20
35.16450625
30
0
0
VERTEX
8
0
10
36.474396875000004
20
35.022371875000005
30
0
0
VERTEX
8
0
10
36.474396875000004
20
34.4932125
30
0
0
SEQEND
0
POLYLINE
66
1
8
1_copper
10
0.0
20
0.0
30
0.0
70
1
0
VERTEX
8
0
10
18.741525
20
35.6235
30
0
0
VERTEX
8
0
10
18.84678125
20
35.72875625
30
0
0
VERTEX
8
0
10
18.84678125
20
35.6235
30
0
0
SEQEND
0
POLYLINE
66
1
8
1_copper
10
0.0
20
0.0
30
0.0
70
1
0
VERTEX
8
0
10
4.5475125
20
33.92903125
30
0
0
VERTEX
8
0
10
4.4181187500000005
20
34.023040625
30
0
0
VERTEX
8
0
10
4.305040625
20
34.13611875
30
0
0
VERTEX
8
0
10
4.2110312500000004
20
34.2655125
30
0
0
VERTEX
8
0
10
4.138440625
20
34.407975
30
0
0
VERTEX
8
0
10
4.089015625
20
34.560096875
30
0
0
VERTEX
8
0
10
4.064
20
34.718028125000004
30
0
0
VERTEX
8
0
10
4.064
20
35.30599375
30
0
0
VERTEX
8
0
10
4.3180000000000005
20
35.30599375
30
0
0
VERTEX
8
0
10
4.3180000000000005
20
34.760565625
30
0
42
0.12333821538885169
0
VERTEX
8
0
10
4.425621875
20
34.405781250000004
30
0
0
VERTEX
8
0
10
4.445
20
34.37678125
30
0
0
VERTEX
8
0
10
4.445
20
34.29
30
0
0
VERTEX
8
0
10
4.44539375
20
34.2820375
30
0
0
VERTEX
8
0
10
4.4452
20
34.274078125
30
0
0
VERTEX
8
0
10
4.446953125
20
34.250659375000005
30
0
0
VERTEX
8
0
10
4.448121875
20
34.2271
30
0
0
VERTEX
8
0
10
4.44930625
20
34.219196875
30
0
0
VERTEX
8
0
10
4.4499
20
34.211275
30
0
0
VERTEX
8
0
10
4.453965625
20
34.188128125
30
0
0
VERTEX
8
0
10
4.4574625
20
34.164815625
30
0
0
VERTEX
8
0
10
4.45941875
20
34.15709375
30
0
0
VERTEX
8
0
10
4.460796875
20
34.149246875
30
0
0
VERTEX
8
0
10
4.46715
20
34.126565625000005
30
0
0
VERTEX
8
0
10
4.472925
20
34.103765625
30
0
0
VERTEX
8
0
10
4.475634375
20
34.096281250000004
30
0
0
VERTEX
8
0
10
4.477784375000001
20
34.088603125
30
0
0
VERTEX
8
0
10
4.486340625
20
34.06669375
30
0
0
VERTEX
8
0
10
4.49435625
20
34.044546875
30
0
0
VERTEX
8
0
10
4.497803125
20
34.037346875000004
30
0
0
VERTEX
8
0
10
4.500696875
20
34.0299375
30
0
0
VERTEX
8
0
10
4.5113593750000005
20
34.009028125
30
0
0
VERTEX
8
0
10
4.52155
20
33.987740625
30
0
0
VERTEX
8
0
10
4.5257000000000005
20
33.980906250000004
30
0
0
VERTEX
8
0
10
4.52930625
20
33.973834375
30
0
0
VERTEX
8
0
10
4.541978125
20
33.954096875000005
30
0
0
VERTEX
8
0
10
4.5542375
20
33.933909375
30
0
0
VERTEX
8
0
10
4.55904375
20
33.927521875000004
30
0
0
VERTEX
8
0
10
4.5632093750000005
20
33.921034375000005
30
0
0
SEQEND
0
POLYLINE
66
1
8
1_copper
10
0.0
20
0.0
30
0.0
70
1
0
VERTEX
8
0
10
35.7632125
20
33.001128125
30
0
42
0.31179645523362176
0
VERTEX
8
0
10
36.220400000000005
20
33.597156250000005
30
0
0
VERTEX
8
0
10
36.220400000000005
20
34.08678125
30
0
0
VERTEX
8
0
10
36.474396875000004
20
34.08678125
30
0
0
VERTEX
8
0
10
36.474396875000004
20
33.557625
30
0
0
VERTEX
8
0
10
36.451884375
20
33.415490625000004
30
0
0
VERTEX
8
0
10
36.4074
20
33.278578125
30
0
0
VERTEX
8
0
10
36.342062500000004
20
33.15035
30
0
0
VERTEX
8
0
10
36.25746875
20
33.0339125
30
0
0
VERTEX
8
0
10
36.155684375
20
32.932128125
30
0
0
VERTEX
8
0
10
36.039246875
20
32.847534375
30
0
0
VERTEX
8
0
10
35.911018750000004
20
32.782196875000004
30
0
0
VERTEX
8
0
10
35.77410625
20
32.7377125
30
0
0
VERTEX
8
0
10
35.7632125
20
32.7359875
30
0
0
SEQEND
0
POLYLINE
66
1
8
1_copper
10
0.0
20
0.0
30
0.0
70
1
0
VERTEX
8
0
10
36.220400000000005
20
25.6032125
30
0
0
VERTEX
8
0
10
36.220400000000005
20
26.09284375
30
0
42
0.31179645523362176
0
VERTEX
8
0
10
35.7632125
20
26.688871875
30
0
0
VERTEX
8
0
10
35.7632125
20
26.954009375000002
30
0
0
VERTEX
8
0
10
35.77410625
20
26.952284375
30
0
0
VERTEX
8
0
10
35.911018750000004
20
26.9078
30
0
0
VERTEX
8
0
10
36.039246875
20
26.8424625
30
0
0
VERTEX
8
0
10
36.155684375
20
26.75786875
30
0
0
VERTEX
8
0
10
36.25746875
20
26.656084375000002
30
0
0
VERTEX
8
0
10
36.342062500000004
20
26.539646875000003
30
0
0
VERTEX
8
0
10
36.4074
20
26.411418750000003
30
0
0
VERTEX
8
0
10
36.451884375
20
26.27450625
30
0
0
VERTEX
8
0
10
36.474396875000004
20
26.132371875
30
0
0
VERTEX
8
0
10
36.474396875000004
20
25.6032125
30
0
0
SEQEND
0
POLYLINE
66
1
8
1_copper
10
0.0
20
0.0
30
0.0
70
1
0
VERTEX
8
0
10
35.7632125
20
24.111128125
30
0
42
0.31179645523362176
0
VERTEX
8
0
10
36.220400000000005
20
24.70715625
30
0
0
VERTEX
8
0
10
36.220400000000005
20
25.19678125
30
0
0
VERTEX
8
0
10
36.474396875000004
20
25.19678125
30
0
0
VERTEX
8
0
10
36.474396875000004
20
24.667625
30
0
0
VERTEX
8
0
10
36.451884375
20
24.525490625
30
0
0
VERTEX
8
0
10
36.4074
20
24.388578125000002
30
0
0
VERTEX
8
0
10
36.342062500000004
20
24.260350000000003
30
0
0
VERTEX
8
0
10
36.25746875
20
24.143912500000003
30
0
0
VERTEX
8
0
10
36.155684375
20
24.042128125
30
0
0
VERTEX
8
0
10
36.039246875
20
23.957534375
30
0
0
VERTEX
8
0
10
35.911018750000004
20
23.892196875
30
0
0
VERTEX
8
0
10
35.77410625
20
23.8477125
30
0
0
VERTEX
8
0
10
35.7632125
20
23.8459875
30
0
0
SEQEND
0
POLYLINE
66
1
8
1_copper
10
0.0
20
0.0
30
0.0
70
1
0
VERTEX
8
0
10
36.220400000000005
20
16.7132125
30
0
0
VERTEX
8
0
10
36.220400000000005
20
17.20284375
30
0
42
0.31179645523362176
0
VERTEX
8
0
10
35.7632125
20
17.798871875
30
0
0
VERTEX
8
0
10
35.7632125
20
18.064009375
30
0
0
VERTEX
8
0
10
35.77410625
20
18.062284375
30
0
0
VERTEX
8
0
10
35.911018750000004
20
18.0178
30
0
0
VERTEX
8
0
10
36.039246875
20
17.9524625
30
0
0
VERTEX
8
0
10
36.155684375
20
17.86786875
30
0
0
VERTEX
8
0
10
36.25746875
20
17.766084375000002
30
0
0
VERTEX
8
0
10
36.342062500000004
20
17.649646875000002
30
0
0
VERTEX
8
0
10
36.4074
20
17.521418750000002
30
0
0
VERTEX
8
0
10
36.451884375
20
17.38450625
30
0
0
VERTEX
8
0
10
36.474396875000004
20
17.242371875
30
0
0
VERTEX
8
0
10
36.474396875000004
20
16.7132125
30
0
0
SEQEND
0
POLYLINE
66
1
8
1_copper
10
0.0
20
0.0
30
0.0
70
1
0
VERTEX
8
0
10
35.7632125
20
15.221128125
30
0
42
0.31179645523362176
0
VERTEX
8
0
10
36.220400000000005
20
15.81715625
30
0
0
VERTEX
8
0
10
36.220400000000005
20
16.30678125
30
0
0
VERTEX
8
0
10
36.474396875000004
20
16.30678125
30
0
0
VERTEX
8
0
10
36.474396875000004
20
15.777625
30
0
0
VERTEX
8
0
10
36.451884375
20
15.635490625000001
30
0
0
VERTEX
8
0
10
36.4074
20
15.498578125
30
0
0
VERTEX
8
0
10
36.342062500000004
20
15.37035
30
0
0
VERTEX
8
0
10
36.25746875
20
15.2539125
30
0
0
VERTEX
8
0
10
36.155684375
20
15.152128125
30
0
0
VERTEX
8
0
10
36.039246875
20
15.067534375000001
30
0
0
VERTEX
8
0
10
35.911018750000004
20
15.002196875000001
30
0
0
VERTEX
8
0
10
35.77410625
20
14.957712500000001
30
0
0
VERTEX
8
0
10
35.7632125
20
14.9559875
30
0
0
SEQEND
0
POLYLINE
66
1
8
1_copper
10
0.0
20
0.0
30
0.0
70
1
0
VERTEX
8
0
10
10.385
20
13.74499375
30
0
0
VERTEX
8
0
10
11.094190625000001
20
13.74499375
30
0
0
VERTEX
8
0
10
11.047812500000001
20
13.6022625
30
0
0
VERTEX
8
0
10
10.979353125000001
20
13.4679
30
0
0
VERTEX
8
0
10
10.890715625
20
13.3459
30
0
0
VERTEX
8
0
10
10.784096875000001
20
13.239281250000001
30
0
0
VERTEX
8
0
10
10.662096875000001
20
13.15064375
30
0
0
VERTEX
8
0
10
10.527734375
20
13.082184375
30
0
0
VERTEX
8
0
10
10.385
20
13.03580625
30
0
0
SEQEND
0
POLYLINE
66
1
8
1_copper
10
0.0
20
0.0
30
0.0
70
1
0
VERTEX
8
0
10
10.922
20
10.414
30
0
0
VERTEX
8
0
10
10.922
20
10.959434375
30
0
42
0.3044751469716126
0
VERTEX
8
0
10
10.414
20
11.6412375
30
0
0
VERTEX
8
0
10
10.414
20
11.90775
30
0
0
VERTEX
8
0
10
10.550021875
20
11.86355625
30
0
0
VERTEX
8
0
10
10.692484375000001
20
11.790965625
30
0
0
VERTEX
8
0
10
10.821878125000001
20
11.696956250000001
30
0
0
VERTEX
8
0
10
10.93495625
20
11.583878125
30
0
0
VERTEX
8
0
10
11.028965625
20
11.454484375
30
0
0
VERTEX
8
0
10
11.10155625
20
11.312021875000001
30
0
0
VERTEX
8
0
10
11.150981250000001
20
11.1599
30
0
0
VERTEX
8
0
10
11.175996875000001
20
11.001968750000001
30
0
0
VERTEX
8
0
10
11.175996875000001
20
10.414
30
0
0
SEQEND
0
POLYLINE
66
1
8
1_copper
10
0.0
20
0.0
30
0.0
70
1
0
VERTEX
8
0
10
36.220400000000005
20
7.8232125
30
0
0
VERTEX
8
0
10
36.220400000000005
20
8.31284375
30
0
42
0.31179645523362176
0
VERTEX
8
0
10
35.7632125
20
8.908871875
30
0
0
VERTEX
8
0
10
35.7632125
20
9.174009375
30
0
0
VERTEX
8
0
10
35.77410625
20
9.172284375
30
0
0
VERTEX
8
0
10
35.911018750000004
20
9.1278
30
0
0
VERTEX
8
0
10
36.039246875
20
9.0624625
30
0
0
VERTEX
8
0
10
36.155684375
20
8.97786875
30
0
0
VERTEX
8
0
10
36.25746875
20
8.876084375
30
0
0
VERTEX
8
0
10
36.342062500000004
20
8.759646875
30
0
0
VERTEX
8
0
10
36.4074
20
8.63141875
30
0
0
VERTEX
8
0
10
36.451884375
20
8.49450625
30
0
0
VERTEX
8
0
10
36.474396875000004
20
8.352371875000001
30
0
0
VERTEX
8
0
10
36.474396875000004
20
7.8232125
30
0
0
SEQEND
0
POLYLINE
66
1
8
1_copper
10
0.0
20
0.0
30
0.0
70
1
0
VERTEX
8
0
10
19.83180625
20
8.3955625
30
0
0
VERTEX
8
0
10
19.84075
20
8.4020625
30
0
0
VERTEX
8
0
10
19.968978125
20
8.4674
30
0
0
VERTEX
8
0
10
20.105890625
20
8.511884375000001
30
0
0
VERTEX
8
0
10
20.116781250000003
20
8.513609375
30
0
0
VERTEX
8
0
10
20.116781250000003
20
8.110587500000001
30
0
0
SEQEND
0
POLYLINE
66
1
8
1_copper
10
0.0
20
0.0
30
0.0
70
1
0
VERTEX
8
0
10
19.4263875
20
7.8232125
30
0
0
VERTEX
8
0
10
19.4281125
20
7.8341062500000005
30
0
0
VERTEX
8
0
10
19.472596875
20
7.971018750000001
30
0
0
VERTEX
8
0
10
19.537934375000003
20
8.099246875
30
0
0
VERTEX
8
0
10
19.544434375
20
8.108196875
30
0
0
VERTEX
8
0
10
19.829418750000002
20
7.8232125
30
0
0
SEQEND
0
POLYLINE
66
1
8
1_copper
10
0.0
20
0.0
30
0.0
70
1
0
VERTEX
8
0
10
35.7632125
20
6.331128125
30
0
42
0.31179645523362176
0
VERTEX
8
0
10
36.220400000000005
20
6.92715625
30
0
0
VERTEX
8
0
10
36.220400000000005
20
7.4167812500000005
30
0
0
VERTEX
8
0
10
36.474396875000004
20
7.4167812500000005
30
0
0
VERTEX
8
0
10
36.474396875000004
20
6.887625
30
0
0
VERTEX
8
0
10
36.451884375
20
6.745490625
30
0
0
VERTEX
8
0
10
36.4074
20
6.608578125
30
0
0
VERTEX
8
0
10
36.342062500000004
20
6.4803500000000005
30
0
0
VERTEX
8
0
10
36.25746875
20
6.3639125000000005
30
0
0
VERTEX
8
0
10
36.155684375
20
6.262128125
30
0
0
VERTEX
8
0
10
36.039246875
20
6.1775343750000005
30
0
0
VERTEX
8
0
10
35.911018750000004
20
6.112196875
30
0
0
VERTEX
8
0
10
35.77410625
20
6.067712500000001
30
0
0
VERTEX
8
0
10
35.7632125
20
6.0659875
30
0
0
SEQEND
0
POLYLINE
66
1
8
1_copper
10
0.0
20
0.0
30
0.0
70
1
0
VERTEX
8
0
10
26.99615
20
0.7874
30
0
0
VERTEX
8
0
10
26.8732125
20
0.7874
30
0
0
VERTEX
8
0
10
26.8732125
20
1.0413937500000001
30
0
0
VERTEX
8
0
10
27.101359375
20
1.041396875
30
0
0
VERTEX
8
0
10
27.26269375
20
0.8800625000000001
30
0
0
VERTEX
8
0
10
27.083090625
20
0.700459375
30
0
0
SEQEND
0
POLYLINE
66
1
8
1_copper
10
0.0
20
0.0
30
0.0
70
1
0
VERTEX
8
0
10
27.4574
20
0.20321250000000002
30
0
0
VERTEX
8
0
10
27.4574
20
0.32615
30
0
0
VERTEX
8
0
10
27.370459375000003
20
0.41309062500000004
30
0
0
VERTEX
8
0
10
27.550062500000003
20
0.59269375
30
0
0
VERTEX
8
0
10
27.711396875000002
20
0.43135937500000004
30
0
0
VERTEX
8
0
10
27.711396875000002
20
0.20321250000000002
30
0
0
SEQEND
0
POLYLINE
66
1
8
1_copper
10
0.0
20
0.0
30
0.0
70
1
0
VERTEX
8
0
10
26.8732125
20
-1.041396875
30
0
0
VERTEX
8
0
10
26.8732125
20
-0.7874
30
0
0
VERTEX
8
0
10
26.99615
20
-0.7874
30
0
0
VERTEX
8
0
10
27.4574
20
-0.32615
30
0
0
VERTEX
8
0
10
27.4574
20
-0.20321250000000002
30
0
0
VERTEX
8
0
10
27.711393750000003
20
-0.20321250000000002
30
0
0
VERTEX
8
0
10
27.711396875000002
20
-0.43135937500000004
30
0
0
VERTEX
8
0
10
27.101359375
20
-1.041396875
30
0
0
SEQEND
0
POLYLINE
66
1
8
1_copper
10
0.0
20
0.0
30
0.0
70
1
0
VERTEX
8
0
10
26.077306250000003
20
-0.8800625000000001
30
0
0
VERTEX
8
0
10
26.256909375000003
20
-0.700459375
30
0
0
VERTEX
8
0
10
26.34385
20
-0.7874
30
0
0
VERTEX
8
0
10
26.46678125
20
-0.7874
30
0
0
VERTEX
8
0
10
26.46678125
20
-1.0413937500000001
30
0
0
VERTEX
8
0
10
26.238637500000003
20
-1.041396875
30
0
0
SEQEND
0
POLYLINE
66
1
8
16_copper
10
0.0
20
0.0
30
0.0
70
1
0
VERTEX
8
0
10
20.0025
20
36.4354625
30
0
0
VERTEX
8
0
10
20.0025
20
37.224537500000004
30
0
0
VERTEX
8
0
10
19.444537500000003
20
37.7825
30
0
0
VERTEX
8
0
10
18.655462500000002
20
37.7825
30
0
0
VERTEX
8
0
10
18.0975
20
37.224537500000004
30
0
0
VERTEX
8
0
10
18.0975
20
36.4354625
30
0
0
VERTEX
8
0
10
18.655462500000002
20
35.877500000000005
30
0
0
VERTEX
8
0
10
19.444537500000003
20
35.877500000000005
30
0
0
SEQEND
0
POLYLINE
66
1
8
16_copper
10
0.0
20
0.0
30
0.0
70
1
0
VERTEX
8
0
10
5.19194375
20
34.0433375
30
0
42
0.3578057741447831
0
VERTEX
8
0
10
5.8420000000000005
20
34.760565625
30
0
0
VERTEX
8
0
10
5.8420000000000005
20
36.359434375
30
0
42
0.9520795017710562
0
VERTEX
8
0
10
4.3180000000000005
20
36.359434375
30
0
0
VERTEX
8
0
10
4.3180000000000005
20
34.760565625
30
0
0
VERTEX
8
0
10
4.3253375
20
34.68605625
30
0
0
VERTEX
8
0
10
4.33994375
20
34.612625
30
0
0
VERTEX
8
0
10
4.361678125
20
34.54098125
30
0
0
VERTEX
8
0
10
4.390328125
20
34.471809375
30
0
0
VERTEX
8
0
10
4.425621875
20
34.405781250000004
30
0
0
VERTEX
8
0
10
4.46721875
20
34.343531250000005
30
0
0
VERTEX
8
0
10
4.514715625
20
34.28565625
30
0
0
VERTEX
8
0
10
4.567656250000001
20
34.232715625000004
30
0
0
VERTEX
8
0
10
4.62553125
20
34.185218750000004
30
0
0
VERTEX
8
0
10
4.6877812500000005
20
34.143621875
30
0
0
VERTEX
8
0
10
4.753809375
20
34.108328125
30
0
0
VERTEX
8
0
10
4.822981250000001
20
34.079678125
30
0
0
VERTEX
8
0
10
4.8946250000000004
20
34.05794375
30
0
0
VERTEX
8
0
10
4.96805625
20
34.0433375
30
0
0
VERTEX
8
0
10
5.042565625
20
34.036
30
0
0
VERTEX
8
0
10
5.117434375
20
34.036
30
0
0
SEQEND
0
POLYLINE
66
1
8
16_copper
10
0.0
20
0.0
30
0.0
70
1
0
VERTEX
8
0
10
35.65701875
20
32.975559375
30
0
42
0.3578051432831595
0
VERTEX
8
0
10
36.220400000000005
20
33.597156250000005
30
0
0
VERTEX
8
0
10
36.220400000000005
20
34.98284375
30
0
42
0.9520786018124834
0
VERTEX
8
0
10
34.8996
20
34.98284375
30
0
0
VERTEX
8
0
10
34.8996
20
33.597156250000005
30
0
0
VERTEX
8
0
10
34.905959375
20
33.53258125
30
0
0
VERTEX
8
0
10
34.91861875
20
33.46894375
30
0
0
VERTEX
8
0
10
34.937453125000005
20
33.40685
30
0
0
VERTEX
8
0
10
34.962284375
20
33.346903125000004
30
0
0
VERTEX
8
0
10
34.992871875
20
33.289678125
30
0
0
VERTEX
8
0
10
35.028921875
20
33.235725
30
0
0
VERTEX
8
0
10
35.070084375
20
33.18556875
30
0
0
VERTEX
8
0
10
35.11596875
20
33.139684375
30
0
0
VERTEX
8
0
10
35.166125
20
33.098521875
30
0
0
VERTEX
8
0
10
35.220078125
20
33.062471875
30
0
0
VERTEX
8
0
10
35.277303125
20
33.031884375000004
30
0
0
VERTEX
8
0
10
35.337250000000004
20
33.007053125
30
0
0
VERTEX
8
0
10
35.39934375
20
32.98821875
30
0
0
VERTEX
8
0
10
35.46298125
20
32.975559375
30
0
0
VERTEX
8
0
10
35.52755625
20
32.9692
30
0
0
VERTEX
8
0
10
35.59244375
20
32.9692
30
0
0
SEQEND
0
POLYLINE
66
1
8
16_copper
10
0.0
20
0.0
30
0.0
70
1
0
VERTEX
8
0
10
35.65701875
20
24.085559375000003
30
0
42
0.3578051432831595
0
VERTEX
8
0
10
36.220400000000005
20
24.70715625
30
0
0
VERTEX
8
0
10
36.220400000000005
20
26.09284375
30
0
42
0.9520786018124834
0
VERTEX
8
0
10
34.8996
20
26.09284375
30
0
0
VERTEX
8
0
10
34.8996
20
24.70715625
30
0
0
VERTEX
8
0
10
34.905959375
20
24.642581250000003
30
0
0
VERTEX
8
0
10
34.91861875
20
24.57894375
30
0
0
VERTEX
8
0
10
34.937453125000005
20
24.51685
30
0
0
VERTEX
8
0
10
34.962284375
20
24.456903125
30
0
0
VERTEX
8
0
10
34.992871875
20
24.399678125
30
0
0
VERTEX
8
0
10
35.028921875
20
24.345725
30
0
0
VERTEX
8
0
10
35.070084375
20
24.29556875
30
0
0
VERTEX
8
0
10
35.11596875
20
24.249684375
30
0
0
VERTEX
8
0
10
35.166125
20
24.208521875000002
30
0
0
VERTEX
8
0
10
35.220078125
20
24.172471875
30
0
0
VERTEX
8
0
10
35.277303125
20
24.141884375
30
0
0
VERTEX
8
0
10
35.337250000000004
20
24.117053125
30
0
0
VERTEX
8
0
10
35.39934375
20
24.09821875
30
0
0
VERTEX
8
0
10
35.46298125
20
24.085559375000003
30
0
0
VERTEX
8
0
10
35.52755625
20
24.0792
30
0
0
VERTEX
8
0
10
35.59244375
20
24.0792
30
0
0
SEQEND
0
POLYLINE
66
1
8
16_copper
10
0.0
20
0.0
30
0.0
70
1
0
VERTEX
8
0
10
35.65701875
20
15.195559375
30
0
42
0.3578051432831595
0
VERTEX
8
0
10
36.220400000000005
20
15.81715625
30
0
0
VERTEX
8
0
10
36.220400000000005
20
17.20284375
30
0
42
0.9520786018124834
0
VERTEX
8
0
10
34.8996
20
17.20284375
30
0
0
VERTEX
8
0
10
34.8996
20
15.81715625
30
0
0
VERTEX
8
0
10
34.905959375
20
15.75258125
30
0
0
VERTEX
8
0
10
34.91861875
20
15.68894375
30
0
0
VERTEX
8
0
10
34.937453125000005
20
15.626850000000001
30
0
0
VERTEX
8
0
10
34.962284375
20
15.566903125000001
30
0
0
VERTEX
8
0
10
34.992871875
20
15.509678125
30
0
0
VERTEX
8
0
10
35.028921875
20
15.455725000000001
30
0
0
VERTEX
8
0
10
35.070084375
20
15.40556875
30
0
0
VERTEX
8
0
10
35.11596875
20
15.359684375
30
0
0
VERTEX
8
0
10
35.166125
20
15.318521875
30
0
0
VERTEX
8
0
10
35.220078125
20
15.282471875
30
0
0
VERTEX
8
0
10
35.277303125
20
15.251884375000001
30
0
0
VERTEX
8
0
10
35.337250000000004
20
15.227053125000001
30
0
0
VERTEX
8
0
10
35.39934375
20
15.20821875
30
0
0
VERTEX
8
0
10
35.46298125
20
15.195559375
30
0
0
VERTEX
8
0
10
35.52755625
20
15.189200000000001
30
0
0
VERTEX
8
0
10
35.59244375
20
15.189200000000001
30
0
0
SEQEND
0
POLYLINE
66
1
8
16_copper
10
0.0
20
0.0
30
0.0
70
1
0
VERTEX
8
0
10
10.27194375
20
8.643337500000001
30
0
42
0.3578057741447831
0
VERTEX
8
0
10
10.922
20
9.360565625000001
30
0
0
VERTEX
8
0
10
10.922
20
10.959434375
30
0
42
0.9520795017710562
0
VERTEX
8
0
10
9.398
20
10.959434375
30
0
0
VERTEX
8
0
10
9.398
20
9.360565625000001
30
0
0
VERTEX
8
0
10
9.4053375
20
9.28605625
30
0
0
VERTEX
8
0
10
9.41994375
20
9.212625000000001
30
0
0
VERTEX
8
0
10
9.441678125000001
20
9.140981250000001
30
0
0
VERTEX
8
0
10
9.470328125
20
9.071809375
30
0
0
VERTEX
8
0
10
9.505621875000001
20
9.00578125
30
0
0
VERTEX
8
0
10
9.54721875
20
8.943531250000001
30
0
0
VERTEX
8
0
10
9.594715625000001
20
8.88565625
30
0
0
VERTEX
8
0
10
9.64765625
20
8.832715625
30
0
0
VERTEX
8
0
10
9.70553125
20
8.78521875
30
0
0
VERTEX
8
0
10
9.76778125
20
8.743621875
30
0
0
VERTEX
8
0
10
9.833809375000001
20
8.708328125
30
0
0
VERTEX
8
0
10
9.90298125
20
8.679678125
30
0
0
VERTEX
8
0
10
9.974625
20
8.657943750000001
30
0
0
VERTEX
8
0
10
10.04805625
20
8.643337500000001
30
0
0
VERTEX
8
0
10
10.122565625
20
8.636000000000001
30
0
0
VERTEX
8
0
10
10.197434375
20
8.636000000000001
30
0
0
SEQEND
0
POLYLINE
66
1
8
16_copper
10
0.0
20
0.0
30
0.0
70
1
0
VERTEX
8
0
10
35.65701875
20
6.3055593750000005
30
0
42
0.3578051432831595
0
VERTEX
8
0
10
36.220400000000005
20
6.92715625
30
0
0
VERTEX
8
0
10
36.220400000000005
20
8.31284375
30
0
42
0.9520786018124834
0
VERTEX
8
0
10
34.8996
20
8.31284375
30
0
0
VERTEX
8
0
10
34.8996
20
6.92715625
30
0
0
VERTEX
8
0
10
34.905959375
20
6.862581250000001
30
0
0
VERTEX
8
0
10
34.91861875
20
6.79894375
30
0
0
VERTEX
8
0
10
34.937453125000005
20
6.7368500000000004
30
0
0
VERTEX
8
0
10
34.962284375
20
6.676903125
30
0
0
VERTEX
8
0
10
34.992871875
20
6.619678125
30
0
0
VERTEX
8
0
10
35.028921875
20
6.5657250000000005
30
0
0
VERTEX
8
0
10
35.070084375
20
6.51556875
30
0
0
VERTEX
8
0
10
35.11596875
20
6.469684375
30
0
0
VERTEX
8
0
10
35.166125
20
6.428521875
30
0
0
VERTEX
8
0
10
35.220078125
20
6.392471875
30
0
0
VERTEX
8
0
10
35.277303125
20
6.361884375000001
30
0
0
VERTEX
8
0
10
35.337250000000004
20
6.337053125000001
30
0
0
VERTEX
8
0
10
35.39934375
20
6.318218750000001
30
0
0
VERTEX
8
0
10
35.46298125
20
6.3055593750000005
30
0
0
VERTEX
8
0
10
35.52755625
20
6.2992
30
0
0
VERTEX
8
0
10
35.59244375
20
6.2992
30
0
0
SEQEND
0
POLYLINE
66
1
8
16_copper
10
0.0
20
0.0
30
0.0
70
1
0
VERTEX
8
0
10
27.4574
20
-0.32615
30
0
0
VERTEX
8
0
10
27.4574
20
0.32615
30
0
0
VERTEX
8
0
10
26.99615
20
0.7874
30
0
0
VERTEX
8
0
10
26.34385
20
0.7874
30
0
0
VERTEX
8
0
10
25.8826
20
0.32615
30
0
0
VERTEX
8
0
10
25.8826
20
-0.32615
30
0
0
VERTEX
8
0
10
26.34385
20
-0.7874
30
0
0
VERTEX
8
0
10
26.99615
20
-0.7874
30
0
0
SEQEND
0
POLYLINE
66
1
8
1_copper
10
0.0
20
0.0
30
0.0
70
1
0
VERTEX
8
0
10
34.492312500000004
20
35.486559375
30
0
42
0.18597604843350257
0
VERTEX
8
0
10
34.433684375
20
35.620140625000005
30
0
0
VERTEX
8
0
10
33.689740625
20
36.364084375000004
30
0
42
0.198912367379658
0
VERTEX
8
0
10
33.54605625
20
36.4236
30
0
0
VERTEX
8
0
10
32.4104
20
36.4236
30
0
42
0.198912367379658
0
VERTEX
8
0
10
32.266715625
20
36.364084375000004
30
0
0
VERTEX
8
0
10
31.09470625
20
35.192075
30
0
42
0.8077987341857351
0
VERTEX
8
0
10
29.8196
20
34.98284375
30
0
0
VERTEX
8
0
10
29.8196
20
34.4932
30
0
0
VERTEX
8
0
10
23.5422875
20
34.4932
30
0
42
0.198912367379658
0
VERTEX
8
0
10
23.398603125
20
34.433684375
30
0
0
VERTEX
8
0
10
20.811315625000002
20
31.846396875
30
0
42
0.198912367379658
0
VERTEX
8
0
10
20.7518
20
31.7027125
30
0
0
VERTEX
8
0
10
20.7518
20
27.38916875
30
0
0
VERTEX
8
0
10
5.04663125
20
11.684000000000001
30
0
42
0.387272605136702
0
VERTEX
8
0
10
4.3180000000000005
20
10.959434375
30
0
0
VERTEX
8
0
10
4.3180000000000005
20
9.360565625000001
30
0
42
0.7608766089606708
0
VERTEX
8
0
10
5.7520500000000006
20
9.03884375
30
0
0
VERTEX
8
0
10
7.314578125000001
20
7.476315625000001
30
0
42
0.198912367379658
0
VERTEX
8
0
10
7.4582625
20
7.4168
30
0
0
VERTEX
8
0
10
8.80583125
20
7.4168
30
0
0
VERTEX
8
0
10
9.792631250000001
20
6.430000000000001
30
0
0
VERTEX
8
0
10
9.610000000000001
20
6.430000000000001
30
0
0
VERTEX
8
0
10
9.610000000000001
20
5.430000000000001
30
0
0
VERTEX
8
0
10
10.71
20
5.430000000000001
30
0
0
VERTEX
8
0
10
10.71
20
6.430000000000001
30
0
0
VERTEX
8
0
10
10.52736875
20
6.430000000000001
30
0
0
VERTEX
8
0
10
11.514168750000001
20
7.4168
30
0
0
VERTEX
8
0
10
12.700000000000001
20
7.4168
30
0
42
0.9999999999999999
0
VERTEX
8
0
10
12.700000000000001
20
7.8232
30
0
0
VERTEX
8
0
10
11.43
20
7.8232
30
0
42
0.198912367379658
0
VERTEX
8
0
10
11.286315625
20
7.763684375
30
0
0
VERTEX
8
0
10
10.16
20
6.63736875
30
0
0
VERTEX
8
0
10
9.033684375
20
7.763684375
30
0
42
0.198912367379658
0
VERTEX
8
0
10
8.89
20
7.8232
30
0
0
VERTEX
8
0
10
7.54243125
20
7.8232
30
0
0
VERTEX
8
0
10
5.8420000000000005
20
9.523631250000001
30
0
0
VERTEX
8
0
10
5.8420000000000005
20
10.959434375
30
0
42
0.24008368687554038
0
VERTEX
8
0
10
5.4971125
20
11.55974375
30
0
0
VERTEX
8
0
10
21.098684375
20
27.161315625
30
0
42
0.198912367379658
0
VERTEX
8
0
10
21.1582
20
27.305
30
0
0
VERTEX
8
0
10
21.1582
20
31.61854375
30
0
0
VERTEX
8
0
10
23.62645625
20
34.086800000000004
30
0
0
VERTEX
8
0
10
29.8196
20
34.086800000000004
30
0
0
VERTEX
8
0
10
29.8196
20
33.597156250000005
30
0
42
0.9520786018124834
0
VERTEX
8
0
10
31.140400000000003
20
33.597156250000005
30
0
0
VERTEX
8
0
10
31.140400000000003
20
34.66303125
30
0
0
VERTEX
8
0
10
32.49456875
20
36.0172
30
0
0
VERTEX
8
0
10
33.4618875
20
36.0172
30
0
0
VERTEX
8
0
10
34.086800000000004
20
35.3922875
30
0
0
VERTEX
8
0
10
34.086800000000004
20
24.297712500000003
30
0
0
VERTEX
8
0
10
33.4618875
20
23.672800000000002
30
0
0
VERTEX
8
0
10
32.49456875
20
23.672800000000002
30
0
0
VERTEX
8
0
10
31.140400000000003
20
25.02696875
30
0
0
VERTEX
8
0
10
31.140400000000003
20
26.09284375
30
0
42
0.9520786018124834
0
VERTEX
8
0
10
29.8196
20
26.09284375
30
0
0
VERTEX
8
0
10
29.8196
20
24.70715625
30
0
42
0.8077987341857351
0
VERTEX
8
0
10
31.09470625
20
24.497925000000002
30
0
0
VERTEX
8
0
10
32.266715625
20
23.325915625
30
0
42
0.198912367379658
0
VERTEX
8
0
10
32.4104
20
23.2664
30
0
0
VERTEX
8
0
10
33.54605625
20
23.2664
30
0
42
0.198912367379658
0
VERTEX
8
0
10
33.689740625
20
23.325915625
30
0
0
VERTEX
8
0
10
34.086800000000004
20
23.722975
30
0
0
VERTEX
8
0
10
34.086800000000004
20
18.187025000000002
30
0
0
VERTEX
8
0
10
33.689740625
20
18.584084375
30
0
42
0.198912367379658
0
VERTEX
8
0
10
33.54605625
20
18.6436
30
0
0
VERTEX
8
0
10
32.4104
20
18.6436
30
0
42
0.198912367379658
0
VERTEX
8
0
10
32.266715625
20
18.584084375
30
0
0
VERTEX
8
0
10
31.09470625
20
17.412075
30
0
42
0.8077987341857351
0
VERTEX
8
0
10
29.8196
20
17.20284375
30
0
0
VERTEX
8
0
10
29.8196
20
15.81715625
30
0
42
0.9520786018124834
0
VERTEX
8
0
10
31.140400000000003
20
15.81715625
30
0
0
VERTEX
8
0
10
31.140400000000003
20
16.883031250000002
30
0
0
VERTEX
8
0
10
32.49456875
20
18.2372
30
0
0
VERTEX
8
0
10
33.4618875
20
18.2372
30
0
0
VERTEX
8
0
10
34.086800000000004
20
17.6122875
30
0
0
VERTEX
8
0
10
34.086800000000004
20
6.5177125
30
0
0
VERTEX
8
0
10
33.4618875
20
5.8928
30
0
0
VERTEX
8
0
10
32.49456875
20
5.8928
30
0
0
VERTEX
8
0
10
31.140400000000003
20
7.246968750000001
30
0
0
VERTEX
8
0
10
31.140400000000003
20
8.31284375
30
0
42
0.9520786018124834
0
VERTEX
8
0
10
29.8196
20
8.31284375
30
0
0
VERTEX
8
0
10
29.8196
20
7.8232
30
0
0
VERTEX
8
0
10
27.94
20
7.8232
30
0
42
0.198912367379658
0
VERTEX
8
0
10
27.796315625000002
20
7.763684375
30
0
0
VERTEX
8
0
10
20.176315625
20
0.143684375
30
0
42
0.9999999999999999
0
VERTEX
8
0
10
20.463684375
20
-0.143684375
30
0
0
VERTEX
8
0
10
28.02416875
20
7.4168
30
0
0
VERTEX
8
0
10
29.8196
20
7.4168
30
0
0
VERTEX
8
0
10
29.8196
20
6.92715625
30
0
42
0.8077987341857351
0
VERTEX
8
0
10
31.09470625
20
6.717925
30
0
0
VERTEX
8
0
10
32.266715625
20
5.545915625
30
0
42
0.198912367379658
0
VERTEX
8
0
10
32.4104
20
5.486400000000001
30
0
0
VERTEX
8
0
10
33.54605625
20
5.486400000000001
30
0
42
0.198912367379658
0
VERTEX
8
0
10
33.689740625
20
5.545915625
30
0
0
VERTEX
8
0
10
34.433684375
20
6.289859375000001
30
0
42
0.198912367379658
0
VERTEX
8
0
10
34.4932
20
6.43354375
30
0
0
VERTEX
8
0
10
34.4932
20
35.47645625
30
0
0
SEQEND
0
POLYLINE
66
1
8
16_copper
10
0.0
20
0.0
30
0.0
70
1
0
VERTEX
8
0
10
30.57701875
20
32.975559375
30
0
42
0.3578051432831595
0
VERTEX
8
0
10
31.140400000000003
20
33.597156250000005
30
0
0
VERTEX
8
0
10
31.140400000000003
20
34.98284375
30
0
42
0.9520786018124834
0
VERTEX
8
0
10
29.8196
20
34.98284375
30
0
0
VERTEX
8
0
10
29.8196
20
33.597156250000005
30
0
0
VERTEX
8
0
10
29.825959375
20
33.53258125
30
0
0
VERTEX
8
0
10
29.838618750000002
20
33.46894375
30
0
0
VERTEX
8
0
10
29.857453125000003
20
33.40685
30
0
0
VERTEX
8
0
10
29.882284375
20
33.346903125000004
30
0
0
VERTEX
8
0
10
29.912871875
20
33.289678125
30
0
0
VERTEX
8
0
10
29.948921875
20
33.235725
30
0
0
VERTEX
8
0
10
29.990084375000002
20
33.18556875
30
0
0
VERTEX
8
0
10
30.035968750000002
20
33.139684375
30
0
0
VERTEX
8
0
10
30.086125000000003
20
33.098521875
30
0
0
VERTEX
8
0
10
30.140078125000002
20
33.062471875
30
0
0
VERTEX
8
0
10
30.197303125
20
33.031884375000004
30
0
0
VERTEX
8
0
10
30.257250000000003
20
33.007053125
30
0
0
VERTEX
8
0
10
30.31934375
20
32.98821875
30
0
0
VERTEX
8
0
10
30.38298125
20
32.975559375
30
0
0
VERTEX
8
0
10
30.44755625
20
32.9692
30
0
0
VERTEX
8
0
10
30.512443750000003
20
32.9692
30
0
0
SEQEND
0
POLYLINE
66
1
8
16_copper
10
0.0
20
0.0
30
0.0
70
1
0
VERTEX
8
0
10
30.57701875
20
24.085559375000003
30
0
42
0.3578051432831595
0
VERTEX
8
0
10
31.140400000000003
20
24.70715625
30
0
0
VERTEX
8
0
10
31.140400000000003
20
26.09284375
30
0
42
0.9520786018124834
0
VERTEX
8
0
10
29.8196
20
26.09284375
30
0
0
VERTEX
8
0
10
29.8196
20
24.70715625
30
0
0
VERTEX
8
0
10
29.825959375
20
24.642581250000003
30
0
0
VERTEX
8
0
10
29.838618750000002
20
24.57894375
30
0
0
VERTEX
8
0
10
29.857453125000003
20
24.51685
30
0
0
VERTEX
8
0
10
29.882284375
20
24.456903125
30
0
0
VERTEX
8
0
10
29.912871875
20
24.399678125
30
0
0
VERTEX
8
0
10
29.948921875
20
24.345725
30
0
0
VERTEX
8
0
10
29.990084375000002
20
24.29556875
30
0
0
VERTEX
8
0
10
30.035968750000002
20
24.249684375
30
0
0
VERTEX
8
0
10
30.086125000000003
20
24.208521875000002
30
0
0
VERTEX
8
0
10
30.140078125000002
20
24.172471875
30
0
0
VERTEX
8
0
10
30.197303125
20
24.141884375
30
0
0
VERTEX
8
0
10
30.257250000000003
20
24.117053125
30
0
0
VERTEX
8
0
10
30.31934375
20
24.09821875
30
0
0
VERTEX
8
0
10
30.38298125
20
24.085559375000003
30
0
0
VERTEX
8
0
10
30.44755625
20
24.0792
30
0
0
VERTEX
8
0
10
30.512443750000003
20
24.0792
30
0
0
SEQEND
0
POLYLINE
66
1
8
16_copper
10
0.0
20
0.0
30
0.0
70
1
0
VERTEX
8
0
10
30.57701875
20
15.195559375
30
0
42
0.3578051432831595
0
VERTEX
8
0
10
31.140400000000003
20
15.81715625
30
0
0
VERTEX
8
0
10
31.140400000000003
20
17.20284375
30
0
42
0.9520786018124834
0
VERTEX
8
0
10
29.8196
20
17.20284375
30
0
0
VERTEX
8
0
10
29.8196
20
15.81715625
30
0
0
VERTEX
8
0
10
29.825959375
20
15.75258125
30
0
0
VERTEX
8
0
10
29.838618750000002
20
15.68894375
30
0
0
VERTEX
8
0
10
29.857453125000003
20
15.626850000000001
30
0
0
VERTEX
8
0
10
29.882284375
20
15.566903125000001
30
0
0
VERTEX
8
0
10
29.912871875
20
15.509678125
30
0
0
VERTEX
8
0
10
29.948921875
20
15.455725000000001
30
0
0
VERTEX
8
0
10
29.990084375000002
20
15.40556875
30
0
0
VERTEX
8
0
10
30.035968750000002
20
15.359684375
30
0
0
VERTEX
8
0
10
30.086125000000003
20
15.318521875
30
0
0
VERTEX
8
0
10
30.140078125000002
20
15.282471875
30
0
0
VERTEX
8
0
10
30.197303125
20
15.251884375000001
30
0
0
VERTEX
8
0
10
30.257250000000003
20
15.227053125000001
30
0
0
VERTEX
8
0
10
30.31934375
20
15.20821875
30
0
0
VERTEX
8
0
10
30.38298125
20
15.195559375
30
0
0
VERTEX
8
0
10
30.44755625
20
15.189200000000001
30
0
0
VERTEX
8
0
10
30.512443750000003
20
15.189200000000001
30
0
0
SEQEND
0
POLYLINE
66
1
8
16_copper
10
0.0
20
0.0
30
0.0
70
1
0
VERTEX
8
0
10
5.19194375
20
8.643337500000001
30
0
42
0.3578057741447831
0
VERTEX
8
0
10
5.8420000000000005
20
9.360565625000001
30
0
0
VERTEX
8
0
10
5.8420000000000005
20
10.959434375
30
0
42
0.9520795017710562
0
VERTEX
8
0
10
4.3180000000000005
20
10.959434375
30
0
0
VERTEX
8
0
10
4.3180000000000005
20
9.360565625000001
30
0
0
VERTEX
8
0
10
4.3253375
20
9.28605625
30
0
0
VERTEX
8
0
10
4.33994375
20
9.212625000000001
30
0
0
VERTEX
8
0
10
4.361678125
20
9.140981250000001
30
0
0
VERTEX
8
0
10
4.390328125
20
9.071809375
30
0
0
VERTEX
8
0
10
4.425621875
20
9.00578125
30
0
0
VERTEX
8
0
10
4.46721875
20
8.943531250000001
30
0
0
VERTEX
8
0
10
4.514715625
20
8.88565625
30
0
0
VERTEX
8
0
10
4.567656250000001
20
8.832715625
30
0
0
VERTEX
8
0
10
4.62553125
20
8.78521875
30
0
0
VERTEX
8
0
10
4.6877812500000005
20
8.743621875
30
0
0
VERTEX
8
0
10
4.753809375
20
8.708328125
30
0
0
VERTEX
8
0
10
4.822981250000001
20
8.679678125
30
0
0
VERTEX
8
0
10
4.8946250000000004
20
8.657943750000001
30
0
0
VERTEX
8
0
10
4.96805625
20
8.643337500000001
30
0
0
VERTEX
8
0
10
5.042565625
20
8.636000000000001
30
0
0
VERTEX
8
0
10
5.117434375
20
8.636000000000001
30
0
0
SEQEND
0
POLYLINE
66
1
8
16_copper
10
0.0
20
0.0
30
0.0
70
1
0
VERTEX
8
0
10
30.57701875
20
6.3055593750000005
30
0
42
0.3578051432831595
0
VERTEX
8
0
10
31.140400000000003
20
6.92715625
30
0
0
VERTEX
8
0
10
31.140400000000003
20
8.31284375
30
0
42
0.9520786018124834
0
VERTEX
8
0
10
29.8196
20
8.31284375
30
0
0
VERTEX
8
0
10
29.8196
20
6.92715625
30
0
0
VERTEX
8
0
10
29.825959375
20
6.862581250000001
30
0
0
VERTEX
8
0
10
29.838618750000002
20
6.79894375
30
0
0
VERTEX
8
0
10
29.857453125000003
20
6.7368500000000004
30
0
0
VERTEX
8
0
10
29.882284375
20
6.676903125
30
0
0
VERTEX
8
0
10
29.912871875
20
6.619678125
30
0
0
VERTEX
8
0
10
29.948921875
20
6.5657250000000005
30
0
0
VERTEX
8
0
10
29.990084375000002
20
6.51556875
30
0
0
VERTEX
8
0
10
30.035968750000002
20
6.469684375
30
0
0
VERTEX
8
0
10
30.086125000000003
20
6.428521875
30
0
0
VERTEX
8
0
10
30.140078125000002
20
6.392471875
30
0
0
VERTEX
8
0
10
30.197303125
20
6.361884375000001
30
0
0
VERTEX
8
0
10
30.257250000000003
20
6.337053125000001
30
0
0
VERTEX
8
0
10
30.31934375
20
6.318218750000001
30
0
0
VERTEX
8
0
10
30.38298125
20
6.3055593750000005
30
0
0
VERTEX
8
0
10
30.44755625
20
6.2992
30
0
0
VERTEX
8
0
10
30.512443750000003
20
6.2992
30
0
0
SEQEND
0
POLYLINE
66
1
8
1_copper
10
0.0
20
0.0
30
0.0
70
1
0
VERTEX
8
0
10
33.11701875
20
6.3055593750000005
30
0
42
0.3578051432831595
0
VERTEX
8
0
10
33.6804
20
6.92715625
30
0
0
VERTEX
8
0
10
33.6804
20
8.31284375
30
0
42
0.8077987341857351
0
VERTEX
8
0
10
32.40529375
20
8.522075000000001
30
0
0
VERTEX
8
0
10
26.813684375
20
14.113684375
30
0
42
0.198912367379658
0
VERTEX
8
0
10
26.67
20
14.173200000000001
30
0
0
VERTEX
8
0
10
22.86
20
14.173200000000001
30
0
42
0.9234163001787704
0
VERTEX
8
0
10
22.827790625000002
20
13.76936875
30
0
0
VERTEX
8
0
10
22.86
20
13.7668
30
0
0
VERTEX
8
0
10
26.585831250000002
20
13.7668
30
0
0
VERTEX
8
0
10
32.3596
20
7.9930312500000005
30
0
0
VERTEX
8
0
10
32.3596
20
6.92715625
30
0
0
VERTEX
8
0
10
32.365959375
20
6.862581250000001
30
0
0
VERTEX
8
0
10
32.37861875
20
6.79894375
30
0
0
VERTEX
8
0
10
32.397453125
20
6.7368500000000004
30
0
0
VERTEX
8
0
10
32.422284375000004
20
6.676903125
30
0
0
VERTEX
8
0
10
32.452871875
20
6.619678125
30
0
0
VERTEX
8
0
10
32.488921875
20
6.5657250000000005
30
0
0
VERTEX
8
0
10
32.530084375
20
6.51556875
30
0
0
VERTEX
8
0
10
32.57596875
20
6.469684375
30
0
0
VERTEX
8
0
10
32.626125
20
6.428521875
30
0
0
VERTEX
8
0
10
32.680078125
20
6.392471875
30
0
0
VERTEX
8
0
10
32.737303125000004
20
6.361884375000001
30
0
0
VERTEX
8
0
10
32.79725
20
6.337053125000001
30
0
0
VERTEX
8
0
10
32.85934375
20
6.318218750000001
30
0
0
VERTEX
8
0
10
32.92298125
20
6.3055593750000005
30
0
0
VERTEX
8
0
10
32.987556250000004
20
6.2992
30
0
0
VERTEX
8
0
10
33.05244375
20
6.2992
30
0
0
SEQEND
0
POLYLINE
66
1
8
16_copper
10
0.0
20
0.0
30
0.0
70
1
0
VERTEX
8
0
10
33.11701875
20
6.3055593750000005
30
0
42
0.3578051432831595
0
VERTEX
8
0
10
33.6804
20
6.92715625
30
0
0
VERTEX
8
0
10
33.6804
20
8.31284375
30
0
42
0.9520786018124834
0
VERTEX
8
0
10
32.3596
20
8.31284375
30
0
0
VERTEX
8
0
10
32.3596
20
6.92715625
30
0
0
VERTEX
8
0
10
32.365959375
20
6.862581250000001
30
0
0
VERTEX
8
0
10
32.37861875
20
6.79894375
30
0
0
VERTEX
8
0
10
32.397453125
20
6.7368500000000004
30
0
0
VERTEX
8
0
10
32.422284375000004
20
6.676903125
30
0
0
VERTEX
8
0
10
32.452871875
20
6.619678125
30
0
0
VERTEX
8
0
10
32.488921875
20
6.5657250000000005
30
0
0
VERTEX
8
0
10
32.530084375
20
6.51556875
30
0
0
VERTEX
8
0
10
32.57596875
20
6.469684375
30
0
0
VERTEX
8
0
10
32.626125
20
6.428521875
30
0
0
VERTEX
8
0
10
32.680078125
20
6.392471875
30
0
0
VERTEX
8
0
10
32.737303125000004
20
6.361884375000001
30
0
0
VERTEX
8
0
10
32.79725
20
6.337053125000001
30
0
0
VERTEX
8
0
10
32.85934375
20
6.318218750000001
30
0
0
VERTEX
8
0
10
32.92298125
20
6.3055593750000005
30
0
0
VERTEX
8
0
10
32.987556250000004
20
6.2992
30
0
0
VERTEX
8
0
10
33.05244375
20
6.2992
30
0
0
SEQEND
0
POLYLINE
66
1
8
1_copper
10
0.0
20
0.0
30
0.0
70
1
0
VERTEX
8
0
10
22.897090625
20
18.8502125
30
0
42
0.36141643969788223
0
VERTEX
8
0
10
23.063200000000002
20
19.05
30
0
0
VERTEX
8
0
10
23.063200000000002
20
21.59
30
0
42
0.9999999999999999
0
VERTEX
8
0
10
22.6568
20
21.59
30
0
0
VERTEX
8
0
10
22.6568
20
19.05
30
0
0
VERTEX
8
0
10
22.659918750000003
20
19.014534375
30
0
0
VERTEX
8
0
10
22.66918125
20
18.98015625
30
0
0
VERTEX
8
0
10
22.6843
20
18.947925
30
0
0
VERTEX
8
0
10
22.704812500000003
20
18.918825000000002
30
0
0
VERTEX
8
0
10
22.730090625000003
20
18.893753125
30
0
0
VERTEX
8
0
10
22.759353125
20
18.873475000000003
30
0
0
VERTEX
8
0
10
22.791709375
20
18.85861875
30
0
0
VERTEX
8
0
10
22.826159375
20
18.8496375
30
0
0
VERTEX
8
0
10
22.86165
20
18.84680625
30
0
0
SEQEND
0
POLYLINE
66
1
8
1_copper
10
0.0
20
0.0
30
0.0
70
1
0
VERTEX
8
0
10
27.950103125000002
20
29.007687500000003
30
0
42
0.18597604843350257
0
VERTEX
8
0
10
28.083684375
20
29.066315625
30
0
0
VERTEX
8
0
10
32.40529375
20
33.387925
30
0
42
0.8077987341857351
0
VERTEX
8
0
10
33.6804
20
33.597156250000005
30
0
0
VERTEX
8
0
10
33.6804
20
34.98284375
30
0
42
0.9520786018124834
0
VERTEX
8
0
10
32.3596
20
34.98284375
30
0
0
VERTEX
8
0
10
32.3596
20
33.91696875
30
0
0
VERTEX
8
0
10
27.85583125
20
29.4132
30
0
0
VERTEX
8
0
10
22.86
20
29.4132
30
0
42
0.9234163001787704
0
VERTEX
8
0
10
22.827790625000002
20
29.00936875
30
0
0
VERTEX
8
0
10
22.86
20
29.006800000000002
30
0
0
VERTEX
8
0
10
27.94
20
29.006800000000002
30
0
0
SEQEND
0
POLYLINE
66
1
8
16_copper
10
0.0
20
0.0
30
0.0
70
1
0
VERTEX
8
0
10
33.11701875
20
32.975559375
30
0
42
0.3578051432831595
0
VERTEX
8
0
10
33.6804
20
33.597156250000005
30
0
0
VERTEX
8
0
10
33.6804
20
34.98284375
30
0
42
0.9520786018124834
0
VERTEX
8
0
10
32.3596
20
34.98284375
30
0
0
VERTEX
8
0
10
32.3596
20
33.597156250000005
30
0
0
VERTEX
8
0
10
32.365959375
20
33.53258125
30
0
0
VERTEX
8
0
10
32.37861875
20
33.46894375
30
0
0
VERTEX
8
0
10
32.397453125
20
33.40685
30
0
0
VERTEX
8
0
10
32.422284375000004
20
33.346903125000004
30
0
0
VERTEX
8
0
10
32.452871875
20
33.289678125
30
0
0
VERTEX
8
0
10
32.488921875
20
33.235725
30
0
0
VERTEX
8
0
10
32.530084375
20
33.18556875
30
0
0
VERTEX
8
0
10
32.57596875
20
33.139684375
30
0
0
VERTEX
8
0
10
32.626125
20
33.098521875
30
0
0
VERTEX
8
0
10
32.680078125
20
33.062471875
30
0
0
VERTEX
8
0
10
32.737303125000004
20
33.031884375000004
30
0
0
VERTEX
8
0
10
32.79725
20
33.007053125
30
0
0
VERTEX
8
0
10
32.85934375
20
32.98821875
30
0
0
VERTEX
8
0
10
32.92298125
20
32.975559375
30
0
0
VERTEX
8
0
10
32.987556250000004
20
32.9692
30
0
0
VERTEX
8
0
10
33.05244375
20
32.9692
30
0
0
SEQEND
0
POLYLINE
66
1
8
1_copper
10
0.0
20
0.0
30
0.0
70
1
0
VERTEX
8
0
10
33.11701875
20
24.085559375000003
30
0
42
0.3578051432831595
0
VERTEX
8
0
10
33.6804
20
24.70715625
30
0
0
VERTEX
8
0
10
33.6804
20
26.09284375
30
0
42
0.8077987341857351
0
VERTEX
8
0
10
32.40529375
20
26.302075000000002
30
0
0
VERTEX
8
0
10
31.233284375
20
27.474084375
30
0
42
0.198912367379658
0
VERTEX
8
0
10
31.0896
20
27.5336
30
0
0
VERTEX
8
0
10
23.520400000000002
20
27.5336
30
0
42
0.198912367379658
0
VERTEX
8
0
10
23.376715625000003
20
27.474084375
30
0
0
VERTEX
8
0
10
22.716315625
20
26.813684375
30
0
42
0.9999999999999999
0
VERTEX
8
0
10
23.003684375000002
20
26.526315625000002
30
0
0
VERTEX
8
0
10
23.604568750000002
20
27.127200000000002
30
0
0
VERTEX
8
0
10
31.00543125
20
27.127200000000002
30
0
0
VERTEX
8
0
10
32.3596
20
25.773031250000003
30
0
0
VERTEX
8
0
10
32.3596
20
24.70715625
30
0
0
VERTEX
8
0
10
32.365959375
20
24.642581250000003
30
0
0
VERTEX
8
0
10
32.37861875
20
24.57894375
30
0
0
VERTEX
8
0
10
32.397453125
20
24.51685
30
0
0
VERTEX
8
0
10
32.422284375000004
20
24.456903125
30
0
0
VERTEX
8
0
10
32.452871875
20
24.399678125
30
0
0
VERTEX
8
0
10
32.488921875
20
24.345725
30
0
0
VERTEX
8
0
10
32.530084375
20
24.29556875
30
0
0
VERTEX
8
0
10
32.57596875
20
24.249684375
30
0
0
VERTEX
8
0
10
32.626125
20
24.208521875000002
30
0
0
VERTEX
8
0
10
32.680078125
20
24.172471875
30
0
0
VERTEX
8
0
10
32.737303125000004
20
24.141884375
30
0
0
VERTEX
8
0
10
32.79725
20
24.117053125
30
0
0
VERTEX
8
0
10
32.85934375
20
24.09821875
30
0
0
VERTEX
8
0
10
32.92298125
20
24.085559375000003
30
0
0
VERTEX
8
0
10
32.987556250000004
20
24.0792
30
0
0
VERTEX
8
0
10
33.05244375
20
24.0792
30
0
0
SEQEND
0
POLYLINE
66
1
8
16_copper
10
0.0
20
0.0
30
0.0
70
1
0
VERTEX
8
0
10
33.11701875
20
24.085559375000003
30
0
42
0.3578051432831595
0
VERTEX
8
0
10
33.6804
20
24.70715625
30
0
0
VERTEX
8
0
10
33.6804
20
26.09284375
30
0
42
0.9520786018124834
0
VERTEX
8
0
10
32.3596
20
26.09284375
30
0
0
VERTEX
8
0
10
32.3596
20
24.70715625
30
0
0
VERTEX
8
0
10
32.365959375
20
24.642581250000003
30
0
0
VERTEX
8
0
10
32.37861875
20
24.57894375
30
0
0
VERTEX
8
0
10
32.397453125
20
24.51685
30
0
0
VERTEX
8
0
10
32.422284375000004
20
24.456903125
30
0
0
VERTEX
8
0
10
32.452871875
20
24.399678125
30
0
0
VERTEX
8
0
10
32.488921875
20
24.345725
30
0
0
VERTEX
8
0
10
32.530084375
20
24.29556875
30
0
0
VERTEX
8
0
10
32.57596875
20
24.249684375
30
0
0
VERTEX
8
0
10
32.626125
20
24.208521875000002
30
0
0
VERTEX
8
0
10
32.680078125
20
24.172471875
30
0
0
VERTEX
8
0
10
32.737303125000004
20
24.141884375
30
0
0
VERTEX
8
0
10
32.79725
20
24.117053125
30
0
0
VERTEX
8
0
10
32.85934375
20
24.09821875
30
0
0
VERTEX
8
0
10
32.92298125
20
24.085559375000003
30
0
0
VERTEX
8
0
10
32.987556250000004
20
24.0792
30
0
0
VERTEX
8
0
10
33.05244375
20
24.0792
30
0
0
SEQEND
0
POLYLINE
66
1
8
1_copper
10
0.0
20
0.0
30
0.0
70
1
0
VERTEX
8
0
10
31.099703125
20
14.377287500000001
30
0
42
0.18597604843350257
0
VERTEX
8
0
10
31.233284375
20
14.435915625
30
0
0
VERTEX
8
0
10
32.40529375
20
15.607925000000002
30
0
42
0.8077987341857351
0
VERTEX
8
0
10
33.6804
20
15.81715625
30
0
0
VERTEX
8
0
10
33.6804
20
17.20284375
30
0
42
0.9520786018124834
0
VERTEX
8
0
10
32.3596
20
17.20284375
30
0
0
VERTEX
8
0
10
32.3596
20
16.13696875
30
0
0
VERTEX
8
0
10
31.00543125
20
14.7828
30
0
0
VERTEX
8
0
10
30.0381125
20
14.7828
30
0
0
VERTEX
8
0
10
24.9682
20
19.852712500000003
30
0
0
VERTEX
8
0
10
24.9682
20
22.225
30
0
42
0.198912367379658
0
VERTEX
8
0
10
24.908684375
20
22.368684375
30
0
0
VERTEX
8
0
10
23.003684375000002
20
24.273684375000002
30
0
42
0.9999999999999999
0
VERTEX
8
0
10
22.716315625
20
23.986315625
30
0
0
VERTEX
8
0
10
24.5618
20
22.14083125
30
0
0
VERTEX
8
0
10
24.5618
20
19.76854375
30
0
42
0.198912367379658
0
VERTEX
8
0
10
24.621315625
20
19.624859375
30
0
0
VERTEX
8
0
10
29.810259375
20
14.435915625
30
0
42
0.198912367379658
0
VERTEX
8
0
10
29.95394375
20
14.3764
30
0
0
VERTEX
8
0
10
31.0896
20
14.3764
30
0
0
SEQEND
0
POLYLINE
66
1
8
16_copper
10
0.0
20
0.0
30
0.0
70
1
0
VERTEX
8
0
10
33.11701875
20
15.195559375
30
0
42
0.3578051432831595
0
VERTEX
8
0
10
33.6804
20
15.81715625
30
0
0
VERTEX
8
0
10
33.6804
20
17.20284375
30
0
42
0.9520786018124834
0
VERTEX
8
0
10
32.3596
20
17.20284375
30
0
0
VERTEX
8
0
10
32.3596
20
15.81715625
30
0
0
VERTEX
8
0
10
32.365959375
20
15.75258125
30
0
0
VERTEX
8
0
10
32.37861875
20
15.68894375
30
0
0
VERTEX
8
0
10
32.397453125
20
15.626850000000001
30
0
0
VERTEX
8
0
10
32.422284375000004
20
15.566903125000001
30
0
0
VERTEX
8
0
10
32.452871875
20
15.509678125
30
0
0
VERTEX
8
0
10
32.488921875
20
15.455725000000001
30
0
0
VERTEX
8
0
10
32.530084375
20
15.40556875
30
0
0
VERTEX
8
0
10
32.57596875
20
15.359684375
30
0
0
VERTEX
8
0
10
32.626125
20
15.318521875
30
0
0
VERTEX
8
0
10
32.680078125
20
15.282471875
30
0
0
VERTEX
8
0
10
32.737303125000004
20
15.251884375000001
30
0
0
VERTEX
8
0
10
32.79725
20
15.227053125000001
30
0
0
VERTEX
8
0
10
32.85934375
20
15.20821875
30
0
0
VERTEX
8
0
10
32.92298125
20
15.195559375
30
0
0
VERTEX
8
0
10
32.987556250000004
20
15.189200000000001
30
0
0
VERTEX
8
0
10
33.05244375
20
15.189200000000001
30
0
0
SEQEND
0
POLYLINE
66
1
8
1_copper
10
0.0
20
0.0
30
0.0
70
1
0
VERTEX
8
0
10
10.23345625
20
31.1192625
30
0
42
0.38064949536496395
0
VERTEX
8
0
10
10.795
20
31.75
30
0
0
VERTEX
8
0
10
10.795
20
34.37678125
30
0
42
0.13496225290796576
0
VERTEX
8
0
10
10.922
20
34.760565625
30
0
0
VERTEX
8
0
10
10.922
20
35.423975
30
0
0
VERTEX
8
0
10
11.693025
20
36.195
30
0
0
VERTEX
8
0
10
13.97
20
36.195
30
0
42
0.9999999999999999
0
VERTEX
8
0
10
13.97
20
37.465
30
0
0
VERTEX
8
0
10
11.43
20
37.465
30
0
42
0.198912367379658
0
VERTEX
8
0
10
10.980987500000001
20
37.2790125
30
0
0
VERTEX
8
0
10
10.626709375
20
36.924734375
30
0
42
0.6064499612628864
0
VERTEX
8
0
10
9.398
20
36.359434375
30
0
0
VERTEX
8
0
10
9.398
20
34.760565625
30
0
42
0.13496225290796576
0
VERTEX
8
0
10
9.525
20
34.37678125
30
0
0
VERTEX
8
0
10
9.525
20
31.75
30
0
0
VERTEX
8
0
10
9.528121875
20
31.6871
30
0
0
VERTEX
8
0
10
9.5374625
20
31.624815625
30
0
0
VERTEX
8
0
10
9.552925
20
31.563765625000002
30
0
0
VERTEX
8
0
10
9.574356250000001
20
31.504546875000003
30
0
0
VERTEX
8
0
10
9.60155
20
31.447740625
30
0
0
VERTEX
8
0
10
9.634237500000001
20
31.393909375
30
0
0
VERTEX
8
0
10
9.672096875000001
20
31.34358125
30
0
0
VERTEX
8
0
10
9.71475625
20
31.297250000000002
30
0
0
VERTEX
8
0
10
9.76179375
20
31.255371875
30
0
0
VERTEX
8
0
10
9.812750000000001
20
31.218359375000002
30
0
0
VERTEX
8
0
10
9.867118750000001
20
31.186578125
30
0
0
VERTEX
8
0
10
9.924371875
20
31.160334375
30
0
0
VERTEX
8
0
10
9.983940625
20
31.139893750000002
30
0
0
VERTEX
8
0
10
10.045240625
20
31.125456250000003
30
0
0
VERTEX
8
0
10
10.107671875000001
20
31.117159375
30
0
0
VERTEX
8
0
10
10.170615625
20
31.1150875
30
0
0
SEQEND
0
POLYLINE
66
1
8
16_copper
10
0.0
20
0.0
30
0.0
70
1
0
VERTEX
8
0
10
10.27194375
20
34.0433375
30
0
42
0.3578057741447831
0
VERTEX
8
0
10
10.922
20
34.760565625
30
0
0
VERTEX
8
0
10
10.922
20
36.359434375
30
0
42
0.9520795017710562
0
VERTEX
8
0
10
9.398
20
36.359434375
30
0
0
VERTEX
8
0
10
9.398
20
34.760565625
30
0
0
VERTEX
8
0
10
9.4053375
20
34.68605625
30
0
0
VERTEX
8
0
10
9.41994375
20
34.612625
30
0
0
VERTEX
8
0
10
9.441678125000001
20
34.54098125
30
0
0
VERTEX
8
0
10
9.470328125
20
34.471809375
30
0
0
VERTEX
8
0
10
9.505621875000001
20
34.405781250000004
30
0
0
VERTEX
8
0
10
9.54721875
20
34.343531250000005
30
0
0
VERTEX
8
0
10
9.594715625000001
20
34.28565625
30
0
0
VERTEX
8
0
10
9.64765625
20
34.232715625000004
30
0
0
VERTEX
8
0
10
9.70553125
20
34.185218750000004
30
0
0
VERTEX
8
0
10
9.76778125
20
34.143621875
30
0
0
VERTEX
8
0
10
9.833809375000001
20
34.108328125
30
0
0
VERTEX
8
0
10
9.90298125
20
34.079678125
30
0
0
VERTEX
8
0
10
9.974625
20
34.05794375
30
0
0
VERTEX
8
0
10
10.04805625
20
34.0433375
30
0
0
VERTEX
8
0
10
10.122565625
20
34.036
30
0
0
VERTEX
8
0
10
10.197434375
20
34.036
30
0
0
SEQEND
0
POLYLINE
66
1
8
1_copper
10
0.0
20
0.0
30
0.0
70
1
0
VERTEX
8
0
10
5.9539437500000005
20
25.9153375
30
0
42
0.1100488821698446
0
VERTEX
8
0
10
6.26321875
20
26.035
30
0
0
VERTEX
8
0
10
10.16
20
26.035
30
0
42
0.9999999999999999
0
VERTEX
8
0
10
10.16
20
27.305
30
0
0
VERTEX
8
0
10
6.26321875
20
27.305
30
0
42
0.13496225290796576
0
VERTEX
8
0
10
5.879434375000001
20
27.432000000000002
30
0
0
VERTEX
8
0
10
4.280565625
20
27.432000000000002
30
0
42
0.9520795017710562
0
VERTEX
8
0
10
4.280565625
20
25.908
30
0
0
VERTEX
8
0
10
5.879434375000001
20
25.908
30
0
0
SEQEND
0
POLYLINE
66
1
8
16_copper
10
0.0
20
0.0
30
0.0
70
1
0
VERTEX
8
0
10
5.9539437500000005
20
25.9153375
30
0
42
0.9063472543261978
0
VERTEX
8
0
10
5.879434375000001
20
27.432000000000002
30
0
0
VERTEX
8
0
10
4.280565625
20
27.432000000000002
30
0
42
0.9520795017710562
0
VERTEX
8
0
10
4.280565625
20
25.908
30
0
0
VERTEX
8
0
10
5.879434375000001
20
25.908
30
0
0
SEQEND
0
POLYLINE
66
1
8
1_copper
10
0.0
20
0.0
30
0.0
70
1
0
VERTEX
8
0
10
5.9539437500000005
20
23.3753375
30
0
42
0.1100488821698446
0
VERTEX
8
0
10
6.26321875
20
23.495
30
0
0
VERTEX
8
0
10
10.16
20
23.495
30
0
42
0.9999999999999999
0
VERTEX
8
0
10
10.16
20
24.765
30
0
0
VERTEX
8
0
10
6.26321875
20
24.765
30
0
42
0.13496225290796576
0
VERTEX
8
0
10
5.879434375000001
20
24.892
30
0
0
VERTEX
8
0
10
4.280565625
20
24.892
30
0
42
0.9520795017710562
0
VERTEX
8
0
10
4.280565625
20
23.368000000000002
30
0
0
VERTEX
8
0
10
5.879434375000001
20
23.368000000000002
30
0
0
SEQEND
0
POLYLINE
66
1
8
16_copper
10
0.0
20
0.0
30
0.0
70
1
0
VERTEX
8
0
10
5.9539437500000005
20
23.3753375
30
0
42
0.9063472543261978
0
VERTEX
8
0
10
5.879434375000001
20
24.892
30
0
0
VERTEX
8
0
10
4.280565625
20
24.892
30
0
42
0.9520795017710562
0
VERTEX
8
0
10
4.280565625
20
23.368000000000002
30
0
0
VERTEX
8
0
10
5.879434375000001
20
23.368000000000002
30
0
0
SEQEND
0
POLYLINE
66
1
8
1_copper
10
0.0
20
0.0
30
0.0
70
1
0
VERTEX
8
0
10
5.9539437500000005
20
20.8353375
30
0
42
0.1100488821698446
0
VERTEX
8
0
10
6.26321875
20
20.955000000000002
30
0
0
VERTEX
8
0
10
10.16
20
20.955000000000002
30
0
42
0.9999999999999999
0
VERTEX
8
0
10
10.16
20
22.225
30
0
0
VERTEX
8
0
10
6.26321875
20
22.225
30
0
42
0.13496225290796576
0
VERTEX
8
0
10
5.879434375000001
20
22.352
30
0
0
VERTEX
8
0
10
4.280565625
20
22.352
30
0
42
0.9520795017710562
0
VERTEX
8
0
10
4.280565625
20
20.828
30
0
0
VERTEX
8
0
10
5.879434375000001
20
20.828
30
0
0
SEQEND
0
POLYLINE
66
1
8
16_copper
10
0.0
20
0.0
30
0.0
70
1
0
VERTEX
8
0
10
5.9539437500000005
20
20.8353375
30
0
42
0.9063472543261978
0
VERTEX
8
0
10
5.879434375000001
20
22.352
30
0
0
VERTEX
8
0
10
4.280565625
20
22.352
30
0
42
0.9520795017710562
0
VERTEX
8
0
10
4.280565625
20
20.828
30
0
0
VERTEX
8
0
10
5.879434375000001
20
20.828
30
0
0
SEQEND
0
POLYLINE
66
1
8
1_copper
10
0.0
20
0.0
30
0.0
70
1
0
VERTEX
8
0
10
5.9539437500000005
20
18.295337500000002
30
0
42
0.1100488821698446
0
VERTEX
8
0
10
6.26321875
20
18.415
30
0
0
VERTEX
8
0
10
10.16
20
18.415
30
0
42
0.9999999999999999
0
VERTEX
8
0
10
10.16
20
19.685000000000002
30
0
0
VERTEX
8
0
10
6.26321875
20
19.685000000000002
30
0
42
0.13496225290796576
0
VERTEX
8
0
10
5.879434375000001
20
19.812
30
0
0
VERTEX
8
0
10
4.280565625
20
19.812
30
0
42
0.9520795017710562
0
VERTEX
8
0
10
4.280565625
20
18.288
30
0
0
VERTEX
8
0
10
5.879434375000001
20
18.288
30
0
0
SEQEND
0
POLYLINE
66
1
8
16_copper
10
0.0
20
0.0
30
0.0
70
1
0
VERTEX
8
0
10
5.9539437500000005
20
18.295337500000002
30
0
42
0.9063472543261978
0
VERTEX
8
0
10
5.879434375000001
20
19.812
30
0
0
VERTEX
8
0
10
4.280565625
20
19.812
30
0
42
0.9520795017710562
0
VERTEX
8
0
10
4.280565625
20
18.288
30
0
0
VERTEX
8
0
10
5.879434375000001
20
18.288
30
0
0
SEQEND
0
POLYLINE
66
1
8
1_copper
10
0.0
20
0.0
30
0.0
70
1
0
VERTEX
8
0
10
20.340265625
20
2.3378125
30
0
42
0.17307266596473045
0
VERTEX
8
0
10
20.463684375
20
2.396315625
30
0
0
VERTEX
8
0
10
21.733684375
20
3.666315625
30
0
42
0.198912367379658
0
VERTEX
8
0
10
21.793200000000002
20
3.81
30
0
0
VERTEX
8
0
10
21.793200000000002
20
13.335
30
0
42
0.16765848586057738
0
VERTEX
8
0
10
21.7496
20
13.460009375
30
0
0
VERTEX
8
0
10
21.7496
20
15.11223125
30
0
0
VERTEX
8
0
10
23.003684375000002
20
16.366315625000002
30
0
42
0.9999999999999999
0
VERTEX
8
0
10
22.716315625
20
16.653684375
30
0
0
VERTEX
8
0
10
21.402715625000003
20
15.340084375
30
0
42
0.198912367379658
0
VERTEX
8
0
10
21.3432
20
15.1964
30
0
0
VERTEX
8
0
10
21.3432
20
13.3786
30
0
42
0.122755526283822
0
VERTEX
8
0
10
21.367440625
20
13.283471875
30
0
0
VERTEX
8
0
10
21.3707
20
13.276525000000001
30
0
42
0.030127615394547686
0
VERTEX
8
0
10
21.3868
20
13.253590625000001
30
0
0
VERTEX
8
0
10
21.3868
20
3.8941687500000004
30
0
0
VERTEX
8
0
10
20.176315625
20
2.6836843750000003
30
0
0
VERTEX
8
0
10
20.15344375
20
2.6564
30
0
0
VERTEX
8
0
10
20.135684375
20
2.6255437500000003
30
0
0
VERTEX
8
0
10
20.12358125
20
2.5920593750000003
30
0
0
VERTEX
8
0
10
20.117509375
20
2.556978125
30
0
0
VERTEX
8
0
10
20.11765625
20
2.521378125
30
0
0
VERTEX
8
0
10
20.1240125
20
2.486346875
30
0
0
VERTEX
8
0
10
20.136384375000002
20
2.4529625
30
0
0
VERTEX
8
0
10
20.15439375
20
2.42225
30
0
0
VERTEX
8
0
10
20.1774875
20
2.395153125
30
0
0
VERTEX
8
0
10
20.204956250000002
20
2.372503125
30
0
0
VERTEX
8
0
10
20.23595625
20
2.35499375
30
0
0
VERTEX
8
0
10
20.269537500000002
20
2.343165625
30
0
0
VERTEX
8
0
10
20.304665625000002
20
2.3373781250000003
30
0
0
SEQEND
0
POLYLINE
66
1
8
1_copper
10
0.0
20
0.0
30
0.0
70
1
0
VERTEX
8
0
10
5.2024187500000005
20
1.885959375
30
0
42
0.28507129883265453
0
VERTEX
8
0
10
5.733878125
20
2.3368
30
0
0
VERTEX
8
0
10
8.89
20
2.3368
30
0
42
0.198912367379658
0
VERTEX
8
0
10
9.033684375
20
2.396315625
30
0
0
VERTEX
8
0
10
10.303684375000001
20
3.666315625
30
0
42
0.09524406116534637
0
VERTEX
8
0
10
10.34631875
20
3.73
30
0
0
VERTEX
8
0
10
10.71
20
3.73
30
0
0
VERTEX
8
0
10
10.71
20
4.2418000000000005
30
0
42
0.30429944363557576
0
VERTEX
8
0
10
10.938684375000001
20
4.301315625
30
0
0
VERTEX
8
0
10
11.514168750000001
20
4.8768
30
0
0
VERTEX
8
0
10
12.700000000000001
20
4.8768
30
0
42
0.9999999999999999
0
VERTEX
8
0
10
12.700000000000001
20
5.2832
30
0
0
VERTEX
8
0
10
11.43
20
5.2832
30
0
42
0.198912367379658
0
VERTEX
8
0
10
11.286315625
20
5.223684375
30
0
0
VERTEX
8
0
10
10.71083125
20
4.6482
30
0
0
VERTEX
8
0
10
10.71
20
4.6482
30
0
0
VERTEX
8
0
10
10.71
20
4.73
30
0
0
VERTEX
8
0
10
9.610000000000001
20
4.73
30
0
0
VERTEX
8
0
10
9.610000000000001
20
3.73
30
0
0
VERTEX
8
0
10
9.792631250000001
20
3.73
30
0
0
VERTEX
8
0
10
8.80583125
20
2.7432000000000003
30
0
0
VERTEX
8
0
10
5.733878125
20
2.7432000000000003
30
0
42
0.31180219314275254
0
VERTEX
8
0
10
5.13784375
20
3.2004
30
0
0
VERTEX
8
0
10
3.75215625
20
3.2004
30
0
42
0.9520786018124834
0
VERTEX
8
0
10
3.75215625
20
1.8796000000000002
30
0
0
VERTEX
8
0
10
5.13784375
20
1.8796000000000002
30
0
0
SEQEND
0
POLYLINE
66
1
8
16_copper
10
0.0
20
0.0
30
0.0
70
1
0
VERTEX
8
0
10
5.2024187500000005
20
1.885959375
30
0
42
0.9063462356499619
0
VERTEX
8
0
10
5.13784375
20
3.2004
30
0
0
VERTEX
8
0
10
3.75215625
20
3.2004
30
0
42
0.9520786018124834
0
VERTEX
8
0
10
3.75215625
20
1.8796000000000002
30
0
0
VERTEX
8
0
10
5.13784375
20
1.8796000000000002
30
0
0
SEQEND
0
POLYLINE
66
1
8
1_copper
10
0.0
20
0.0
30
0.0
70
1
0
VERTEX
8
0
10
22.870103125
20
-1.4723125000000001
30
0
42
0.18597604843350257
0
VERTEX
8
0
10
23.003684375000002
20
-1.413684375
30
0
0
VERTEX
8
0
10
24.273684375000002
20
-0.143684375
30
0
42
0.9999999999999999
0
VERTEX
8
0
10
23.986315625
20
0.143684375
30
0
0
VERTEX
8
0
10
22.77583125
20
-1.0668
30
0
0
VERTEX
8
0
10
19.8781125
20
-1.0668
30
0
0
VERTEX
8
0
10
19.2532
20
-0.44188750000000004
30
0
0
VERTEX
8
0
10
19.2532
20
1.27
30
0
42
0.198912367379658
0
VERTEX
8
0
10
19.193684375
20
1.413684375
30
0
0
VERTEX
8
0
10
18.06736875
20
2.54
30
0
0
VERTEX
8
0
10
20.463684375
20
4.936315625000001
30
0
42
0.9999999999999999
0
VERTEX
8
0
10
20.176315625
20
5.223684375
30
0
0
VERTEX
8
0
10
17.69583125
20
2.7432000000000003
30
0
0
VERTEX
8
0
10
12.700000000000001
20
2.7432000000000003
30
0
42
0.198912367379658
0
VERTEX
8
0
10
12.556315625
20
2.6836843750000003
30
0
0
VERTEX
8
0
10
10.07583125
20
0.20320000000000002
30
0
0
VERTEX
8
0
10
5.733878125
20
0.20320000000000002
30
0
42
0.31180219314275254
0
VERTEX
8
0
10
5.13784375
20
0.6604
30
0
0
VERTEX
8
0
10
3.75215625
20
0.6604
30
0
42
0.9520786018124834
0
VERTEX
8
0
10
3.75215625
20
-0.6604
30
0
0
VERTEX
8
0
10
5.13784375
20
-0.6604
30
0
42
0.31180219314275254
0
VERTEX
8
0
10
5.733878125
20
-0.20320000000000002
30
0
0
VERTEX
8
0
10
10.16
20
-0.20320000000000002
30
0
42
0.198912367379658
0
VERTEX
8
0
10
10.303684375000001
20
-0.143684375
30
0
0
VERTEX
8
0
10
12.784168750000001
20
2.3368
30
0
0
VERTEX
8
0
10
17.69583125
20
2.3368
30
0
0
VERTEX
8
0
10
18.8468
20
1.1858312500000001
30
0
0
VERTEX
8
0
10
18.8468
20
-0.52605625
30
0
42
0.198912367379658
0
VERTEX
8
0
10
18.906315625
20
-0.669740625
30
0
0
VERTEX
8
0
10
19.650259375
20
-1.413684375
30
0
42
0.198912367379658
0
VERTEX
8
0
10
19.79394375
20
-1.4732
30
0
0
VERTEX
8
0
10
22.86
20
-1.4732
30
0
0
SEQEND
0
POLYLINE
66
1
8
16_copper
10
0.0
20
0.0
30
0.0
70
1
0
VERTEX
8
0
10
5.2024187500000005
20
-0.654040625
30
0
42
0.9063462356499619
0
VERTEX
8
0
10
5.13784375
20
0.6604
30
0
0
VERTEX
8
0
10
3.75215625
20
0.6604
30
0
42
0.9520786018124834
0
VERTEX
8
0
10
3.75215625
20
-0.6604
30
0
0
VERTEX
8
0
10
5.13784375
20
-0.6604
30
0
0
SEQEND
0
POLYLINE
66
1
8
1_copper
10
0.0
20
0.0
30
0.0
70
1
0
VERTEX
8
0
10
16.21
20
0.5
30
0
0
VERTEX
8
0
10
15.110000000000001
20
0.5
30
0
0
VERTEX
8
0
10
15.110000000000001
20
0.20320000000000002
30
0
0
VERTEX
8
0
10
12.700000000000001
20
0.20320000000000002
30
0
42
0.9234163001787704
0
VERTEX
8
0
10
12.667790625
20
-0.20063125
30
0
0
VERTEX
8
0
10
12.700000000000001
20
-0.20320000000000002
30
0
0
VERTEX
8
0
10
15.110000000000001
20
-0.20320000000000002
30
0
0
VERTEX
8
0
10
15.110000000000001
20
-0.5
30
0
0
VERTEX
8
0
10
16.21
20
-0.5
30
0
0
SEQEND
0
CIRCLE
8
drills_PTH
10
5.08
20
21.59
30
0
40
0.508
0
CIRCLE
8
drills_PTH
10
5.08
20
24.130000000000003
30
0
40
0.508
0
CIRCLE
8
drills_PTH
10
5.08
20
19.05
30
0
40
0.508
0
CIRCLE
8
drills_PTH
10
5.08
20
26.67
30
0
40
0.508
0
CIRCLE
8
drills_PTH
10
7.62
20
10.16
30
0
40
0.508
0
CIRCLE
8
drills_PTH
10
5.08
20
10.16
30
0
40
0.508
0
CIRCLE
8
drills_PTH
10
10.16
20
10.16
30
0
40
0.508
0
CIRCLE
8
drills_PTH
10
10.16
20
35.56
30
0
40
0.508
0
CIRCLE
8
drills_PTH
10
7.62
20
35.56
30
0
40
0.508
0
CIRCLE
8
drills_PTH
10
5.08
20
35.56
30
0
40
0.508
0
CIRCLE
8
drills_PTH
10
10.16
20
21.59
30
0
40
0.45
0
CIRCLE
8
drills_PTH
10
22.86
20
24.130000000000003
30
0
40
0.45
0
CIRCLE
8
drills_PTH
10
22.86
20
31.75
30
0
40
0.45
0
CIRCLE
8
drills_PTH
10
22.86
20
29.21
30
0
40
0.45
0
CIRCLE
8
drills_PTH
10
22.86
20
26.67
30
0
40
0.45
0
CIRCLE
8
drills_PTH
10
22.86
20
21.59
30
0
40
0.45
0
CIRCLE
8
drills_PTH
10
22.86
20
19.05
30
0
40
0.45
0
CIRCLE
8
drills_PTH
10
22.86
20
16.51
30
0
40
0.45
0
CIRCLE
8
drills_PTH
10
22.86
20
13.97
30
0
40
0.45
0
CIRCLE
8
drills_PTH
10
10.16
20
13.97
30
0
40
0.45
0
CIRCLE
8
drills_PTH
10
10.16
20
16.51
30
0
40
0.45
0
CIRCLE
8
drills_PTH
10
10.16
20
19.05
30
0
40
0.45
0
CIRCLE
8
drills_PTH
10
10.16
20
24.130000000000003
30
0
40
0.45
0
CIRCLE
8
drills_PTH
10
10.16
20
26.67
30
0
40
0.45
0
CIRCLE
8
drills_PTH
10
10.16
20
29.21
30
0
40
0.45
0
CIRCLE
8
drills_PTH
10
10.16
20
31.75
30
0
40
0.45
0
CIRCLE
8
drills_PTH
10
26.67
20
0
30
0
40
0.40640000000000004
0
CIRCLE
8
drills_PTH
10
33.02
20
16.51
30
0
40
0.40640000000000004
0
CIRCLE
8
drills_PTH
10
30.48
20
16.51
30
0
40
0.40640000000000004
0
CIRCLE
8
drills_PTH
10
24.130000000000003
20
0
30
0
40
0.40640000000000004
0
CIRCLE
8
drills_PTH
10
20.32
20
7.62
30
0
40
0.40640000000000004
0
CIRCLE
8
drills_PTH
10
20.32
20
5.08
30
0
40
0.40640000000000004
0
CIRCLE
8
drills_PTH
10
35.56
20
16.51
30
0
40
0.40640000000000004
0
CIRCLE
8
drills_PTH
10
12.700000000000001
20
5.08
30
0
40
0.40640000000000004
0
CIRCLE
8
drills_PTH
10
12.700000000000001
20
7.62
30
0
40
0.40640000000000004
0
CIRCLE
8
drills_PTH
10
20.32
20
0
30
0
40
0.40640000000000004
0
CIRCLE
8
drills_PTH
10
12.700000000000001
20
2.54
30
0
40
0.40640000000000004
0
CIRCLE
8
drills_PTH
10
12.700000000000001
20
0
30
0
40
0.40640000000000004
0
CIRCLE
8
drills_PTH
10
20.32
20
2.54
30
0
40
0.40640000000000004
0
CIRCLE
8
drills_PTH
10
4.445
20
0
30
0
40
0.40640000000000004
0
CIRCLE
8
drills_PTH
10
4.445
20
5.08
30
0
40
0.40640000000000004
0
CIRCLE
8
drills_PTH
10
4.445
20
2.54
30
0
40
0.40640000000000004
0
CIRCLE
8
drills_PTH
10
30.48
20
7.62
30
0
40
0.40640000000000004
0
CIRCLE
8
drills_PTH
10
33.02
20
7.62
30
0
40
0.40640000000000004
0
CIRCLE
8
drills_PTH
10
35.56
20
7.62
30
0
40
0.40640000000000004
0
CIRCLE
8
drills_PTH
10
33.02
20
34.29
30
0
40
0.40640000000000004
0
CIRCLE
8
drills_PTH
10
35.56
20
34.29
30
0
40
0.40640000000000004
0
CIRCLE
8
drills_PTH
10
30.48
20
34.29
30
0
40
0.40640000000000004
0
CIRCLE
8
drills_PTH
10
35.56
20
25.400000000000002
30
0
40
0.40640000000000004
0
CIRCLE
8
drills_PTH
10
33.02
20
25.400000000000002
30
0
40
0.40640000000000004
0
CIRCLE
8
drills_PTH
10
30.48
20
25.400000000000002
30
0
40
0.40640000000000004
0
CIRCLE
8
drills_PTH
10
13.97
20
36.83
30
0
40
0.40640000000000004
0
CIRCLE
8
drills_PTH
10
19.05
20
36.83
30
0
40
0.40640000000000004
0
ENDSEC
0
EOF