0
SECTION
2
HEADER
9
$INSUNITS
70
4
9
$ACADVER
1
AC1014
9
$HANDSEED
5
FFFF
0
ENDSEC
0
SECTION
2
TABLES
0
TABLE
2
VPORT
5
8
100
AcDbSymbolTable
0
ENDTAB
0
TABLE
2
LTYPE
5
5
100
AcDbSymbolTable
0
LTYPE
5
14
100
AcDbSymbolTableRecord
100
AcDbLinetypeTableRecord
2
BYBLOCK
70
0
0
LTYPE
5
15
100
AcDbSymbolTableRecord
100
AcDbLinetypeTableRecord
2
BYLAYER
70
0
0
ENDTAB
0
TABLE
2
LAYER
5
2
100
AcDbSymbolTable
70
2
0
LAYER
5
50
100
AcDbSymbolTableRecord
100
AcDbLayerTableRecord
2
0
70
0
6
CONTINUOUS
0
ENDTAB
0
TABLE
2
STYLE
5
3
100
AcDbSymbolTable
70
1
0
STYLE
5
11
100
AcDbSymbolTableRecord
100
AcDbTextStyleTableRecord
2
STANDARD
70
0
0
ENDTAB
0
TABLE
2
VIEW
5
6
100
AcDbSymbolTable
70
0
0
ENDTAB
0
TABLE
2
UCS
5
7
100
AcDbSymbolTable
70
0
0
ENDTAB
0
TABLE
2
APPID
5
9
100
AcDbSymbolTable
70
2
0
APPID
5
12
100
AcDbSymbolTableRecord
100
AcDbRegAppTableRecord
2
ACAD
70
0
0
ENDTAB
0
TABLE
2
DIMSTYLE
5
A
100
AcDbSymbolTable
70
1
0
ENDTAB
0
TABLE
2
BLOCK_RECORD
5
1
100
AcDbSymbolTable
70
1
0
BLOCK_RECORD
5
1F
100
AcDbSymbolTableRecord
100
AcDbBlockTableRecord
2
*MODEL_SPACE
0
BLOCK_RECORD
5
1B
100
AcDbSymbolTableRecord
100
AcDbBlockTableRecord
2
*PAPER_SPACE
0
ENDTAB
0
ENDSEC
0
SECTION
2
BLOCKS
0
BLOCK
5
20
100
AcDbEntity
100
AcDbBlockBegin
2
*MODEL_SPACE
0
ENDBLK
5
21
100
AcDbEntity
100
AcDbBlockEnd
0
BLOCK
5
1C
100
AcDbEntity
100
AcDbBlockBegin
2
*PAPER_SPACE
0
ENDBLK
5
1D
100
AcDbEntity
100
AcDbBlockEnd
0
ENDSEC
0
SECTION
2
ENTITIES
0
LWPOLYLINE
5
100
100
AcDbEntity
8
0
100
AcDbPolyline
90
4
70
1
43
0.0
10
16.051650305411187
20
-0.5571098349356739
42
-1.00068499725779
10
16.051650305411151
20
-2.082501445083782
10
14.528211821524458
20
-2.0825014450837838
42
-1.0006849972578307
10
14.52821182152443
20
-0.55710983493567134
0
LWPOLYLINE
5
101
100
AcDbEntity
8
0
100
AcDbPolyline
90
4
70
1
43
0.0
10
16.05165030541114
20
-8.1782085068920516
42
-1.0311083446627665
10
16.051650305411144
20
-9.701646990778773
10
14.528211821524442
20
-9.701646990778773
42
-1.0311083446627682
10
14.528211821524435
20
-8.1782085068920516
0
CIRCLE
5
102
100
AcDbEntity
8
0
100
AcDbCircle
10
7.6700040407704462
20
15.190009807824019
30
0
40
0.66040028069144274
210
-0
220
0
230
1
0
LWPOLYLINE
5
103
100
AcDbEntity
8
0
100
AcDbPolyline
90
4
70
1
43
0.0
10
16.584853774771503
20
13.310086620956259
42
-1.0311071292324347
10
16.584853774771503
20
11.989773268254435
10
15.264540422069675
20
11.989773268254435
42
-1.0311071292324412
10
15.264540422069679
20
13.310086620956259
0
CIRCLE
5
104
100
AcDbEntity
8
0
100
AcDbCircle
10
0.049999233961433021
20
15.190009807824019
30
0
40
0.66040123436637455
210
0
220
-0
230
1
0
CIRCLE
5
105
100
AcDbEntity
8
0
100
AcDbCircle
10
7.6700040407703174
20
10.110006126447214
30
0
40
0.660401234366502
210
0
220
-0
230
1
0
LWPOLYLINE
5
106
100
AcDbEntity
8
0
100
AcDbPolyline
90
5
70
1
43
0.0
10
10.221567461477431
20
-16.295401249242314
42
-0.41400850021862068
10
10.971568899527359
20
-17.068839248754031
10
10.971568899527355
20
-18.592277732640746
42
-1.0311083446627607
10
9.4481304156406409
20
-18.592277732640753
10
9.4481304299637454
20
-17.068839248538858
42
-0.42304035459440675
0
LWPOLYLINE
5
107
100
AcDbEntity
8
0
100
AcDbPolyline
90
4
70
1
43
0.0
10
16.58485377477151
20
18.390168026840048
42
-1.0311071292324308
10
16.584853774771503
20
17.069854674138224
10
15.264540422069675
20
17.069854674138224
42
-1.0311071292324412
10
15.264540422069679
20
18.390168026840048
0
LWPOLYLINE
5
108
100
AcDbEntity
8
0
100
AcDbPolyline
90
5
70
1
43
0.0
10
10.221567461477425
20
9.10500578017664
42
-0.41400850021862495
10
10.971568899527359
20
8.3315677806649173
10
10.971568899527355
20
6.8081292967781994
42
-1.0311083446627589
10
9.4481304156406409
20
6.8081292967781977
10
9.4481304156406374
20
8.3315677806649173
42
-0.42304034888518272
0
LWPOLYLINE
5
109
100
AcDbEntity
8
0
100
AcDbPolyline
90
5
70
1
43
0.0
10
15.30164982103615
20
9.1050057801766346
42
-0.41400813954761506
10
16.051650305411144
20
8.3315677806649173
10
16.051650305411144
20
6.8081292967781994
42
-1.0311083446627589
10
14.52821182152443
20
6.8081292967781977
10
14.528211821524433
20
8.3315677806649173
42
-0.42304072339616822
0
CIRCLE
5
110
100
AcDbEntity
8
0
100
AcDbCircle
10
7.6700040407704462
20
17.730011350489004
30
0
40
0.66040028069143619
210
-0
220
0
230
1
0
LWPOLYLINE
5
111
100
AcDbEntity
8
0
100
AcDbPolyline
90
5
70
1
43
0.0
10
15.301649821036145
20
-16.295401249242317
42
-0.41400813954761462
10
16.051650305411144
20
-17.068839248754031
10
16.051650305411144
20
-18.592277732640746
42
-1.0311083446627607
10
14.52821182152443
20
-18.592277732640753
10
14.528211821524435
20
-17.068839248754031
42
-0.42304072339616877
0
LWPOLYLINE
5
112
100
AcDbEntity
8
0
100
AcDbPolyline
90
4
70
1
43
0.0
10
16.584853774771602
20
15.851103887028845
42
-1.0004247201845489
10
16.584853774771496
20
14.528837408065634
10
15.264540422069688
20
14.528837408065634
42
-0.99999999999999989
10
15.264540422069679
20
15.851104006238216
0
LWPOLYLINE
5
113
100
AcDbEntity
8
0
100
AcDbPolyline
90
4
70
1
43
0.0
10
14.52821182152443
20
-7.1625828509675671
42
-0.99999999999999989
10
14.52821182152443
20
-5.6371912408194635
10
16.051650305411151
20
-5.6371912408194591
42
-0.99999999999999989
10
16.051650305411151
20
-7.1625828509675715
0
LWPOLYLINE
5
114
100
AcDbEntity
8
0
100
AcDbPolyline
90
4
70
1
43
0.0
10
4.1600029159211793
20
18.230011673405805
10
4.1600029159211793
20
17.23001102757247
10
5.2600030541328868
20
17.23001102757247
10
5.2600030541328868
20
18.230011673405805
0
LWPOLYLINE
5
115
100
AcDbEntity
8
0
100
AcDbPolyline
90
5
70
1
43
0.0
10
12.760632554963554
20
-16.295401249242314
42
-0.41474794861844405
10
13.512586165599952
20
-17.068839248754028
10
13.512586165599952
20
-18.592277732640753
42
-0.99999999999999989
10
11.98719455545184
20
-18.592277732640753
10
11.98719455545184
20
-17.068839248754031
42
-0.42304072339617038
0
LWPOLYLINE
5
116
100
AcDbEntity
8
0
100
AcDbPolyline
90
4
70
1
43
0.0
10
2.4600010550645646
20
18.230011673405805
10
2.4600010550645646
20
17.23001102757247
10
3.5600021469512066
20
17.23001102757247
10
3.5600021469512066
20
18.230011673405805
0
LWPOLYLINE
5
117
100
AcDbEntity
8
0
100
AcDbPolyline
90
5
70
1
43
0.0
10
12.760632554963554
20
9.1050057801766364
42
-0.41474794861844444
10
13.512586165599952
20
8.3315677806649173
10
13.512586165599952
20
6.808129296778203
42
-0.99999999999999989
10
11.98719455545184
20
6.8081292967781977
10
11.98719455545184
20
8.3315677806649173
42
-0.42304072339616822
0
LWPOLYLINE
5
118
100
AcDbEntity
8
0
100
AcDbPolyline
90
4
70
1
43
0.0
10
9.6600055143295815
20
14.000008922457303
10
9.6600055143295815
20
13.000008276623971
10
10.760006606216219
20
13.000008276623971
10
10.760006606216219
20
14.000008922457303
0
CIRCLE
5
119
100
AcDbEntity
8
0
100
AcDbCircle
10
0.049999233961437461
20
17.730011350489004
30
0
40
0.66040123436636877
210
0
220
-0
230
1
0
CIRCLE
5
120
100
AcDbEntity
8
0
100
AcDbCircle
10
7.6700040407704462
20
12.650008205554348
30
0
40
0.66040028069144241
210
-0
220
0
230
1
0
LWPOLYLINE
5
121
100
AcDbEntity
8
0
100
AcDbPolyline
90
4
70
1
43
0.0
10
9.6600055143295815
20
12.300008015275623
10
9.6600055143295815
20
11.300007369442291
10
10.760006606216219
20
11.300007369442291
10
10.760006606216219
20
12.300008015275623
0
LWPOLYLINE
5
122
100
AcDbEntity
8
0
100
AcDbPolyline
90
8
70
1
43
0.0
10
-7.0874046318383188
20
18.056162663909689
10
-7.0874046318383188
20
17.403860007266246
10
-6.6261559361215783
20
16.942612324829124
10
-5.973853726513263
20
16.942612324829124
10
-5.512605030796518
20
17.403860007266246
10
-5.5126050307965224
20
18.056162693712029
10
-5.973853726513263
20
18.517410316544467
10
-6.6261559361215738
20
18.517410316544467
0
CIRCLE
5
123
100
AcDbEntity
8
0
100
AcDbCircle
10
-3.7600015601166148
20
17.730011350488812
30
0
40
0.78739908526469782
210
-0
220
0
230
1
0
LWPOLYLINE
5
124
100
AcDbEntity
8
0
100
AcDbPolyline
90
4
70
1
43
0.0
10
16.05165030541114
20
-3.0981271010082612
42
-1.0311083446627665
10
16.051650305411144
20
-4.6215655848949844
10
14.528211821524442
20
-4.6215655848949844
42
-1.0311083446627682
10
14.528211821524435
20
-3.0981271010082612
0
CIRCLE
5
125
100
AcDbEntity
8
0
100
AcDbCircle
10
0.049999233961308676
20
10.110006126447214
30
0
40
0.660401234366502
210
0
220
-0
230
1
0
CIRCLE
5
126
100
AcDbEntity
8
0
100
AcDbCircle
10
0.049999233961433021
20
12.650008205554348
30
0
40
0.66040123436637477
210
0
220
-0
230
1
0
LWPOLYLINE
5
127
100
AcDbEntity
8
0
100
AcDbPolyline
90
5
70
1
43
0.0
10
-10.100710334644191
20
11.440944788802938
42
-0.41400293629461965
10
-9.4503192896002446
20
10.77102248114506
10
-9.4503192896002464
20
9.44875600218184
42
-1.0311071292324412
10
-10.770632642302068
20
9.4487560021818435
10
-10.770632642302068
20
10.77102248114506
42
-0.42268690008190912
0
LWPOLYLINE
5
128
100
AcDbEntity
8
0
100
AcDbPolyline
90
5
70
1
43
0.0
10
-12.639774474455391
20
11.440944788802936
42
-0.41400293629462354
10
-11.989383429411447
20
10.77102248114506
10
-11.989383429411447
20
9.4487560021818435
42
-1.0311071292324412
10
-13.309696782113269
20
9.4487560021818435
10
-13.309696782113269
20
10.77102248114506
42
-0.42268690008191218
0
LWPOLYLINE
5
129
100
AcDbEntity
8
0
100
AcDbPolyline
90
5
70
1
43
0.0
10
-15.180791740527981
20
11.440944788802934
42
-0.41400293629462354
10
-14.530400695484037
20
10.771022481145058
10
-14.530400695484033
20
9.4487560021818435
42
-1.0311071292324459
10
-15.850714048185859
20
9.4487560021818435
10
-15.850714048185859
20
10.77102248114506
42
-0.42268690008190912
0
LWPOLYLINE
5
130
100
AcDbEntity
8
0
100
AcDbPolyline
90
5
70
1
43
0.0
10
-15.180791740527981
20
-15.22899431052161
42
-0.41400293629462354
10
-14.530400695484037
20
-15.898916618179486
10
-14.530400695484037
20
-17.221183097142713
42
-1.0311071292324374
10
-15.850714048185859
20
-17.221183097142703
10
-15.850714048185857
20
-15.898916618179486
42
-0.42268690008191723
0
LWPOLYLINE
5
131
100
AcDbEntity
8
0
100
AcDbPolyline
90
5
70
1
43
0.0
10
-12.639774474455391
20
-15.228994310521607
42
-0.41400293629462553
10
-11.989383429411447
20
-15.898916618179486
10
-11.989383429411447
20
-17.221183097142713
42
-1.0311071292324374
10
-13.309696782113269
20
-17.221183097142703
10
-13.309696782113267
20
-15.898916618179486
42
-0.42268690008191517
0
LWPOLYLINE
5
132
100
AcDbEntity
8
0
100
AcDbPolyline
90
5
70
1
43
0.0
10
-10.100710334644191
20
-15.228994310521607
42
-0.41400293629462459
10
-9.4503192896002446
20
-15.898916618179486
10
-9.4503192896002446
20
-17.221183097142713
42
-1.0311071292324374
10
-10.770632642302068
20
-17.221183097142703
10
-10.770632642302067
20
-15.898916618179481
42
-0.42268690008190923
0
LWPOLYLINE
5
133
100
AcDbEntity
8
0
100
AcDbPolyline
90
5
70
1
43
0.0
10
-15.180791740527983
20
-6.3403166949210252
42
-0.41400293629462115
10
-14.530400695484037
20
-7.0102390025789019
10
-14.530400695484037
20
-8.3305523552807283
42
-1.0311071292324374
10
-15.850714048185859
20
-8.3305523552807195
10
-15.850714048185864
20
-7.0102390025789019
42
-0.42268690008191012
0
LWPOLYLINE
5
134
100
AcDbEntity
8
0
100
AcDbPolyline
90
5
70
1
43
0.0
10
-12.639774474455391
20
-6.3403166949210217
42
-0.41400293629462159
10
-11.989383429411447
20
-7.0102390025789019
10
-11.989383429411447
20
-8.3305523552807283
42
-1.0311071292324374
10
-13.309696782113269
20
-8.3305523552807195
10
-13.309696782113276
20
-7.0102390025789019
42
-0.42268690008191362
0
LWPOLYLINE
5
135
100
AcDbEntity
8
0
100
AcDbPolyline
90
5
70
1
43
0.0
10
-10.100710334644191
20
-6.3403166949210208
42
-0.41400293629462309
10
-9.4503192896002446
20
-7.0102390025789019
10
-9.4503192896002446
20
-8.3305523552807283
42
-1.0311071292324374
10
-10.770632642302068
20
-8.3305523552807195
10
-10.770632642302072
20
-7.0102390025789019
42
-0.42268690008191162
0
LWPOLYLINE
5
136
100
AcDbEntity
8
0
100
AcDbPolyline
90
5
70
1
43
0.0
10
-15.18079174052798
20
2.5503130932660256
42
-0.41400250738313071
10
-14.530400695484033
20
1.8803917392830782
10
-14.530400695484037
20
0.56007838658125597
42
-1.0311071292324412
10
-15.850714048185859
20
0.56007838658125753
10
-15.850714048185859
20
1.8803917392830805
42
-0.42268646833057838
0
LWPOLYLINE
5
137
100
AcDbEntity
8
0
100
AcDbPolyline
90
5
70
1
43
0.0
10
-12.63977447445539
20
2.5503130932660256
42
-0.41400250738313377
10
-11.989383429411447
20
1.8803917392830782
10
-11.989383429411447
20
0.56007838658125797
42
-1.0311071292324394
10
-13.309696782113269
20
0.56007838658125753
10
-13.309696782113267
20
1.8803917392830805
42
-0.42268646833057699
0
LWPOLYLINE
5
138
100
AcDbEntity
8
0
100
AcDbPolyline
90
5
70
1
43
0.0
10
-10.100710334644194
20
2.5503130932660225
42
-0.41400250738313527
10
-9.4503192896002481
20
1.8803917392830782
10
-9.4503192896002464
20
0.56007838658125686
42
-1.0311071292324412
10
-10.770632642302068
20
0.56007838658125753
10
-10.770632642302068
20
1.8803917392830805
42
-0.4226864683305791
0
CIRCLE
5
139
100
AcDbEntity
8
0
100
AcDbCircle
10
-2.4900033815892986
20
-14.020007724206964
30
0
40
0.70400140452851967
210
0
220
-0
230
1
0
CIRCLE
5
140
100
AcDbEntity
8
0
100
AcDbCircle
10
-2.4900033815880063
20
-11.480007075612221
30
0
40
0.7040014045272186
210
0
220
-0
230
1
0
CIRCLE
5
141
100
AcDbEntity
8
0
100
AcDbCircle
10
-2.4900033815880063
20
-8.940006427017483
30
0
40
0.7040014045272186
210
0
220
-0
230
1
0
CIRCLE
5
142
100
AcDbEntity
8
0
100
AcDbCircle
10
-2.4900033815880063
20
-6.4000038710728813
30
0
40
0.7040014045272186
210
0
220
-0
230
1
0
CIRCLE
5
143
100
AcDbEntity
8
0
100
AcDbCircle
10
-2.4900033815880063
20
-3.8600032224781478
30
0
40
0.7040014045272186
210
0
220
-0
230
1
0
CIRCLE
5
144
100
AcDbEntity
8
0
100
AcDbCircle
10
-2.4900033815880063
20
-1.3200006665335473
30
0
40
0.70400140452722082
210
0
220
-0
230
1
0
CIRCLE
5
145
100
AcDbEntity
8
0
100
AcDbCircle
10
-2.4900033815880063
20
1.2199999820611906
30
0
40
0.70400140452722304
210
0
220
-0
230
1
0
CIRCLE
5
146
100
AcDbEntity
8
0
100
AcDbCircle
10
-2.4900033815880063
20
3.7600025380057933
30
0
40
0.70400140452722082
210
0
220
-0
230
1
0
CIRCLE
5
147
100
AcDbEntity
8
0
100
AcDbCircle
10
10.210005583435272
20
3.7600025380057933
30
0
40
0.70400045085229068
210
-0
220
0
230
1
0
CIRCLE
5
148
100
AcDbEntity
8
0
100
AcDbCircle
10
10.210005583435272
20
1.2199999820611906
30
0
40
0.70400045085229068
210
-0
220
0
230
1
0
CIRCLE
5
149
100
AcDbEntity
8
0
100
AcDbCircle
10
10.210005583435272
20
-6.4000038710728813
30
0
40
0.70400140452722304
210
0
220
-0
230
1
0
LWPOLYLINE
5
150
100
AcDbEntity
8
0
100
AcDbPolyline
90
8
70
1
43
0.0
10
0.36750092436222737
20
-18.705471317707783
10
0.36750092436222737
20
-19.494549586109567
10
0.92546179496563408
20
-20.052510456712969
10
1.7145381560175466
20
-20.052510456712969
10
2.2724990266209488
20
-19.494549586109567
10
2.2724990266209488
20
-18.705471317707783
10
1.7145381560175466
20
-18.147510447104377
10
0.92546179496563408
20
-18.147510447104377
0
CIRCLE
5
151
100
AcDbEntity
8
0
100
AcDbCircle
10
10.210005583435272
20
-3.8600032224781478
30
0
40
0.70400045085228846
210
-0
220
0
230
1
0
CIRCLE
5
152
100
AcDbEntity
8
0
100
AcDbCircle
10
10.210005583435272
20
-11.480007075612221
30
0
40
0.70400140452722304
210
0
220
-0
230
1
0
CIRCLE
5
153
100
AcDbEntity
8
0
100
AcDbCircle
10
10.210005583433981
20
-14.020007724206964
30
0
40
0.70400045085487739
210
-0
220
0
230
1
0
CIRCLE
5
154
100
AcDbEntity
8
0
100
AcDbCircle
10
10.210005583435272
20
-1.3200006665335473
30
0
40
0.70400140452722304
210
0
220
-0
230
1
0
CIRCLE
5
155
100
AcDbEntity
8
0
100
AcDbCircle
10
10.210005583435272
20
-8.940006427017483
30
0
40
0.70400045085228846
210
-0
220
0
230
1
0
CIRCLE
5
156
100
AcDbEntity
8
0
100
AcDbCircle
10
6.4000037760775763
20
-19.100013670561637
30
0
40
0.95250131610769961
210
0
220
-0
230
1
0
LWPOLYLINE
5
157
100
AcDbEntity
8
0
100
AcDbPolyline
90
4
70
1
43
0.0
10
20.320012436314855
20
21.590013738501565
10
20.320012436314862
20
-21.590013738501558
10
-20.320012436314855
20
-21.590013738501554
10
-20.320012436314862
20
21.590013738501561
0
ENDSEC
0
SECTION
2
OBJECTS
0
DICTIONARY
5
C
100
AcDbDictionary
3
ACAD_GROUP
350
D
3
ACAD_MLINESTYLE
350
17
0
DICTIONARY
5
D
100
AcDbDictionary
0
DICTIONARY
5
1A
330
C
100
AcDbDictionary
0
DICTIONARY
5
17
100
AcDbDictionary
0
ENDSEC
0
EOF
