  0
SECTION
  2
HEADER
  9
$ACADVER
  1
AC1014
  9
$HANDSEED
  5
FFFF
  9
$MEASUREMENT
 70
     1
  0
ENDSEC
  0
SECTION
  2
TABLES
  0
TABLE
  2
VPORT
  5
8
330
0
100
AcDbSymbolTable
 70
     4
  0
VPORT
  5
2E
330
8
100
AcDbSymbolTableRecord
100
AcDbViewportTableRecord
  2
*ACTIVE
 70
     0
 10
0.0
 20
0.0
 11
1.0
 21
1.0
 12
210.0
 22
148.5
 13
0.0
 23
0.0
 14
10.0
 24
10.0
 15
10.0
 25
10.0
 16
0.0
 26
0.0
 36
1.0
 17
0.0
 27
0.0
 37
0.0
 40
341.0
 41
1.24
 42
50.0
 43
0.0
 44
0.0
 50
0.0
 51
0.0
 71
     0
 72
   100
 73
     1
 74
     3
 75
     0
 76
     0
 77
     0
 78
     0
  0
ENDTAB
  0
TABLE
  2
LTYPE
  5
5
330
0
100
AcDbSymbolTable
 70
     1
  0
LTYPE
  5
14
330
5
100
AcDbSymbolTableRecord
100
AcDbLinetypeTableRecord
  2
BYBLOCK
 70
     0
  3

 72
    65
 73
     0
 40
0.0
  0
LTYPE
  5
15
330
5
100
AcDbSymbolTableRecord
100
AcDbLinetypeTableRecord
  2
BYLAYER
 70
     0
  3

 72
    65
 73
     0
 40
0.0
  0
LTYPE
  5
16
330
5
100
AcDbSymbolTableRecord
100
AcDbLinetypeTableRecord
  2
CONTINUOUS
 70
     0
  3
Solid line
 72
    65
 73
     0
 40
0.0
  0
ENDTAB
  0
TABLE
  2
LAYER
  5
2
100
AcDbSymbolTable
 70
1
  0
LAYER
  5
50
100
AcDbSymbolTableRecord
100
AcDbLayerTableRecord
  2
0
 70
0
  6
CONTINUOUS
  0
ENDTAB
  0
TABLE
  2
STYLE
  5
3
330
0
100
AcDbSymbolTable
 70
     1
  0
STYLE
  5
11
330
3
100
AcDbSymbolTableRecord
100
AcDbTextStyleTableRecord
  2
STANDARD
 70
     0
 40
0.0
 41
1.0
 50
0.0
 71
     0
 42
2.5
  3
txt
  4

  0
ENDTAB
  0
TABLE
  2
VIEW
  5
6
330
0
100
AcDbSymbolTable
 70
     0
  0
ENDTAB
  0
TABLE
  2
UCS
  5
7
330
0
100
AcDbSymbolTable
 70
     0
  0
ENDTAB
  0
TABLE
  2
APPID
  5
9
330
0
100
AcDbSymbolTable
 70
     2
  0
APPID
  5
12
330
9
100
AcDbSymbolTableRecord
100
AcDbRegAppTableRecord
  2
ACAD
 70
     0
  0
ENDTAB
  0
TABLE
  2
DIMSTYLE
  5
A
330
0
100
AcDbSymbolTable
 70
     1
  0
DIMSTYLE
105
27
330
A
100
AcDbSymbolTableRecord
100
AcDbDimStyleTableRecord
  2
ISO-25
 70
     0
  3

  4

  5

  6

  7

 40
1.0
 41
2.5
 42
0.625
 43
3.75
 44
1.25
 45
0.0
 46
0.0
 47
0.0
 48
0.0
140
2.5
141
2.5
142
0.0
143
0.03937007874016
144
1.0
145
0.0
146
1.0
147
0.625
 71
     0
 72
     0
 73
     0
 74
     0
 75
     0
 76
     0
 77
     1
 78
     8
170
     0
171
     3
172
     1
173
     0
174
     0
175
     0
176
     0
177
     0
178
     0
270
     2
271
     2
272
     2
273
     2
274
     3
340
11
275
     0
280
     0
281
     0
282
     0
283
     0
284
     8
285
     0
286
     0
287
     3
288
     0
  0
ENDTAB
  0
TABLE
  2
BLOCK_RECORD
  5
1
330
0
100
AcDbSymbolTable
 70
     1
  0
BLOCK_RECORD
  5
1F
330
1
100
AcDbSymbolTableRecord
100
AcDbBlockTableRecord
  2
*MODEL_SPACE
  0
BLOCK_RECORD
  5
1B
330
1
100
AcDbSymbolTableRecord
100
AcDbBlockTableRecord
  2
*PAPER_SPACE
  0
ENDTAB
  0
ENDSEC
  0
SECTION
  2
BLOCKS
  0
BLOCK
  5
20
330
1F
100
AcDbEntity
  8
0
100
AcDbBlockBegin
  2
*MODEL_SPACE
 70
     0
 10
0.0
 20
0.0
 30
0.0
  3
*MODEL_SPACE
  1

  0
ENDBLK
  5
21
330
1F
100
AcDbEntity
  8
0
100
AcDbBlockEnd
  0
BLOCK
  5
1C
330
1B
100
AcDbEntity
 67
     1
  8
0
100
AcDbBlockBegin
  2
*PAPER_SPACE
  1

  0
ENDBLK
  5
1D
330
1B
100
AcDbEntity
 67
     1
  8
0
100
AcDbBlockEnd
  0
ENDSEC
  0
SECTION
  2
ENTITIES
  0
SPLINE
  5
100
100
AcDbEntity
  8
0
 62
7
100
AcDbSpline
 70
0
 71
3
 72
16
 73
12
 74
10
 40
0.000000
 40
0.000000
 40
0.000000
 40
0.000000
 40
0.266155
 40
0.528502
 40
0.794657
 40
1.060812
 40
1.323158
 40
1.589314
 40
1.855469
 40
2.117815
 40
2.383971
 40
2.383971
 40
2.383971
 40
2.383971
 10
36.371663
 20
21.032894
 30
0.0
 10
36.460834
 20
21.023781
 30
0.0
 10
36.637899
 20
21.005687
 30
0.0
 10
36.871894
 20
20.865297
 30
0.0
 10
37.045864
 20
20.659753
 30
0.0
 10
37.138131
 20
20.405188
 30
0.0
 10
37.138131
 20
20.135197
 30
0.0
 10
37.045864
 20
19.880633
 30
0.0
 10
36.871894
 20
19.675089
 30
0.0
 10
36.637899
 20
19.534699
 30
0.0
 10
36.460834
 20
19.516604
 30
0.0
 10
36.371663
 20
19.507492
 30
0.0
 11
36.371663
 21
21.032894
 31
0.0
 11
36.633737
 21
20.986465
 31
0.0
 11
36.860936
 21
20.855292
 31
0.0
 11
37.032181
 21
20.651543
 31
0.0
 11
37.123010
 21
20.401366
 31
0.0
 11
37.123010
 21
20.139020
 31
0.0
 11
37.032181
 21
19.888842
 31
0.0
 11
36.860936
 21
19.685093
 31
0.0
 11
36.633737
 21
19.553920
 31
0.0
 11
36.371663
 21
19.507492
 31
0.0
  0
LWPOLYLINE
  5
101
100
AcDbEntity
  8
0
 62
7
100
AcDbPolyline
 90
2
 70
0
 10
36.371663
 20
19.507492
 30
0.0
 10
34.848224
 20
19.507492
 30
0.0
  0
SPLINE
  5
102
100
AcDbEntity
  8
0
 62
7
100
AcDbSpline
 70
0
 71
3
 72
16
 73
12
 74
10
 40
0.000000
 40
0.000000
 40
0.000000
 40
0.000000
 40
0.266155
 40
0.528502
 40
0.794657
 40
1.060812
 40
1.323158
 40
1.589314
 40
1.855469
 40
2.117815
 40
2.383971
 40
2.383971
 40
2.383971
 40
2.383971
 10
34.848224
 20
19.507492
 30
0.0
 10
34.759053
 20
19.516604
 30
0.0
 10
34.581988
 20
19.534699
 30
0.0
 10
34.347993
 20
19.675089
 30
0.0
 10
34.174023
 20
19.880633
 30
0.0
 10
34.081756
 20
20.135197
 30
0.0
 10
34.081756
 20
20.405188
 30
0.0
 10
34.174023
 20
20.659753
 30
0.0
 10
34.347993
 20
20.865297
 30
0.0
 10
34.581988
 20
21.005687
 30
0.0
 10
34.759053
 20
21.023781
 30
0.0
 10
34.848224
 20
21.032894
 30
0.0
 11
34.848224
 21
19.507492
 31
0.0
 11
34.586150
 21
19.553920
 31
0.0
 11
34.358951
 21
19.685093
 31
0.0
 11
34.187706
 21
19.888842
 31
0.0
 11
34.096877
 21
20.139020
 31
0.0
 11
34.096877
 21
20.401366
 31
0.0
 11
34.187706
 21
20.651543
 31
0.0
 11
34.358951
 21
20.855292
 31
0.0
 11
34.586150
 21
20.986465
 31
0.0
 11
34.848224
 21
21.032894
 31
0.0
  0
LWPOLYLINE
  5
103
100
AcDbEntity
  8
0
 62
7
100
AcDbPolyline
 90
2
 70
0
 10
34.848224
 20
21.032894
 30
0.0
 10
36.371663
 20
21.032894
 30
0.0
  0
SPLINE
  5
104
100
AcDbEntity
  8
0
 62
7
100
AcDbSpline
 70
0
 71
3
 72
16
 73
12
 74
10
 40
0.000000
 40
0.000000
 40
0.000000
 40
0.000000
 40
0.271096
 40
0.538169
 40
0.809265
 40
1.080361
 40
1.347435
 40
1.618530
 40
1.889626
 40
2.156700
 40
2.427796
 40
2.427796
 40
2.427796
 40
2.427796
 10
36.371663
 20
13.411809
 30
0.0
 10
36.462754
 20
13.405115
 30
0.0
 10
36.643584
 20
13.391827
 30
0.0
 10
36.884980
 20
13.253525
 30
0.0
 10
37.065100
 20
13.046491
 30
0.0
 10
37.160893
 20
12.787667
 30
0.0
 10
37.160893
 20
12.512507
 30
0.0
 10
37.065100
 20
12.253683
 30
0.0
 10
36.884980
 20
12.046649
 30
0.0
 10
36.643584
 20
11.908347
 30
0.0
 10
36.462754
 20
11.895059
 30
0.0
 10
36.371663
 20
11.888365
 30
0.0
 11
36.371663
 21
13.411809
 31
0.0
 11
36.639784
 21
13.371761
 31
0.0
 11
36.873745
 21
13.242955
 31
0.0
 11
37.050975
 21
13.037816
 31
0.0
 11
37.145204
 21
12.783624
 31
0.0
 11
37.145204
 21
12.516550
 31
0.0
 11
37.050975
 21
12.262358
 31
0.0
 11
36.873745
 21
12.057218
 31
0.0
 11
36.639784
 21
11.928412
 31
0.0
 11
36.371663
 21
11.888365
 31
0.0
  0
LWPOLYLINE
  5
105
100
AcDbEntity
  8
0
 62
7
100
AcDbPolyline
 90
2
 70
0
 10
36.371663
 20
11.888365
 30
0.0
 10
34.848224
 20
11.888365
 30
0.0
  0
SPLINE
  5
106
100
AcDbEntity
  8
0
 62
7
100
AcDbSpline
 70
0
 71
3
 72
16
 73
12
 74
10
 40
0.000000
 40
0.000000
 40
0.000000
 40
0.000000
 40
0.271096
 40
0.538169
 40
0.809265
 40
1.080361
 40
1.347435
 40
1.618530
 40
1.889626
 40
2.156700
 40
2.427796
 40
2.427796
 40
2.427796
 40
2.427796
 10
34.848224
 20
11.888365
 30
0.0
 10
34.757133
 20
11.895059
 30
0.0
 10
34.576303
 20
11.908347
 30
0.0
 10
34.334907
 20
12.046649
 30
0.0
 10
34.154787
 20
12.253683
 30
0.0
 10
34.058994
 20
12.512507
 30
0.0
 10
34.058994
 20
12.787667
 30
0.0
 10
34.154787
 20
13.046491
 30
0.0
 10
34.334907
 20
13.253525
 30
0.0
 10
34.576303
 20
13.391827
 30
0.0
 10
34.757133
 20
13.405115
 30
0.0
 10
34.848224
 20
13.411809
 30
0.0
 11
34.848224
 21
11.888365
 31
0.0
 11
34.580103
 21
11.928412
 31
0.0
 11
34.346143
 21
12.057218
 31
0.0
 11
34.168912
 21
12.262358
 31
0.0
 11
34.074683
 21
12.516550
 31
0.0
 11
34.074683
 21
12.783624
 31
0.0
 11
34.168912
 21
13.037816
 31
0.0
 11
34.346143
 21
13.242955
 31
0.0
 11
34.580103
 21
13.371761
 31
0.0
 11
34.848224
 21
13.411809
 31
0.0
  0
LWPOLYLINE
  5
107
100
AcDbEntity
  8
0
 62
7
100
AcDbPolyline
 90
2
 70
0
 10
34.848224
 20
13.411809
 30
0.0
 10
36.371663
 20
13.411809
 30
0.0
  0
SPLINE
  5
108
100
AcDbEntity
  8
0
 62
7
100
AcDbSpline
 70
0
 71
3
 72
25
 73
21
 74
19
 40
0.000000
 40
0.000000
 40
0.000000
 40
0.000000
 40
0.230456
 40
0.457614
 40
0.688070
 40
0.918526
 40
1.145684
 40
1.376140
 40
1.606596
 40
1.833753
 40
2.064209
 40
2.294665
 40
2.521823
 40
2.752279
 40
2.982735
 40
3.209893
 40
3.440349
 40
3.670805
 40
3.897963
 40
4.128419
 40
4.128419
 40
4.128419
 40
4.128419
 10
28.650417
 20
36.780021
 30
0.0
 10
28.642526
 20
36.857231
 30
0.0
 10
28.626858
 20
37.010547
 30
0.0
 10
28.505301
 20
37.213156
 30
0.0
 10
28.327320
 20
37.363791
 30
0.0
 10
28.106924
 20
37.443683
 30
0.0
 10
27.873059
 20
37.443683
 30
0.0
 10
27.652971
 20
37.363791
 30
0.0
 10
27.473758
 20
37.213156
 30
0.0
 10
27.356780
 20
37.010547
 30
0.0
 10
27.315937
 20
36.780021
 30
0.0
 10
27.356780
 20
36.549494
 30
0.0
 10
27.473758
 20
36.346885
 30
0.0
 10
27.652971
 20
36.196250
 30
0.0
 10
27.873059
 20
36.116359
 30
0.0
 10
28.106924
 20
36.116359
 30
0.0
 10
28.327320
 20
36.196250
 30
0.0
 10
28.505301
 20
36.346885
 30
0.0
 10
28.626858
 20
36.549494
 30
0.0
 10
28.642526
 20
36.702810
 30
0.0
 10
28.650417
 20
36.780021
 30
0.0
 11
28.650417
 21
36.780021
 31
0.0
 11
28.610216
 21
37.006943
 31
0.0
 11
28.496637
 21
37.203668
 31
0.0
 11
28.320217
 21
37.351944
 31
0.0
 11
28.103595
 21
37.430590
 31
0.0
 11
27.876438
 21
37.430590
 31
0.0
 11
27.659816
 21
37.351944
 31
0.0
 11
27.483396
 21
37.203668
 31
0.0
 11
27.369817
 21
37.006943
 31
0.0
 11
27.329616
 21
36.780021
 31
0.0
 11
27.369817
 21
36.553098
 31
0.0
 11
27.483396
 21
36.356374
 31
0.0
 11
27.659816
 21
36.208097
 31
0.0
 11
27.876438
 21
36.129451
 31
0.0
 11
28.103595
 21
36.129451
 31
0.0
 11
28.320217
 21
36.208097
 31
0.0
 11
28.496637
 21
36.356374
 31
0.0
 11
28.610216
 21
36.553098
 31
0.0
 11
28.650417
 21
36.780021
 31
0.0
  0
LWPOLYLINE
  5
109
100
AcDbEntity
  8
0
 62
7
100
AcDbPolyline
 90
1
 70
1
 10
28.650417
 20
36.780021
 30
0.0
  0
SPLINE
  5
10a
100
AcDbEntity
  8
0
 62
7
100
AcDbSpline
 70
0
 71
3
 72
16
 73
12
 74
10
 40
0.000000
 40
0.000000
 40
0.000000
 40
0.000000
 40
0.234930
 40
0.466374
 40
0.701304
 40
0.936234
 40
1.167679
 40
1.402608
 40
1.637538
 40
1.868983
 40
2.103912
 40
2.103912
 40
2.103912
 40
2.103912
 10
36.904866
 20
34.900103
 30
0.0
 10
36.983804
 20
34.894292
 30
0.0
 10
37.140509
 20
34.882757
 30
0.0
 10
37.349689
 20
34.762887
 30
0.0
 10
37.505768
 20
34.583464
 30
0.0
 10
37.588775
 20
34.359167
 30
0.0
 10
37.588775
 20
34.120716
 30
0.0
 10
37.505768
 20
33.896419
 30
0.0
 10
37.349689
 20
33.716996
 30
0.0
 10
37.140509
 20
33.597126
 30
0.0
 10
36.983804
 20
33.585590
 30
0.0
 10
36.904866
 20
33.579780
 30
0.0
 11
36.904866
 21
34.900103
 31
0.0
 11
37.137214
 21
34.865370
 31
0.0
 11
37.339953
 21
34.753729
 31
0.0
 11
37.493529
 21
34.575948
 31
0.0
 11
37.575181
 21
34.355664
 31
0.0
 11
37.575181
 21
34.124219
 31
0.0
 11
37.493529
 21
33.903935
 31
0.0
 11
37.339953
 21
33.726154
 31
0.0
 11
37.137214
 21
33.614513
 31
0.0
 11
36.904866
 21
33.579780
 31
0.0
  0
LWPOLYLINE
  5
10b
100
AcDbEntity
  8
0
 62
7
100
AcDbPolyline
 90
2
 70
0
 10
36.904866
 20
33.579780
 30
0.0
 10
35.584553
 20
33.579780
 30
0.0
  0
SPLINE
  5
10c
100
AcDbEntity
  8
0
 62
7
100
AcDbSpline
 70
0
 71
3
 72
16
 73
12
 74
10
 40
0.000000
 40
0.000000
 40
0.000000
 40
0.000000
 40
0.234930
 40
0.466374
 40
0.701304
 40
0.936234
 40
1.167679
 40
1.402608
 40
1.637538
 40
1.868983
 40
2.103912
 40
2.103912
 40
2.103912
 40
2.103912
 10
35.584553
 20
33.579780
 30
0.0
 10
35.505615
 20
33.585590
 30
0.0
 10
35.348910
 20
33.597126
 30
0.0
 10
35.139730
 20
33.716996
 30
0.0
 10
34.983651
 20
33.896419
 30
0.0
 10
34.900644
 20
34.120716
 30
0.0
 10
34.900644
 20
34.359167
 30
0.0
 10
34.983651
 20
34.583464
 30
0.0
 10
35.139730
 20
34.762887
 30
0.0
 10
35.348910
 20
34.882757
 30
0.0
 10
35.505615
 20
34.894292
 30
0.0
 10
35.584553
 20
34.900103
 30
0.0
 11
35.584553
 21
33.579780
 31
0.0
 11
35.352205
 21
33.614513
 31
0.0
 11
35.149466
 21
33.726154
 31
0.0
 11
34.995890
 21
33.903935
 31
0.0
 11
34.914238
 21
34.124219
 31
0.0
 11
34.914238
 21
34.355664
 31
0.0
 11
34.995890
 21
34.575948
 31
0.0
 11
35.149466
 21
34.753729
 31
0.0
 11
35.352205
 21
34.865370
 31
0.0
 11
35.584553
 21
34.900103
 31
0.0
  0
LWPOLYLINE
  5
10d
100
AcDbEntity
  8
0
 62
7
100
AcDbPolyline
 90
2
 70
0
 10
35.584553
 20
34.900103
 30
0.0
 10
36.904866
 20
34.900103
 30
0.0
  0
SPLINE
  5
10e
100
AcDbEntity
  8
0
 62
7
100
AcDbSpline
 70
0
 71
3
 72
25
 73
21
 74
19
 40
0.000000
 40
0.000000
 40
0.000000
 40
0.000000
 40
0.230549
 40
0.457796
 40
0.688345
 40
0.918894
 40
1.146142
 40
1.376691
 40
1.607240
 40
1.834487
 40
2.065036
 40
2.295585
 40
2.522832
 40
2.753381
 40
2.983931
 40
3.211178
 40
3.441727
 40
3.672276
 40
3.899523
 40
4.130072
 40
4.130072
 40
4.130072
 40
4.130072
 10
21.030413
 20
36.780021
 30
0.0
 10
21.022565
 20
36.857268
 30
0.0
 10
21.006981
 20
37.010655
 30
0.0
 10
20.885457
 20
37.213401
 30
0.0
 10
20.707444
 20
37.364149
 30
0.0
 10
20.486967
 20
37.444105
 30
0.0
 10
20.253006
 20
37.444105
 30
0.0
 10
20.032836
 20
37.364149
 30
0.0
 10
19.853598
 20
37.213401
 30
0.0
 10
19.736628
 20
37.010655
 30
0.0
 10
19.696004
 20
36.780021
 30
0.0
 10
19.736628
 20
36.549386
 30
0.0
 10
19.853598
 20
36.346640
 30
0.0
 10
20.032836
 20
36.195893
 30
0.0
 10
20.253006
 20
36.115937
 30
0.0
 10
20.486967
 20
36.115937
 30
0.0
 10
20.707444
 20
36.195893
 30
0.0
 10
20.885457
 20
36.346640
 30
0.0
 10
21.006981
 20
36.549386
 30
0.0
 10
21.022565
 20
36.702774
 30
0.0
 10
21.030413
 20
36.780021
 30
0.0
 11
21.030413
 21
36.780021
 31
0.0
 11
20.990323
 21
37.007058
 31
0.0
 11
20.876783
 21
37.203907
 31
0.0
 11
20.700333
 21
37.352293
 31
0.0
 11
20.483635
 21
37.431002
 31
0.0
 11
20.256388
 21
37.431002
 31
0.0
 11
20.039690
 21
37.352293
 31
0.0
 11
19.863241
 21
37.203907
 31
0.0
 11
19.749700
 21
37.007058
 31
0.0
 11
19.709610
 21
36.780021
 31
0.0
 11
19.749700
 21
36.552984
 31
0.0
 11
19.863241
 21
36.356134
 31
0.0
 11
20.039690
 21
36.207748
 31
0.0
 11
20.256388
 21
36.129040
 31
0.0
 11
20.483635
 21
36.129040
 31
0.0
 11
20.700333
 21
36.207748
 31
0.0
 11
20.876783
 21
36.356134
 31
0.0
 11
20.990323
 21
36.552984
 31
0.0
 11
21.030413
 21
36.780021
 31
0.0
  0
LWPOLYLINE
  5
10f
100
AcDbEntity
  8
0
 62
7
100
AcDbPolyline
 90
1
 70
1
 10
21.030413
 20
36.780021
 30
0.0
  0
SPLINE
  5
110
100
AcDbEntity
  8
0
 62
7
100
AcDbSpline
 70
0
 71
3
 72
25
 73
21
 74
19
 40
0.000000
 40
0.000000
 40
0.000000
 40
0.000000
 40
0.230549
 40
0.457796
 40
0.688345
 40
0.918894
 40
1.146142
 40
1.376691
 40
1.607240
 40
1.834487
 40
2.065036
 40
2.295585
 40
2.522832
 40
2.753381
 40
2.983931
 40
3.211178
 40
3.441727
 40
3.672276
 40
3.899523
 40
4.130072
 40
4.130072
 40
4.130072
 40
4.130072
 10
28.650418
 20
31.700021
 30
0.0
 10
28.642570
 20
31.777268
 30
0.0
 10
28.626986
 20
31.930655
 30
0.0
 10
28.505461
 20
32.133401
 30
0.0
 10
28.327449
 20
32.284149
 30
0.0
 10
28.106972
 20
32.364105
 30
0.0
 10
27.873010
 20
32.364105
 30
0.0
 10
27.652840
 20
32.284149
 30
0.0
 10
27.473602
 20
32.133401
 30
0.0
 10
27.356633
 20
31.930655
 30
0.0
 10
27.316009
 20
31.700021
 30
0.0
 10
27.356633
 20
31.469386
 30
0.0
 10
27.473602
 20
31.266640
 30
0.0
 10
27.652840
 20
31.115893
 30
0.0
 10
27.873010
 20
31.035937
 30
0.0
 10
28.106972
 20
31.035937
 30
0.0
 10
28.327449
 20
31.115893
 30
0.0
 10
28.505461
 20
31.266640
 30
0.0
 10
28.626986
 20
31.469386
 30
0.0
 10
28.642570
 20
31.622774
 30
0.0
 10
28.650418
 20
31.700021
 30
0.0
 11
28.650418
 21
31.700021
 31
0.0
 11
28.610328
 21
31.927058
 31
0.0
 11
28.496787
 21
32.123907
 31
0.0
 11
28.320338
 21
32.272293
 31
0.0
 11
28.103640
 21
32.351002
 31
0.0
 11
27.876393
 21
32.351002
 31
0.0
 11
27.659695
 21
32.272293
 31
0.0
 11
27.483246
 21
32.123907
 31
0.0
 11
27.369705
 21
31.927058
 31
0.0
 11
27.329615
 21
31.700021
 31
0.0
 11
27.369705
 21
31.472984
 31
0.0
 11
27.483246
 21
31.276134
 31
0.0
 11
27.659695
 21
31.127748
 31
0.0
 11
27.876393
 21
31.049040
 31
0.0
 11
28.103640
 21
31.049040
 31
0.0
 11
28.320338
 21
31.127748
 31
0.0
 11
28.496787
 21
31.276134
 31
0.0
 11
28.610328
 21
31.472984
 31
0.0
 11
28.650418
 21
31.700021
 31
0.0
  0
LWPOLYLINE
  5
111
100
AcDbEntity
  8
0
 62
7
100
AcDbPolyline
 90
1
 70
1
 10
28.650418
 20
31.700021
 30
0.0
  0
SPLINE
  5
112
100
AcDbEntity
  8
0
 62
7
100
AcDbSpline
 70
0
 71
3
 72
10
 73
6
 74
4
 40
0.000000
 40
0.000000
 40
0.000000
 40
0.000000
 40
0.398279
 40
0.784755
 40
1.183034
 40
1.183034
 40
1.183034
 40
1.183034
 10
30.541580
 20
5.294604
 30
0.0
 10
30.674708
 20
5.271565
 30
0.0
 10
30.937020
 20
5.226169
 30
0.0
 10
31.235339
 20
4.918531
 30
0.0
 10
31.272647
 20
4.654948
 30
0.0
 10
31.291581
 20
4.521174
 30
0.0
 11
30.541580
 21
5.294604
 31
0.0
 11
30.924371
 21
5.184616
 31
0.0
 11
31.193416
 21
4.907166
 31
0.0
 11
31.291581
 21
4.521174
 31
0.0
  0
LWPOLYLINE
  5
113
100
AcDbEntity
  8
0
 62
7
100
AcDbPolyline
 90
2
 70
0
 10
31.291581
 20
4.521174
 30
0.0
 10
31.291581
 20
2.997730
 30
0.0
  0
SPLINE
  5
114
100
AcDbEntity
  8
0
 62
7
100
AcDbSpline
 70
0
 71
3
 72
16
 73
12
 74
10
 40
0.000000
 40
0.000000
 40
0.000000
 40
0.000000
 40
0.271117
 40
0.538211
 40
0.809328
 40
1.080445
 40
1.347539
 40
1.618655
 40
1.889772
 40
2.156866
 40
2.427983
 40
2.427983
 40
2.427983
 40
2.427983
 10
31.291581
 20
2.997730
 30
0.0
 10
31.284898
 20
2.906631
 30
0.0
 10
31.271629
 20
2.725785
 30
0.0
 10
31.133336
 20
2.484358
 30
0.0
 10
30.926295
 20
2.304212
 30
0.0
 10
30.667453
 20
2.208404
 30
0.0
 10
30.392271
 20
2.208404
 30
0.0
 10
30.133429
 20
2.304212
 30
0.0
 10
29.926388
 20
2.484358
 30
0.0
 10
29.788095
 20
2.725785
 30
0.0
 10
29.774827
 20
2.906631
 30
0.0
 10
29.768143
 20
2.997730
 30
0.0
 11
31.291581
 21
2.997730
 31
0.0
 11
31.251560
 21
2.729583
 31
0.0
 11
31.122764
 21
2.495594
 31
0.0
 11
30.917619
 21
2.318338
 31
0.0
 11
30.663409
 21
2.224095
 31
0.0
 11
30.396315
 21
2.224095
 31
0.0
 11
30.142105
 21
2.318338
 31
0.0
 11
29.936960
 21
2.495594
 31
0.0
 11
29.808164
 21
2.729583
 31
0.0
 11
29.768143
 21
2.997730
 31
0.0
  0
LWPOLYLINE
  5
115
100
AcDbEntity
  8
0
 62
7
100
AcDbPolyline
 90
2
 70
0
 10
29.768143
 20
2.997730
 30
0.0
 10
29.768143
 20
4.521174
 30
0.0
  0
SPLINE
  5
116
100
AcDbEntity
  8
0
 62
7
100
AcDbSpline
 70
0
 71
3
 72
13
 73
9
 74
7
 40
0.000000
 40
0.000000
 40
0.000000
 40
0.000000
 40
0.203305
 40
0.404865
 40
0.608170
 40
0.811475
 40
1.013035
 40
1.216341
 40
1.216341
 40
1.216341
 40
1.216341
 10
29.768143
 20
4.521174
 30
0.0
 10
29.772400
 20
4.589220
 30
0.0
 10
29.780879
 20
4.724727
 30
0.0
 10
29.861027
 20
4.914794
 30
0.0
 10
29.984625
 20
5.078127
 30
0.0
 10
30.147959
 20
5.201724
 30
0.0
 10
30.338027
 20
5.281870
 30
0.0
 10
30.473534
 20
5.290347
 30
0.0
 10
30.541580
 20
5.294604
 30
0.0
 11
29.768143
 21
4.521174
 31
0.0
 11
29.792232
 21
4.723047
 31
0.0
 11
29.867966
 21
4.909838
 31
0.0
 11
29.991267
 21
5.071485
 31
0.0
 11
30.152915
 21
5.194784
 31
0.0
 11
30.339707
 21
5.270517
 31
0.0
 11
30.541580
 21
5.294604
 31
0.0
  0
LWPOLYLINE
  5
117
100
AcDbEntity
  8
0
 62
7
100
AcDbPolyline
 90
1
 70
1
 10
30.541580
 20
5.294604
 30
0.0
  0
SPLINE
  5
118
100
AcDbEntity
  8
0
 62
7
100
AcDbSpline
 70
0
 71
3
 72
16
 73
12
 74
10
 40
0.000000
 40
0.000000
 40
0.000000
 40
0.000000
 40
0.234930
 40
0.466374
 40
0.701304
 40
0.936234
 40
1.167679
 40
1.402608
 40
1.637538
 40
1.868983
 40
2.103912
 40
2.103912
 40
2.103912
 40
2.103912
 10
36.904866
 20
39.980183
 30
0.0
 10
36.983804
 20
39.974372
 30
0.0
 10
37.140509
 20
39.962836
 30
0.0
 10
37.349689
 20
39.842966
 30
0.0
 10
37.505768
 20
39.663543
 30
0.0
 10
37.588775
 20
39.439246
 30
0.0
 10
37.588775
 20
39.200795
 30
0.0
 10
37.505768
 20
38.976498
 30
0.0
 10
37.349689
 20
38.797075
 30
0.0
 10
37.140509
 20
38.677205
 30
0.0
 10
36.983804
 20
38.665670
 30
0.0
 10
36.904866
 20
38.659859
 30
0.0
 11
36.904866
 21
39.980183
 31
0.0
 11
37.137214
 21
39.945450
 31
0.0
 11
37.339953
 21
39.833809
 31
0.0
 11
37.493529
 21
39.656027
 31
0.0
 11
37.575181
 21
39.435743
 31
0.0
 11
37.575181
 21
39.204298
 31
0.0
 11
37.493529
 21
38.984014
 31
0.0
 11
37.339953
 21
38.806233
 31
0.0
 11
37.137214
 21
38.694592
 31
0.0
 11
36.904866
 21
38.659859
 31
0.0
  0
LWPOLYLINE
  5
119
100
AcDbEntity
  8
0
 62
7
100
AcDbPolyline
 90
2
 70
0
 10
36.904866
 20
38.659859
 30
0.0
 10
35.584553
 20
38.659859
 30
0.0
  0
SPLINE
  5
11a
100
AcDbEntity
  8
0
 62
7
100
AcDbSpline
 70
0
 71
3
 72
16
 73
12
 74
10
 40
0.000000
 40
0.000000
 40
0.000000
 40
0.000000
 40
0.234930
 40
0.466374
 40
0.701304
 40
0.936234
 40
1.167679
 40
1.402608
 40
1.637538
 40
1.868983
 40
2.103912
 40
2.103912
 40
2.103912
 40
2.103912
 10
35.584553
 20
38.659859
 30
0.0
 10
35.505615
 20
38.665670
 30
0.0
 10
35.348910
 20
38.677205
 30
0.0
 10
35.139730
 20
38.797075
 30
0.0
 10
34.983651
 20
38.976498
 30
0.0
 10
34.900644
 20
39.200795
 30
0.0
 10
34.900644
 20
39.439246
 30
0.0
 10
34.983651
 20
39.663543
 30
0.0
 10
35.139730
 20
39.842966
 30
0.0
 10
35.348910
 20
39.962836
 30
0.0
 10
35.505615
 20
39.974372
 30
0.0
 10
35.584553
 20
39.980183
 30
0.0
 11
35.584553
 21
38.659859
 31
0.0
 11
35.352205
 21
38.694592
 31
0.0
 11
35.149466
 21
38.806233
 31
0.0
 11
34.995890
 21
38.984014
 31
0.0
 11
34.914238
 21
39.204298
 31
0.0
 11
34.914238
 21
39.435743
 31
0.0
 11
34.995890
 21
39.656027
 31
0.0
 11
35.149466
 21
39.833809
 31
0.0
 11
35.352205
 21
39.945450
 31
0.0
 11
35.584553
 21
39.980183
 31
0.0
  0
LWPOLYLINE
  5
11b
100
AcDbEntity
  8
0
 62
7
100
AcDbPolyline
 90
2
 70
0
 10
35.584553
 20
39.980183
 30
0.0
 10
36.904866
 20
39.980183
 30
0.0
  0
SPLINE
  5
11c
100
AcDbEntity
  8
0
 62
7
100
AcDbSpline
 70
0
 71
3
 72
10
 73
6
 74
4
 40
0.000000
 40
0.000000
 40
0.000000
 40
0.000000
 40
0.398279
 40
0.784755
 40
1.183034
 40
1.183034
 40
1.183034
 40
1.183034
 10
30.541580
 20
30.695001
 30
0.0
 10
30.674708
 20
30.671962
 30
0.0
 10
30.937020
 20
30.626566
 30
0.0
 10
31.235339
 20
30.318928
 30
0.0
 10
31.272647
 20
30.055345
 30
0.0
 10
31.291581
 20
29.921571
 30
0.0
 11
30.541580
 21
30.695001
 31
0.0
 11
30.924371
 21
30.585013
 31
0.0
 11
31.193416
 21
30.307563
 31
0.0
 11
31.291581
 21
29.921571
 31
0.0
  0
LWPOLYLINE
  5
11d
100
AcDbEntity
  8
0
 62
7
100
AcDbPolyline
 90
2
 70
0
 10
31.291581
 20
29.921571
 30
0.0
 10
31.291581
 20
28.398127
 30
0.0
  0
SPLINE
  5
11e
100
AcDbEntity
  8
0
 62
7
100
AcDbSpline
 70
0
 71
3
 72
16
 73
12
 74
10
 40
0.000000
 40
0.000000
 40
0.000000
 40
0.000000
 40
0.271117
 40
0.538211
 40
0.809328
 40
1.080445
 40
1.347539
 40
1.618655
 40
1.889772
 40
2.156866
 40
2.427983
 40
2.427983
 40
2.427983
 40
2.427983
 10
31.291581
 20
28.398127
 30
0.0
 10
31.284898
 20
28.307028
 30
0.0
 10
31.271629
 20
28.126182
 30
0.0
 10
31.133336
 20
27.884755
 30
0.0
 10
30.926295
 20
27.704609
 30
0.0
 10
30.667453
 20
27.608801
 30
0.0
 10
30.392271
 20
27.608801
 30
0.0
 10
30.133429
 20
27.704609
 30
0.0
 10
29.926388
 20
27.884755
 30
0.0
 10
29.788095
 20
28.126182
 30
0.0
 10
29.774827
 20
28.307028
 30
0.0
 10
29.768143
 20
28.398127
 30
0.0
 11
31.291581
 21
28.398127
 31
0.0
 11
31.251560
 21
28.129980
 31
0.0
 11
31.122764
 21
27.895991
 31
0.0
 11
30.917619
 21
27.718735
 31
0.0
 11
30.663409
 21
27.624492
 31
0.0
 11
30.396315
 21
27.624492
 31
0.0
 11
30.142105
 21
27.718735
 31
0.0
 11
29.936960
 21
27.895991
 31
0.0
 11
29.808164
 21
28.129980
 31
0.0
 11
29.768143
 21
28.398127
 31
0.0
  0
LWPOLYLINE
  5
11f
100
AcDbEntity
  8
0
 62
7
100
AcDbPolyline
 90
2
 70
0
 10
29.768143
 20
28.398127
 30
0.0
 10
29.768143
 20
29.921571
 30
0.0
  0
SPLINE
  5
120
100
AcDbEntity
  8
0
 62
7
100
AcDbSpline
 70
0
 71
3
 72
13
 73
9
 74
7
 40
0.000000
 40
0.000000
 40
0.000000
 40
0.000000
 40
0.203305
 40
0.404865
 40
0.608170
 40
0.811475
 40
1.013035
 40
1.216341
 40
1.216341
 40
1.216341
 40
1.216341
 10
29.768143
 20
29.921571
 30
0.0
 10
29.772400
 20
29.989616
 30
0.0
 10
29.780879
 20
30.125124
 30
0.0
 10
29.861027
 20
30.315191
 30
0.0
 10
29.984625
 20
30.478524
 30
0.0
 10
30.147959
 20
30.602120
 30
0.0
 10
30.338027
 20
30.682266
 30
0.0
 10
30.473534
 20
30.690744
 30
0.0
 10
30.541580
 20
30.695001
 30
0.0
 11
29.768143
 21
29.921571
 31
0.0
 11
29.792232
 21
30.123444
 31
0.0
 11
29.867966
 21
30.310235
 31
0.0
 11
29.991267
 21
30.471882
 31
0.0
 11
30.152915
 21
30.595181
 31
0.0
 11
30.339707
 21
30.670914
 31
0.0
 11
30.541580
 21
30.695001
 31
0.0
  0
LWPOLYLINE
  5
121
100
AcDbEntity
  8
0
 62
7
100
AcDbPolyline
 90
1
 70
1
 10
30.541580
 20
30.695001
 30
0.0
  0
SPLINE
  5
122
100
AcDbEntity
  8
0
 62
7
100
AcDbSpline
 70
0
 71
3
 72
10
 73
6
 74
4
 40
0.000000
 40
0.000000
 40
0.000000
 40
0.000000
 40
0.398279
 40
0.784755
 40
1.183034
 40
1.183034
 40
1.183034
 40
1.183034
 10
35.621662
 20
30.695001
 30
0.0
 10
35.754791
 20
30.671962
 30
0.0
 10
36.017102
 20
30.626566
 30
0.0
 10
36.315420
 20
30.318928
 30
0.0
 10
36.352728
 20
30.055345
 30
0.0
 10
36.371663
 20
29.921571
 30
0.0
 11
35.621662
 21
30.695001
 31
0.0
 11
36.004453
 21
30.585012
 31
0.0
 11
36.273498
 21
30.307563
 31
0.0
 11
36.371663
 21
29.921571
 31
0.0
  0
LWPOLYLINE
  5
123
100
AcDbEntity
  8
0
 62
7
100
AcDbPolyline
 90
2
 70
0
 10
36.371663
 20
29.921571
 30
0.0
 10
36.371663
 20
28.398127
 30
0.0
  0
SPLINE
  5
124
100
AcDbEntity
  8
0
 62
7
100
AcDbSpline
 70
0
 71
3
 72
16
 73
12
 74
10
 40
0.000000
 40
0.000000
 40
0.000000
 40
0.000000
 40
0.271117
 40
0.538211
 40
0.809328
 40
1.080445
 40
1.347539
 40
1.618655
 40
1.889772
 40
2.156866
 40
2.427983
 40
2.427983
 40
2.427983
 40
2.427983
 10
36.371663
 20
28.398127
 30
0.0
 10
36.364979
 20
28.307028
 30
0.0
 10
36.351711
 20
28.126182
 30
0.0
 10
36.213417
 20
27.884755
 30
0.0
 10
36.006377
 20
27.704609
 30
0.0
 10
35.747534
 20
27.608801
 30
0.0
 10
35.472353
 20
27.608801
 30
0.0
 10
35.213510
 20
27.704609
 30
0.0
 10
35.006470
 20
27.884755
 30
0.0
 10
34.868176
 20
28.126182
 30
0.0
 10
34.854908
 20
28.307028
 30
0.0
 10
34.848224
 20
28.398127
 30
0.0
 11
36.371663
 21
28.398127
 31
0.0
 11
36.331642
 21
28.129980
 31
0.0
 11
36.202846
 21
27.895991
 31
0.0
 11
35.997700
 21
27.718735
 31
0.0
 11
35.743491
 21
27.624492
 31
0.0
 11
35.476397
 21
27.624492
 31
0.0
 11
35.222187
 21
27.718735
 31
0.0
 11
35.017042
 21
27.895991
 31
0.0
 11
34.888245
 21
28.129980
 31
0.0
 11
34.848224
 21
28.398127
 31
0.0
  0
LWPOLYLINE
  5
125
100
AcDbEntity
  8
0
 62
7
100
AcDbPolyline
 90
2
 70
0
 10
34.848224
 20
28.398127
 30
0.0
 10
34.848224
 20
29.921571
 30
0.0
  0
SPLINE
  5
126
100
AcDbEntity
  8
0
 62
7
100
AcDbSpline
 70
0
 71
3
 72
13
 73
9
 74
7
 40
0.000000
 40
0.000000
 40
0.000000
 40
0.000000
 40
0.203305
 40
0.404865
 40
0.608171
 40
0.811476
 40
1.013036
 40
1.216341
 40
1.216341
 40
1.216341
 40
1.216341
 10
34.848224
 20
29.921571
 30
0.0
 10
34.852482
 20
29.989617
 30
0.0
 10
34.860961
 20
30.125124
 30
0.0
 10
34.941109
 20
30.315191
 30
0.0
 10
35.064707
 20
30.478524
 30
0.0
 10
35.228041
 20
30.602121
 30
0.0
 10
35.418109
 20
30.682267
 30
0.0
 10
35.553617
 20
30.690744
 30
0.0
 10
35.621662
 20
30.695001
 30
0.0
 11
34.848224
 21
29.921571
 31
0.0
 11
34.872313
 21
30.123444
 31
0.0
 11
34.948048
 21
30.310235
 31
0.0
 11
35.071348
 21
30.471883
 31
0.0
 11
35.232997
 21
30.595182
 31
0.0
 11
35.419789
 21
30.670914
 31
0.0
 11
35.621662
 21
30.695001
 31
0.0
  0
LWPOLYLINE
  5
127
100
AcDbEntity
  8
0
 62
7
100
AcDbPolyline
 90
1
 70
1
 10
35.621662
 20
30.695001
 30
0.0
  0
SPLINE
  5
128
100
AcDbEntity
  8
0
 62
7
100
AcDbSpline
 70
0
 71
3
 72
25
 73
21
 74
19
 40
0.000000
 40
0.000000
 40
0.000000
 40
0.000000
 40
0.230456
 40
0.457614
 40
0.688070
 40
0.918526
 40
1.145684
 40
1.376140
 40
1.606596
 40
1.833753
 40
2.064209
 40
2.294665
 40
2.521823
 40
2.752279
 40
2.982735
 40
3.209893
 40
3.440349
 40
3.670805
 40
3.897963
 40
4.128419
 40
4.128419
 40
4.128419
 40
4.128419
 10
28.650417
 20
39.320021
 30
0.0
 10
28.642526
 20
39.397231
 30
0.0
 10
28.626858
 20
39.550547
 30
0.0
 10
28.505301
 20
39.753156
 30
0.0
 10
28.327320
 20
39.903791
 30
0.0
 10
28.106924
 20
39.983683
 30
0.0
 10
27.873059
 20
39.983683
 30
0.0
 10
27.652971
 20
39.903791
 30
0.0
 10
27.473758
 20
39.753156
 30
0.0
 10
27.356780
 20
39.550547
 30
0.0
 10
27.315937
 20
39.320021
 30
0.0
 10
27.356780
 20
39.089494
 30
0.0
 10
27.473758
 20
38.886885
 30
0.0
 10
27.652971
 20
38.736250
 30
0.0
 10
27.873059
 20
38.656359
 30
0.0
 10
28.106924
 20
38.656359
 30
0.0
 10
28.327320
 20
38.736250
 30
0.0
 10
28.505301
 20
38.886885
 30
0.0
 10
28.626858
 20
39.089494
 30
0.0
 10
28.642526
 20
39.242810
 30
0.0
 10
28.650417
 20
39.320021
 30
0.0
 11
28.650417
 21
39.320021
 31
0.0
 11
28.610216
 21
39.546943
 31
0.0
 11
28.496637
 21
39.743668
 31
0.0
 11
28.320217
 21
39.891944
 31
0.0
 11
28.103595
 21
39.970590
 31
0.0
 11
27.876438
 21
39.970590
 31
0.0
 11
27.659816
 21
39.891944
 31
0.0
 11
27.483396
 21
39.743668
 31
0.0
 11
27.369817
 21
39.546943
 31
0.0
 11
27.329616
 21
39.320021
 31
0.0
 11
27.369817
 21
39.093098
 31
0.0
 11
27.483396
 21
38.896374
 31
0.0
 11
27.659816
 21
38.748097
 31
0.0
 11
27.876438
 21
38.669451
 31
0.0
 11
28.103595
 21
38.669451
 31
0.0
 11
28.320217
 21
38.748097
 31
0.0
 11
28.496637
 21
38.896374
 31
0.0
 11
28.610216
 21
39.093098
 31
0.0
 11
28.650417
 21
39.320021
 31
0.0
  0
LWPOLYLINE
  5
129
100
AcDbEntity
  8
0
 62
7
100
AcDbPolyline
 90
1
 70
1
 10
28.650417
 20
39.320021
 30
0.0
  0
SPLINE
  5
12a
100
AcDbEntity
  8
0
 62
7
100
AcDbSpline
 70
0
 71
3
 72
10
 73
6
 74
4
 40
0.000000
 40
0.000000
 40
0.000000
 40
0.000000
 40
0.398279
 40
0.784755
 40
1.183034
 40
1.183034
 40
1.183034
 40
1.183034
 10
35.621662
 20
5.294604
 30
0.0
 10
35.754791
 20
5.271565
 30
0.0
 10
36.017102
 20
5.226169
 30
0.0
 10
36.315420
 20
4.918531
 30
0.0
 10
36.352728
 20
4.654948
 30
0.0
 10
36.371663
 20
4.521174
 30
0.0
 11
35.621662
 21
5.294604
 31
0.0
 11
36.004453
 21
5.184616
 31
0.0
 11
36.273498
 21
4.907166
 31
0.0
 11
36.371663
 21
4.521174
 31
0.0
  0
LWPOLYLINE
  5
12b
100
AcDbEntity
  8
0
 62
7
100
AcDbPolyline
 90
2
 70
0
 10
36.371663
 20
4.521174
 30
0.0
 10
36.371663
 20
2.997730
 30
0.0
  0
SPLINE
  5
12c
100
AcDbEntity
  8
0
 62
7
100
AcDbSpline
 70
0
 71
3
 72
16
 73
12
 74
10
 40
0.000000
 40
0.000000
 40
0.000000
 40
0.000000
 40
0.271117
 40
0.538211
 40
0.809328
 40
1.080445
 40
1.347539
 40
1.618655
 40
1.889772
 40
2.156866
 40
2.427983
 40
2.427983
 40
2.427983
 40
2.427983
 10
36.371663
 20
2.997730
 30
0.0
 10
36.364979
 20
2.906631
 30
0.0
 10
36.351711
 20
2.725785
 30
0.0
 10
36.213417
 20
2.484358
 30
0.0
 10
36.006377
 20
2.304212
 30
0.0
 10
35.747534
 20
2.208404
 30
0.0
 10
35.472353
 20
2.208404
 30
0.0
 10
35.213510
 20
2.304212
 30
0.0
 10
35.006470
 20
2.484358
 30
0.0
 10
34.868176
 20
2.725785
 30
0.0
 10
34.854908
 20
2.906631
 30
0.0
 10
34.848224
 20
2.997730
 30
0.0
 11
36.371663
 21
2.997730
 31
0.0
 11
36.331642
 21
2.729583
 31
0.0
 11
36.202846
 21
2.495594
 31
0.0
 11
35.997700
 21
2.318338
 31
0.0
 11
35.743491
 21
2.224095
 31
0.0
 11
35.476397
 21
2.224095
 31
0.0
 11
35.222187
 21
2.318338
 31
0.0
 11
35.017042
 21
2.495594
 31
0.0
 11
34.888245
 21
2.729583
 31
0.0
 11
34.848224
 21
2.997730
 31
0.0
  0
LWPOLYLINE
  5
12d
100
AcDbEntity
  8
0
 62
7
100
AcDbPolyline
 90
2
 70
0
 10
34.848224
 20
2.997730
 30
0.0
 10
34.848224
 20
4.521174
 30
0.0
  0
SPLINE
  5
12e
100
AcDbEntity
  8
0
 62
7
100
AcDbSpline
 70
0
 71
3
 72
13
 73
9
 74
7
 40
0.000000
 40
0.000000
 40
0.000000
 40
0.000000
 40
0.203305
 40
0.404865
 40
0.608171
 40
0.811476
 40
1.013036
 40
1.216341
 40
1.216341
 40
1.216341
 40
1.216341
 10
34.848224
 20
4.521174
 30
0.0
 10
34.852482
 20
4.589220
 30
0.0
 10
34.860961
 20
4.724727
 30
0.0
 10
34.941109
 20
4.914795
 30
0.0
 10
35.064707
 20
5.078127
 30
0.0
 10
35.228041
 20
5.201724
 30
0.0
 10
35.418109
 20
5.281870
 30
0.0
 10
35.553617
 20
5.290347
 30
0.0
 10
35.621662
 20
5.294604
 30
0.0
 11
34.848224
 21
4.521174
 31
0.0
 11
34.872313
 21
4.723047
 31
0.0
 11
34.948048
 21
4.909838
 31
0.0
 11
35.071348
 21
5.071486
 31
0.0
 11
35.232997
 21
5.194785
 31
0.0
 11
35.419789
 21
5.270517
 31
0.0
 11
35.621662
 21
5.294604
 31
0.0
  0
LWPOLYLINE
  5
12f
100
AcDbEntity
  8
0
 62
7
100
AcDbPolyline
 90
1
 70
1
 10
35.621662
 20
5.294604
 30
0.0
  0
SPLINE
  5
130
100
AcDbEntity
  8
0
 62
7
100
AcDbSpline
 70
0
 71
3
 72
16
 73
12
 74
10
 40
0.000000
 40
0.000000
 40
0.000000
 40
0.000000
 40
0.231327
 40
0.459328
 40
0.690655
 40
0.921983
 40
1.149983
 40
1.381310
 40
1.612638
 40
1.840638
 40
2.071965
 40
2.071965
 40
2.071965
 40
2.071965
 10
36.904866
 20
37.441109
 30
0.0
 10
36.982403
 20
37.433492
 30
0.0
 10
37.136363
 20
37.418368
 30
0.0
 10
37.340101
 20
37.296896
 30
0.0
 10
37.491650
 20
37.118520
 30
0.0
 10
37.572057
 20
36.897321
 30
0.0
 10
37.572057
 20
36.662641
 30
0.0
 10
37.491650
 20
36.441442
 30
0.0
 10
37.340101
 20
36.263066
 30
0.0
 10
37.136363
 20
36.141594
 30
0.0
 10
36.982403
 20
36.126470
 30
0.0
 10
36.904866
 20
36.118853
 30
0.0
 11
36.904866
 21
37.441109
 31
0.0
 11
37.132796
 21
37.401604
 31
0.0
 11
37.330568
 21
37.288157
 31
0.0
 11
37.479736
 21
37.111348
 31
0.0
 11
37.558881
 21
36.893981
 31
0.0
 11
37.558881
 21
36.665981
 31
0.0
 11
37.479736
 21
36.448614
 31
0.0
 11
37.330568
 21
36.271805
 31
0.0
 11
37.132796
 21
36.158358
 31
0.0
 11
36.904866
 21
36.118853
 31
0.0
  0
LWPOLYLINE
  5
131
100
AcDbEntity
  8
0
 62
7
100
AcDbPolyline
 90
2
 70
0
 10
36.904866
 20
36.118853
 30
0.0
 10
35.584553
 20
36.118853
 30
0.0
  0
SPLINE
  5
132
100
AcDbEntity
  8
0
 62
7
100
AcDbSpline
 70
0
 71
3
 72
13
 73
9
 74
7
 40
0.000000
 40
0.000000
 40
0.000000
 40
0.000000
 40
0.344761
 40
0.679343
 40
1.024104
 40
1.368865
 40
1.703447
 40
2.048209
 40
2.048209
 40
2.048209
 40
2.048209
 10
35.584553
 20
36.118853
 30
0.0
 10
35.468399
 20
36.137425
 30
0.0
 10
35.239522
 20
36.174019
 30
0.0
 10
34.988001
 20
36.436788
 30
0.0
 10
34.894827
 20
36.779981
 30
0.0
 10
34.988001
 20
37.123175
 30
0.0
 10
35.239522
 20
37.385943
 30
0.0
 10
35.468399
 20
37.422537
 30
0.0
 10
35.584553
 20
37.441109
 30
0.0
 11
35.584553
 21
36.118853
 31
0.0
 11
35.252068
 21
36.210036
 31
0.0
 11
35.015980
 21
36.447117
 31
0.0
 11
34.926194
 21
36.779981
 31
0.0
 11
35.015980
 21
37.112845
 31
0.0
 11
35.252068
 21
37.349926
 31
0.0
 11
35.584553
 21
37.441109
 31
0.0
  0
LWPOLYLINE
  5
133
100
AcDbEntity
  8
0
 62
7
100
AcDbPolyline
 90
2
 70
0
 10
35.584553
 20
37.441109
 30
0.0
 10
36.904866
 20
37.441109
 30
0.0
  0
SPLINE
  5
134
100
AcDbEntity
  8
0
 62
7
100
AcDbSpline
 70
0
 71
3
 72
16
 73
12
 74
10
 40
0.000000
 40
0.000000
 40
0.000000
 40
0.000000
 40
0.266155
 40
0.528502
 40
0.794657
 40
1.060812
 40
1.323158
 40
1.589314
 40
1.855469
 40
2.117815
 40
2.383971
 40
2.383971
 40
2.383971
 40
2.383971
 10
34.848224
 20
14.427412
 30
0.0
 10
34.759053
 20
14.436525
 30
0.0
 10
34.581988
 20
14.454620
 30
0.0
 10
34.347993
 20
14.595009
 30
0.0
 10
34.174023
 20
14.800554
 30
0.0
 10
34.081756
 20
15.055118
 30
0.0
 10
34.081756
 20
15.325109
 30
0.0
 10
34.174023
 20
15.579673
 30
0.0
 10
34.347993
 20
15.785217
 30
0.0
 10
34.581988
 20
15.925607
 30
0.0
 10
34.759053
 20
15.943702
 30
0.0
 10
34.848224
 20
15.952815
 30
0.0
 11
34.848224
 21
14.427412
 31
0.0
 11
34.586150
 21
14.473841
 31
0.0
 11
34.358951
 21
14.605014
 31
0.0
 11
34.187706
 21
14.808763
 31
0.0
 11
34.096877
 21
15.058940
 31
0.0
 11
34.096877
 21
15.321286
 31
0.0
 11
34.187706
 21
15.571464
 31
0.0
 11
34.358951
 21
15.775213
 31
0.0
 11
34.586150
 21
15.906386
 31
0.0
 11
34.848224
 21
15.952815
 31
0.0
  0
LWPOLYLINE
  5
135
100
AcDbEntity
  8
0
 62
7
100
AcDbPolyline
 90
2
 70
0
 10
34.848224
 20
15.952815
 30
0.0
 10
36.371663
 20
15.952815
 30
0.0
  0
LWPOLYLINE
  5
136
100
AcDbEntity
  8
0
 62
7
100
AcDbPolyline
 90
2
 70
0
 10
36.371663
 20
14.427412
 30
0.0
 10
34.848224
 20
14.427412
 30
0.0
  0
SPLINE
  5
137
100
AcDbEntity
  8
0
 62
7
100
AcDbSpline
 70
0
 71
3
 72
16
 73
12
 74
10
 40
0.000000
 40
0.000000
 40
0.000000
 40
0.000000
 40
0.266155
 40
0.528502
 40
0.794657
 40
1.060812
 40
1.323158
 40
1.589314
 40
1.855469
 40
2.117815
 40
2.383971
 40
2.383971
 40
2.383971
 40
2.383971
 10
36.371663
 20
15.952815
 30
0.0
 10
36.460834
 20
15.943702
 30
0.0
 10
36.637899
 20
15.925607
 30
0.0
 10
36.871894
 20
15.785217
 30
0.0
 10
37.045864
 20
15.579673
 30
0.0
 10
37.138131
 20
15.325109
 30
0.0
 10
37.138131
 20
15.055118
 30
0.0
 10
37.045864
 20
14.800554
 30
0.0
 10
36.871894
 20
14.595009
 30
0.0
 10
36.637899
 20
14.454620
 30
0.0
 10
36.460834
 20
14.436525
 30
0.0
 10
36.371663
 20
14.427412
 30
0.0
 11
36.371663
 21
15.952815
 31
0.0
 11
36.633737
 21
15.906386
 31
0.0
 11
36.860936
 21
15.775213
 31
0.0
 11
37.032181
 21
15.571464
 31
0.0
 11
37.123010
 21
15.321286
 31
0.0
 11
37.123010
 21
15.058940
 31
0.0
 11
37.032181
 21
14.808763
 31
0.0
 11
36.860936
 21
14.605014
 31
0.0
 11
36.633737
 21
14.473841
 31
0.0
 11
36.371663
 21
14.427412
 31
0.0
  0
LWPOLYLINE
  5
138
100
AcDbEntity
  8
0
 62
7
100
AcDbPolyline
 90
4
 70
1
 10
24.480015
 20
39.820004
 30
0.0
 10
24.480015
 20
38.820011
 30
0.0
 10
25.580016
 20
38.820011
 30
0.0
 10
25.580016
 20
39.820004
 30
0.0
  0
SPLINE
  5
139
100
AcDbEntity
  8
0
 62
7
100
AcDbSpline
 70
0
 71
3
 72
13
 73
9
 74
7
 40
0.000000
 40
0.000000
 40
0.000000
 40
0.000000
 40
0.199723
 40
0.397789
 40
0.597512
 40
0.797235
 40
0.995301
 40
1.195024
 40
1.195024
 40
1.195024
 40
1.195024
 10
33.080645
 20
5.294604
 30
0.0
 10
33.147341
 20
5.288633
 30
0.0
 10
33.280181
 20
5.276740
 30
0.0
 10
33.465118
 20
5.194155
 30
0.0
 10
33.623509
 20
5.070142
 30
0.0
 10
33.743013
 20
4.908323
 30
0.0
 10
33.820360
 20
4.721134
 30
0.0
 10
33.828508
 20
4.588012
 30
0.0
 10
33.832599
 20
4.521174
 30
0.0
 11
33.080645
 21
5.294604
 31
0.0
 11
33.278284
 21
5.265829
 31
0.0
 11
33.460224
 21
5.187546
 31
0.0
 11
33.617010
 21
5.063824
 31
0.0
 11
33.736269
 21
4.903616
 31
0.0
 11
33.809399
 21
4.719545
 31
0.0
 11
33.832599
 21
4.521174
 31
0.0
  0
LWPOLYLINE
  5
13a
100
AcDbEntity
  8
0
 62
7
100
AcDbPolyline
 90
2
 70
0
 10
33.832599
 20
4.521174
 30
0.0
 10
33.832599
 20
2.997730
 30
0.0
  0
SPLINE
  5
13b
100
AcDbEntity
  8
0
 62
7
100
AcDbSpline
 70
0
 71
3
 72
16
 73
12
 74
10
 40
0.000000
 40
0.000000
 40
0.000000
 40
0.000000
 40
0.266153
 40
0.528498
 40
0.794651
 40
1.060805
 40
1.323149
 40
1.589303
 40
1.855456
 40
2.117801
 40
2.383954
 40
2.383954
 40
2.383954
 40
2.383954
 10
33.832599
 20
2.997730
 30
0.0
 10
33.823486
 20
2.908559
 30
0.0
 10
33.805391
 20
2.731495
 30
0.0
 10
33.665003
 20
2.497502
 30
0.0
 10
33.459460
 20
2.323534
 30
0.0
 10
33.204897
 20
2.231267
 30
0.0
 10
32.934908
 20
2.231267
 30
0.0
 10
32.680346
 20
2.323534
 30
0.0
 10
32.474803
 20
2.497502
 30
0.0
 10
32.334414
 20
2.731495
 30
0.0
 10
32.316319
 20
2.908559
 30
0.0
 10
32.307207
 20
2.997730
 30
0.0
 11
33.832599
 21
2.997730
 31
0.0
 11
33.786170
 21
2.735657
 31
0.0
 11
33.654998
 21
2.508460
 31
0.0
 11
33.451251
 21
2.337216
 31
0.0
 11
33.201075
 21
2.246387
 31
0.0
 11
32.938731
 21
2.246387
 31
0.0
 11
32.688555
 21
2.337216
 31
0.0
 11
32.484807
 21
2.508460
 31
0.0
 11
32.353635
 21
2.735657
 31
0.0
 11
32.307207
 21
2.997730
 31
0.0
  0
LWPOLYLINE
  5
13c
100
AcDbEntity
  8
0
 62
7
100
AcDbPolyline
 90
2
 70
0
 10
32.307207
 20
2.997730
 30
0.0
 10
32.307207
 20
4.521174
 30
0.0
  0
LWPOLYLINE
  5
13d
100
AcDbEntity
  8
0
 62
7
100
AcDbPolyline
 90
1
 70
1
 10
33.080645
 20
5.294604
 30
0.0
  0
SPLINE
  5
13e
100
AcDbEntity
  8
0
 62
7
100
AcDbSpline
 70
0
 71
3
 72
13
 73
9
 74
7
 40
0.000000
 40
0.000000
 40
0.000000
 40
0.000000
 40
0.203305
 40
0.404865
 40
0.608171
 40
0.811476
 40
1.013036
 40
1.216341
 40
1.216341
 40
1.216341
 40
1.216341
 10
32.307207
 20
4.521174
 30
0.0
 10
32.311465
 20
4.589220
 30
0.0
 10
32.319943
 20
4.724727
 30
0.0
 10
32.400091
 20
4.914795
 30
0.0
 10
32.523689
 20
5.078127
 30
0.0
 10
32.687024
 20
5.201724
 30
0.0
 10
32.877092
 20
5.281870
 30
0.0
 10
33.012599
 20
5.290347
 30
0.0
 10
33.080645
 20
5.294604
 30
0.0
 11
32.307207
 21
4.521174
 31
0.0
 11
32.331296
 21
4.723047
 31
0.0
 11
32.407030
 21
4.909838
 31
0.0
 11
32.530331
 21
5.071486
 31
0.0
 11
32.691980
 21
5.194785
 31
0.0
 11
32.878772
 21
5.270517
 31
0.0
 11
33.080645
 21
5.294604
 31
0.0
  0
LWPOLYLINE
  5
13f
100
AcDbEntity
  8
0
 62
7
100
AcDbPolyline
 90
4
 70
1
 10
22.780014
 20
39.820004
 30
0.0
 10
22.780014
 20
38.820011
 30
0.0
 10
23.880015
 20
38.820011
 30
0.0
 10
23.880015
 20
39.820004
 30
0.0
  0
SPLINE
  5
140
100
AcDbEntity
  8
0
 62
7
100
AcDbSpline
 70
0
 71
3
 72
13
 73
9
 74
7
 40
0.000000
 40
0.000000
 40
0.000000
 40
0.000000
 40
0.199723
 40
0.397789
 40
0.597512
 40
0.797235
 40
0.995301
 40
1.195024
 40
1.195024
 40
1.195024
 40
1.195024
 10
33.080645
 20
30.695001
 30
0.0
 10
33.147341
 20
30.689030
 30
0.0
 10
33.280181
 20
30.677137
 30
0.0
 10
33.465118
 20
30.594552
 30
0.0
 10
33.623509
 20
30.470539
 30
0.0
 10
33.743013
 20
30.308719
 30
0.0
 10
33.820360
 20
30.121531
 30
0.0
 10
33.828508
 20
29.988409
 30
0.0
 10
33.832599
 20
29.921571
 30
0.0
 11
33.080645
 21
30.695001
 31
0.0
 11
33.278284
 21
30.666226
 31
0.0
 11
33.460224
 21
30.587943
 31
0.0
 11
33.617010
 21
30.464220
 31
0.0
 11
33.736269
 21
30.304013
 31
0.0
 11
33.809399
 21
30.119942
 31
0.0
 11
33.832599
 21
29.921571
 31
0.0
  0
LWPOLYLINE
  5
141
100
AcDbEntity
  8
0
 62
7
100
AcDbPolyline
 90
2
 70
0
 10
33.832599
 20
29.921571
 30
0.0
 10
33.832599
 20
28.398127
 30
0.0
  0
SPLINE
  5
142
100
AcDbEntity
  8
0
 62
7
100
AcDbSpline
 70
0
 71
3
 72
16
 73
12
 74
10
 40
0.000000
 40
0.000000
 40
0.000000
 40
0.000000
 40
0.266153
 40
0.528498
 40
0.794651
 40
1.060805
 40
1.323149
 40
1.589303
 40
1.855456
 40
2.117801
 40
2.383954
 40
2.383954
 40
2.383954
 40
2.383954
 10
33.832599
 20
28.398127
 30
0.0
 10
33.823486
 20
28.308956
 30
0.0
 10
33.805391
 20
28.131892
 30
0.0
 10
33.665003
 20
27.897898
 30
0.0
 10
33.459460
 20
27.723930
 30
0.0
 10
33.204897
 20
27.631664
 30
0.0
 10
32.934908
 20
27.631664
 30
0.0
 10
32.680346
 20
27.723930
 30
0.0
 10
32.474803
 20
27.897898
 30
0.0
 10
32.334414
 20
28.131892
 30
0.0
 10
32.316319
 20
28.308956
 30
0.0
 10
32.307207
 20
28.398127
 30
0.0
 11
33.832599
 21
28.398127
 31
0.0
 11
33.786170
 21
28.136054
 31
0.0
 11
33.654998
 21
27.908857
 31
0.0
 11
33.451251
 21
27.737613
 31
0.0
 11
33.201075
 21
27.646784
 31
0.0
 11
32.938731
 21
27.646784
 31
0.0
 11
32.688555
 21
27.737613
 31
0.0
 11
32.484807
 21
27.908857
 31
0.0
 11
32.353635
 21
28.136054
 31
0.0
 11
32.307207
 21
28.398127
 31
0.0
  0
LWPOLYLINE
  5
143
100
AcDbEntity
  8
0
 62
7
100
AcDbPolyline
 90
2
 70
0
 10
32.307207
 20
28.398127
 30
0.0
 10
32.307207
 20
29.921571
 30
0.0
  0
LWPOLYLINE
  5
144
100
AcDbEntity
  8
0
 62
7
100
AcDbPolyline
 90
1
 70
1
 10
33.080645
 20
30.695001
 30
0.0
  0
SPLINE
  5
145
100
AcDbEntity
  8
0
 62
7
100
AcDbSpline
 70
0
 71
3
 72
13
 73
9
 74
7
 40
0.000000
 40
0.000000
 40
0.000000
 40
0.000000
 40
0.203305
 40
0.404865
 40
0.608171
 40
0.811476
 40
1.013036
 40
1.216341
 40
1.216341
 40
1.216341
 40
1.216341
 10
32.307207
 20
29.921571
 30
0.0
 10
32.311465
 20
29.989617
 30
0.0
 10
32.319943
 20
30.125124
 30
0.0
 10
32.400091
 20
30.315191
 30
0.0
 10
32.523689
 20
30.478524
 30
0.0
 10
32.687024
 20
30.602121
 30
0.0
 10
32.877092
 20
30.682267
 30
0.0
 10
33.012599
 20
30.690744
 30
0.0
 10
33.080645
 20
30.695001
 30
0.0
 11
32.307207
 21
29.921571
 31
0.0
 11
32.331296
 21
30.123444
 31
0.0
 11
32.407030
 21
30.310235
 31
0.0
 11
32.530331
 21
30.471883
 31
0.0
 11
32.691980
 21
30.595182
 31
0.0
 11
32.878772
 21
30.670914
 31
0.0
 11
33.080645
 21
30.695001
 31
0.0
  0
LWPOLYLINE
  5
146
100
AcDbEntity
  8
0
 62
7
100
AcDbPolyline
 90
4
 70
1
 10
29.980018
 20
35.590004
 30
0.0
 10
29.980018
 20
34.590012
 30
0.0
 10
31.080019
 20
34.590012
 30
0.0
 10
31.080019
 20
35.590004
 30
0.0
  0
SPLINE
  5
147
100
AcDbEntity
  8
0
 62
7
100
AcDbSpline
 70
0
 71
3
 72
25
 73
21
 74
19
 40
0.000000
 40
0.000000
 40
0.000000
 40
0.000000
 40
0.230549
 40
0.457796
 40
0.688345
 40
0.918894
 40
1.146142
 40
1.376691
 40
1.607240
 40
1.834487
 40
2.065036
 40
2.295585
 40
2.522832
 40
2.753381
 40
2.983931
 40
3.211178
 40
3.441727
 40
3.672276
 40
3.899523
 40
4.130072
 40
4.130072
 40
4.130072
 40
4.130072
 10
21.030413
 20
39.320021
 30
0.0
 10
21.022565
 20
39.397268
 30
0.0
 10
21.006981
 20
39.550655
 30
0.0
 10
20.885457
 20
39.753401
 30
0.0
 10
20.707444
 20
39.904149
 30
0.0
 10
20.486967
 20
39.984105
 30
0.0
 10
20.253006
 20
39.984105
 30
0.0
 10
20.032836
 20
39.904149
 30
0.0
 10
19.853598
 20
39.753401
 30
0.0
 10
19.736628
 20
39.550655
 30
0.0
 10
19.696004
 20
39.320021
 30
0.0
 10
19.736628
 20
39.089386
 30
0.0
 10
19.853598
 20
38.886640
 30
0.0
 10
20.032836
 20
38.735893
 30
0.0
 10
20.253006
 20
38.655937
 30
0.0
 10
20.486967
 20
38.655937
 30
0.0
 10
20.707444
 20
38.735893
 30
0.0
 10
20.885457
 20
38.886640
 30
0.0
 10
21.006981
 20
39.089386
 30
0.0
 10
21.022565
 20
39.242774
 30
0.0
 10
21.030413
 20
39.320021
 30
0.0
 11
21.030413
 21
39.320021
 31
0.0
 11
20.990323
 21
39.547058
 31
0.0
 11
20.876783
 21
39.743907
 31
0.0
 11
20.700333
 21
39.892293
 31
0.0
 11
20.483635
 21
39.971002
 31
0.0
 11
20.256388
 21
39.971002
 31
0.0
 11
20.039690
 21
39.892293
 31
0.0
 11
19.863241
 21
39.743907
 31
0.0
 11
19.749700
 21
39.547058
 31
0.0
 11
19.709610
 21
39.320021
 31
0.0
 11
19.749700
 21
39.092984
 31
0.0
 11
19.863241
 21
38.896134
 31
0.0
 11
20.039690
 21
38.747748
 31
0.0
 11
20.256388
 21
38.669040
 31
0.0
 11
20.483635
 21
38.669040
 31
0.0
 11
20.700333
 21
38.747748
 31
0.0
 11
20.876783
 21
38.896134
 31
0.0
 11
20.990323
 21
39.092984
 31
0.0
 11
21.030413
 21
39.320021
 31
0.0
  0
LWPOLYLINE
  5
148
100
AcDbEntity
  8
0
 62
7
100
AcDbPolyline
 90
1
 70
1
 10
21.030413
 20
39.320021
 30
0.0
  0
LWPOLYLINE
  5
149
100
AcDbEntity
  8
0
 62
7
100
AcDbPolyline
 90
1
 70
1
 10
28.650417
 20
34.240021
 30
0.0
  0
LWPOLYLINE
  5
14a
100
AcDbEntity
  8
0
 62
7
100
AcDbPolyline
 90
4
 70
1
 10
29.980018
 20
33.890003
 30
0.0
 10
29.980018
 20
32.890011
 30
0.0
 10
31.080019
 20
32.890011
 30
0.0
 10
31.080019
 20
33.890003
 30
0.0
  0
SPLINE
  5
14b
100
AcDbEntity
  8
0
 62
7
100
AcDbSpline
 70
0
 71
3
 72
25
 73
21
 74
19
 40
0.000000
 40
0.000000
 40
0.000000
 40
0.000000
 40
0.230456
 40
0.457614
 40
0.688070
 40
0.918526
 40
1.145684
 40
1.376140
 40
1.606596
 40
1.833753
 40
2.064209
 40
2.294665
 40
2.521823
 40
2.752279
 40
2.982735
 40
3.209893
 40
3.440349
 40
3.670805
 40
3.897963
 40
4.128419
 40
4.128419
 40
4.128419
 40
4.128419
 10
28.650417
 20
34.240021
 30
0.0
 10
28.642526
 20
34.317231
 30
0.0
 10
28.626858
 20
34.470547
 30
0.0
 10
28.505301
 20
34.673156
 30
0.0
 10
28.327320
 20
34.823791
 30
0.0
 10
28.106924
 20
34.903683
 30
0.0
 10
27.873059
 20
34.903683
 30
0.0
 10
27.652971
 20
34.823791
 30
0.0
 10
27.473758
 20
34.673156
 30
0.0
 10
27.356780
 20
34.470547
 30
0.0
 10
27.315937
 20
34.240021
 30
0.0
 10
27.356780
 20
34.009494
 30
0.0
 10
27.473758
 20
33.806885
 30
0.0
 10
27.652971
 20
33.656250
 30
0.0
 10
27.873059
 20
33.576359
 30
0.0
 10
28.106924
 20
33.576359
 30
0.0
 10
28.327320
 20
33.656250
 30
0.0
 10
28.505301
 20
33.806885
 30
0.0
 10
28.626858
 20
34.009494
 30
0.0
 10
28.642526
 20
34.162810
 30
0.0
 10
28.650417
 20
34.240021
 30
0.0
 11
28.650417
 21
34.240021
 31
0.0
 11
28.610216
 21
34.466943
 31
0.0
 11
28.496637
 21
34.663668
 31
0.0
 11
28.320217
 21
34.811944
 31
0.0
 11
28.103595
 21
34.890590
 31
0.0
 11
27.876438
 21
34.890590
 31
0.0
 11
27.659816
 21
34.811944
 31
0.0
 11
27.483396
 21
34.663668
 31
0.0
 11
27.369817
 21
34.466943
 31
0.0
 11
27.329616
 21
34.240021
 31
0.0
 11
27.369817
 21
34.013098
 31
0.0
 11
27.483396
 21
33.816374
 31
0.0
 11
27.659816
 21
33.668097
 31
0.0
 11
27.876438
 21
33.589451
 31
0.0
 11
28.103595
 21
33.589451
 31
0.0
 11
28.320217
 21
33.668097
 31
0.0
 11
28.496637
 21
33.816374
 31
0.0
 11
28.610216
 21
34.013098
 31
0.0
 11
28.650417
 21
34.240021
 31
0.0
  0
LWPOLYLINE
  5
14c
100
AcDbEntity
  8
0
 62
7
100
AcDbPolyline
 90
8
 70
1
 10
13.232608
 20
39.646173
 30
0.0
 10
13.232608
 20
38.993869
 30
0.0
 10
13.693856
 20
38.532621
 30
0.0
 10
14.346159
 20
38.532621
 30
0.0
 10
14.807407
 20
38.993869
 30
0.0
 10
14.807407
 20
39.646173
 30
0.0
 10
14.346159
 20
40.107421
 30
0.0
 10
13.693856
 20
40.107421
 30
0.0
  0
SPLINE
  5
14d
100
AcDbEntity
  8
0
 62
7
100
AcDbSpline
 70
0
 71
3
 72
25
 73
21
 74
19
 40
0.000000
 40
0.000000
 40
0.000000
 40
0.000000
 40
0.274875
 40
0.545814
 40
0.820689
 40
1.095565
 40
1.366504
 40
1.641379
 40
1.916254
 40
2.187193
 40
2.462068
 40
2.736944
 40
3.007882
 40
3.282758
 40
3.557633
 40
3.828572
 40
4.103447
 40
4.378323
 40
4.649261
 40
4.924137
 40
4.924137
 40
4.924137
 40
4.924137
 10
17.347410
 20
39.320021
 30
0.0
 10
17.338048
 20
39.412119
 30
0.0
 10
17.319460
 20
39.594996
 30
0.0
 10
17.174562
 20
39.836718
 30
0.0
 10
16.962320
 20
40.016443
 30
0.0
 10
16.699453
 20
40.111768
 30
0.0
 10
16.420509
 20
40.111768
 30
0.0
 10
16.158008
 20
40.016443
 30
0.0
 10
15.944304
 20
39.836718
 30
0.0
 10
15.804839
 20
39.594996
 30
0.0
 10
15.756382
 20
39.320021
 30
0.0
 10
15.804839
 20
39.045045
 30
0.0
 10
15.944304
 20
38.803324
 30
0.0
 10
16.158008
 20
38.623599
 30
0.0
 10
16.420509
 20
38.528273
 30
0.0
 10
16.699453
 20
38.528273
 30
0.0
 10
16.962320
 20
38.623599
 30
0.0
 10
17.174562
 20
38.803324
 30
0.0
 10
17.319460
 20
39.045045
 30
0.0
 10
17.338048
 20
39.227923
 30
0.0
 10
17.347410
 20
39.320021
 30
0.0
 11
17.347410
 21
39.320021
 31
0.0
 11
17.299600
 21
39.590706
 31
0.0
 11
17.164221
 21
39.825398
 31
0.0
 11
16.953842
 21
40.002309
 31
0.0
 11
16.695480
 21
40.096147
 31
0.0
 11
16.424542
 21
40.096147
 31
0.0
 11
16.166180
 21
40.002309
 31
0.0
 11
15.955801
 21
39.825398
 31
0.0
 11
15.820422
 21
39.590706
 31
0.0
 11
15.772612
 21
39.320021
 31
0.0
 11
15.820422
 21
39.049335
 31
0.0
 11
15.955801
 21
38.814643
 31
0.0
 11
16.166180
 21
38.637733
 31
0.0
 11
16.424542
 21
38.543895
 31
0.0
 11
16.695480
 21
38.543895
 31
0.0
 11
16.953842
 21
38.637733
 31
0.0
 11
17.164221
 21
38.814643
 31
0.0
 11
17.299600
 21
39.049335
 31
0.0
 11
17.347410
 21
39.320021
 31
0.0
  0
LWPOLYLINE
  5
14e
100
AcDbEntity
  8
0
 62
7
100
AcDbPolyline
 90
1
 70
1
 10
17.347410
 20
39.320021
 30
0.0
  0
SPLINE
  5
14f
100
AcDbEntity
  8
0
 62
7
100
AcDbSpline
 70
0
 71
3
 72
16
 73
12
 74
10
 40
0.000000
 40
0.000000
 40
0.000000
 40
0.000000
 40
0.271096
 40
0.538169
 40
0.809265
 40
1.080361
 40
1.347435
 40
1.618530
 40
1.889626
 40
2.156700
 40
2.427796
 40
2.427796
 40
2.427796
 40
2.427796
 10
36.371663
 20
18.491888
 30
0.0
 10
36.462754
 20
18.485195
 30
0.0
 10
36.643584
 20
18.471906
 30
0.0
 10
36.884980
 20
18.333604
 30
0.0
 10
37.065100
 20
18.126570
 30
0.0
 10
37.160893
 20
17.867746
 30
0.0
 10
37.160893
 20
17.592587
 30
0.0
 10
37.065100
 20
17.333762
 30
0.0
 10
36.884980
 20
17.126728
 30
0.0
 10
36.643584
 20
16.988426
 30
0.0
 10
36.462754
 20
16.975138
 30
0.0
 10
36.371663
 20
16.968444
 30
0.0
 11
36.371663
 21
18.491888
 31
0.0
 11
36.639784
 21
18.451841
 31
0.0
 11
36.873745
 21
18.323035
 31
0.0
 11
37.050975
 21
18.117896
 31
0.0
 11
37.145204
 21
17.863703
 31
0.0
 11
37.145204
 21
17.596629
 31
0.0
 11
37.050975
 21
17.342437
 31
0.0
 11
36.873745
 21
17.137298
 31
0.0
 11
36.639784
 21
17.008492
 31
0.0
 11
36.371663
 21
16.968444
 31
0.0
  0
LWPOLYLINE
  5
150
100
AcDbEntity
  8
0
 62
7
100
AcDbPolyline
 90
2
 70
0
 10
36.371663
 20
16.968444
 30
0.0
 10
34.848224
 20
16.968444
 30
0.0
  0
SPLINE
  5
151
100
AcDbEntity
  8
0
 62
7
100
AcDbSpline
 70
0
 71
3
 72
16
 73
12
 74
10
 40
0.000000
 40
0.000000
 40
0.000000
 40
0.000000
 40
0.271096
 40
0.538169
 40
0.809265
 40
1.080361
 40
1.347435
 40
1.618530
 40
1.889626
 40
2.156700
 40
2.427796
 40
2.427796
 40
2.427796
 40
2.427796
 10
34.848224
 20
16.968444
 30
0.0
 10
34.757133
 20
16.975138
 30
0.0
 10
34.576303
 20
16.988426
 30
0.0
 10
34.334907
 20
17.126728
 30
0.0
 10
34.154787
 20
17.333762
 30
0.0
 10
34.058994
 20
17.592587
 30
0.0
 10
34.058994
 20
17.867746
 30
0.0
 10
34.154787
 20
18.126570
 30
0.0
 10
34.334907
 20
18.333604
 30
0.0
 10
34.576303
 20
18.471906
 30
0.0
 10
34.757133
 20
18.485195
 30
0.0
 10
34.848224
 20
18.491888
 30
0.0
 11
34.848224
 21
16.968444
 31
0.0
 11
34.580103
 21
17.008492
 31
0.0
 11
34.346143
 21
17.137298
 31
0.0
 11
34.168912
 21
17.342437
 31
0.0
 11
34.074683
 21
17.596629
 31
0.0
 11
34.074683
 21
17.863703
 31
0.0
 11
34.168912
 21
18.117896
 31
0.0
 11
34.346143
 21
18.323035
 31
0.0
 11
34.580103
 21
18.451841
 31
0.0
 11
34.848224
 21
18.491888
 31
0.0
  0
LWPOLYLINE
  5
152
100
AcDbEntity
  8
0
 62
7
100
AcDbPolyline
 90
2
 70
0
 10
34.848224
 20
18.491888
 30
0.0
 10
36.371663
 20
18.491888
 30
0.0
  0
SPLINE
  5
153
100
AcDbEntity
  8
0
 62
7
100
AcDbSpline
 70
0
 71
3
 72
25
 73
21
 74
19
 40
0.000000
 40
0.000000
 40
0.000000
 40
0.000000
 40
0.230549
 40
0.457796
 40
0.688345
 40
0.918894
 40
1.146142
 40
1.376691
 40
1.607240
 40
1.834487
 40
2.065036
 40
2.295585
 40
2.522832
 40
2.753381
 40
2.983931
 40
3.211178
 40
3.441727
 40
3.672276
 40
3.899523
 40
4.130072
 40
4.130072
 40
4.130072
 40
4.130072
 10
21.030413
 20
31.700021
 30
0.0
 10
21.022565
 20
31.777268
 30
0.0
 10
21.006981
 20
31.930655
 30
0.0
 10
20.885457
 20
32.133401
 30
0.0
 10
20.707444
 20
32.284149
 30
0.0
 10
20.486967
 20
32.364105
 30
0.0
 10
20.253006
 20
32.364105
 30
0.0
 10
20.032836
 20
32.284149
 30
0.0
 10
19.853598
 20
32.133401
 30
0.0
 10
19.736628
 20
31.930655
 30
0.0
 10
19.696004
 20
31.700021
 30
0.0
 10
19.736628
 20
31.469386
 30
0.0
 10
19.853598
 20
31.266640
 30
0.0
 10
20.032836
 20
31.115893
 30
0.0
 10
20.253006
 20
31.035937
 30
0.0
 10
20.486967
 20
31.035937
 30
0.0
 10
20.707444
 20
31.115893
 30
0.0
 10
20.885457
 20
31.266640
 30
0.0
 10
21.006981
 20
31.469386
 30
0.0
 10
21.022565
 20
31.622774
 30
0.0
 10
21.030413
 20
31.700021
 30
0.0
 11
21.030413
 21
31.700021
 31
0.0
 11
20.990323
 21
31.927058
 31
0.0
 11
20.876783
 21
32.123907
 31
0.0
 11
20.700333
 21
32.272293
 31
0.0
 11
20.483635
 21
32.351002
 31
0.0
 11
20.256388
 21
32.351002
 31
0.0
 11
20.039690
 21
32.272293
 31
0.0
 11
19.863241
 21
32.123907
 31
0.0
 11
19.749700
 21
31.927058
 31
0.0
 11
19.709610
 21
31.700021
 31
0.0
 11
19.749700
 21
31.472984
 31
0.0
 11
19.863241
 21
31.276134
 31
0.0
 11
20.039690
 21
31.127748
 31
0.0
 11
20.256388
 21
31.049040
 31
0.0
 11
20.483635
 21
31.049040
 31
0.0
 11
20.700333
 21
31.127748
 31
0.0
 11
20.876783
 21
31.276134
 31
0.0
 11
20.990323
 21
31.472984
 31
0.0
 11
21.030413
 21
31.700021
 31
0.0
  0
LWPOLYLINE
  5
154
100
AcDbEntity
  8
0
 62
7
100
AcDbPolyline
 90
1
 70
1
 10
21.030413
 20
31.700021
 30
0.0
  0
SPLINE
  5
155
100
AcDbEntity
  8
0
 62
7
100
AcDbSpline
 70
0
 71
3
 72
25
 73
21
 74
19
 40
0.000000
 40
0.000000
 40
0.000000
 40
0.000000
 40
0.230549
 40
0.457796
 40
0.688345
 40
0.918894
 40
1.146142
 40
1.376691
 40
1.607240
 40
1.834487
 40
2.065036
 40
2.295585
 40
2.522832
 40
2.753381
 40
2.983931
 40
3.211178
 40
3.441727
 40
3.672276
 40
3.899523
 40
4.130072
 40
4.130072
 40
4.130072
 40
4.130072
 10
21.030413
 20
34.240021
 30
0.0
 10
21.022565
 20
34.317268
 30
0.0
 10
21.006981
 20
34.470655
 30
0.0
 10
20.885457
 20
34.673401
 30
0.0
 10
20.707444
 20
34.824149
 30
0.0
 10
20.486967
 20
34.904105
 30
0.0
 10
20.253006
 20
34.904105
 30
0.0
 10
20.032836
 20
34.824149
 30
0.0
 10
19.853598
 20
34.673401
 30
0.0
 10
19.736628
 20
34.470655
 30
0.0
 10
19.696004
 20
34.240021
 30
0.0
 10
19.736628
 20
34.009386
 30
0.0
 10
19.853598
 20
33.806640
 30
0.0
 10
20.032836
 20
33.655893
 30
0.0
 10
20.253006
 20
33.575937
 30
0.0
 10
20.486967
 20
33.575937
 30
0.0
 10
20.707444
 20
33.655893
 30
0.0
 10
20.885457
 20
33.806640
 30
0.0
 10
21.006981
 20
34.009386
 30
0.0
 10
21.022565
 20
34.162774
 30
0.0
 10
21.030413
 20
34.240021
 30
0.0
 11
21.030413
 21
34.240021
 31
0.0
 11
20.990323
 21
34.467058
 31
0.0
 11
20.876783
 21
34.663907
 31
0.0
 11
20.700333
 21
34.812293
 31
0.0
 11
20.483635
 21
34.891002
 31
0.0
 11
20.256388
 21
34.891002
 31
0.0
 11
20.039690
 21
34.812293
 31
0.0
 11
19.863241
 21
34.663907
 31
0.0
 11
19.749700
 21
34.467058
 31
0.0
 11
19.709610
 21
34.240021
 31
0.0
 11
19.749700
 21
34.012984
 31
0.0
 11
19.863241
 21
33.816134
 31
0.0
 11
20.039690
 21
33.667748
 31
0.0
 11
20.256388
 21
33.589040
 31
0.0
 11
20.483635
 21
33.589040
 31
0.0
 11
20.700333
 21
33.667748
 31
0.0
 11
20.876783
 21
33.816134
 31
0.0
 11
20.990323
 21
34.012984
 31
0.0
 11
21.030413
 21
34.240021
 31
0.0
  0
LWPOLYLINE
  5
156
100
AcDbEntity
  8
0
 62
7
100
AcDbPolyline
 90
1
 70
1
 10
21.030413
 20
34.240021
 30
0.0
  0
SPLINE
  5
157
100
AcDbEntity
  8
0
 62
7
100
AcDbSpline
 70
0
 71
3
 72
22
 73
18
 74
16
 40
0.000000
 40
0.000000
 40
0.000000
 40
0.000000
 40
0.345175
 40
0.680119
 40
1.025294
 40
1.368108
 40
2.004762
 40
2.347576
 40
2.582543
 40
2.814024
 40
3.048991
 40
3.283958
 40
3.515439
 40
3.750406
 40
3.985373
 40
4.216854
 40
4.451821
 40
4.451821
 40
4.451821
 40
4.451821
 10
10.219302
 20
33.030954
 30
0.0
 10
10.334999
 20
33.011037
 30
0.0
 10
10.562965
 20
32.971794
 30
0.0
 10
10.817171
 20
32.705571
 30
0.0
 10
10.883428
 20
32.361067
 30
0.0
 10
10.863003
 20
31.920747
 30
0.0
 10
10.866414
 20
31.478943
 30
0.0
 10
10.876946
 20
31.075511
 30
0.0
 10
10.851387
 20
30.802947
 30
0.0
 10
10.732820
 20
30.593859
 30
0.0
 10
10.553037
 20
30.437693
 30
0.0
 10
10.328801
 20
30.354671
 30
0.0
 10
10.090286
 20
30.354668
 30
0.0
 10
9.865963
 20
30.437702
 30
0.0
 10
9.686527
 20
30.593827
 30
0.0
 10
9.566673
 20
30.803063
 30
0.0
 10
9.555173
 20
30.959796
 30
0.0
 10
9.549380
 20
31.038748
 30
0.0
 11
10.219302
 21
33.030954
 31
0.0
 11
10.551109
 21
32.935825
 31
0.0
 11
10.784421
 21
32.695505
 31
0.0
 11
10.869693
 21
32.361029
 31
0.0
 11
10.869693
 21
32.018216
 31
0.0
 11
10.869693
 21
31.381561
 31
0.0
 11
10.869693
 21
31.038748
 31
0.0
 11
10.835007
 21
30.806355
 31
0.0
 11
10.723384
 21
30.603565
 31
0.0
 11
10.545591
 21
30.449944
 31
0.0
 11
10.325277
 21
30.368267
 31
0.0
 11
10.093796
 21
30.368267
 31
0.0
 11
9.873482
 21
30.449944
 31
0.0
 11
9.695689
 21
30.603565
 31
0.0
 11
9.584066
 21
30.806355
 31
0.0
 11
9.549380
 21
31.038748
 31
0.0
  0
LWPOLYLINE
  5
158
100
AcDbEntity
  8
0
 62
7
100
AcDbPolyline
 90
2
 70
0
 10
9.549380
 20
31.038748
 30
0.0
 10
9.549380
 20
32.361029
 30
0.0
  0
SPLINE
  5
159
100
AcDbEntity
  8
0
 62
7
100
AcDbSpline
 70
0
 71
3
 72
13
 73
9
 74
7
 40
0.000000
 40
0.000000
 40
0.000000
 40
0.000000
 40
0.176067
 40
0.350626
 40
0.526693
 40
0.702761
 40
0.877319
 40
1.053386
 40
1.053386
 40
1.053386
 40
1.053386
 10
9.549380
 20
32.361029
 30
0.0
 10
9.553098
 20
32.419956
 30
0.0
 10
9.560503
 20
32.537304
 30
0.0
 10
9.629958
 20
32.701885
 30
0.0
 10
9.737009
 20
32.843324
 30
0.0
 10
9.878447
 20
32.950375
 30
0.0
 10
10.043027
 20
33.019831
 30
0.0
 10
10.160375
 20
33.027236
 30
0.0
 10
10.219302
 20
33.030954
 30
0.0
 11
9.549380
 21
32.361029
 31
0.0
 11
9.570326
 21
32.535846
 31
0.0
 11
9.635962
 21
32.697595
 31
0.0
 11
9.742756
 21
32.837576
 31
0.0
 11
9.882737
 21
32.944371
 31
0.0
 11
10.044485
 21
33.010007
 31
0.0
 11
10.219302
 21
33.030954
 31
0.0
  0
LWPOLYLINE
  5
15a
100
AcDbEntity
  8
0
 62
7
100
AcDbPolyline
 90
1
 70
1
 10
10.219302
 20
33.030954
 30
0.0
  0
SPLINE
  5
15b
100
AcDbEntity
  8
0
 62
7
100
AcDbSpline
 70
0
 71
3
 72
10
 73
6
 74
4
 40
0.000000
 40
0.000000
 40
0.000000
 40
0.000000
 40
0.345175
 40
0.680119
 40
1.025294
 40
1.025294
 40
1.025294
 40
1.025294
 10
7.680238
 20
33.030954
 30
0.0
 10
7.795627
 20
33.011054
 30
0.0
 10
8.022986
 20
32.971844
 30
0.0
 10
8.281684
 20
32.705376
 30
0.0
 10
8.314151
 20
32.476957
 30
0.0
 10
8.330629
 20
32.361029
 30
0.0
 11
7.680238
 21
33.030954
 31
0.0
 11
8.012045
 21
32.935825
 31
0.0
 11
8.245357
 21
32.695505
 31
0.0
 11
8.330629
 21
32.361029
 31
0.0
  0
LWPOLYLINE
  5
15c
100
AcDbEntity
  8
0
 62
7
100
AcDbPolyline
 90
2
 70
0
 10
8.330629
 20
32.361029
 30
0.0
 10
8.330629
 20
31.038748
 30
0.0
  0
SPLINE
  5
15d
100
AcDbEntity
  8
0
 62
7
100
AcDbSpline
 70
0
 71
3
 72
16
 73
12
 74
10
 40
0.000000
 40
0.000000
 40
0.000000
 40
0.000000
 40
0.234967
 40
0.466448
 40
0.701415
 40
0.936382
 40
1.167863
 40
1.402830
 40
1.637797
 40
1.869278
 40
2.104245
 40
2.104245
 40
2.104245
 40
2.104245
 10
8.330629
 20
31.038748
 30
0.0
 10
8.324836
 20
30.959796
 30
0.0
 10
8.313336
 20
30.803063
 30
0.0
 10
8.193482
 20
30.593827
 30
0.0
 10
8.014047
 20
30.437702
 30
0.0
 10
7.789717
 20
30.354668
 30
0.0
 10
7.551227
 20
30.354668
 30
0.0
 10
7.326898
 20
30.437702
 30
0.0
 10
7.147463
 20
30.593827
 30
0.0
 10
7.027608
 20
30.803063
 30
0.0
 10
7.016109
 20
30.959796
 30
0.0
 10
7.010316
 20
31.038748
 30
0.0
 11
8.330629
 21
31.038748
 31
0.0
 11
8.295943
 21
30.806355
 31
0.0
 11
8.184320
 21
30.603565
 31
0.0
 11
8.006527
 21
30.449944
 31
0.0
 11
7.786213
 21
30.368267
 31
0.0
 11
7.554732
 21
30.368267
 31
0.0
 11
7.334417
 21
30.449944
 31
0.0
 11
7.156625
 21
30.603565
 31
0.0
 11
7.045001
 21
30.806355
 31
0.0
 11
7.010316
 21
31.038748
 31
0.0
  0
LWPOLYLINE
  5
15e
100
AcDbEntity
  8
0
 62
7
100
AcDbPolyline
 90
2
 70
0
 10
7.010316
 20
31.038748
 30
0.0
 10
7.010316
 20
32.361029
 30
0.0
  0
SPLINE
  5
15f
100
AcDbEntity
  8
0
 62
7
100
AcDbSpline
 70
0
 71
3
 72
13
 73
9
 74
7
 40
0.000000
 40
0.000000
 40
0.000000
 40
0.000000
 40
0.176067
 40
0.350626
 40
0.526693
 40
0.702761
 40
0.877319
 40
1.053386
 40
1.053386
 40
1.053386
 40
1.053386
 10
7.010316
 20
32.361029
 30
0.0
 10
7.014034
 20
32.419956
 30
0.0
 10
7.021439
 20
32.537304
 30
0.0
 10
7.090893
 20
32.701885
 30
0.0
 10
7.197944
 20
32.843324
 30
0.0
 10
7.339383
 20
32.950375
 30
0.0
 10
7.503963
 20
33.019831
 30
0.0
 10
7.621311
 20
33.027236
 30
0.0
 10
7.680238
 20
33.030954
 30
0.0
 11
7.010316
 21
32.361029
 31
0.0
 11
7.031262
 21
32.535846
 31
0.0
 11
7.096898
 21
32.697595
 31
0.0
 11
7.203692
 21
32.837576
 31
0.0
 11
7.343673
 21
32.944371
 31
0.0
 11
7.505421
 21
33.010007
 31
0.0
 11
7.680238
 21
33.030954
 31
0.0
  0
LWPOLYLINE
  5
160
100
AcDbEntity
  8
0
 62
7
100
AcDbPolyline
 90
1
 70
1
 10
7.680238
 20
33.030954
 30
0.0
  0
SPLINE
  5
161
100
AcDbEntity
  8
0
 62
7
100
AcDbSpline
 70
0
 71
3
 72
10
 73
6
 74
4
 40
0.000000
 40
0.000000
 40
0.000000
 40
0.000000
 40
0.345175
 40
0.680119
 40
1.025294
 40
1.025294
 40
1.025294
 40
1.025294
 10
5.139221
 20
33.030954
 30
0.0
 10
5.254610
 20
33.011054
 30
0.0
 10
5.481969
 20
32.971844
 30
0.0
 10
5.740667
 20
32.705376
 30
0.0
 10
5.773134
 20
32.476957
 30
0.0
 10
5.789612
 20
32.361029
 30
0.0
 11
5.139221
 21
33.030954
 31
0.0
 11
5.471028
 21
32.935825
 31
0.0
 11
5.704340
 21
32.695505
 31
0.0
 11
5.789612
 21
32.361029
 31
0.0
  0
LWPOLYLINE
  5
162
100
AcDbEntity
  8
0
 62
7
100
AcDbPolyline
 90
2
 70
0
 10
5.789612
 20
32.361029
 30
0.0
 10
5.789612
 20
31.038748
 30
0.0
  0
SPLINE
  5
163
100
AcDbEntity
  8
0
 62
7
100
AcDbSpline
 70
0
 71
3
 72
16
 73
12
 74
10
 40
0.000000
 40
0.000000
 40
0.000000
 40
0.000000
 40
0.234967
 40
0.466448
 40
0.701415
 40
0.936382
 40
1.167863
 40
1.402830
 40
1.637797
 40
1.869278
 40
2.104245
 40
2.104245
 40
2.104245
 40
2.104245
 10
5.789612
 20
31.038748
 30
0.0
 10
5.783819
 20
30.959796
 30
0.0
 10
5.772319
 20
30.803063
 30
0.0
 10
5.652464
 20
30.593827
 30
0.0
 10
5.473029
 20
30.437702
 30
0.0
 10
5.248700
 20
30.354668
 30
0.0
 10
5.010210
 20
30.354668
 30
0.0
 10
4.785881
 20
30.437702
 30
0.0
 10
4.606446
 20
30.593827
 30
0.0
 10
4.486591
 20
30.803063
 30
0.0
 10
4.475091
 20
30.959796
 30
0.0
 10
4.469298
 20
31.038748
 30
0.0
 11
5.789612
 21
31.038748
 31
0.0
 11
5.754926
 21
30.806355
 31
0.0
 11
5.643302
 21
30.603565
 31
0.0
 11
5.465510
 21
30.449944
 31
0.0
 11
5.245195
 21
30.368267
 31
0.0
 11
5.013715
 21
30.368267
 31
0.0
 11
4.793400
 21
30.449944
 31
0.0
 11
4.615608
 21
30.603565
 31
0.0
 11
4.503984
 21
30.806355
 31
0.0
 11
4.469298
 21
31.038748
 31
0.0
  0
LWPOLYLINE
  5
164
100
AcDbEntity
  8
0
 62
7
100
AcDbPolyline
 90
2
 70
0
 10
4.469298
 20
31.038748
 30
0.0
 10
4.469298
 20
32.361029
 30
0.0
  0
SPLINE
  5
165
100
AcDbEntity
  8
0
 62
7
100
AcDbSpline
 70
0
 71
3
 72
13
 73
9
 74
7
 40
0.000000
 40
0.000000
 40
0.000000
 40
0.000000
 40
0.176067
 40
0.350626
 40
0.526693
 40
0.702761
 40
0.877319
 40
1.053386
 40
1.053386
 40
1.053386
 40
1.053386
 10
4.469298
 20
32.361029
 30
0.0
 10
4.473017
 20
32.419956
 30
0.0
 10
4.480421
 20
32.537304
 30
0.0
 10
4.549876
 20
32.701885
 30
0.0
 10
4.656927
 20
32.843324
 30
0.0
 10
4.798366
 20
32.950375
 30
0.0
 10
4.962946
 20
33.019831
 30
0.0
 10
5.080294
 20
33.027236
 30
0.0
 10
5.139221
 20
33.030954
 30
0.0
 11
4.469298
 21
32.361029
 31
0.0
 11
4.490245
 21
32.535846
 31
0.0
 11
4.555880
 21
32.697595
 31
0.0
 11
4.662675
 21
32.837576
 31
0.0
 11
4.802655
 21
32.944371
 31
0.0
 11
4.964404
 21
33.010007
 31
0.0
 11
5.139221
 21
33.030954
 31
0.0
  0
LWPOLYLINE
  5
166
100
AcDbEntity
  8
0
 62
7
100
AcDbPolyline
 90
1
 70
1
 10
5.139221
 20
33.030954
 30
0.0
  0
SPLINE
  5
167
100
AcDbEntity
  8
0
 62
7
100
AcDbSpline
 70
0
 71
3
 72
10
 73
6
 74
4
 40
0.000000
 40
0.000000
 40
0.000000
 40
0.000000
 40
0.345175
 40
0.680119
 40
1.025294
 40
1.025294
 40
1.025294
 40
1.025294
 10
5.139221
 20
6.361007
 30
0.0
 10
5.254610
 20
6.341107
 30
0.0
 10
5.481969
 20
6.301897
 30
0.0
 10
5.740667
 20
6.035429
 30
0.0
 10
5.773134
 20
5.807010
 30
0.0
 10
5.789612
 20
5.691082
 30
0.0
 11
5.139221
 21
6.361007
 31
0.0
 11
5.471028
 21
6.265878
 31
0.0
 11
5.704340
 21
6.025558
 31
0.0
 11
5.789612
 21
5.691082
 31
0.0
  0
LWPOLYLINE
  5
168
100
AcDbEntity
  8
0
 62
7
100
AcDbPolyline
 90
2
 70
0
 10
5.789612
 20
5.691082
 30
0.0
 10
5.789612
 20
4.368827
 30
0.0
  0
SPLINE
  5
169
100
AcDbEntity
  8
0
 62
7
100
AcDbSpline
 70
0
 71
3
 72
16
 73
12
 74
10
 40
0.000000
 40
0.000000
 40
0.000000
 40
0.000000
 40
0.234967
 40
0.466448
 40
0.701415
 40
0.936382
 40
1.167863
 40
1.402830
 40
1.637797
 40
1.869278
 40
2.104245
 40
2.104245
 40
2.104245
 40
2.104245
 10
5.789612
 20
4.368827
 30
0.0
 10
5.783819
 20
4.289875
 30
0.0
 10
5.772319
 20
4.133142
 30
0.0
 10
5.652464
 20
3.923906
 30
0.0
 10
5.473029
 20
3.767781
 30
0.0
 10
5.248700
 20
3.684748
 30
0.0
 10
5.010210
 20
3.684748
 30
0.0
 10
4.785881
 20
3.767781
 30
0.0
 10
4.606446
 20
3.923906
 30
0.0
 10
4.486591
 20
4.133142
 30
0.0
 10
4.475091
 20
4.289875
 30
0.0
 10
4.469298
 20
4.368827
 30
0.0
 11
5.789612
 21
4.368827
 31
0.0
 11
5.754926
 21
4.136434
 31
0.0
 11
5.643302
 21
3.933645
 31
0.0
 11
5.465510
 21
3.780024
 31
0.0
 11
5.245195
 21
3.698347
 31
0.0
 11
5.013715
 21
3.698347
 31
0.0
 11
4.793400
 21
3.780024
 31
0.0
 11
4.615608
 21
3.933645
 31
0.0
 11
4.503984
 21
4.136434
 31
0.0
 11
4.469298
 21
4.368827
 31
0.0
  0
LWPOLYLINE
  5
16a
100
AcDbEntity
  8
0
 62
7
100
AcDbPolyline
 90
2
 70
0
 10
4.469298
 20
4.368827
 30
0.0
 10
4.469298
 20
5.691082
 30
0.0
  0
SPLINE
  5
16b
100
AcDbEntity
  8
0
 62
7
100
AcDbSpline
 70
0
 71
3
 72
13
 73
9
 74
7
 40
0.000000
 40
0.000000
 40
0.000000
 40
0.000000
 40
0.176067
 40
0.350626
 40
0.526693
 40
0.702761
 40
0.877319
 40
1.053386
 40
1.053386
 40
1.053386
 40
1.053386
 10
4.469298
 20
5.691082
 30
0.0
 10
4.473017
 20
5.750009
 30
0.0
 10
4.480421
 20
5.867357
 30
0.0
 10
4.549876
 20
6.031938
 30
0.0
 10
4.656927
 20
6.173376
 30
0.0
 10
4.798366
 20
6.280428
 30
0.0
 10
4.962946
 20
6.349884
 30
0.0
 10
5.080294
 20
6.357289
 30
0.0
 10
5.139221
 20
6.361007
 30
0.0
 11
4.469298
 21
5.691082
 31
0.0
 11
4.490245
 21
5.865899
 31
0.0
 11
4.555880
 21
6.027648
 31
0.0
 11
4.662675
 21
6.167629
 31
0.0
 11
4.802655
 21
6.274424
 31
0.0
 11
4.964404
 21
6.340060
 31
0.0
 11
5.139221
 21
6.361007
 31
0.0
  0
LWPOLYLINE
  5
16c
100
AcDbEntity
  8
0
 62
7
100
AcDbPolyline
 90
1
 70
1
 10
5.139221
 20
6.361007
 30
0.0
  0
SPLINE
  5
16d
100
AcDbEntity
  8
0
 62
7
100
AcDbSpline
 70
0
 71
3
 72
10
 73
6
 74
4
 40
0.000000
 40
0.000000
 40
0.000000
 40
0.000000
 40
0.345175
 40
0.680119
 40
1.025294
 40
1.025294
 40
1.025294
 40
1.025294
 10
7.680238
 20
6.361007
 30
0.0
 10
7.795627
 20
6.341107
 30
0.0
 10
8.022986
 20
6.301897
 30
0.0
 10
8.281684
 20
6.035429
 30
0.0
 10
8.314151
 20
5.807010
 30
0.0
 10
8.330629
 20
5.691082
 30
0.0
 11
7.680238
 21
6.361007
 31
0.0
 11
8.012045
 21
6.265878
 31
0.0
 11
8.245357
 21
6.025558
 31
0.0
 11
8.330629
 21
5.691082
 31
0.0
  0
LWPOLYLINE
  5
16e
100
AcDbEntity
  8
0
 62
7
100
AcDbPolyline
 90
2
 70
0
 10
8.330629
 20
5.691082
 30
0.0
 10
8.330629
 20
4.368827
 30
0.0
  0
SPLINE
  5
16f
100
AcDbEntity
  8
0
 62
7
100
AcDbSpline
 70
0
 71
3
 72
16
 73
12
 74
10
 40
0.000000
 40
0.000000
 40
0.000000
 40
0.000000
 40
0.234967
 40
0.466448
 40
0.701415
 40
0.936382
 40
1.167863
 40
1.402830
 40
1.637797
 40
1.869278
 40
2.104245
 40
2.104245
 40
2.104245
 40
2.104245
 10
8.330629
 20
4.368827
 30
0.0
 10
8.324836
 20
4.289875
 30
0.0
 10
8.313336
 20
4.133142
 30
0.0
 10
8.193482
 20
3.923906
 30
0.0
 10
8.014047
 20
3.767781
 30
0.0
 10
7.789717
 20
3.684748
 30
0.0
 10
7.551227
 20
3.684748
 30
0.0
 10
7.326898
 20
3.767781
 30
0.0
 10
7.147463
 20
3.923906
 30
0.0
 10
7.027608
 20
4.133142
 30
0.0
 10
7.016109
 20
4.289875
 30
0.0
 10
7.010316
 20
4.368827
 30
0.0
 11
8.330629
 21
4.368827
 31
0.0
 11
8.295943
 21
4.136434
 31
0.0
 11
8.184320
 21
3.933645
 31
0.0
 11
8.006527
 21
3.780024
 31
0.0
 11
7.786213
 21
3.698347
 31
0.0
 11
7.554732
 21
3.698347
 31
0.0
 11
7.334417
 21
3.780024
 31
0.0
 11
7.156625
 21
3.933645
 31
0.0
 11
7.045001
 21
4.136434
 31
0.0
 11
7.010316
 21
4.368827
 31
0.0
  0
LWPOLYLINE
  5
170
100
AcDbEntity
  8
0
 62
7
100
AcDbPolyline
 90
2
 70
0
 10
7.010316
 20
4.368827
 30
0.0
 10
7.010316
 20
5.691082
 30
0.0
  0
SPLINE
  5
171
100
AcDbEntity
  8
0
 62
7
100
AcDbSpline
 70
0
 71
3
 72
13
 73
9
 74
7
 40
0.000000
 40
0.000000
 40
0.000000
 40
0.000000
 40
0.176067
 40
0.350626
 40
0.526693
 40
0.702761
 40
0.877319
 40
1.053386
 40
1.053386
 40
1.053386
 40
1.053386
 10
7.010316
 20
5.691082
 30
0.0
 10
7.014034
 20
5.750009
 30
0.0
 10
7.021439
 20
5.867357
 30
0.0
 10
7.090893
 20
6.031938
 30
0.0
 10
7.197944
 20
6.173376
 30
0.0
 10
7.339383
 20
6.280428
 30
0.0
 10
7.503963
 20
6.349884
 30
0.0
 10
7.621311
 20
6.357289
 30
0.0
 10
7.680238
 20
6.361007
 30
0.0
 11
7.010316
 21
5.691082
 31
0.0
 11
7.031262
 21
5.865899
 31
0.0
 11
7.096898
 21
6.027648
 31
0.0
 11
7.203692
 21
6.167629
 31
0.0
 11
7.343673
 21
6.274424
 31
0.0
 11
7.505421
 21
6.340060
 31
0.0
 11
7.680238
 21
6.361007
 31
0.0
  0
LWPOLYLINE
  5
172
100
AcDbEntity
  8
0
 62
7
100
AcDbPolyline
 90
1
 70
1
 10
7.680238
 20
6.361007
 30
0.0
  0
SPLINE
  5
173
100
AcDbEntity
  8
0
 62
7
100
AcDbSpline
 70
0
 71
3
 72
22
 73
18
 74
16
 40
0.000000
 40
0.000000
 40
0.000000
 40
0.000000
 40
0.345175
 40
0.680119
 40
1.025294
 40
1.368101
 40
2.004742
 40
2.347549
 40
2.582516
 40
2.813997
 40
3.048964
 40
3.283931
 40
3.515412
 40
3.750379
 40
3.985347
 40
4.216827
 40
4.451795
 40
4.451795
 40
4.451795
 40
4.451795
 10
10.219302
 20
6.361007
 30
0.0
 10
10.334999
 20
6.341090
 30
0.0
 10
10.562965
 20
6.301847
 30
0.0
 10
10.817171
 20
6.035624
 30
0.0
 10
10.883427
 20
5.691122
 30
0.0
 10
10.863003
 20
5.250809
 30
0.0
 10
10.866414
 20
4.809014
 30
0.0
 10
10.876946
 20
4.405589
 30
0.0
 10
10.851387
 20
4.133026
 30
0.0
 10
10.732820
 20
3.923938
 30
0.0
 10
10.553037
 20
3.767773
 30
0.0
 10
10.328801
 20
3.684750
 30
0.0
 10
10.090286
 20
3.684747
 30
0.0
 10
9.865963
 20
3.767781
 30
0.0
 10
9.686527
 20
3.923906
 30
0.0
 10
9.566673
 20
4.133142
 30
0.0
 10
9.555173
 20
4.289875
 30
0.0
 10
9.549380
 20
4.368827
 30
0.0
 11
10.219302
 21
6.361007
 31
0.0
 11
10.551109
 21
6.265878
 31
0.0
 11
10.784421
 21
6.025558
 31
0.0
 11
10.869693
 21
5.691082
 31
0.0
 11
10.869693
 21
5.348275
 31
0.0
 11
10.869693
 21
4.711634
 31
0.0
 11
10.869693
 21
4.368827
 31
0.0
 11
10.835007
 21
4.136434
 31
0.0
 11
10.723384
 21
3.933645
 31
0.0
 11
10.545591
 21
3.780024
 31
0.0
 11
10.325277
 21
3.698347
 31
0.0
 11
10.093796
 21
3.698347
 31
0.0
 11
9.873482
 21
3.780024
 31
0.0
 11
9.695689
 21
3.933645
 31
0.0
 11
9.584066
 21
4.136434
 31
0.0
 11
9.549380
 21
4.368827
 31
0.0
  0
LWPOLYLINE
  5
174
100
AcDbEntity
  8
0
 62
7
100
AcDbPolyline
 90
2
 70
0
 10
9.549380
 20
4.368827
 30
0.0
 10
9.549380
 20
5.691082
 30
0.0
  0
SPLINE
  5
175
100
AcDbEntity
  8
0
 62
7
100
AcDbSpline
 70
0
 71
3
 72
13
 73
9
 74
7
 40
0.000000
 40
0.000000
 40
0.000000
 40
0.000000
 40
0.176067
 40
0.350626
 40
0.526693
 40
0.702761
 40
0.877319
 40
1.053386
 40
1.053386
 40
1.053386
 40
1.053386
 10
9.549380
 20
5.691082
 30
0.0
 10
9.553098
 20
5.750009
 30
0.0
 10
9.560503
 20
5.867357
 30
0.0
 10
9.629958
 20
6.031938
 30
0.0
 10
9.737009
 20
6.173376
 30
0.0
 10
9.878447
 20
6.280428
 30
0.0
 10
10.043027
 20
6.349884
 30
0.0
 10
10.160375
 20
6.357289
 30
0.0
 10
10.219302
 20
6.361007
 30
0.0
 11
9.549380
 21
5.691082
 31
0.0
 11
9.570326
 21
5.865899
 31
0.0
 11
9.635962
 21
6.027648
 31
0.0
 11
9.742756
 21
6.167629
 31
0.0
 11
9.882737
 21
6.274424
 31
0.0
 11
10.044485
 21
6.340060
 31
0.0
 11
10.219302
 21
6.361007
 31
0.0
  0
LWPOLYLINE
  5
176
100
AcDbEntity
  8
0
 62
7
100
AcDbPolyline
 90
1
 70
1
 10
10.219302
 20
6.361007
 30
0.0
  0
SPLINE
  5
177
100
AcDbEntity
  8
0
 62
7
100
AcDbSpline
 70
0
 71
3
 72
10
 73
6
 74
4
 40
0.000000
 40
0.000000
 40
0.000000
 40
0.000000
 40
0.345175
 40
0.680119
 40
1.025294
 40
1.025294
 40
1.025294
 40
1.025294
 10
5.139221
 20
15.249684
 30
0.0
 10
5.254610
 20
15.229784
 30
0.0
 10
5.481969
 20
15.190574
 30
0.0
 10
5.740667
 20
14.924106
 30
0.0
 10
5.773134
 20
14.695687
 30
0.0
 10
5.789612
 20
14.579759
 30
0.0
 11
5.139221
 21
15.249684
 31
0.0
 11
5.471028
 21
15.154555
 31
0.0
 11
5.704340
 21
14.914235
 31
0.0
 11
5.789612
 21
14.579759
 31
0.0
  0
LWPOLYLINE
  5
178
100
AcDbEntity
  8
0
 62
7
100
AcDbPolyline
 90
2
 70
0
 10
5.789612
 20
14.579759
 30
0.0
 10
5.789612
 20
13.259462
 30
0.0
  0
SPLINE
  5
179
100
AcDbEntity
  8
0
 62
7
100
AcDbSpline
 70
0
 71
3
 72
16
 73
12
 74
10
 40
0.000000
 40
0.000000
 40
0.000000
 40
0.000000
 40
0.234967
 40
0.466448
 40
0.701415
 40
0.936382
 40
1.167863
 40
1.402830
 40
1.637797
 40
1.869278
 40
2.104245
 40
2.104245
 40
2.104245
 40
2.104245
 10
5.789612
 20
13.259462
 30
0.0
 10
5.783819
 20
13.180510
 30
0.0
 10
5.772319
 20
13.023777
 30
0.0
 10
5.652464
 20
12.814541
 30
0.0
 10
5.473029
 20
12.658416
 30
0.0
 10
5.248700
 20
12.575383
 30
0.0
 10
5.010210
 20
12.575383
 30
0.0
 10
4.785881
 20
12.658416
 30
0.0
 10
4.606446
 20
12.814541
 30
0.0
 10
4.486591
 20
13.023777
 30
0.0
 10
4.475091
 20
13.180510
 30
0.0
 10
4.469298
 20
13.259462
 30
0.0
 11
5.789612
 21
13.259462
 31
0.0
 11
5.754926
 21
13.027069
 31
0.0
 11
5.643302
 21
12.824280
 31
0.0
 11
5.465510
 21
12.670659
 31
0.0
 11
5.245195
 21
12.588982
 31
0.0
 11
5.013715
 21
12.588982
 31
0.0
 11
4.793400
 21
12.670659
 31
0.0
 11
4.615608
 21
12.824280
 31
0.0
 11
4.503984
 21
13.027069
 31
0.0
 11
4.469298
 21
13.259462
 31
0.0
  0
LWPOLYLINE
  5
17a
100
AcDbEntity
  8
0
 62
7
100
AcDbPolyline
 90
2
 70
0
 10
4.469298
 20
13.259462
 30
0.0
 10
4.469298
 20
14.579759
 30
0.0
  0
SPLINE
  5
17b
100
AcDbEntity
  8
0
 62
7
100
AcDbSpline
 70
0
 71
3
 72
13
 73
9
 74
7
 40
0.000000
 40
0.000000
 40
0.000000
 40
0.000000
 40
0.176067
 40
0.350626
 40
0.526693
 40
0.702761
 40
0.877319
 40
1.053386
 40
1.053386
 40
1.053386
 40
1.053386
 10
4.469298
 20
14.579759
 30
0.0
 10
4.473017
 20
14.638686
 30
0.0
 10
4.480421
 20
14.756034
 30
0.0
 10
4.549876
 20
14.920615
 30
0.0
 10
4.656927
 20
15.062054
 30
0.0
 10
4.798366
 20
15.169105
 30
0.0
 10
4.962946
 20
15.238561
 30
0.0
 10
5.080294
 20
15.245966
 30
0.0
 10
5.139221
 20
15.249684
 30
0.0
 11
4.469298
 21
14.579759
 31
0.0
 11
4.490245
 21
14.754576
 31
0.0
 11
4.555880
 21
14.916325
 31
0.0
 11
4.662675
 21
15.056306
 31
0.0
 11
4.802655
 21
15.163101
 31
0.0
 11
4.964404
 21
15.228737
 31
0.0
 11
5.139221
 21
15.249684
 31
0.0
  0
LWPOLYLINE
  5
17c
100
AcDbEntity
  8
0
 62
7
100
AcDbPolyline
 90
1
 70
1
 10
5.139221
 20
15.249684
 30
0.0
  0
SPLINE
  5
17d
100
AcDbEntity
  8
0
 62
7
100
AcDbSpline
 70
0
 71
3
 72
10
 73
6
 74
4
 40
0.000000
 40
0.000000
 40
0.000000
 40
0.000000
 40
0.345175
 40
0.680119
 40
1.025294
 40
1.025294
 40
1.025294
 40
1.025294
 10
7.680238
 20
15.249684
 30
0.0
 10
7.795627
 20
15.229784
 30
0.0
 10
8.022986
 20
15.190574
 30
0.0
 10
8.281684
 20
14.924106
 30
0.0
 10
8.314151
 20
14.695687
 30
0.0
 10
8.330629
 20
14.579759
 30
0.0
 11
7.680238
 21
15.249684
 31
0.0
 11
8.012045
 21
15.154555
 31
0.0
 11
8.245357
 21
14.914235
 31
0.0
 11
8.330629
 21
14.579759
 31
0.0
  0
LWPOLYLINE
  5
17e
100
AcDbEntity
  8
0
 62
7
100
AcDbPolyline
 90
2
 70
0
 10
8.330629
 20
14.579759
 30
0.0
 10
8.330629
 20
13.259462
 30
0.0
  0
SPLINE
  5
17f
100
AcDbEntity
  8
0
 62
7
100
AcDbSpline
 70
0
 71
3
 72
16
 73
12
 74
10
 40
0.000000
 40
0.000000
 40
0.000000
 40
0.000000
 40
0.234967
 40
0.466448
 40
0.701415
 40
0.936382
 40
1.167863
 40
1.402830
 40
1.637797
 40
1.869278
 40
2.104245
 40
2.104245
 40
2.104245
 40
2.104245
 10
8.330629
 20
13.259462
 30
0.0
 10
8.324836
 20
13.180510
 30
0.0
 10
8.313336
 20
13.023777
 30
0.0
 10
8.193482
 20
12.814541
 30
0.0
 10
8.014047
 20
12.658416
 30
0.0
 10
7.789717
 20
12.575383
 30
0.0
 10
7.551227
 20
12.575383
 30
0.0
 10
7.326898
 20
12.658416
 30
0.0
 10
7.147463
 20
12.814541
 30
0.0
 10
7.027608
 20
13.023777
 30
0.0
 10
7.016109
 20
13.180510
 30
0.0
 10
7.010316
 20
13.259462
 30
0.0
 11
8.330629
 21
13.259462
 31
0.0
 11
8.295943
 21
13.027069
 31
0.0
 11
8.184320
 21
12.824280
 31
0.0
 11
8.006527
 21
12.670659
 31
0.0
 11
7.786213
 21
12.588982
 31
0.0
 11
7.554732
 21
12.588982
 31
0.0
 11
7.334417
 21
12.670659
 31
0.0
 11
7.156625
 21
12.824280
 31
0.0
 11
7.045001
 21
13.027069
 31
0.0
 11
7.010316
 21
13.259462
 31
0.0
  0
LWPOLYLINE
  5
180
100
AcDbEntity
  8
0
 62
7
100
AcDbPolyline
 90
2
 70
0
 10
7.010316
 20
13.259462
 30
0.0
 10
7.010316
 20
14.579759
 30
0.0
  0
SPLINE
  5
181
100
AcDbEntity
  8
0
 62
7
100
AcDbSpline
 70
0
 71
3
 72
13
 73
9
 74
7
 40
0.000000
 40
0.000000
 40
0.000000
 40
0.000000
 40
0.176067
 40
0.350626
 40
0.526693
 40
0.702761
 40
0.877319
 40
1.053386
 40
1.053386
 40
1.053386
 40
1.053386
 10
7.010316
 20
14.579759
 30
0.0
 10
7.014034
 20
14.638686
 30
0.0
 10
7.021439
 20
14.756034
 30
0.0
 10
7.090893
 20
14.920615
 30
0.0
 10
7.197944
 20
15.062054
 30
0.0
 10
7.339383
 20
15.169105
 30
0.0
 10
7.503963
 20
15.238561
 30
0.0
 10
7.621311
 20
15.245966
 30
0.0
 10
7.680238
 20
15.249684
 30
0.0
 11
7.010316
 21
14.579759
 31
0.0
 11
7.031262
 21
14.754576
 31
0.0
 11
7.096898
 21
14.916325
 31
0.0
 11
7.203692
 21
15.056306
 31
0.0
 11
7.343673
 21
15.163101
 31
0.0
 11
7.505421
 21
15.228737
 31
0.0
 11
7.680238
 21
15.249684
 31
0.0
  0
LWPOLYLINE
  5
182
100
AcDbEntity
  8
0
 62
7
100
AcDbPolyline
 90
1
 70
1
 10
7.680238
 20
15.249684
 30
0.0
  0
SPLINE
  5
183
100
AcDbEntity
  8
0
 62
7
100
AcDbSpline
 70
0
 71
3
 72
22
 73
18
 74
16
 40
0.000000
 40
0.000000
 40
0.000000
 40
0.000000
 40
0.345175
 40
0.680119
 40
1.025294
 40
1.367593
 40
2.003292
 40
2.345591
 40
2.580558
 40
2.812039
 40
3.047006
 40
3.281973
 40
3.513454
 40
3.748421
 40
3.983389
 40
4.214869
 40
4.449837
 40
4.449837
 40
4.449837
 40
4.449837
 10
10.219302
 20
15.249684
 30
0.0
 10
10.335000
 20
15.229767
 30
0.0
 10
10.562966
 20
15.190524
 30
0.0
 10
10.817168
 20
14.924301
 30
0.0
 10
10.883405
 20
14.579970
 30
0.0
 10
10.863018
 20
14.140137
 30
0.0
 10
10.866421
 20
13.698998
 30
0.0
 10
10.876934
 20
13.296053
 30
0.0
 10
10.851386
 20
13.023661
 30
0.0
 10
10.732820
 20
12.814573
 30
0.0
 10
10.553037
 20
12.658408
 30
0.0
 10
10.328801
 20
12.575385
 30
0.0
 10
10.090286
 20
12.575382
 30
0.0
 10
9.865963
 20
12.658416
 30
0.0
 10
9.686527
 20
12.814541
 30
0.0
 10
9.566673
 20
13.023777
 30
0.0
 10
9.555173
 20
13.180510
 30
0.0
 10
9.549380
 20
13.259462
 30
0.0
 11
10.219302
 21
15.249684
 31
0.0
 11
10.551109
 21
15.154555
 31
0.0
 11
10.784421
 21
14.914235
 31
0.0
 11
10.869693
 21
14.579759
 31
0.0
 11
10.869693
 21
14.237460
 31
0.0
 11
10.869693
 21
13.601761
 31
0.0
 11
10.869693
 21
13.259462
 31
0.0
 11
10.835007
 21
13.027069
 31
0.0
 11
10.723384
 21
12.824280
 31
0.0
 11
10.545591
 21
12.670659
 31
0.0
 11
10.325277
 21
12.588982
 31
0.0
 11
10.093796
 21
12.588982
 31
0.0
 11
9.873482
 21
12.670659
 31
0.0
 11
9.695689
 21
12.824280
 31
0.0
 11
9.584066
 21
13.027069
 31
0.0
 11
9.549380
 21
13.259462
 31
0.0
  0
LWPOLYLINE
  5
184
100
AcDbEntity
  8
0
 62
7
100
AcDbPolyline
 90
2
 70
0
 10
9.549380
 20
13.259462
 30
0.0
 10
9.549380
 20
14.579759
 30
0.0
  0
SPLINE
  5
185
100
AcDbEntity
  8
0
 62
7
100
AcDbSpline
 70
0
 71
3
 72
13
 73
9
 74
7
 40
0.000000
 40
0.000000
 40
0.000000
 40
0.000000
 40
0.176067
 40
0.350626
 40
0.526693
 40
0.702761
 40
0.877319
 40
1.053386
 40
1.053386
 40
1.053386
 40
1.053386
 10
9.549380
 20
14.579759
 30
0.0
 10
9.553098
 20
14.638686
 30
0.0
 10
9.560503
 20
14.756034
 30
0.0
 10
9.629958
 20
14.920615
 30
0.0
 10
9.737009
 20
15.062054
 30
0.0
 10
9.878447
 20
15.169105
 30
0.0
 10
10.043027
 20
15.238561
 30
0.0
 10
10.160375
 20
15.245966
 30
0.0
 10
10.219302
 20
15.249684
 30
0.0
 11
9.549380
 21
14.579759
 31
0.0
 11
9.570326
 21
14.754576
 31
0.0
 11
9.635962
 21
14.916325
 31
0.0
 11
9.742756
 21
15.056306
 31
0.0
 11
9.882737
 21
15.163101
 31
0.0
 11
10.044485
 21
15.228737
 31
0.0
 11
10.219302
 21
15.249684
 31
0.0
  0
LWPOLYLINE
  5
186
100
AcDbEntity
  8
0
 62
7
100
AcDbPolyline
 90
1
 70
1
 10
10.219302
 20
15.249684
 30
0.0
  0
SPLINE
  5
187
100
AcDbEntity
  8
0
 62
7
100
AcDbSpline
 70
0
 71
3
 72
10
 73
6
 74
4
 40
0.000000
 40
0.000000
 40
0.000000
 40
0.000000
 40
0.345175
 40
0.680119
 40
1.025294
 40
1.025294
 40
1.025294
 40
1.025294
 10
5.139221
 20
24.140319
 30
0.0
 10
5.254610
 20
24.120419
 30
0.0
 10
5.481969
 20
24.081209
 30
0.0
 10
5.740667
 20
23.814741
 30
0.0
 10
5.773134
 20
23.586322
 30
0.0
 10
5.789612
 20
23.470394
 30
0.0
 11
5.139221
 21
24.140319
 31
0.0
 11
5.471028
 21
24.045190
 31
0.0
 11
5.704340
 21
23.804870
 31
0.0
 11
5.789612
 21
23.470394
 31
0.0
  0
LWPOLYLINE
  5
188
100
AcDbEntity
  8
0
 62
7
100
AcDbPolyline
 90
2
 70
0
 10
5.789612
 20
23.470394
 30
0.0
 10
5.789612
 20
22.150071
 30
0.0
  0
SPLINE
  5
189
100
AcDbEntity
  8
0
 62
7
100
AcDbSpline
 70
0
 71
3
 72
16
 73
12
 74
10
 40
0.000000
 40
0.000000
 40
0.000000
 40
0.000000
 40
0.234967
 40
0.466448
 40
0.701415
 40
0.936382
 40
1.167863
 40
1.402830
 40
1.637797
 40
1.869278
 40
2.104245
 40
2.104245
 40
2.104245
 40
2.104245
 10
5.789612
 20
22.150071
 30
0.0
 10
5.783819
 20
22.071119
 30
0.0
 10
5.772319
 20
21.914386
 30
0.0
 10
5.652464
 20
21.705150
 30
0.0
 10
5.473029
 20
21.549025
 30
0.0
 10
5.248700
 20
21.465991
 30
0.0
 10
5.010210
 20
21.465991
 30
0.0
 10
4.785881
 20
21.549025
 30
0.0
 10
4.606446
 20
21.705150
 30
0.0
 10
4.486591
 20
21.914386
 30
0.0
 10
4.475091
 20
22.071119
 30
0.0
 10
4.469298
 20
22.150071
 30
0.0
 11
5.789612
 21
22.150071
 31
0.0
 11
5.754926
 21
21.917678
 31
0.0
 11
5.643302
 21
21.714888
 31
0.0
 11
5.465510
 21
21.561267
 31
0.0
 11
5.245195
 21
21.479590
 31
0.0
 11
5.013715
 21
21.479590
 31
0.0
 11
4.793400
 21
21.561267
 31
0.0
 11
4.615608
 21
21.714888
 31
0.0
 11
4.503984
 21
21.917678
 31
0.0
 11
4.469298
 21
22.150071
 31
0.0
  0
LWPOLYLINE
  5
18a
100
AcDbEntity
  8
0
 62
7
100
AcDbPolyline
 90
2
 70
0
 10
4.469298
 20
22.150071
 30
0.0
 10
4.469298
 20
23.470394
 30
0.0
  0
SPLINE
  5
18b
100
AcDbEntity
  8
0
 62
7
100
AcDbSpline
 70
0
 71
3
 72
13
 73
9
 74
7
 40
0.000000
 40
0.000000
 40
0.000000
 40
0.000000
 40
0.176067
 40
0.350626
 40
0.526693
 40
0.702761
 40
0.877319
 40
1.053386
 40
1.053386
 40
1.053386
 40
1.053386
 10
4.469298
 20
23.470394
 30
0.0
 10
4.473017
 20
23.529321
 30
0.0
 10
4.480421
 20
23.646669
 30
0.0
 10
4.549876
 20
23.811250
 30
0.0
 10
4.656927
 20
23.952689
 30
0.0
 10
4.798366
 20
24.059740
 30
0.0
 10
4.962946
 20
24.129196
 30
0.0
 10
5.080294
 20
24.136601
 30
0.0
 10
5.139221
 20
24.140319
 30
0.0
 11
4.469298
 21
23.470394
 31
0.0
 11
4.490245
 21
23.645211
 31
0.0
 11
4.555880
 21
23.806960
 31
0.0
 11
4.662675
 21
23.946941
 31
0.0
 11
4.802655
 21
24.053736
 31
0.0
 11
4.964404
 21
24.119372
 31
0.0
 11
5.139221
 21
24.140319
 31
0.0
  0
LWPOLYLINE
  5
18c
100
AcDbEntity
  8
0
 62
7
100
AcDbPolyline
 90
1
 70
1
 10
5.139221
 20
24.140319
 30
0.0
  0
SPLINE
  5
18d
100
AcDbEntity
  8
0
 62
7
100
AcDbSpline
 70
0
 71
3
 72
10
 73
6
 74
4
 40
0.000000
 40
0.000000
 40
0.000000
 40
0.000000
 40
0.345175
 40
0.680119
 40
1.025294
 40
1.025294
 40
1.025294
 40
1.025294
 10
7.680238
 20
24.140319
 30
0.0
 10
7.795627
 20
24.120419
 30
0.0
 10
8.022986
 20
24.081209
 30
0.0
 10
8.281684
 20
23.814741
 30
0.0
 10
8.314151
 20
23.586322
 30
0.0
 10
8.330629
 20
23.470394
 30
0.0
 11
7.680238
 21
24.140319
 31
0.0
 11
8.012045
 21
24.045190
 31
0.0
 11
8.245357
 21
23.804870
 31
0.0
 11
8.330629
 21
23.470394
 31
0.0
  0
LWPOLYLINE
  5
18e
100
AcDbEntity
  8
0
 62
7
100
AcDbPolyline
 90
2
 70
0
 10
8.330629
 20
23.470394
 30
0.0
 10
8.330629
 20
22.150071
 30
0.0
  0
SPLINE
  5
18f
100
AcDbEntity
  8
0
 62
7
100
AcDbSpline
 70
0
 71
3
 72
16
 73
12
 74
10
 40
0.000000
 40
0.000000
 40
0.000000
 40
0.000000
 40
0.234967
 40
0.466448
 40
0.701415
 40
0.936382
 40
1.167863
 40
1.402830
 40
1.637797
 40
1.869278
 40
2.104245
 40
2.104245
 40
2.104245
 40
2.104245
 10
8.330629
 20
22.150071
 30
0.0
 10
8.324836
 20
22.071119
 30
0.0
 10
8.313336
 20
21.914386
 30
0.0
 10
8.193482
 20
21.705150
 30
0.0
 10
8.014047
 20
21.549025
 30
0.0
 10
7.789717
 20
21.465991
 30
0.0
 10
7.551227
 20
21.465991
 30
0.0
 10
7.326898
 20
21.549025
 30
0.0
 10
7.147463
 20
21.705150
 30
0.0
 10
7.027608
 20
21.914386
 30
0.0
 10
7.016109
 20
22.071119
 30
0.0
 10
7.010316
 20
22.150071
 30
0.0
 11
8.330629
 21
22.150071
 31
0.0
 11
8.295943
 21
21.917678
 31
0.0
 11
8.184320
 21
21.714888
 31
0.0
 11
8.006527
 21
21.561267
 31
0.0
 11
7.786213
 21
21.479590
 31
0.0
 11
7.554732
 21
21.479590
 31
0.0
 11
7.334417
 21
21.561267
 31
0.0
 11
7.156625
 21
21.714888
 31
0.0
 11
7.045001
 21
21.917678
 31
0.0
 11
7.010316
 21
22.150071
 31
0.0
  0
LWPOLYLINE
  5
190
100
AcDbEntity
  8
0
 62
7
100
AcDbPolyline
 90
2
 70
0
 10
7.010316
 20
22.150071
 30
0.0
 10
7.010316
 20
23.470394
 30
0.0
  0
SPLINE
  5
191
100
AcDbEntity
  8
0
 62
7
100
AcDbSpline
 70
0
 71
3
 72
13
 73
9
 74
7
 40
0.000000
 40
0.000000
 40
0.000000
 40
0.000000
 40
0.176067
 40
0.350626
 40
0.526693
 40
0.702761
 40
0.877319
 40
1.053386
 40
1.053386
 40
1.053386
 40
1.053386
 10
7.010316
 20
23.470394
 30
0.0
 10
7.014034
 20
23.529321
 30
0.0
 10
7.021439
 20
23.646669
 30
0.0
 10
7.090893
 20
23.811250
 30
0.0
 10
7.197944
 20
23.952689
 30
0.0
 10
7.339383
 20
24.059740
 30
0.0
 10
7.503963
 20
24.129196
 30
0.0
 10
7.621311
 20
24.136601
 30
0.0
 10
7.680238
 20
24.140319
 30
0.0
 11
7.010316
 21
23.470394
 31
0.0
 11
7.031262
 21
23.645211
 31
0.0
 11
7.096898
 21
23.806960
 31
0.0
 11
7.203692
 21
23.946941
 31
0.0
 11
7.343673
 21
24.053736
 31
0.0
 11
7.505421
 21
24.119372
 31
0.0
 11
7.680238
 21
24.140319
 31
0.0
  0
LWPOLYLINE
  5
192
100
AcDbEntity
  8
0
 62
7
100
AcDbPolyline
 90
1
 70
1
 10
7.680238
 20
24.140319
 30
0.0
  0
SPLINE
  5
193
100
AcDbEntity
  8
0
 62
7
100
AcDbSpline
 70
0
 71
3
 72
22
 73
18
 74
16
 40
0.000000
 40
0.000000
 40
0.000000
 40
0.000000
 40
0.345175
 40
0.680119
 40
1.025294
 40
1.367600
 40
2.003311
 40
2.345618
 40
2.580585
 40
2.812066
 40
3.047033
 40
3.282000
 40
3.513481
 40
3.748448
 40
3.983415
 40
4.214896
 40
4.449863
 40
4.449863
 40
4.449863
 40
4.449863
 10
10.219302
 20
24.140319
 30
0.0
 10
10.335000
 20
24.120402
 30
0.0
 10
10.562966
 20
24.081159
 30
0.0
 10
10.817168
 20
23.814936
 30
0.0
 10
10.883405
 20
23.470602
 30
0.0
 10
10.863018
 20
23.030763
 30
0.0
 10
10.866420
 20
22.589615
 30
0.0
 10
10.876934
 20
22.186664
 30
0.0
 10
10.851386
 20
21.914270
 30
0.0
 10
10.732820
 20
21.705181
 30
0.0
 10
10.553037
 20
21.549016
 30
0.0
 10
10.328801
 20
21.465994
 30
0.0
 10
10.090286
 20
21.465991
 30
0.0
 10
9.865963
 20
21.549025
 30
0.0
 10
9.686527
 20
21.705150
 30
0.0
 10
9.566673
 20
21.914386
 30
0.0
 10
9.555173
 20
22.071119
 30
0.0
 10
9.549380
 20
22.150071
 30
0.0
 11
10.219302
 21
24.140319
 31
0.0
 11
10.551109
 21
24.045190
 31
0.0
 11
10.784421
 21
23.804870
 31
0.0
 11
10.869693
 21
23.470394
 31
0.0
 11
10.869693
 21
23.128088
 31
0.0
 11
10.869693
 21
22.492377
 31
0.0
 11
10.869693
 21
22.150071
 31
0.0
 11
10.835007
 21
21.917678
 31
0.0
 11
10.723384
 21
21.714888
 31
0.0
 11
10.545591
 21
21.561267
 31
0.0
 11
10.325277
 21
21.479590
 31
0.0
 11
10.093796
 21
21.479590
 31
0.0
 11
9.873482
 21
21.561267
 31
0.0
 11
9.695689
 21
21.714888
 31
0.0
 11
9.584066
 21
21.917678
 31
0.0
 11
9.549380
 21
22.150071
 31
0.0
  0
LWPOLYLINE
  5
194
100
AcDbEntity
  8
0
 62
7
100
AcDbPolyline
 90
2
 70
0
 10
9.549380
 20
22.150071
 30
0.0
 10
9.549380
 20
23.470394
 30
0.0
  0
SPLINE
  5
195
100
AcDbEntity
  8
0
 62
7
100
AcDbSpline
 70
0
 71
3
 72
13
 73
9
 74
7
 40
0.000000
 40
0.000000
 40
0.000000
 40
0.000000
 40
0.176067
 40
0.350626
 40
0.526693
 40
0.702761
 40
0.877319
 40
1.053386
 40
1.053386
 40
1.053386
 40
1.053386
 10
9.549380
 20
23.470394
 30
0.0
 10
9.553098
 20
23.529321
 30
0.0
 10
9.560503
 20
23.646669
 30
0.0
 10
9.629958
 20
23.811250
 30
0.0
 10
9.737009
 20
23.952689
 30
0.0
 10
9.878447
 20
24.059740
 30
0.0
 10
10.043027
 20
24.129196
 30
0.0
 10
10.160375
 20
24.136601
 30
0.0
 10
10.219302
 20
24.140319
 30
0.0
 11
9.549380
 21
23.470394
 31
0.0
 11
9.570326
 21
23.645211
 31
0.0
 11
9.635962
 21
23.806960
 31
0.0
 11
9.742756
 21
23.946941
 31
0.0
 11
9.882737
 21
24.053736
 31
0.0
 11
10.044485
 21
24.119372
 31
0.0
 11
10.219302
 21
24.140319
 31
0.0
  0
LWPOLYLINE
  5
196
100
AcDbEntity
  8
0
 62
7
100
AcDbPolyline
 90
1
 70
1
 10
10.219302
 20
24.140319
 30
0.0
  0
SPLINE
  5
197
100
AcDbEntity
  8
0
 62
7
100
AcDbSpline
 70
0
 71
3
 72
25
 73
21
 74
19
 40
0.000000
 40
0.000000
 40
0.000000
 40
0.000000
 40
0.245767
 40
0.488014
 40
0.733781
 40
0.979548
 40
1.221795
 40
1.467562
 40
1.713329
 40
1.955577
 40
2.201344
 40
2.447111
 40
2.689358
 40
2.935125
 40
3.180892
 40
3.423139
 40
3.668906
 40
3.914673
 40
4.156920
 40
4.402687
 40
4.402687
 40
4.402687
 40
4.402687
 10
18.534010
 20
7.569994
 30
0.0
 10
18.525643
 20
7.652340
 30
0.0
 10
18.509027
 20
7.815852
 30
0.0
 10
18.379479
 20
8.031979
 30
0.0
 10
18.189715
 20
8.192675
 30
0.0
 10
17.954685
 20
8.277907
 30
0.0
 10
17.705280
 20
8.277907
 30
0.0
 10
17.470577
 20
8.192675
 30
0.0
 10
17.279506
 20
8.031979
 30
0.0
 10
17.154814
 20
7.815852
 30
0.0
 10
17.111501
 20
7.569994
 30
0.0
 10
17.154814
 20
7.324137
 30
0.0
 10
17.279506
 20
7.108010
 30
0.0
 10
17.470577
 20
6.947314
 30
0.0
 10
17.705280
 20
6.862081
 30
0.0
 10
17.954685
 20
6.862081
 30
0.0
 10
18.189715
 20
6.947314
 30
0.0
 10
18.379479
 20
7.108010
 30
0.0
 10
18.509027
 20
7.324137
 30
0.0
 10
18.525643
 20
7.487649
 30
0.0
 10
18.534010
 20
7.569994
 30
0.0
 11
18.534010
 21
7.569994
 31
0.0
 11
18.491270
 21
7.812016
 31
0.0
 11
18.370232
 21
8.021858
 31
0.0
 11
18.182134
 21
8.180037
 31
0.0
 11
17.951133
 21
8.263940
 31
0.0
 11
17.708885
 21
8.263940
 31
0.0
 11
17.477884
 21
8.180037
 31
0.0
 11
17.289786
 21
8.021858
 31
0.0
 11
17.168748
 21
7.812016
 31
0.0
 11
17.126008
 21
7.569994
 31
0.0
 11
17.168748
 21
7.327972
 31
0.0
 11
17.289786
 21
7.118131
 31
0.0
 11
17.477884
 21
6.959951
 31
0.0
 11
17.708885
 21
6.876049
 31
0.0
 11
17.951133
 21
6.876049
 31
0.0
 11
18.182134
 21
6.959951
 31
0.0
 11
18.370232
 21
7.118131
 31
0.0
 11
18.491270
 21
7.327972
 31
0.0
 11
18.534010
 21
7.569994
 31
0.0
  0
LWPOLYLINE
  5
198
100
AcDbEntity
  8
0
 62
7
100
AcDbPolyline
 90
1
 70
1
 10
18.534010
 20
7.569994
 30
0.0
  0
SPLINE
  5
199
100
AcDbEntity
  8
0
 62
7
100
AcDbSpline
 70
0
 71
3
 72
25
 73
21
 74
19
 40
0.000000
 40
0.000000
 40
0.000000
 40
0.000000
 40
0.245767
 40
0.488014
 40
0.733781
 40
0.979548
 40
1.221795
 40
1.467562
 40
1.713329
 40
1.955577
 40
2.201344
 40
2.447111
 40
2.689358
 40
2.935125
 40
3.180892
 40
3.423139
 40
3.668906
 40
3.914673
 40
4.156920
 40
4.402687
 40
4.402687
 40
4.402687
 40
4.402687
 10
18.534010
 20
10.109994
 30
0.0
 10
18.525643
 20
10.192340
 30
0.0
 10
18.509027
 20
10.355852
 30
0.0
 10
18.379479
 20
10.571979
 30
0.0
 10
18.189715
 20
10.732675
 30
0.0
 10
17.954685
 20
10.817907
 30
0.0
 10
17.705280
 20
10.817907
 30
0.0
 10
17.470577
 20
10.732675
 30
0.0
 10
17.279506
 20
10.571979
 30
0.0
 10
17.154814
 20
10.355852
 30
0.0
 10
17.111501
 20
10.109994
 30
0.0
 10
17.154814
 20
9.864137
 30
0.0
 10
17.279506
 20
9.648010
 30
0.0
 10
17.470577
 20
9.487314
 30
0.0
 10
17.705280
 20
9.402081
 30
0.0
 10
17.954685
 20
9.402081
 30
0.0
 10
18.189715
 20
9.487314
 30
0.0
 10
18.379479
 20
9.648010
 30
0.0
 10
18.509027
 20
9.864137
 30
0.0
 10
18.525643
 20
10.027649
 30
0.0
 10
18.534010
 20
10.109994
 30
0.0
 11
18.534010
 21
10.109994
 31
0.0
 11
18.491270
 21
10.352016
 31
0.0
 11
18.370232
 21
10.561858
 31
0.0
 11
18.182134
 21
10.720037
 31
0.0
 11
17.951133
 21
10.803940
 31
0.0
 11
17.708885
 21
10.803940
 31
0.0
 11
17.477884
 21
10.720037
 31
0.0
 11
17.289786
 21
10.561858
 31
0.0
 11
17.168748
 21
10.352016
 31
0.0
 11
17.126008
 21
10.109994
 31
0.0
 11
17.168748
 21
9.867972
 31
0.0
 11
17.289786
 21
9.658131
 31
0.0
 11
17.477884
 21
9.499951
 31
0.0
 11
17.708885
 21
9.416049
 31
0.0
 11
17.951133
 21
9.416049
 31
0.0
 11
18.182134
 21
9.499951
 31
0.0
 11
18.370232
 21
9.658131
 31
0.0
 11
18.491270
 21
9.867972
 31
0.0
 11
18.534010
 21
10.109994
 31
0.0
  0
LWPOLYLINE
  5
19a
100
AcDbEntity
  8
0
 62
7
100
AcDbPolyline
 90
1
 70
1
 10
18.534010
 20
10.109994
 30
0.0
  0
SPLINE
  5
19b
100
AcDbEntity
  8
0
 62
7
100
AcDbSpline
 70
0
 71
3
 72
25
 73
21
 74
19
 40
0.000000
 40
0.000000
 40
0.000000
 40
0.000000
 40
0.245767
 40
0.488014
 40
0.733781
 40
0.979548
 40
1.221795
 40
1.467562
 40
1.713329
 40
1.955577
 40
2.201344
 40
2.447111
 40
2.689358
 40
2.935125
 40
3.180892
 40
3.423139
 40
3.668906
 40
3.914673
 40
4.156920
 40
4.402687
 40
4.402687
 40
4.402687
 40
4.402687
 10
18.534010
 20
12.649994
 30
0.0
 10
18.525643
 20
12.732340
 30
0.0
 10
18.509027
 20
12.895852
 30
0.0
 10
18.379479
 20
13.111979
 30
0.0
 10
18.189715
 20
13.272675
 30
0.0
 10
17.954685
 20
13.357907
 30
0.0
 10
17.705280
 20
13.357907
 30
0.0
 10
17.470577
 20
13.272675
 30
0.0
 10
17.279506
 20
13.111979
 30
0.0
 10
17.154814
 20
12.895852
 30
0.0
 10
17.111501
 20
12.649994
 30
0.0
 10
17.154814
 20
12.404137
 30
0.0
 10
17.279506
 20
12.188010
 30
0.0
 10
17.470577
 20
12.027314
 30
0.0
 10
17.705280
 20
11.942081
 30
0.0
 10
17.954685
 20
11.942081
 30
0.0
 10
18.189715
 20
12.027314
 30
0.0
 10
18.379479
 20
12.188010
 30
0.0
 10
18.509027
 20
12.404137
 30
0.0
 10
18.525643
 20
12.567649
 30
0.0
 10
18.534010
 20
12.649994
 30
0.0
 11
18.534010
 21
12.649994
 31
0.0
 11
18.491270
 21
12.892016
 31
0.0
 11
18.370232
 21
13.101858
 31
0.0
 11
18.182134
 21
13.260037
 31
0.0
 11
17.951133
 21
13.343940
 31
0.0
 11
17.708885
 21
13.343940
 31
0.0
 11
17.477884
 21
13.260037
 31
0.0
 11
17.289786
 21
13.101858
 31
0.0
 11
17.168748
 21
12.892016
 31
0.0
 11
17.126008
 21
12.649994
 31
0.0
 11
17.168748
 21
12.407972
 31
0.0
 11
17.289786
 21
12.198131
 31
0.0
 11
17.477884
 21
12.039951
 31
0.0
 11
17.708885
 21
11.956049
 31
0.0
 11
17.951133
 21
11.956049
 31
0.0
 11
18.182134
 21
12.039951
 31
0.0
 11
18.370232
 21
12.198131
 31
0.0
 11
18.491270
 21
12.407972
 31
0.0
 11
18.534010
 21
12.649994
 31
0.0
  0
LWPOLYLINE
  5
19c
100
AcDbEntity
  8
0
 62
7
100
AcDbPolyline
 90
1
 70
1
 10
18.534010
 20
12.649994
 30
0.0
  0
SPLINE
  5
19d
100
AcDbEntity
  8
0
 62
7
100
AcDbSpline
 70
0
 71
3
 72
25
 73
21
 74
19
 40
0.000000
 40
0.000000
 40
0.000000
 40
0.000000
 40
0.245767
 40
0.488014
 40
0.733781
 40
0.979548
 40
1.221795
 40
1.467562
 40
1.713329
 40
1.955577
 40
2.201344
 40
2.447111
 40
2.689358
 40
2.935125
 40
3.180892
 40
3.423139
 40
3.668906
 40
3.914673
 40
4.156920
 40
4.402687
 40
4.402687
 40
4.402687
 40
4.402687
 10
18.534010
 20
15.189994
 30
0.0
 10
18.525643
 20
15.272340
 30
0.0
 10
18.509027
 20
15.435852
 30
0.0
 10
18.379479
 20
15.651979
 30
0.0
 10
18.189715
 20
15.812675
 30
0.0
 10
17.954685
 20
15.897907
 30
0.0
 10
17.705280
 20
15.897907
 30
0.0
 10
17.470577
 20
15.812675
 30
0.0
 10
17.279506
 20
15.651979
 30
0.0
 10
17.154814
 20
15.435852
 30
0.0
 10
17.111501
 20
15.189994
 30
0.0
 10
17.154814
 20
14.944137
 30
0.0
 10
17.279506
 20
14.728010
 30
0.0
 10
17.470577
 20
14.567314
 30
0.0
 10
17.705280
 20
14.482081
 30
0.0
 10
17.954685
 20
14.482081
 30
0.0
 10
18.189715
 20
14.567314
 30
0.0
 10
18.379479
 20
14.728010
 30
0.0
 10
18.509027
 20
14.944137
 30
0.0
 10
18.525643
 20
15.107649
 30
0.0
 10
18.534010
 20
15.189994
 30
0.0
 11
18.534010
 21
15.189994
 31
0.0
 11
18.491270
 21
15.432016
 31
0.0
 11
18.370232
 21
15.641858
 31
0.0
 11
18.182134
 21
15.800037
 31
0.0
 11
17.951133
 21
15.883940
 31
0.0
 11
17.708885
 21
15.883940
 31
0.0
 11
17.477884
 21
15.800037
 31
0.0
 11
17.289786
 21
15.641858
 31
0.0
 11
17.168748
 21
15.432016
 31
0.0
 11
17.126008
 21
15.189994
 31
0.0
 11
17.168748
 21
14.947972
 31
0.0
 11
17.289786
 21
14.738131
 31
0.0
 11
17.477884
 21
14.579951
 31
0.0
 11
17.708885
 21
14.496049
 31
0.0
 11
17.951133
 21
14.496049
 31
0.0
 11
18.182134
 21
14.579951
 31
0.0
 11
18.370232
 21
14.738131
 31
0.0
 11
18.491270
 21
14.947972
 31
0.0
 11
18.534010
 21
15.189994
 31
0.0
  0
LWPOLYLINE
  5
19e
100
AcDbEntity
  8
0
 62
7
100
AcDbPolyline
 90
1
 70
1
 10
18.534010
 20
15.189994
 30
0.0
  0
SPLINE
  5
19f
100
AcDbEntity
  8
0
 62
7
100
AcDbSpline
 70
0
 71
3
 72
25
 73
21
 74
19
 40
0.000000
 40
0.000000
 40
0.000000
 40
0.000000
 40
0.245767
 40
0.488014
 40
0.733781
 40
0.979548
 40
1.221795
 40
1.467562
 40
1.713329
 40
1.955577
 40
2.201344
 40
2.447111
 40
2.689358
 40
2.935125
 40
3.180892
 40
3.423139
 40
3.668906
 40
3.914673
 40
4.156920
 40
4.402687
 40
4.402687
 40
4.402687
 40
4.402687
 10
18.534010
 20
17.729994
 30
0.0
 10
18.525643
 20
17.812340
 30
0.0
 10
18.509027
 20
17.975852
 30
0.0
 10
18.379479
 20
18.191979
 30
0.0
 10
18.189715
 20
18.352675
 30
0.0
 10
17.954685
 20
18.437907
 30
0.0
 10
17.705280
 20
18.437907
 30
0.0
 10
17.470577
 20
18.352675
 30
0.0
 10
17.279506
 20
18.191979
 30
0.0
 10
17.154814
 20
17.975852
 30
0.0
 10
17.111501
 20
17.729994
 30
0.0
 10
17.154814
 20
17.484137
 30
0.0
 10
17.279506
 20
17.268010
 30
0.0
 10
17.470577
 20
17.107314
 30
0.0
 10
17.705280
 20
17.022081
 30
0.0
 10
17.954685
 20
17.022081
 30
0.0
 10
18.189715
 20
17.107314
 30
0.0
 10
18.379479
 20
17.268010
 30
0.0
 10
18.509027
 20
17.484137
 30
0.0
 10
18.525643
 20
17.647649
 30
0.0
 10
18.534010
 20
17.729994
 30
0.0
 11
18.534010
 21
17.729994
 31
0.0
 11
18.491270
 21
17.972016
 31
0.0
 11
18.370232
 21
18.181858
 31
0.0
 11
18.182134
 21
18.340037
 31
0.0
 11
17.951133
 21
18.423940
 31
0.0
 11
17.708885
 21
18.423940
 31
0.0
 11
17.477884
 21
18.340037
 31
0.0
 11
17.289786
 21
18.181858
 31
0.0
 11
17.168748
 21
17.972016
 31
0.0
 11
17.126008
 21
17.729994
 31
0.0
 11
17.168748
 21
17.487972
 31
0.0
 11
17.289786
 21
17.278131
 31
0.0
 11
17.477884
 21
17.119951
 31
0.0
 11
17.708885
 21
17.036049
 31
0.0
 11
17.951133
 21
17.036049
 31
0.0
 11
18.182134
 21
17.119951
 31
0.0
 11
18.370232
 21
17.278131
 31
0.0
 11
18.491270
 21
17.487972
 31
0.0
 11
18.534010
 21
17.729994
 31
0.0
  0
LWPOLYLINE
  5
1a0
100
AcDbEntity
  8
0
 62
7
100
AcDbPolyline
 90
1
 70
1
 10
18.534010
 20
17.729994
 30
0.0
  0
SPLINE
  5
1a1
100
AcDbEntity
  8
0
 62
7
100
AcDbSpline
 70
0
 71
3
 72
25
 73
21
 74
19
 40
0.000000
 40
0.000000
 40
0.000000
 40
0.000000
 40
0.245767
 40
0.488014
 40
0.733781
 40
0.979548
 40
1.221795
 40
1.467562
 40
1.713329
 40
1.955577
 40
2.201344
 40
2.447111
 40
2.689358
 40
2.935125
 40
3.180892
 40
3.423139
 40
3.668906
 40
3.914673
 40
4.156920
 40
4.402687
 40
4.402687
 40
4.402687
 40
4.402687
 10
18.534010
 20
20.269994
 30
0.0
 10
18.525643
 20
20.352340
 30
0.0
 10
18.509027
 20
20.515852
 30
0.0
 10
18.379479
 20
20.731979
 30
0.0
 10
18.189715
 20
20.892675
 30
0.0
 10
17.954685
 20
20.977907
 30
0.0
 10
17.705280
 20
20.977907
 30
0.0
 10
17.470577
 20
20.892675
 30
0.0
 10
17.279506
 20
20.731979
 30
0.0
 10
17.154814
 20
20.515852
 30
0.0
 10
17.111501
 20
20.269994
 30
0.0
 10
17.154814
 20
20.024137
 30
0.0
 10
17.279506
 20
19.808010
 30
0.0
 10
17.470577
 20
19.647314
 30
0.0
 10
17.705280
 20
19.562081
 30
0.0
 10
17.954685
 20
19.562081
 30
0.0
 10
18.189715
 20
19.647314
 30
0.0
 10
18.379479
 20
19.808010
 30
0.0
 10
18.509027
 20
20.024137
 30
0.0
 10
18.525643
 20
20.187649
 30
0.0
 10
18.534010
 20
20.269994
 30
0.0
 11
18.534010
 21
20.269994
 31
0.0
 11
18.491270
 21
20.512016
 31
0.0
 11
18.370232
 21
20.721858
 31
0.0
 11
18.182134
 21
20.880037
 31
0.0
 11
17.951133
 21
20.963940
 31
0.0
 11
17.708885
 21
20.963940
 31
0.0
 11
17.477884
 21
20.880037
 31
0.0
 11
17.289786
 21
20.721858
 31
0.0
 11
17.168748
 21
20.512016
 31
0.0
 11
17.126008
 21
20.269994
 31
0.0
 11
17.168748
 21
20.027972
 31
0.0
 11
17.289786
 21
19.818131
 31
0.0
 11
17.477884
 21
19.659951
 31
0.0
 11
17.708885
 21
19.576049
 31
0.0
 11
17.951133
 21
19.576049
 31
0.0
 11
18.182134
 21
19.659951
 31
0.0
 11
18.370232
 21
19.818131
 31
0.0
 11
18.491270
 21
20.027972
 31
0.0
 11
18.534010
 21
20.269994
 31
0.0
  0
LWPOLYLINE
  5
1a2
100
AcDbEntity
  8
0
 62
7
100
AcDbPolyline
 90
1
 70
1
 10
18.534010
 20
20.269994
 30
0.0
  0
SPLINE
  5
1a3
100
AcDbEntity
  8
0
 62
7
100
AcDbSpline
 70
0
 71
3
 72
25
 73
21
 74
19
 40
0.000000
 40
0.000000
 40
0.000000
 40
0.000000
 40
0.245767
 40
0.488014
 40
0.733781
 40
0.979548
 40
1.221795
 40
1.467562
 40
1.713329
 40
1.955577
 40
2.201344
 40
2.447111
 40
2.689358
 40
2.935125
 40
3.180892
 40
3.423139
 40
3.668906
 40
3.914673
 40
4.156920
 40
4.402687
 40
4.402687
 40
4.402687
 40
4.402687
 10
18.534010
 20
22.809994
 30
0.0
 10
18.525643
 20
22.892340
 30
0.0
 10
18.509027
 20
23.055852
 30
0.0
 10
18.379479
 20
23.271979
 30
0.0
 10
18.189715
 20
23.432675
 30
0.0
 10
17.954685
 20
23.517907
 30
0.0
 10
17.705280
 20
23.517907
 30
0.0
 10
17.470577
 20
23.432675
 30
0.0
 10
17.279506
 20
23.271979
 30
0.0
 10
17.154814
 20
23.055852
 30
0.0
 10
17.111501
 20
22.809994
 30
0.0
 10
17.154814
 20
22.564137
 30
0.0
 10
17.279506
 20
22.348010
 30
0.0
 10
17.470577
 20
22.187314
 30
0.0
 10
17.705280
 20
22.102081
 30
0.0
 10
17.954685
 20
22.102081
 30
0.0
 10
18.189715
 20
22.187314
 30
0.0
 10
18.379479
 20
22.348010
 30
0.0
 10
18.509027
 20
22.564137
 30
0.0
 10
18.525643
 20
22.727649
 30
0.0
 10
18.534010
 20
22.809994
 30
0.0
 11
18.534010
 21
22.809994
 31
0.0
 11
18.491270
 21
23.052016
 31
0.0
 11
18.370232
 21
23.261858
 31
0.0
 11
18.182134
 21
23.420037
 31
0.0
 11
17.951133
 21
23.503940
 31
0.0
 11
17.708885
 21
23.503940
 31
0.0
 11
17.477884
 21
23.420037
 31
0.0
 11
17.289786
 21
23.261858
 31
0.0
 11
17.168748
 21
23.052016
 31
0.0
 11
17.126008
 21
22.809994
 31
0.0
 11
17.168748
 21
22.567972
 31
0.0
 11
17.289786
 21
22.358131
 31
0.0
 11
17.477884
 21
22.199951
 31
0.0
 11
17.708885
 21
22.116049
 31
0.0
 11
17.951133
 21
22.116049
 31
0.0
 11
18.182134
 21
22.199951
 31
0.0
 11
18.370232
 21
22.358131
 31
0.0
 11
18.491270
 21
22.567972
 31
0.0
 11
18.534010
 21
22.809994
 31
0.0
  0
LWPOLYLINE
  5
1a4
100
AcDbEntity
  8
0
 62
7
100
AcDbPolyline
 90
1
 70
1
 10
18.534010
 20
22.809994
 30
0.0
  0
SPLINE
  5
1a5
100
AcDbEntity
  8
0
 62
7
100
AcDbSpline
 70
0
 71
3
 72
25
 73
21
 74
19
 40
0.000000
 40
0.000000
 40
0.000000
 40
0.000000
 40
0.245767
 40
0.488014
 40
0.733781
 40
0.979548
 40
1.221795
 40
1.467562
 40
1.713329
 40
1.955577
 40
2.201344
 40
2.447111
 40
2.689358
 40
2.935125
 40
3.180892
 40
3.423139
 40
3.668906
 40
3.914673
 40
4.156920
 40
4.402687
 40
4.402687
 40
4.402687
 40
4.402687
 10
18.534010
 20
25.349994
 30
0.0
 10
18.525643
 20
25.432340
 30
0.0
 10
18.509027
 20
25.595852
 30
0.0
 10
18.379479
 20
25.811979
 30
0.0
 10
18.189715
 20
25.972675
 30
0.0
 10
17.954685
 20
26.057907
 30
0.0
 10
17.705280
 20
26.057907
 30
0.0
 10
17.470577
 20
25.972675
 30
0.0
 10
17.279506
 20
25.811979
 30
0.0
 10
17.154814
 20
25.595852
 30
0.0
 10
17.111501
 20
25.349994
 30
0.0
 10
17.154814
 20
25.104137
 30
0.0
 10
17.279506
 20
24.888010
 30
0.0
 10
17.470577
 20
24.727314
 30
0.0
 10
17.705280
 20
24.642081
 30
0.0
 10
17.954685
 20
24.642081
 30
0.0
 10
18.189715
 20
24.727314
 30
0.0
 10
18.379479
 20
24.888010
 30
0.0
 10
18.509027
 20
25.104137
 30
0.0
 10
18.525643
 20
25.267649
 30
0.0
 10
18.534010
 20
25.349994
 30
0.0
 11
18.534010
 21
25.349994
 31
0.0
 11
18.491270
 21
25.592016
 31
0.0
 11
18.370232
 21
25.801858
 31
0.0
 11
18.182134
 21
25.960037
 31
0.0
 11
17.951133
 21
26.043940
 31
0.0
 11
17.708885
 21
26.043940
 31
0.0
 11
17.477884
 21
25.960037
 31
0.0
 11
17.289786
 21
25.801858
 31
0.0
 11
17.168748
 21
25.592016
 31
0.0
 11
17.126008
 21
25.349994
 31
0.0
 11
17.168748
 21
25.107972
 31
0.0
 11
17.289786
 21
24.898131
 31
0.0
 11
17.477884
 21
24.739951
 31
0.0
 11
17.708885
 21
24.656049
 31
0.0
 11
17.951133
 21
24.656049
 31
0.0
 11
18.182134
 21
24.739951
 31
0.0
 11
18.370232
 21
24.898131
 31
0.0
 11
18.491270
 21
25.107972
 31
0.0
 11
18.534010
 21
25.349994
 31
0.0
  0
LWPOLYLINE
  5
1a6
100
AcDbEntity
  8
0
 62
7
100
AcDbPolyline
 90
1
 70
1
 10
18.534010
 20
25.349994
 30
0.0
  0
SPLINE
  5
1a7
100
AcDbEntity
  8
0
 62
7
100
AcDbSpline
 70
0
 71
3
 72
25
 73
21
 74
19
 40
0.000000
 40
0.000000
 40
0.000000
 40
0.000000
 40
0.245671
 40
0.487826
 40
0.733497
 40
0.979168
 40
1.221323
 40
1.466994
 40
1.712665
 40
1.954820
 40
2.200491
 40
2.446162
 40
2.688316
 40
2.933987
 40
3.179658
 40
3.421813
 40
3.667484
 40
3.913155
 40
4.155310
 40
4.400981
 40
4.400981
 40
4.400981
 40
4.400981
 10
31.234019
 20
25.349994
 30
0.0
 10
31.225607
 20
25.432302
 30
0.0
 10
31.208905
 20
25.595740
 30
0.0
 10
31.079322
 20
25.811726
 30
0.0
 10
30.889590
 20
25.972306
 30
0.0
 10
30.654644
 20
26.057472
 30
0.0
 10
30.405339
 20
26.057472
 30
0.0
 10
30.170721
 20
25.972306
 30
0.0
 10
29.979676
 20
25.811726
 30
0.0
 10
29.854974
 20
25.595740
 30
0.0
 10
29.811435
 20
25.349994
 30
0.0
 10
29.854974
 20
25.104248
 30
0.0
 10
29.979676
 20
24.888263
 30
0.0
 10
30.170721
 20
24.727683
 30
0.0
 10
30.405339
 20
24.642517
 30
0.0
 10
30.654644
 20
24.642517
 30
0.0
 10
30.889590
 20
24.727683
 30
0.0
 10
31.079322
 20
24.888263
 30
0.0
 10
31.208905
 20
25.104248
 30
0.0
 10
31.225607
 20
25.267686
 30
0.0
 10
31.234019
 20
25.349994
 30
0.0
 11
31.234019
 21
25.349994
 31
0.0
 11
31.191163
 21
25.591898
 31
0.0
 11
31.070086
 21
25.801611
 31
0.0
 11
30.882018
 21
25.959677
 31
0.0
 11
30.651096
 21
26.043515
 31
0.0
 11
30.408941
 21
26.043515
 31
0.0
 11
30.178018
 21
25.959677
 31
0.0
 11
29.989950
 21
25.801611
 31
0.0
 11
29.868873
 21
25.591898
 31
0.0
 11
29.826017
 21
25.349994
 31
0.0
 11
29.868873
 21
25.108090
 31
0.0
 11
29.989950
 21
24.898378
 31
0.0
 11
30.178018
 21
24.740312
 31
0.0
 11
30.408941
 21
24.656474
 31
0.0
 11
30.651096
 21
24.656474
 31
0.0
 11
30.882018
 21
24.740312
 31
0.0
 11
31.070086
 21
24.898378
 31
0.0
 11
31.191163
 21
25.108090
 31
0.0
 11
31.234019
 21
25.349994
 31
0.0
  0
LWPOLYLINE
  5
1a8
100
AcDbEntity
  8
0
 62
7
100
AcDbPolyline
 90
1
 70
1
 10
31.234019
 20
25.349994
 30
0.0
  0
SPLINE
  5
1a9
100
AcDbEntity
  8
0
 62
7
100
AcDbSpline
 70
0
 71
3
 72
25
 73
21
 74
19
 40
0.000000
 40
0.000000
 40
0.000000
 40
0.000000
 40
0.245671
 40
0.487826
 40
0.733497
 40
0.979168
 40
1.221323
 40
1.466994
 40
1.712665
 40
1.954820
 40
2.200491
 40
2.446162
 40
2.688316
 40
2.933987
 40
3.179658
 40
3.421813
 40
3.667484
 40
3.913155
 40
4.155310
 40
4.400981
 40
4.400981
 40
4.400981
 40
4.400981
 10
31.234019
 20
22.809994
 30
0.0
 10
31.225607
 20
22.892302
 30
0.0
 10
31.208905
 20
23.055740
 30
0.0
 10
31.079322
 20
23.271726
 30
0.0
 10
30.889590
 20
23.432306
 30
0.0
 10
30.654644
 20
23.517472
 30
0.0
 10
30.405339
 20
23.517472
 30
0.0
 10
30.170721
 20
23.432306
 30
0.0
 10
29.979676
 20
23.271726
 30
0.0
 10
29.854974
 20
23.055740
 30
0.0
 10
29.811435
 20
22.809994
 30
0.0
 10
29.854974
 20
22.564248
 30
0.0
 10
29.979676
 20
22.348263
 30
0.0
 10
30.170721
 20
22.187683
 30
0.0
 10
30.405339
 20
22.102517
 30
0.0
 10
30.654644
 20
22.102517
 30
0.0
 10
30.889590
 20
22.187683
 30
0.0
 10
31.079322
 20
22.348263
 30
0.0
 10
31.208905
 20
22.564248
 30
0.0
 10
31.225607
 20
22.727686
 30
0.0
 10
31.234019
 20
22.809994
 30
0.0
 11
31.234019
 21
22.809994
 31
0.0
 11
31.191163
 21
23.051898
 31
0.0
 11
31.070086
 21
23.261611
 31
0.0
 11
30.882018
 21
23.419677
 31
0.0
 11
30.651096
 21
23.503515
 31
0.0
 11
30.408941
 21
23.503515
 31
0.0
 11
30.178018
 21
23.419677
 31
0.0
 11
29.989950
 21
23.261611
 31
0.0
 11
29.868873
 21
23.051898
 31
0.0
 11
29.826017
 21
22.809994
 31
0.0
 11
29.868873
 21
22.568090
 31
0.0
 11
29.989950
 21
22.358378
 31
0.0
 11
30.178018
 21
22.200312
 31
0.0
 11
30.408941
 21
22.116474
 31
0.0
 11
30.651096
 21
22.116474
 31
0.0
 11
30.882018
 21
22.200312
 31
0.0
 11
31.070086
 21
22.358378
 31
0.0
 11
31.191163
 21
22.568090
 31
0.0
 11
31.234019
 21
22.809994
 31
0.0
  0
LWPOLYLINE
  5
1aa
100
AcDbEntity
  8
0
 62
7
100
AcDbPolyline
 90
1
 70
1
 10
31.234019
 20
22.809994
 30
0.0
  0
LWPOLYLINE
  5
1ab
100
AcDbEntity
  8
0
 62
7
100
AcDbPolyline
 90
1
 70
1
 10
31.234019
 20
15.189994
 30
0.0
  0
SPLINE
  5
1ac
100
AcDbEntity
  8
0
 62
7
100
AcDbSpline
 70
0
 71
3
 72
25
 73
21
 74
19
 40
0.000000
 40
0.000000
 40
0.000000
 40
0.000000
 40
0.245767
 40
0.488014
 40
0.733781
 40
0.979548
 40
1.221795
 40
1.467562
 40
1.713329
 40
1.955577
 40
2.201344
 40
2.447111
 40
2.689358
 40
2.935125
 40
3.180892
 40
3.423139
 40
3.668906
 40
3.914673
 40
4.156920
 40
4.402687
 40
4.402687
 40
4.402687
 40
4.402687
 10
31.234019
 20
15.189994
 30
0.0
 10
31.225652
 20
15.272340
 30
0.0
 10
31.209036
 20
15.435852
 30
0.0
 10
31.079488
 20
15.651979
 30
0.0
 10
30.889724
 20
15.812675
 30
0.0
 10
30.654694
 20
15.897907
 30
0.0
 10
30.405289
 20
15.897907
 30
0.0
 10
30.170586
 20
15.812675
 30
0.0
 10
29.979515
 20
15.651979
 30
0.0
 10
29.854823
 20
15.435852
 30
0.0
 10
29.811510
 20
15.189994
 30
0.0
 10
29.854823
 20
14.944137
 30
0.0
 10
29.979515
 20
14.728010
 30
0.0
 10
30.170586
 20
14.567314
 30
0.0
 10
30.405289
 20
14.482081
 30
0.0
 10
30.654694
 20
14.482081
 30
0.0
 10
30.889724
 20
14.567314
 30
0.0
 10
31.079488
 20
14.728010
 30
0.0
 10
31.209036
 20
14.944137
 30
0.0
 10
31.225652
 20
15.107649
 30
0.0
 10
31.234019
 20
15.189994
 30
0.0
 11
31.234019
 21
15.189994
 31
0.0
 11
31.191279
 21
15.432016
 31
0.0
 11
31.070241
 21
15.641858
 31
0.0
 11
30.882143
 21
15.800037
 31
0.0
 11
30.651142
 21
15.883940
 31
0.0
 11
30.408894
 21
15.883940
 31
0.0
 11
30.177893
 21
15.800037
 31
0.0
 11
29.989795
 21
15.641858
 31
0.0
 11
29.868757
 21
15.432016
 31
0.0
 11
29.826017
 21
15.189994
 31
0.0
 11
29.868757
 21
14.947972
 31
0.0
 11
29.989795
 21
14.738131
 31
0.0
 11
30.177893
 21
14.579951
 31
0.0
 11
30.408894
 21
14.496049
 31
0.0
 11
30.651142
 21
14.496049
 31
0.0
 11
30.882143
 21
14.579951
 31
0.0
 11
31.070241
 21
14.738131
 31
0.0
 11
31.191279
 21
14.947972
 31
0.0
 11
31.234019
 21
15.189994
 31
0.0
  0
LWPOLYLINE
  5
1ad
100
AcDbEntity
  8
0
 62
7
100
AcDbPolyline
 90
8
 70
1
 10
20.687513
 20
2.884541
 30
0.0
 10
20.687513
 20
2.095448
 30
0.0
 10
21.245474
 20
1.537494
 30
0.0
 10
22.034551
 20
1.537494
 30
0.0
 10
22.592512
 20
2.095448
 30
0.0
 10
22.592512
 20
2.884541
 30
0.0
 10
22.034551
 20
3.442494
 30
0.0
 10
21.245474
 20
3.442494
 30
0.0
  0
SPLINE
  5
1ae
100
AcDbEntity
  8
0
 62
7
100
AcDbSpline
 70
0
 71
3
 72
25
 73
21
 74
19
 40
0.000000
 40
0.000000
 40
0.000000
 40
0.000000
 40
0.245671
 40
0.487826
 40
0.733497
 40
0.979168
 40
1.221323
 40
1.466994
 40
1.712665
 40
1.954820
 40
2.200491
 40
2.446162
 40
2.688316
 40
2.933987
 40
3.179658
 40
3.421813
 40
3.667484
 40
3.913155
 40
4.155310
 40
4.400981
 40
4.400981
 40
4.400981
 40
4.400981
 10
31.234019
 20
17.729994
 30
0.0
 10
31.225607
 20
17.812302
 30
0.0
 10
31.208905
 20
17.975740
 30
0.0
 10
31.079322
 20
18.191726
 30
0.0
 10
30.889590
 20
18.352306
 30
0.0
 10
30.654644
 20
18.437472
 30
0.0
 10
30.405339
 20
18.437472
 30
0.0
 10
30.170721
 20
18.352306
 30
0.0
 10
29.979676
 20
18.191726
 30
0.0
 10
29.854974
 20
17.975740
 30
0.0
 10
29.811435
 20
17.729994
 30
0.0
 10
29.854974
 20
17.484248
 30
0.0
 10
29.979676
 20
17.268263
 30
0.0
 10
30.170721
 20
17.107683
 30
0.0
 10
30.405339
 20
17.022517
 30
0.0
 10
30.654644
 20
17.022517
 30
0.0
 10
30.889590
 20
17.107683
 30
0.0
 10
31.079322
 20
17.268263
 30
0.0
 10
31.208905
 20
17.484248
 30
0.0
 10
31.225607
 20
17.647686
 30
0.0
 10
31.234019
 20
17.729994
 30
0.0
 11
31.234019
 21
17.729994
 31
0.0
 11
31.191163
 21
17.971898
 31
0.0
 11
31.070086
 21
18.181611
 31
0.0
 11
30.882018
 21
18.339677
 31
0.0
 11
30.651096
 21
18.423515
 31
0.0
 11
30.408941
 21
18.423515
 31
0.0
 11
30.178018
 21
18.339677
 31
0.0
 11
29.989950
 21
18.181611
 31
0.0
 11
29.868873
 21
17.971898
 31
0.0
 11
29.826017
 21
17.729994
 31
0.0
 11
29.868873
 21
17.488090
 31
0.0
 11
29.989950
 21
17.278378
 31
0.0
 11
30.178018
 21
17.120312
 31
0.0
 11
30.408941
 21
17.036474
 31
0.0
 11
30.651096
 21
17.036474
 31
0.0
 11
30.882018
 21
17.120312
 31
0.0
 11
31.070086
 21
17.278378
 31
0.0
 11
31.191163
 21
17.488090
 31
0.0
 11
31.234019
 21
17.729994
 31
0.0
  0
LWPOLYLINE
  5
1af
100
AcDbEntity
  8
0
 62
7
100
AcDbPolyline
 90
1
 70
1
 10
31.234019
 20
17.729994
 30
0.0
  0
SPLINE
  5
1b0
100
AcDbEntity
  8
0
 62
7
100
AcDbSpline
 70
0
 71
3
 72
25
 73
21
 74
19
 40
0.000000
 40
0.000000
 40
0.000000
 40
0.000000
 40
0.245767
 40
0.488014
 40
0.733781
 40
0.979548
 40
1.221795
 40
1.467562
 40
1.713329
 40
1.955577
 40
2.201344
 40
2.447111
 40
2.689358
 40
2.935125
 40
3.180892
 40
3.423139
 40
3.668906
 40
3.914673
 40
4.156920
 40
4.402687
 40
4.402687
 40
4.402687
 40
4.402687
 10
31.234019
 20
10.109994
 30
0.0
 10
31.225652
 20
10.192340
 30
0.0
 10
31.209036
 20
10.355852
 30
0.0
 10
31.079488
 20
10.571979
 30
0.0
 10
30.889724
 20
10.732675
 30
0.0
 10
30.654694
 20
10.817907
 30
0.0
 10
30.405289
 20
10.817907
 30
0.0
 10
30.170586
 20
10.732675
 30
0.0
 10
29.979515
 20
10.571979
 30
0.0
 10
29.854823
 20
10.355852
 30
0.0
 10
29.811510
 20
10.109994
 30
0.0
 10
29.854823
 20
9.864137
 30
0.0
 10
29.979515
 20
9.648010
 30
0.0
 10
30.170586
 20
9.487314
 30
0.0
 10
30.405289
 20
9.402081
 30
0.0
 10
30.654694
 20
9.402081
 30
0.0
 10
30.889724
 20
9.487314
 30
0.0
 10
31.079488
 20
9.648010
 30
0.0
 10
31.209036
 20
9.864137
 30
0.0
 10
31.225652
 20
10.027649
 30
0.0
 10
31.234019
 20
10.109994
 30
0.0
 11
31.234019
 21
10.109994
 31
0.0
 11
31.191279
 21
10.352016
 31
0.0
 11
31.070241
 21
10.561858
 31
0.0
 11
30.882143
 21
10.720037
 31
0.0
 11
30.651142
 21
10.803940
 31
0.0
 11
30.408894
 21
10.803940
 31
0.0
 11
30.177893
 21
10.720037
 31
0.0
 11
29.989795
 21
10.561858
 31
0.0
 11
29.868757
 21
10.352016
 31
0.0
 11
29.826017
 21
10.109994
 31
0.0
 11
29.868757
 21
9.867972
 31
0.0
 11
29.989795
 21
9.658131
 31
0.0
 11
30.177893
 21
9.499951
 31
0.0
 11
30.408894
 21
9.416049
 31
0.0
 11
30.651142
 21
9.416049
 31
0.0
 11
30.882143
 21
9.499951
 31
0.0
 11
31.070241
 21
9.658131
 31
0.0
 11
31.191279
 21
9.867972
 31
0.0
 11
31.234019
 21
10.109994
 31
0.0
  0
LWPOLYLINE
  5
1b1
100
AcDbEntity
  8
0
 62
7
100
AcDbPolyline
 90
1
 70
1
 10
31.234019
 20
10.109994
 30
0.0
  0
SPLINE
  5
1b2
100
AcDbEntity
  8
0
 62
7
100
AcDbSpline
 70
0
 71
3
 72
25
 73
21
 74
19
 40
0.000000
 40
0.000000
 40
0.000000
 40
0.000000
 40
0.245671
 40
0.487826
 40
0.733497
 40
0.979168
 40
1.221323
 40
1.466994
 40
1.712665
 40
1.954820
 40
2.200491
 40
2.446162
 40
2.688316
 40
2.933987
 40
3.179658
 40
3.421813
 40
3.667484
 40
3.913155
 40
4.155310
 40
4.400981
 40
4.400981
 40
4.400981
 40
4.400981
 10
31.234019
 20
7.569994
 30
0.0
 10
31.225607
 20
7.652302
 30
0.0
 10
31.208905
 20
7.815740
 30
0.0
 10
31.079322
 20
8.031726
 30
0.0
 10
30.889590
 20
8.192306
 30
0.0
 10
30.654644
 20
8.277472
 30
0.0
 10
30.405339
 20
8.277472
 30
0.0
 10
30.170721
 20
8.192306
 30
0.0
 10
29.979676
 20
8.031726
 30
0.0
 10
29.854974
 20
7.815740
 30
0.0
 10
29.811435
 20
7.569994
 30
0.0
 10
29.854974
 20
7.324248
 30
0.0
 10
29.979676
 20
7.108263
 30
0.0
 10
30.170721
 20
6.947683
 30
0.0
 10
30.405339
 20
6.862517
 30
0.0
 10
30.654644
 20
6.862517
 30
0.0
 10
30.889590
 20
6.947683
 30
0.0
 10
31.079322
 20
7.108263
 30
0.0
 10
31.208905
 20
7.324248
 30
0.0
 10
31.225607
 20
7.487686
 30
0.0
 10
31.234019
 20
7.569994
 30
0.0
 11
31.234019
 21
7.569994
 31
0.0
 11
31.191163
 21
7.811898
 31
0.0
 11
31.070086
 21
8.021611
 31
0.0
 11
30.882018
 21
8.179677
 31
0.0
 11
30.651096
 21
8.263515
 31
0.0
 11
30.408941
 21
8.263515
 31
0.0
 11
30.178018
 21
8.179677
 31
0.0
 11
29.989950
 21
8.021611
 31
0.0
 11
29.868873
 21
7.811898
 31
0.0
 11
29.826017
 21
7.569994
 31
0.0
 11
29.868873
 21
7.328090
 31
0.0
 11
29.989950
 21
7.118378
 31
0.0
 11
30.178018
 21
6.960312
 31
0.0
 11
30.408941
 21
6.876474
 31
0.0
 11
30.651096
 21
6.876474
 31
0.0
 11
30.882018
 21
6.960312
 31
0.0
 11
31.070086
 21
7.118378
 31
0.0
 11
31.191163
 21
7.328090
 31
0.0
 11
31.234019
 21
7.569994
 31
0.0
  0
LWPOLYLINE
  5
1b3
100
AcDbEntity
  8
0
 62
7
100
AcDbPolyline
 90
1
 70
1
 10
31.234019
 20
7.569994
 30
0.0
  0
SPLINE
  5
1b4
100
AcDbEntity
  8
0
 62
7
100
AcDbSpline
 70
0
 71
3
 72
25
 73
21
 74
19
 40
0.000000
 40
0.000000
 40
0.000000
 40
0.000000
 40
0.245767
 40
0.488014
 40
0.733781
 40
0.979548
 40
1.221795
 40
1.467562
 40
1.713329
 40
1.955577
 40
2.201344
 40
2.447111
 40
2.689358
 40
2.935125
 40
3.180892
 40
3.423139
 40
3.668906
 40
3.914673
 40
4.156920
 40
4.402687
 40
4.402687
 40
4.402687
 40
4.402687
 10
31.234019
 20
20.269994
 30
0.0
 10
31.225652
 20
20.352340
 30
0.0
 10
31.209036
 20
20.515852
 30
0.0
 10
31.079488
 20
20.731979
 30
0.0
 10
30.889724
 20
20.892675
 30
0.0
 10
30.654694
 20
20.977907
 30
0.0
 10
30.405289
 20
20.977907
 30
0.0
 10
30.170586
 20
20.892675
 30
0.0
 10
29.979515
 20
20.731979
 30
0.0
 10
29.854823
 20
20.515852
 30
0.0
 10
29.811510
 20
20.269994
 30
0.0
 10
29.854823
 20
20.024137
 30
0.0
 10
29.979515
 20
19.808010
 30
0.0
 10
30.170586
 20
19.647314
 30
0.0
 10
30.405289
 20
19.562081
 30
0.0
 10
30.654694
 20
19.562081
 30
0.0
 10
30.889724
 20
19.647314
 30
0.0
 10
31.079488
 20
19.808010
 30
0.0
 10
31.209036
 20
20.024137
 30
0.0
 10
31.225652
 20
20.187649
 30
0.0
 10
31.234019
 20
20.269994
 30
0.0
 11
31.234019
 21
20.269994
 31
0.0
 11
31.191279
 21
20.512016
 31
0.0
 11
31.070241
 21
20.721858
 31
0.0
 11
30.882143
 21
20.880037
 31
0.0
 11
30.651142
 21
20.963940
 31
0.0
 11
30.408894
 21
20.963940
 31
0.0
 11
30.177893
 21
20.880037
 31
0.0
 11
29.989795
 21
20.721858
 31
0.0
 11
29.868757
 21
20.512016
 31
0.0
 11
29.826017
 21
20.269994
 31
0.0
 11
29.868757
 21
20.027972
 31
0.0
 11
29.989795
 21
19.818131
 31
0.0
 11
30.177893
 21
19.659951
 31
0.0
 11
30.408894
 21
19.576049
 31
0.0
 11
30.651142
 21
19.576049
 31
0.0
 11
30.882143
 21
19.659951
 31
0.0
 11
31.070241
 21
19.818131
 31
0.0
 11
31.191279
 21
20.027972
 31
0.0
 11
31.234019
 21
20.269994
 31
0.0
  0
LWPOLYLINE
  5
1b5
100
AcDbEntity
  8
0
 62
7
100
AcDbPolyline
 90
1
 70
1
 10
31.234019
 20
20.269994
 30
0.0
  0
SPLINE
  5
1b6
100
AcDbEntity
  8
0
 62
7
100
AcDbSpline
 70
0
 71
3
 72
25
 73
21
 74
19
 40
0.000000
 40
0.000000
 40
0.000000
 40
0.000000
 40
0.245671
 40
0.487826
 40
0.733497
 40
0.979168
 40
1.221323
 40
1.466994
 40
1.712665
 40
1.954820
 40
2.200491
 40
2.446162
 40
2.688316
 40
2.933987
 40
3.179658
 40
3.421813
 40
3.667484
 40
3.913155
 40
4.155310
 40
4.400981
 40
4.400981
 40
4.400981
 40
4.400981
 10
31.234019
 20
12.649994
 30
0.0
 10
31.225607
 20
12.732302
 30
0.0
 10
31.208905
 20
12.895740
 30
0.0
 10
31.079322
 20
13.111726
 30
0.0
 10
30.889590
 20
13.272306
 30
0.0
 10
30.654644
 20
13.357472
 30
0.0
 10
30.405339
 20
13.357472
 30
0.0
 10
30.170721
 20
13.272306
 30
0.0
 10
29.979676
 20
13.111726
 30
0.0
 10
29.854974
 20
12.895740
 30
0.0
 10
29.811435
 20
12.649994
 30
0.0
 10
29.854974
 20
12.404248
 30
0.0
 10
29.979676
 20
12.188263
 30
0.0
 10
30.170721
 20
12.027683
 30
0.0
 10
30.405339
 20
11.942517
 30
0.0
 10
30.654644
 20
11.942517
 30
0.0
 10
30.889590
 20
12.027683
 30
0.0
 10
31.079322
 20
12.188263
 30
0.0
 10
31.208905
 20
12.404248
 30
0.0
 10
31.225607
 20
12.567686
 30
0.0
 10
31.234019
 20
12.649994
 30
0.0
 11
31.234019
 21
12.649994
 31
0.0
 11
31.191163
 21
12.891898
 31
0.0
 11
31.070086
 21
13.101611
 31
0.0
 11
30.882018
 21
13.259677
 31
0.0
 11
30.651096
 21
13.343515
 31
0.0
 11
30.408941
 21
13.343515
 31
0.0
 11
30.178018
 21
13.259677
 31
0.0
 11
29.989950
 21
13.101611
 31
0.0
 11
29.868873
 21
12.891898
 31
0.0
 11
29.826017
 21
12.649994
 31
0.0
 11
29.868873
 21
12.408090
 31
0.0
 11
29.989950
 21
12.198378
 31
0.0
 11
30.178018
 21
12.040312
 31
0.0
 11
30.408941
 21
11.956474
 31
0.0
 11
30.651096
 21
11.956474
 31
0.0
 11
30.882018
 21
12.040312
 31
0.0
 11
31.070086
 21
12.198378
 31
0.0
 11
31.191163
 21
12.408090
 31
0.0
 11
31.234019
 21
12.649994
 31
0.0
  0
LWPOLYLINE
  5
1b7
100
AcDbEntity
  8
0
 62
7
100
AcDbPolyline
 90
1
 70
1
 10
31.234019
 20
12.649994
 30
0.0
  0
LWPOLYLINE
  5
1b8
100
AcDbEntity
  8
0
 62
7
100
AcDbPolyline
 90
1
 70
1
 10
27.672518
 20
2.489994
 30
0.0
  0
SPLINE
  5
1b9
100
AcDbEntity
  8
0
 62
7
100
AcDbSpline
 70
0
 71
3
 72
25
 73
21
 74
19
 40
0.000000
 40
0.000000
 40
0.000000
 40
0.000000
 40
0.332389
 40
0.660021
 40
0.992409
 40
1.324798
 40
1.652430
 40
1.984819
 40
2.317207
 40
2.644839
 40
2.977228
 40
3.309617
 40
3.637249
 40
3.969637
 40
4.302026
 40
4.629658
 40
4.962047
 40
5.294435
 40
5.622067
 40
5.954456
 40
5.954456
 40
5.954456
 40
5.954456
 10
27.672518
 20
2.489994
 30
0.0
 10
27.661137
 20
2.601356
 30
0.0
 10
27.638539
 20
2.822485
 30
0.0
 10
27.463215
 20
3.114710
 30
0.0
 10
27.206512
 20
3.331972
 30
0.0
 10
26.888633
 20
3.447200
 30
0.0
 10
26.551327
 20
3.447200
 30
0.0
 10
26.233893
 20
3.331972
 30
0.0
 10
25.975412
 20
3.114710
 30
0.0
 10
25.806693
 20
2.822485
 30
0.0
 10
25.747785
 20
2.489994
 30
0.0
 10
25.806693
 20
2.157504
 30
0.0
 10
25.975412
 20
1.865279
 30
0.0
 10
26.233893
 20
1.648017
 30
0.0
 10
26.551327
 20
1.532788
 30
0.0
 10
26.888633
 20
1.532788
 30
0.0
 10
27.206512
 20
1.648017
 30
0.0
 10
27.463215
 20
1.865279
 30
0.0
 10
27.638539
 20
2.157504
 30
0.0
 10
27.661137
 20
2.378633
 30
0.0
 10
27.672518
 20
2.489994
 30
0.0
 11
27.672518
 21
2.489994
 31
0.0
 11
27.614535
 21
2.817287
 31
0.0
 11
27.450719
 21
3.101024
 31
0.0
 11
27.196267
 21
3.314885
 31
0.0
 11
26.883832
 21
3.428317
 31
0.0
 11
26.556200
 21
3.428317
 31
0.0
 11
26.243766
 21
3.314885
 31
0.0
 11
25.989313
 21
3.101024
 31
0.0
 11
25.825497
 21
2.817287
 31
0.0
 11
25.767515
 21
2.489994
 31
0.0
 11
25.825497
 21
2.162702
 31
0.0
 11
25.989313
 21
1.878964
 31
0.0
 11
26.243766
 21
1.665104
 31
0.0
 11
26.556200
 21
1.551672
 31
0.0
 11
26.883832
 21
1.551672
 31
0.0
 11
27.196267
 21
1.665104
 31
0.0
 11
27.450719
 21
1.878964
 31
0.0
 11
27.614535
 21
2.162702
 31
0.0
 11
27.672518
 21
2.489994
 31
0.0
  0
LWPOLYLINE
  5
1ba
100
AcDbEntity
  8
0
 62
7
100
AcDbPolyline
 90
4
 70
1
 10
40.640025
 20
43.180027
 30
0.0
 10
40.640025
 20
0.000001
 30
0.0
 10
0.000000
 20
0.000001
 30
0.0
 10
0.000000
 20
43.180027
 30
0.0
  0
ENDSEC
  0
SECTION
  2
OBJECTS
  0
DICTIONARY
  5
C
330
0
100
AcDbDictionary
  3
ACAD_GROUP
350
D
  3
ACAD_MLINESTYLE
350
17
  0
DICTIONARY
  5
D
330
C
100
AcDbDictionary
  0
DICTIONARY
  5
1A
330
C
100
AcDbDictionary
  0
DICTIONARY
  5
17
330
C
100
AcDbDictionary
  3
STANDARD
350
18
  0
DICTIONARY
  5
19
330
C
100
AcDbDictionary
  0
ENDSEC
  0
EOF
