<?xml version="1.0" encoding="UTF-8" standalone="no"?>
<svg
   xmlns:dc="http://purl.org/dc/elements/1.1/"
   xmlns:cc="http://creativecommons.org/ns#"
   xmlns:rdf="http://www.w3.org/1999/02/22-rdf-syntax-ns#"
   xmlns:svg="http://www.w3.org/2000/svg"
   xmlns="http://www.w3.org/2000/svg"
   id="svg116"
   version="1.1"
   viewBox="0 -3.81 40.64 43.18">
  <metadata
     id="metadata122">
    <rdf:RDF>
      <cc:Work
         rdf:about="">
        <dc:format>image/svg+xml</dc:format>
        <dc:type
           rdf:resource="http://purl.org/dc/dcmitype/StillImage" />
        <dc:title></dc:title>
      </cc:Work>
    </rdf:RDF>
  </metadata>
  <defs
     id="defs120" />
  <path
     id="path114"
     d="M 0.05,-3.8599999 H 40.689999 V 39.32 H 0.05 Z"
     style="stroke:#ff0000;fill:#000000;stroke-width:0.1;stroke-miterlimit:4;stroke-dasharray:none" />
  <path
     id="path1151"
     d="m 20.002498,37.224538 -0.55796,0.55796 h -0.789076 l -0.55796,-0.55796 v -0.789076 l 0.55796,-0.55796 h 0.789076 l 0.55796,0.55796 z"
     style="stroke:#ff0000;fill:#000000;stroke-width:0.1;stroke-miterlimit:4;stroke-dasharray:none" />
  <path
     id="path1149"
     d="m 14.9225,36.830002 a 0.95249999,0.95249999 0 0 1 -0.9525,0.9525 0.95249999,0.95249999 0 0 1 -0.9525,-0.9525 0.95249999,0.95249999 0 0 1 0.9525,-0.9525 0.95249999,0.95249999 0 0 1 0.9525,0.9525 z"
     style="stroke:#ff0000;fill:#000000;stroke-width:0.1;stroke-miterlimit:4;stroke-dasharray:none" />
  <path
     id="path1147"
     d="M 10.864,31.75 A 0.704,0.704 0 0 1 10.16,32.454 0.704,0.704 0 0 1 9.4559999,31.75 0.704,0.704 0 0 1 10.16,31.046 0.704,0.704 0 0 1 10.864,31.75 Z"
     style="stroke:#ff0000;fill:#000000;stroke-width:0.1;stroke-miterlimit:4;stroke-dasharray:none" />
  <path
     id="path1145"
     d="m 10.864,29.209999 a 0.704,0.704 0 0 1 -0.704,0.704 0.704,0.704 0 0 1 -0.7040001,-0.704 0.704,0.704 0 0 1 0.7040001,-0.704 0.704,0.704 0 0 1 0.704,0.704 z"
     style="stroke:#ff0000;fill:#000000;stroke-width:0.1;stroke-miterlimit:4;stroke-dasharray:none" />
  <path
     id="path1143"
     d="M 10.864,26.67 A 0.704,0.704 0 0 1 10.16,27.374 0.704,0.704 0 0 1 9.4559999,26.67 0.704,0.704 0 0 1 10.16,25.966 0.704,0.704 0 0 1 10.864,26.67 Z"
     style="stroke:#ff0000;fill:#000000;stroke-width:0.1;stroke-miterlimit:4;stroke-dasharray:none" />
  <path
     id="path1141"
     d="m 10.864,24.129999 a 0.704,0.704 0 0 1 -0.704,0.704 0.704,0.704 0 0 1 -0.7040001,-0.704 0.704,0.704 0 0 1 0.7040001,-0.704 0.704,0.704 0 0 1 0.704,0.704 z"
     style="stroke:#ff0000;fill:#000000;stroke-width:0.1;stroke-miterlimit:4;stroke-dasharray:none" />
  <path
     id="path1139"
     d="M 10.864,21.59 A 0.704,0.704 0 0 1 10.16,22.294 0.704,0.704 0 0 1 9.4559999,21.59 0.704,0.704 0 0 1 10.16,20.886 0.704,0.704 0 0 1 10.864,21.59 Z"
     style="stroke:#ff0000;fill:#000000;stroke-width:0.1;stroke-miterlimit:4;stroke-dasharray:none" />
  <path
     id="path1137"
     d="m 10.864,19.049999 a 0.704,0.704 0 0 1 -0.704,0.704 0.704,0.704 0 0 1 -0.7040001,-0.704 0.704,0.704 0 0 1 0.7040001,-0.704 0.704,0.704 0 0 1 0.704,0.704 z"
     style="stroke:#ff0000;fill:#000000;stroke-width:0.1;stroke-miterlimit:4;stroke-dasharray:none" />
  <path
     id="path1135"
     d="M 10.864,16.51 A 0.704,0.704 0 0 1 10.16,17.214 0.704,0.704 0 0 1 9.4559999,16.51 0.704,0.704 0 0 1 10.16,15.806 0.704,0.704 0 0 1 10.864,16.51 Z"
     style="stroke:#ff0000;fill:#000000;stroke-width:0.1;stroke-miterlimit:4;stroke-dasharray:none" />
  <path
     id="path1133"
     d="M 10.864,13.97 A 0.704,0.704 0 0 1 10.16,14.674 0.704,0.704 0 0 1 9.4559999,13.97 0.704,0.704 0 0 1 10.16,13.266 0.704,0.704 0 0 1 10.864,13.97 Z"
     style="stroke:#ff0000;fill:#000000;stroke-width:0.1;stroke-miterlimit:4;stroke-dasharray:none" />
  <path
     id="path1131"
     d="m 23.564001,13.97 a 0.704,0.704 0 0 1 -0.704,0.704 0.704,0.704 0 0 1 -0.704,-0.704 0.704,0.704 0 0 1 0.704,-0.704 0.704,0.704 0 0 1 0.704,0.704 z"
     style="stroke:#ff0000;fill:#000000;stroke-width:0.1;stroke-miterlimit:4;stroke-dasharray:none" />
  <path
     id="path1129"
     d="m 23.564001,16.51 a 0.704,0.704 0 0 1 -0.704,0.704 0.704,0.704 0 0 1 -0.704,-0.704 0.704,0.704 0 0 1 0.704,-0.704 0.704,0.704 0 0 1 0.704,0.704 z"
     style="stroke:#ff0000;fill:#000000;stroke-width:0.1;stroke-miterlimit:4;stroke-dasharray:none" />
  <path
     id="path1127"
     d="m 23.564001,19.049999 a 0.704,0.704 0 0 1 -0.704,0.704 0.704,0.704 0 0 1 -0.704,-0.704 0.704,0.704 0 0 1 0.704,-0.704 0.704,0.704 0 0 1 0.704,0.704 z"
     style="stroke:#ff0000;fill:#000000;stroke-width:0.1;stroke-miterlimit:4;stroke-dasharray:none" />
  <path
     id="path1125"
     d="m 23.564001,21.59 a 0.704,0.704 0 0 1 -0.704,0.704 0.704,0.704 0 0 1 -0.704,-0.704 0.704,0.704 0 0 1 0.704,-0.704 0.704,0.704 0 0 1 0.704,0.704 z"
     style="stroke:#ff0000;fill:#000000;stroke-width:0.1;stroke-miterlimit:4;stroke-dasharray:none" />
  <path
     id="path1123"
     d="m 23.564001,24.129999 a 0.704,0.704 0 0 1 -0.704,0.704 0.704,0.704 0 0 1 -0.704,-0.704 0.704,0.704 0 0 1 0.704,-0.704 0.704,0.704 0 0 1 0.704,0.704 z"
     style="stroke:#ff0000;fill:#000000;stroke-width:0.1;stroke-miterlimit:4;stroke-dasharray:none" />
  <path
     id="path1121"
     d="m 23.564001,26.67 a 0.704,0.704 0 0 1 -0.704,0.704 0.704,0.704 0 0 1 -0.704,-0.704 0.704,0.704 0 0 1 0.704,-0.704 0.704,0.704 0 0 1 0.704,0.704 z"
     style="stroke:#ff0000;fill:#000000;stroke-width:0.1;stroke-miterlimit:4;stroke-dasharray:none" />
  <path
     id="path1119"
     d="m 23.564001,29.209999 a 0.704,0.704 0 0 1 -0.704,0.704 0.704,0.704 0 0 1 -0.704,-0.704 0.704,0.704 0 0 1 0.704,-0.704 0.704,0.704 0 0 1 0.704,0.704 z"
     style="stroke:#ff0000;fill:#000000;stroke-width:0.1;stroke-miterlimit:4;stroke-dasharray:none" />
  <path
     id="path1117"
     d="m 23.564001,31.75 a 0.704,0.704 0 0 1 -0.704,0.704 0.704,0.704 0 0 1 -0.704,-0.704 0.704,0.704 0 0 1 0.704,-0.704 0.704,0.704 0 0 1 0.704,0.704 z"
     style="stroke:#ff0000;fill:#000000;stroke-width:0.1;stroke-miterlimit:4;stroke-dasharray:none" />
  <path
     id="path1115"
     d="m 30.470703,15.179688 a 0.66046601,0.66046601 0 0 0 -0.650391,0.669921 v 1.320313 a 0.66046601,0.66046601 0 1 0 1.320313,0 v -1.320313 a 0.66046601,0.66046601 0 0 0 -0.669922,-0.669921 z"
     style="stroke:#ff0000;fill:#000000;stroke-width:0.1;stroke-miterlimit:4;stroke-dasharray:none" />
  <path
     id="path1113"
     d="m 33.009766,15.179688 a 0.66046601,0.66046601 0 0 0 -0.650391,0.669921 v 1.320313 a 0.66046601,0.66046601 0 1 0 1.320313,0 v -1.320313 a 0.66046601,0.66046601 0 0 0 -0.669922,-0.669921 z"
     style="stroke:#ff0000;fill:#000000;stroke-width:0.1;stroke-miterlimit:4;stroke-dasharray:none" />
  <path
     id="path1111"
     d="m 35.550781,15.179688 a 0.66046601,0.66046601 0 0 0 -0.65039,0.669921 v 1.320313 a 0.66046601,0.66046601 0 1 0 1.320312,0 v -1.320313 a 0.66046601,0.66046601 0 0 0 -0.669922,-0.669921 z"
     style="stroke:#ff0000;fill:#000000;stroke-width:0.1;stroke-miterlimit:4;stroke-dasharray:none" />
  <path
     id="path1109"
     d="m 30.470703,24.070312 a 0.66046601,0.66046601 0 0 0 -0.650391,0.669922 v 1.320313 a 0.66046601,0.66046601 0 1 0 1.320313,0 v -1.320313 a 0.66046601,0.66046601 0 0 0 -0.669922,-0.669922 z"
     style="stroke:#ff0000;fill:#000000;stroke-width:0.1;stroke-miterlimit:4;stroke-dasharray:none" />
  <path
     id="path1107"
     d="m 33.009766,24.070312 a 0.66046601,0.66046601 0 0 0 -0.650391,0.669922 v 1.320313 a 0.66046601,0.66046601 0 1 0 1.320313,0 v -1.320313 a 0.66046601,0.66046601 0 0 0 -0.669922,-0.669922 z"
     style="stroke:#ff0000;fill:#000000;stroke-width:0.1;stroke-miterlimit:4;stroke-dasharray:none" />
  <path
     id="path1105"
     d="m 35.550781,24.070312 a 0.66046601,0.66046601 0 0 0 -0.65039,0.669922 v 1.320313 a 0.66046601,0.66046601 0 1 0 1.320312,0 v -1.320313 a 0.66046601,0.66046601 0 0 0 -0.669922,-0.669922 z"
     style="stroke:#ff0000;fill:#000000;stroke-width:0.1;stroke-miterlimit:4;stroke-dasharray:none" />
  <path
     id="path1103"
     d="m 30.470703,32.958984 a 0.66046601,0.66046601 0 0 0 -0.650391,0.669922 v 1.322266 a 0.66046601,0.66046601 0 1 0 1.320313,0 v -1.322266 a 0.66046601,0.66046601 0 0 0 -0.669922,-0.669922 z"
     style="stroke:#ff0000;fill:#000000;stroke-width:0.1;stroke-miterlimit:4;stroke-dasharray:none" />
  <path
     id="path1101"
     d="m 33.009766,32.958984 a 0.66046601,0.66046601 0 0 0 -0.650391,0.669922 v 1.322266 a 0.66046601,0.66046601 0 1 0 1.320313,0 v -1.322266 a 0.66046601,0.66046601 0 0 0 -0.669922,-0.669922 z"
     style="stroke:#ff0000;fill:#000000;stroke-width:0.1;stroke-miterlimit:4;stroke-dasharray:none" />
  <path
     id="path1099"
     d="m 35.550781,32.958984 a 0.66046601,0.66046601 0 0 0 -0.65039,0.669922 v 1.322266 a 0.66046601,0.66046601 0 1 0 1.320312,0 v -1.322266 a 0.66046601,0.66046601 0 0 0 -0.669922,-0.669922 z"
     style="stroke:#ff0000;fill:#000000;stroke-width:0.1;stroke-miterlimit:4;stroke-dasharray:none" />
  <path
     id="path1097"
     d="m 35.550781,6.2890625 a 0.66046601,0.66046601 0 0 0 -0.65039,0.6699219 V 8.28125 a 0.66046601,0.66046601 0 1 0 1.320312,0 V 6.9589844 A 0.66046601,0.66046601 0 0 0 35.550781,6.2890625 Z"
     style="stroke:#ff0000;fill:#000000;stroke-width:0.1;stroke-miterlimit:4;stroke-dasharray:none" />
  <path
     id="path1095"
     d="M 33.009766,6.2890625 A 0.66046601,0.66046601 0 0 0 32.359375,6.9589844 V 8.28125 a 0.66046601,0.66046601 0 1 0 1.320313,0 V 6.9589844 A 0.66046601,0.66046601 0 0 0 33.009766,6.2890625 Z"
     style="stroke:#ff0000;fill:#000000;stroke-width:0.1;stroke-miterlimit:4;stroke-dasharray:none" />
  <path
     id="path1093"
     d="M 30.470703,6.2890625 A 0.66046601,0.66046601 0 0 0 29.820312,6.9589844 V 8.28125 a 0.66046601,0.66046601 0 1 0 1.320313,0 V 6.9589844 A 0.66046601,0.66046601 0 0 0 30.470703,6.2890625 Z"
     style="stroke:#ff0000;fill:#000000;stroke-width:0.1;stroke-miterlimit:4;stroke-dasharray:none" />
  <path
     id="path1091"
     d="m 3.7851562,1.8789062 a 0.66113285,0.66113285 0 1 0 0,1.3222657 h 1.3203126 a 0.66113285,0.66113285 0 1 0 0,-1.3222657 z"
     style="stroke:#ff0000;fill:#000000;stroke-width:0.1;stroke-miterlimit:4;stroke-dasharray:none" />
  <path
     id="path1089"
     d="m 3.7851562,4.4199219 a 0.66046601,0.66046601 0 1 0 0,1.3203125 h 1.3203126 a 0.66046601,0.66046601 0 1 0 0,-1.3203125 z"
     style="stroke:#ff0000;fill:#000000;stroke-width:0.1;stroke-miterlimit:4;stroke-dasharray:none" />
  <path
     id="path1087"
     d="m 3.7851562,-0.66015625 a 0.66046601,0.66046601 0 1 0 0,1.3203125 h 1.3203126 a 0.66046601,0.66046601 0 1 0 0,-1.3203125 z"
     style="stroke:#ff0000;fill:#000000;stroke-width:0.1;stroke-miterlimit:4;stroke-dasharray:none" />
  <path
     id="path1085"
     d="m 5.0683594,34.025391 a 0.76207622,0.76207622 0 0 0 -0.75,0.773437 v 1.523438 a 0.76207622,0.76207622 0 1 0 1.5234375,0 V 34.798828 A 0.76207622,0.76207622 0 0 0 5.0683594,34.025391 Z"
     style="stroke:#ff0000;fill:#000000;stroke-width:0.1;stroke-miterlimit:4;stroke-dasharray:none" />
  <path
     id="path1083"
     d="m 7.609375,34.025391 a 0.76207622,0.76207622 0 0 0 -0.7519531,0.773437 v 1.523438 a 0.7626953,0.7626953 0 1 0 1.5253906,0 V 34.798828 A 0.76207622,0.76207622 0 0 0 7.609375,34.025391 Z"
     style="stroke:#ff0000;fill:#000000;stroke-width:0.1;stroke-miterlimit:4;stroke-dasharray:none" />
  <path
     id="path1081"
     d="m 10.148438,34.025391 a 0.76207622,0.76207622 0 0 0 -0.7500005,0.773437 v 1.523438 a 0.76207622,0.76207622 0 1 0 1.5234375,0 v -1.523438 a 0.76207622,0.76207622 0 0 0 -0.773437,-0.773437 z"
     style="stroke:#ff0000;fill:#000000;stroke-width:0.1;stroke-miterlimit:4;stroke-dasharray:none" />
  <path
     id="path1079"
     d="M 10.148438,8.625 A 0.76207622,0.76207622 0 0 0 9.3984375,9.3984375 v 1.5234375 a 0.76207622,0.76207622 0 1 0 1.5234375,0 V 9.3984375 A 0.76207622,0.76207622 0 0 0 10.148438,8.625 Z"
     style="stroke:#ff0000;fill:#000000;stroke-width:0.1;stroke-miterlimit:4;stroke-dasharray:none" />
  <path
     id="path1077"
     d="M 7.609375,8.625 A 0.76207622,0.76207622 0 0 0 6.8574219,9.3984375 v 1.5234375 a 0.7626953,0.7626953 0 1 0 1.5253906,0 V 9.3984375 A 0.76207622,0.76207622 0 0 0 7.609375,8.625 Z"
     style="stroke:#ff0000;fill:#000000;stroke-width:0.1;stroke-miterlimit:4;stroke-dasharray:none" />
  <path
     id="path1075"
     d="m 5.0683594,8.625 a 0.76207622,0.76207622 0 0 0 -0.75,0.7734375 v 1.5234375 a 0.76207622,0.76207622 0 1 0 1.5234375,0 V 9.3984375 A 0.76207622,0.76207622 0 0 0 5.0683594,8.625 Z"
     style="stroke:#ff0000;fill:#000000;stroke-width:0.1;stroke-miterlimit:4;stroke-dasharray:none" />
  <path
     id="path1073"
     d="m 4.3183594,18.287109 a 0.7626955,0.7626955 0 1 0 0,1.525391 h 1.5234375 a 0.7626955,0.7626955 0 1 0 0,-1.525391 z"
     style="stroke:#ff0000;fill:#000000;stroke-width:0.1;stroke-miterlimit:4;stroke-dasharray:none" />
  <path
     id="path1071"
     d="m 4.3183594,20.828125 a 0.76207622,0.76207622 0 1 0 0,1.523437 h 1.5234375 a 0.76207622,0.76207622 0 1 0 0,-1.523437 z"
     style="stroke:#ff0000;fill:#000000;stroke-width:0.1;stroke-miterlimit:4;stroke-dasharray:none" />
  <path
     id="path1069"
     d="m 4.3183594,23.367188 a 0.762695,0.762695 0 1 0 0,1.52539 h 1.5234375 a 0.762695,0.762695 0 1 0 0,-1.52539 z"
     style="stroke:#ff0000;fill:#000000;stroke-width:0.1;stroke-miterlimit:4;stroke-dasharray:none" />
  <path
     id="path1067"
     d="m 4.3183594,25.908203 a 0.76207622,0.76207622 0 1 0 0,1.523438 h 1.5234375 a 0.76207622,0.76207622 0 1 0 0,-1.523438 z"
     style="stroke:#ff0000;fill:#000000;stroke-width:0.1;stroke-miterlimit:4;stroke-dasharray:none" />
  <path
     id="path1065"
     d="M 13.3604,0 A 0.66039997,0.66039997 0 0 1 12.7,0.66039997 0.66039997,0.66039997 0 0 1 12.0396,0 0.66039997,0.66039997 0 0 1 12.7,-0.66039997 0.66039997,0.66039997 0 0 1 13.3604,0 Z"
     style="stroke:#ff0000;fill:#000000;stroke-width:0.1;stroke-miterlimit:4;stroke-dasharray:none" />
  <path
     id="path1063"
     d="M 13.3604,2.54 A 0.66039997,0.66039997 0 0 1 12.7,3.2003999 0.66039997,0.66039997 0 0 1 12.0396,2.54 0.66039997,0.66039997 0 0 1 12.7,1.8796 0.66039997,0.66039997 0 0 1 13.3604,2.54 Z"
     style="stroke:#ff0000;fill:#000000;stroke-width:0.1;stroke-miterlimit:4;stroke-dasharray:none" />
  <path
     id="path1061"
     d="M 20.9804,0 A 0.66039997,0.66039997 0 0 1 20.32,0.66039997 0.66039997,0.66039997 0 0 1 19.6596,0 0.66039997,0.66039997 0 0 1 20.32,-0.66039997 0.66039997,0.66039997 0 0 1 20.9804,0 Z"
     style="stroke:#ff0000;fill:#000000;stroke-width:0.1;stroke-miterlimit:4;stroke-dasharray:none" />
  <path
     id="path1059"
     d="M 20.9804,2.54 A 0.66039997,0.66039997 0 0 1 20.32,3.2003999 0.66039997,0.66039997 0 0 1 19.6596,2.54 0.66039997,0.66039997 0 0 1 20.32,1.8796 0.66039997,0.66039997 0 0 1 20.9804,2.54 Z"
     style="stroke:#ff0000;fill:#000000;stroke-width:0.1;stroke-miterlimit:4;stroke-dasharray:none" />
  <path
     id="path1057"
     d="m 13.3604,7.6199999 a 0.66039997,0.66039997 0 0 1 -0.6604,0.6604 0.66039997,0.66039997 0 0 1 -0.6604,-0.6604 0.66039997,0.66039997 0 0 1 0.6604,-0.6604 0.66039997,0.66039997 0 0 1 0.6604,0.6604 z"
     style="stroke:#ff0000;fill:#000000;stroke-width:0.1;stroke-miterlimit:4;stroke-dasharray:none" />
  <path
     id="path1055"
     d="M 13.3604,5.0799999 A 0.66039997,0.66039997 0 0 1 12.7,5.7403999 0.66039997,0.66039997 0 0 1 12.0396,5.0799999 0.66039997,0.66039997 0 0 1 12.7,4.4196 0.66039997,0.66039997 0 0 1 13.3604,5.0799999 Z"
     style="stroke:#ff0000;fill:#000000;stroke-width:0.1;stroke-miterlimit:4;stroke-dasharray:none" />
  <path
     id="path1053"
     d="m 20.9804,5.0799999 a 0.66039997,0.66039997 0 0 1 -0.6604,0.6604 0.66039997,0.66039997 0 0 1 -0.6604,-0.6604 A 0.66039997,0.66039997 0 0 1 20.32,4.4196 0.66039997,0.66039997 0 0 1 20.9804,5.0799999 Z"
     style="stroke:#ff0000;fill:#000000;stroke-width:0.1;stroke-miterlimit:4;stroke-dasharray:none" />
  <path
     id="path1051"
     d="m 20.9804,7.6199999 a 0.66039997,0.66039997 0 0 1 -0.6604,0.6604 0.66039997,0.66039997 0 0 1 -0.6604,-0.6604 0.66039997,0.66039997 0 0 1 0.6604,-0.6604 0.66039997,0.66039997 0 0 1 0.6604,0.6604 z"
     style="stroke:#ff0000;fill:#000000;stroke-width:0.1;stroke-miterlimit:4;stroke-dasharray:none" />
  <path
     id="path1049"
     d="M 24.917399,0 A 0.78740001,0.78740001 0 0 1 24.129999,0.78740001 0.78740001,0.78740001 0 0 1 23.342599,0 0.78740001,0.78740001 0 0 1 24.129999,-0.78740001 0.78740001,0.78740001 0 0 1 24.917399,0 Z"
     style="stroke:#ff0000;fill:#000000;stroke-width:0.1;stroke-miterlimit:4;stroke-dasharray:none" />
  <path
     id="path1047"
     d="M 27.457399,0.32615114 26.996151,0.7873985 H 26.343849 L 25.882601,0.32615114 v -0.65230228 l 0.461248,-0.46124736 h 0.652302 l 0.461248,0.46124736 z"
     style="stroke:#ff0000;fill:#000000;stroke-width:0.1;stroke-miterlimit:4;stroke-dasharray:none" />
  <path
     id="path1045"
     d="m 9.61,5.43 v 1 h 1.1 v -1 z"
     style="stroke:#ff0000;fill:#000000;stroke-width:0.1;stroke-miterlimit:4;stroke-dasharray:none" />
  <path
     id="path1043"
     d="m 9.61,3.73 v 1 h 1.1 v -1 z"
     style="stroke:#ff0000;fill:#000000;stroke-width:0.1;stroke-miterlimit:4;stroke-dasharray:none" />
  <path
     id="path1041"
     d="m 16.81,-0.5 v 1 h 1.1 v -1 z"
     style="stroke:#ff0000;fill:#000000;stroke-width:0.1;stroke-miterlimit:4;stroke-dasharray:none" />
  <path
     id="path1039"
     d="m 15.11,-0.5 v 1 h 1.1 v -1 z"
     style="stroke:#ff0000;fill:#000000;stroke-width:0.1;stroke-miterlimit:4;stroke-dasharray:none" />
</svg>
