<!DOCTYPE svg>
<svg xmlns="http://www.w3.org/2000/svg" xmlns:xlink="http://www.w3.org/1999/xlink" viewBox="0 -3.81 40.64 43.18">
	<path fill="black" d="M 15.11 -0.5 L 15.11 0.5 L 16.21 0.5 L 16.21 -0.5 Z"></path>
	<path fill="black" d="M 16.81 -0.5 L 16.81 0.5 L 17.91 0.5 L 17.91 -0.5 Z"></path>
	<path fill="black" d="M 9.61 3.73 L 9.61 4.73 L 10.71 4.73 L 10.71 3.73 Z"></path>
	<path fill="black" d="M 9.61 5.43 L 9.61 6.43 L 10.71 6.43 L 10.71 5.43 Z"></path>
	<path fill="black" d="M 27.4573985046915 0.326151139635525 L 26.9961511396355 0.787398504691524 L 26.3438488603645 0.787398504691524 L 25.8826014953085 0.326151139635525 L 25.8826014953085 -0.326151139635524 L 26.3438488603645 -0.787398504691525 L 26.9961511396355 -0.787398504691524 L 27.4573985046915 -0.326151139635524 Z"></path>
	<circle fill="black" cx="24.13" cy="0" r="0.7874"></circle>
	<circle fill="black" cx="20.32" cy="7.62" r="0.6604"></circle>
	<circle fill="black" cx="20.32" cy="5.08" r="0.6604"></circle>
	<circle fill="black" cx="12.7" cy="5.08" r="0.6604"></circle>
	<circle fill="black" cx="12.7" cy="7.62" r="0.6604"></circle>
	<circle fill="black" cx="20.32" cy="2.54" r="0.6604"></circle>
	<circle fill="black" cx="20.32" cy="0" r="0.6604"></circle>
	<circle fill="black" cx="12.7" cy="2.54" r="0.6604"></circle>
	<circle fill="black" cx="12.7" cy="0" r="0.6604"></circle>
	<path stroke="black" stroke-linecap="round" stroke-width="1.524" d="M 5.842 26.67 L 4.318 26.67"></path>
	<path stroke="black" stroke-linecap="round" stroke-width="1.524" d="M 4.318 24.13 L 5.842 24.13"></path>
	<path stroke="black" stroke-linecap="round" stroke-width="1.524" d="M 5.842 21.59 L 4.318 21.59"></path>
	<path stroke="black" stroke-linecap="round" stroke-width="1.524" d="M 4.318 19.05 L 5.842 19.05"></path>
	<path stroke="black" stroke-linecap="round" stroke-width="1.524" d="M 5.08 10.922 L 5.08 9.398"></path>
	<path stroke="black" stroke-linecap="round" stroke-width="1.524" d="M 7.62 9.398 L 7.62 10.922"></path>
	<path stroke="black" stroke-linecap="round" stroke-width="1.524" d="M 10.16 10.922 L 10.16 9.398"></path>
	<path stroke="black" stroke-linecap="round" stroke-width="1.524" d="M 10.16 34.798 L 10.16 36.322"></path>
	<path stroke="black" stroke-linecap="round" stroke-width="1.524" d="M 7.62 36.322 L 7.62 34.798"></path>
	<path stroke="black" stroke-linecap="round" stroke-width="1.524" d="M 5.08 34.798 L 5.08 36.322"></path>
	<path stroke="black" stroke-linecap="round" stroke-width="1.3208" d="M 5.1054 0 L 3.7846 0"></path>
	<path stroke="black" stroke-linecap="round" stroke-width="1.3208" d="M 3.7846 5.08 L 5.1054 5.08"></path>
	<path stroke="black" stroke-linecap="round" stroke-width="1.3208" d="M 5.1054 2.54 L 3.7846 2.54"></path>
	<path stroke="black" stroke-linecap="round" stroke-width="1.3208" d="M 30.48 6.9596 L 30.48 8.2804"></path>
	<path stroke="black" stroke-linecap="round" stroke-width="1.3208" d="M 33.02 8.2804 L 33.02 6.9596"></path>
	<path stroke="black" stroke-linecap="round" stroke-width="1.3208" d="M 35.56 6.9596 L 35.56 8.2804"></path>
	<path stroke="black" stroke-linecap="round" stroke-width="1.3208" d="M 35.56 33.6296 L 35.56 34.9504"></path>
	<path stroke="black" stroke-linecap="round" stroke-width="1.3208" d="M 33.02 34.9504 L 33.02 33.6296"></path>
	<path stroke="black" stroke-linecap="round" stroke-width="1.3208" d="M 30.48 33.6296 L 30.48 34.9504"></path>
	<path stroke="black" stroke-linecap="round" stroke-width="1.3208" d="M 35.56 26.0604 L 35.56 24.7396"></path>
	<path stroke="black" stroke-linecap="round" stroke-width="1.3208" d="M 33.02 24.7396 L 33.02 26.0604"></path>
	<path stroke="black" stroke-linecap="round" stroke-width="1.3208" d="M 30.48 26.0604 L 30.48 24.7396"></path>
	<path stroke="black" stroke-linecap="round" stroke-width="1.3208" d="M 35.56 17.1704 L 35.56 15.8496"></path>
	<path stroke="black" stroke-linecap="round" stroke-width="1.3208" d="M 33.02 15.8496 L 33.02 17.1704"></path>
	<path stroke="black" stroke-linecap="round" stroke-width="1.3208" d="M 30.48 17.1704 L 30.48 15.8496"></path>
	<circle fill="black" cx="22.86" cy="31.75" r="0.704"></circle>
	<circle fill="black" cx="22.86" cy="29.21" r="0.704"></circle>
	<circle fill="black" cx="22.86" cy="26.67" r="0.704"></circle>
	<circle fill="black" cx="22.86" cy="24.13" r="0.704"></circle>
	<circle fill="black" cx="22.86" cy="21.59" r="0.704"></circle>
	<circle fill="black" cx="22.86" cy="19.05" r="0.704"></circle>
	<circle fill="black" cx="22.86" cy="16.51" r="0.704"></circle>
	<circle fill="black" cx="22.86" cy="13.97" r="0.704"></circle>
	<circle fill="black" cx="10.16" cy="13.97" r="0.704"></circle>
	<circle fill="black" cx="10.16" cy="16.51" r="0.704"></circle>
	<circle fill="black" cx="10.16" cy="19.05" r="0.704"></circle>
	<circle fill="black" cx="10.16" cy="21.59" r="0.704"></circle>
	<circle fill="black" cx="10.16" cy="24.13" r="0.704"></circle>
	<circle fill="black" cx="10.16" cy="26.67" r="0.704"></circle>
	<circle fill="black" cx="10.16" cy="29.21" r="0.704"></circle>
	<circle fill="black" cx="10.16" cy="31.75" r="0.704"></circle>
	<circle fill="black" cx="13.97" cy="36.83" r="0.9525"></circle>
	<path fill="black" d="M 20.0024980868501 37.2245376257078 L 19.4445376257078 37.7824980868501 L 18.6554623742923 37.7824980868501 L 18.0975019131499 37.2245376257078 L 18.0975019131499 36.4354623742923 L 18.6554623742923 35.8775019131499 L 19.4445376257078 35.8775019131499 L 20.0024980868501 36.4354623742923 Z"></path>
</svg>