  0
SECTION
  2
HEADER
  9
$ACADVER
  1
AC1014
  9
$HANDSEED
  5
FFFF
  9
$MEASUREMENT
 70
     1
  0
ENDSEC
  0
SECTION
  2
TABLES
  0
TABLE
  2
VPORT
  5
8
330
0
100
AcDbSymbolTable
 70
     4
  0
VPORT
  5
2E
330
8
100
AcDbSymbolTableRecord
100
AcDbViewportTableRecord
  2
*ACTIVE
 70
     0
 10
0.0
 20
0.0
 11
1.0
 21
1.0
 12
210.0
 22
148.5
 13
0.0
 23
0.0
 14
10.0
 24
10.0
 15
10.0
 25
10.0
 16
0.0
 26
0.0
 36
1.0
 17
0.0
 27
0.0
 37
0.0
 40
341.0
 41
1.24
 42
50.0
 43
0.0
 44
0.0
 50
0.0
 51
0.0
 71
     0
 72
   100
 73
     1
 74
     3
 75
     0
 76
     0
 77
     0
 78
     0
  0
ENDTAB
  0
TABLE
  2
LTYPE
  5
5
330
0
100
AcDbSymbolTable
 70
     1
  0
LTYPE
  5
14
330
5
100
AcDbSymbolTableRecord
100
AcDbLinetypeTableRecord
  2
BYBLOCK
 70
     0
  3

 72
    65
 73
     0
 40
0.0
  0
LTYPE
  5
15
330
5
100
AcDbSymbolTableRecord
100
AcDbLinetypeTableRecord
  2
BYLAYER
 70
     0
  3

 72
    65
 73
     0
 40
0.0
  0
LTYPE
  5
16
330
5
100
AcDbSymbolTableRecord
100
AcDbLinetypeTableRecord
  2
CONTINUOUS
 70
     0
  3
Solid line
 72
    65
 73
     0
 40
0.0
  0
ENDTAB
  0
TABLE
  2
LAYER
  5
2
100
AcDbSymbolTable
 70
1
  0
LAYER
  5
50
100
AcDbSymbolTableRecord
100
AcDbLayerTableRecord
  2
0
 70
0
  6
CONTINUOUS
  0
ENDTAB
  0
TABLE
  2
STYLE
  5
3
330
0
100
AcDbSymbolTable
 70
     1
  0
STYLE
  5
11
330
3
100
AcDbSymbolTableRecord
100
AcDbTextStyleTableRecord
  2
STANDARD
 70
     0
 40
0.0
 41
1.0
 50
0.0
 71
     0
 42
2.5
  3
txt
  4

  0
ENDTAB
  0
TABLE
  2
VIEW
  5
6
330
0
100
AcDbSymbolTable
 70
     0
  0
ENDTAB
  0
TABLE
  2
UCS
  5
7
330
0
100
AcDbSymbolTable
 70
     0
  0
ENDTAB
  0
TABLE
  2
APPID
  5
9
330
0
100
AcDbSymbolTable
 70
     2
  0
APPID
  5
12
330
9
100
AcDbSymbolTableRecord
100
AcDbRegAppTableRecord
  2
ACAD
 70
     0
  0
ENDTAB
  0
TABLE
  2
DIMSTYLE
  5
A
330
0
100
AcDbSymbolTable
 70
     1
  0
DIMSTYLE
105
27
330
A
100
AcDbSymbolTableRecord
100
AcDbDimStyleTableRecord
  2
ISO-25
 70
     0
  3

  4

  5

  6

  7

 40
1.0
 41
2.5
 42
0.625
 43
3.75
 44
1.25
 45
0.0
 46
0.0
 47
0.0
 48
0.0
140
2.5
141
2.5
142
0.0
143
0.03937007874016
144
1.0
145
0.0
146
1.0
147
0.625
 71
     0
 72
     0
 73
     0
 74
     0
 75
     0
 76
     0
 77
     1
 78
     8
170
     0
171
     3
172
     1
173
     0
174
     0
175
     0
176
     0
177
     0
178
     0
270
     2
271
     2
272
     2
273
     2
274
     3
340
11
275
     0
280
     0
281
     0
282
     0
283
     0
284
     8
285
     0
286
     0
287
     3
288
     0
  0
ENDTAB
  0
TABLE
  2
BLOCK_RECORD
  5
1
330
0
100
AcDbSymbolTable
 70
     1
  0
BLOCK_RECORD
  5
1F
330
1
100
AcDbSymbolTableRecord
100
AcDbBlockTableRecord
  2
*MODEL_SPACE
  0
BLOCK_RECORD
  5
1B
330
1
100
AcDbSymbolTableRecord
100
AcDbBlockTableRecord
  2
*PAPER_SPACE
  0
ENDTAB
  0
ENDSEC
  0
SECTION
  2
BLOCKS
  0
BLOCK
  5
20
330
1F
100
AcDbEntity
  8
0
100
AcDbBlockBegin
  2
*MODEL_SPACE
 70
     0
 10
0.0
 20
0.0
 30
0.0
  3
*MODEL_SPACE
  1

  0
ENDBLK
  5
21
330
1F
100
AcDbEntity
  8
0
100
AcDbBlockEnd
  0
BLOCK
  5
1C
330
1B
100
AcDbEntity
 67
     1
  8
0
100
AcDbBlockBegin
  2
*PAPER_SPACE
  1

  0
ENDBLK
  5
1D
330
1B
100
AcDbEntity
 67
     1
  8
0
100
AcDbBlockEnd
  0
ENDSEC
  0
SECTION
  2
ENTITIES
  0
LWPOLYLINE
  5
100
100
AcDbEntity
  8
0
 62
7
100
AcDbPolyline
 90
8
 70
1
 10
27.190010
 20
37.913339
 30
0.0
 10
27.190010
 20
37.225263
 30
0.0
 10
27.676563
 20
36.738695
 30
0.0
 10
28.364653
 20
36.738695
 30
0.0
 10
28.851206
 20
37.225263
 30
0.0
 10
28.851206
 20
37.913339
 30
0.0
 10
28.364653
 20
38.399881
 30
0.0
 10
27.676563
 20
38.399881
 30
0.0
  0
SPLINE
  5
101
100
AcDbEntity
  8
0
 62
7
100
AcDbSpline
 70
0
 71
3
 72
16
 73
12
 74
10
 40
0.000000
 40
0.000000
 40
0.000000
 40
0.000000
 40
0.403470
 40
0.801101
 40
1.204571
 40
1.608040
 40
2.005672
 40
2.409141
 40
2.812611
 40
3.210243
 40
3.613712
 40
3.613712
 40
3.613712
 40
3.613712
 10
7.158207
 20
35.707904
 30
0.0
 10
7.293513
 20
35.695251
 30
0.0
 10
7.562167
 20
35.670128
 30
0.0
 10
7.918271
 20
35.459406
 30
0.0
 10
8.183310
 20
35.148856
 30
0.0
 10
8.323994
 20
34.763165
 30
0.0
 10
8.323994
 20
34.353812
 30
0.0
 10
8.183310
 20
33.968120
 30
0.0
 10
7.918271
 20
33.657571
 30
0.0
 10
7.562167
 20
33.446849
 30
0.0
 10
7.293513
 20
33.421725
 30
0.0
 10
7.158207
 20
33.409072
 30
0.0
 11
7.158207
 21
35.707904
 31
0.0
 11
7.556052
 21
35.640770
 31
0.0
 11
7.901624
 21
35.444071
 31
0.0
 11
8.162484
 21
35.136272
 31
0.0
 11
8.300943
 21
34.757304
 31
0.0
 11
8.300943
 21
34.359672
 31
0.0
 11
8.162484
 21
33.980705
 31
0.0
 11
7.901624
 21
33.672906
 31
0.0
 11
7.556052
 21
33.476207
 31
0.0
 11
7.158207
 21
33.409072
 31
0.0
  0
LWPOLYLINE
  5
102
100
AcDbEntity
  8
0
 62
7
100
AcDbPolyline
 90
2
 70
0
 10
7.158207
 20
33.409072
 30
0.0
 10
5.062504
 20
33.409072
 30
0.0
  0
SPLINE
  5
103
100
AcDbEntity
  8
0
 62
7
100
AcDbSpline
 70
0
 71
3
 72
16
 73
12
 74
10
 40
0.000000
 40
0.000000
 40
0.000000
 40
0.000000
 40
0.403470
 40
0.801101
 40
1.204571
 40
1.608040
 40
2.005672
 40
2.409141
 40
2.812611
 40
3.210243
 40
3.613712
 40
3.613712
 40
3.613712
 40
3.613712
 10
5.062504
 20
33.409072
 30
0.0
 10
4.927198
 20
33.421725
 30
0.0
 10
4.658543
 20
33.446849
 30
0.0
 10
4.302440
 20
33.657571
 30
0.0
 10
4.037400
 20
33.968120
 30
0.0
 10
3.896716
 20
34.353812
 30
0.0
 10
3.896716
 20
34.763165
 30
0.0
 10
4.037400
 20
35.148856
 30
0.0
 10
4.302440
 20
35.459406
 30
0.0
 10
4.658543
 20
35.670128
 30
0.0
 10
4.927198
 20
35.695251
 30
0.0
 10
5.062504
 20
35.707904
 30
0.0
 11
5.062504
 21
33.409072
 31
0.0
 11
4.664659
 21
33.476207
 31
0.0
 11
4.319086
 21
33.672906
 31
0.0
 11
4.058227
 21
33.980705
 31
0.0
 11
3.919767
 21
34.359672
 31
0.0
 11
3.919767
 21
34.757304
 31
0.0
 11
4.058227
 21
35.136272
 31
0.0
 11
4.319086
 21
35.444071
 31
0.0
 11
4.664659
 21
35.640770
 31
0.0
 11
5.062504
 21
35.707904
 31
0.0
  0
LWPOLYLINE
  5
104
100
AcDbEntity
  8
0
 62
7
100
AcDbPolyline
 90
2
 70
0
 10
5.062504
 20
35.707904
 30
0.0
 10
7.158207
 20
35.707904
 30
0.0
  0
SPLINE
  5
105
100
AcDbEntity
  8
0
 62
7
100
AcDbSpline
 70
0
 71
3
 72
25
 73
21
 74
19
 40
0.000000
 40
0.000000
 40
0.000000
 40
0.000000
 40
0.614037
 40
1.219287
 40
1.833324
 40
2.447362
 40
3.052611
 40
3.666649
 40
4.280686
 40
4.885936
 40
5.499973
 40
6.114010
 40
6.719260
 40
7.333297
 40
7.947335
 40
8.552584
 40
9.166622
 40
9.780659
 40
10.385909
 40
10.999946
 40
10.999946
 40
10.999946
 40
10.999946
 10
32.490208
 20
32.799313
 30
0.0
 10
32.469184
 20
33.005036
 30
0.0
 10
32.427438
 20
33.413538
 30
0.0
 10
32.103554
 20
33.953380
 30
0.0
 10
31.629334
 20
34.354738
 30
0.0
 10
31.042101
 20
34.567605
 30
0.0
 10
30.418980
 20
34.567605
 30
0.0
 10
29.832570
 20
34.354738
 30
0.0
 10
29.355065
 20
33.953380
 30
0.0
 10
29.043383
 20
33.413538
 30
0.0
 10
28.934559
 20
32.799313
 30
0.0
 10
29.043383
 20
32.185089
 30
0.0
 10
29.355065
 20
31.645247
 30
0.0
 10
29.832570
 20
31.243889
 30
0.0
 10
30.418980
 20
31.031022
 30
0.0
 10
31.042101
 20
31.031022
 30
0.0
 10
31.629334
 20
31.243889
 30
0.0
 10
32.103554
 20
31.645247
 30
0.0
 10
32.427438
 20
32.185089
 30
0.0
 10
32.469184
 20
32.593590
 30
0.0
 10
32.490208
 20
32.799313
 30
0.0
 11
32.490208
 21
32.799313
 31
0.0
 11
32.383095
 21
33.403936
 31
0.0
 11
32.080470
 21
33.928098
 31
0.0
 11
31.610408
 21
34.323172
 31
0.0
 11
31.033233
 21
34.532720
 31
0.0
 11
30.427983
 21
34.532720
 31
0.0
 11
29.850808
 21
34.323172
 31
0.0
 11
29.380746
 21
33.928098
 31
0.0
 11
29.078121
 21
33.403936
 31
0.0
 11
28.971007
 21
32.799313
 31
0.0
 11
29.078121
 21
32.194691
 31
0.0
 11
29.380746
 21
31.670529
 31
0.0
 11
29.850808
 21
31.275455
 31
0.0
 11
30.427983
 21
31.065907
 31
0.0
 11
31.033233
 21
31.065907
 31
0.0
 11
31.610408
 21
31.275455
 31
0.0
 11
32.080470
 21
31.670529
 31
0.0
 11
32.383095
 21
32.194691
 31
0.0
 11
32.490208
 21
32.799313
 31
0.0
  0
LWPOLYLINE
  5
106
100
AcDbEntity
  8
0
 62
7
100
AcDbPolyline
 90
1
 70
1
 10
32.490208
 20
32.799313
 30
0.0
  0
LWPOLYLINE
  5
107
100
AcDbEntity
  8
0
 62
7
100
AcDbPolyline
 90
1
 70
1
 10
26.882208
 20
12.099319
 30
0.0
  0
SPLINE
  5
108
100
AcDbEntity
  8
0
 62
7
100
AcDbSpline
 70
0
 71
3
 72
25
 73
21
 74
19
 40
0.000000
 40
0.000000
 40
0.000000
 40
0.000000
 40
0.297178
 40
0.590102
 40
0.887280
 40
1.184458
 40
1.477383
 40
1.774561
 40
2.071738
 40
2.364663
 40
2.661841
 40
2.959019
 40
3.251943
 40
3.549121
 40
3.846299
 40
4.139224
 40
4.436401
 40
4.733579
 40
5.026504
 40
5.323682
 40
5.323682
 40
5.323682
 40
5.323682
 10
26.882208
 20
12.099319
 30
0.0
 10
26.872033
 20
12.198883
 30
0.0
 10
26.851829
 20
12.396587
 30
0.0
 10
26.695078
 20
12.657856
 30
0.0
 10
26.465568
 20
12.852103
 30
0.0
 10
26.181363
 20
12.955125
 30
0.0
 10
25.879789
 20
12.955125
 30
0.0
 10
25.595982
 20
12.852103
 30
0.0
 10
25.364882
 20
12.657856
 30
0.0
 10
25.214036
 20
12.396587
 30
0.0
 10
25.161369
 20
12.099319
 30
0.0
 10
25.214036
 20
11.802050
 30
0.0
 10
25.364882
 20
11.540781
 30
0.0
 10
25.595982
 20
11.346535
 30
0.0
 10
25.879789
 20
11.243513
 30
0.0
 10
26.181363
 20
11.243513
 30
0.0
 10
26.465568
 20
11.346535
 30
0.0
 10
26.695078
 20
11.540781
 30
0.0
 10
26.851829
 20
11.802050
 30
0.0
 10
26.872033
 20
11.999754
 30
0.0
 10
26.882208
 20
12.099319
 30
0.0
 11
26.882208
 21
12.099319
 31
0.0
 11
26.830368
 21
12.391940
 31
0.0
 11
26.683906
 21
12.645620
 31
0.0
 11
26.456408
 21
12.836826
 31
0.0
 11
26.177071
 21
12.938242
 31
0.0
 11
25.884146
 21
12.938242
 31
0.0
 11
25.604809
 21
12.836826
 31
0.0
 11
25.377311
 21
12.645620
 31
0.0
 11
25.230849
 21
12.391940
 31
0.0
 11
25.179009
 21
12.099319
 31
0.0
 11
25.230849
 21
11.806698
 31
0.0
 11
25.377311
 21
11.553017
 31
0.0
 11
25.604809
 21
11.361812
 31
0.0
 11
25.884146
 21
11.260396
 31
0.0
 11
26.177071
 21
11.260396
 31
0.0
 11
26.456408
 21
11.361812
 31
0.0
 11
26.683906
 21
11.553017
 31
0.0
 11
26.830368
 21
11.806698
 31
0.0
 11
26.882208
 21
12.099319
 31
0.0
  0
LWPOLYLINE
  5
109
100
AcDbEntity
  8
0
 62
7
100
AcDbPolyline
 90
8
 70
1
 10
27.190010
 20
40.413360
 30
0.0
 10
27.190010
 20
39.725258
 30
0.0
 10
27.676563
 20
39.238716
 30
0.0
 10
28.364653
 20
39.238716
 30
0.0
 10
28.851206
 20
39.725258
 30
0.0
 10
28.851206
 20
40.413360
 30
0.0
 10
28.364653
 20
40.899903
 30
0.0
 10
27.676563
 20
40.899903
 30
0.0
  0
SPLINE
  5
10a
100
AcDbEntity
  8
0
 62
7
100
AcDbSpline
 70
0
 71
3
 72
25
 73
21
 74
19
 40
0.000000
 40
0.000000
 40
0.000000
 40
0.000000
 40
0.375694
 40
0.746012
 40
1.121706
 40
1.497400
 40
1.867717
 40
2.243412
 40
2.619106
 40
2.989423
 40
3.365117
 40
3.740811
 40
4.111129
 40
4.486823
 40
4.862517
 40
5.232835
 40
5.608529
 40
5.984223
 40
6.354540
 40
6.730235
 40
6.730235
 40
6.730235
 40
6.730235
 10
18.107206
 20
25.099303
 30
0.0
 10
18.094343
 20
25.225173
 30
0.0
 10
18.068801
 20
25.475112
 30
0.0
 10
17.870635
 20
25.805410
 30
0.0
 10
17.580487
 20
26.050978
 30
0.0
 10
17.221192
 20
26.181219
 30
0.0
 10
16.839941
 20
26.181219
 30
0.0
 10
16.481150
 20
26.050978
 30
0.0
 10
16.188992
 20
25.805410
 30
0.0
 10
15.998292
 20
25.475112
 30
0.0
 10
15.931709
 20
25.099303
 30
0.0
 10
15.998292
 20
24.723494
 30
0.0
 10
16.188992
 20
24.393197
 30
0.0
 10
16.481150
 20
24.147629
 30
0.0
 10
16.839941
 20
24.017388
 30
0.0
 10
17.221192
 20
24.017388
 30
0.0
 10
17.580487
 20
24.147629
 30
0.0
 10
17.870635
 20
24.393197
 30
0.0
 10
18.068801
 20
24.723494
 30
0.0
 10
18.094343
 20
24.973433
 30
0.0
 10
18.107206
 20
25.099303
 30
0.0
 11
18.107206
 21
25.099303
 31
0.0
 11
18.041670
 21
25.469237
 31
0.0
 11
17.856511
 21
25.789942
 31
0.0
 11
17.568907
 21
26.031665
 31
0.0
 11
17.215767
 21
26.159875
 31
0.0
 11
16.845449
 21
26.159875
 31
0.0
 11
16.492309
 21
26.031665
 31
0.0
 11
16.204705
 21
25.789942
 31
0.0
 11
16.019546
 21
25.469237
 31
0.0
 11
15.954010
 21
25.099303
 31
0.0
 11
16.019546
 21
24.729370
 31
0.0
 11
16.204705
 21
24.408665
 31
0.0
 11
16.492309
 21
24.166942
 31
0.0
 11
16.845449
 21
24.038731
 31
0.0
 11
17.215767
 21
24.038731
 31
0.0
 11
17.568907
 21
24.166942
 31
0.0
 11
17.856511
 21
24.408665
 31
0.0
 11
18.041670
 21
24.729370
 31
0.0
 11
18.107206
 21
25.099303
 31
0.0
  0
LWPOLYLINE
  5
10b
100
AcDbEntity
  8
0
 62
7
100
AcDbPolyline
 90
1
 70
1
 10
18.107206
 20
25.099303
 30
0.0
  0
SPLINE
  5
10c
100
AcDbEntity
  8
0
 62
7
100
AcDbSpline
 70
0
 71
3
 72
25
 73
21
 74
19
 40
0.000000
 40
0.000000
 40
0.000000
 40
0.000000
 40
0.297178
 40
0.590103
 40
0.887281
 40
1.184459
 40
1.477384
 40
1.774562
 40
2.071740
 40
2.364664
 40
2.661842
 40
2.959020
 40
3.251945
 40
3.549123
 40
3.846301
 40
4.139226
 40
4.436404
 40
4.733582
 40
5.026507
 40
5.323685
 40
5.323685
 40
5.323685
 40
5.323685
 10
28.882209
 20
12.099319
 30
0.0
 10
28.872034
 20
12.198883
 30
0.0
 10
28.851830
 20
12.396588
 30
0.0
 10
28.695078
 20
12.657857
 30
0.0
 10
28.465568
 20
12.852103
 30
0.0
 10
28.181363
 20
12.955125
 30
0.0
 10
27.879789
 20
12.955125
 30
0.0
 10
27.595982
 20
12.852103
 30
0.0
 10
27.364882
 20
12.657857
 30
0.0
 10
27.214036
 20
12.396588
 30
0.0
 10
27.161368
 20
12.099319
 30
0.0
 10
27.214036
 20
11.802050
 30
0.0
 10
27.364882
 20
11.540781
 30
0.0
 10
27.595982
 20
11.346534
 30
0.0
 10
27.879789
 20
11.243512
 30
0.0
 10
28.181363
 20
11.243512
 30
0.0
 10
28.465568
 20
11.346534
 30
0.0
 10
28.695078
 20
11.540781
 30
0.0
 10
28.851830
 20
11.802050
 30
0.0
 10
28.872034
 20
11.999754
 30
0.0
 10
28.882209
 20
12.099319
 30
0.0
 11
28.882209
 21
12.099319
 31
0.0
 11
28.830369
 21
12.391940
 31
0.0
 11
28.683906
 21
12.645621
 31
0.0
 11
28.456409
 21
12.836826
 31
0.0
 11
28.177071
 21
12.938242
 31
0.0
 11
27.884146
 21
12.938242
 31
0.0
 11
27.604808
 21
12.836826
 31
0.0
 11
27.377311
 21
12.645621
 31
0.0
 11
27.230848
 21
12.391940
 31
0.0
 11
27.179008
 21
12.099319
 31
0.0
 11
27.230848
 21
11.806697
 31
0.0
 11
27.377311
 21
11.553017
 31
0.0
 11
27.604808
 21
11.361811
 31
0.0
 11
27.884146
 21
11.260395
 31
0.0
 11
28.177071
 21
11.260395
 31
0.0
 11
28.456409
 21
11.361811
 31
0.0
 11
28.683906
 21
11.553017
 31
0.0
 11
28.830369
 21
11.806697
 31
0.0
 11
28.882209
 21
12.099319
 31
0.0
  0
LWPOLYLINE
  5
10d
100
AcDbEntity
  8
0
 62
7
100
AcDbPolyline
 90
1
 70
1
 10
28.882209
 20
12.099319
 30
0.0
  0
SPLINE
  5
10e
100
AcDbEntity
  8
0
 62
7
100
AcDbSpline
 70
0
 71
3
 72
16
 73
12
 74
10
 40
0.000000
 40
0.000000
 40
0.000000
 40
0.000000
 40
0.403470
 40
0.801101
 40
1.204571
 40
1.608040
 40
2.005672
 40
2.409141
 40
2.812611
 40
3.210243
 40
3.613712
 40
3.613712
 40
3.613712
 40
3.613712
 10
7.158207
 20
40.787984
 30
0.0
 10
7.293513
 20
40.775331
 30
0.0
 10
7.562167
 20
40.750207
 30
0.0
 10
7.918271
 20
40.539485
 30
0.0
 10
8.183310
 20
40.228936
 30
0.0
 10
8.323994
 20
39.843244
 30
0.0
 10
8.323994
 20
39.433891
 30
0.0
 10
8.183310
 20
39.048200
 30
0.0
 10
7.918271
 20
38.737650
 30
0.0
 10
7.562167
 20
38.526928
 30
0.0
 10
7.293513
 20
38.501805
 30
0.0
 10
7.158207
 20
38.489152
 30
0.0
 11
7.158207
 21
40.787984
 31
0.0
 11
7.556052
 21
40.720849
 31
0.0
 11
7.901624
 21
40.524150
 31
0.0
 11
8.162484
 21
40.216351
 31
0.0
 11
8.300943
 21
39.837384
 31
0.0
 11
8.300943
 21
39.439752
 31
0.0
 11
8.162484
 21
39.060784
 31
0.0
 11
7.901624
 21
38.752985
 31
0.0
 11
7.556052
 21
38.556286
 31
0.0
 11
7.158207
 21
38.489152
 31
0.0
  0
LWPOLYLINE
  5
10f
100
AcDbEntity
  8
0
 62
7
100
AcDbPolyline
 90
2
 70
0
 10
7.158207
 20
38.489152
 30
0.0
 10
5.062504
 20
38.489152
 30
0.0
  0
SPLINE
  5
110
100
AcDbEntity
  8
0
 62
7
100
AcDbSpline
 70
0
 71
3
 72
16
 73
12
 74
10
 40
0.000000
 40
0.000000
 40
0.000000
 40
0.000000
 40
0.403470
 40
0.801101
 40
1.204571
 40
1.608040
 40
2.005672
 40
2.409141
 40
2.812611
 40
3.210243
 40
3.613712
 40
3.613712
 40
3.613712
 40
3.613712
 10
5.062504
 20
38.489152
 30
0.0
 10
4.927198
 20
38.501805
 30
0.0
 10
4.658543
 20
38.526928
 30
0.0
 10
4.302440
 20
38.737650
 30
0.0
 10
4.037400
 20
39.048200
 30
0.0
 10
3.896716
 20
39.433891
 30
0.0
 10
3.896716
 20
39.843244
 30
0.0
 10
4.037400
 20
40.228936
 30
0.0
 10
4.302440
 20
40.539485
 30
0.0
 10
4.658543
 20
40.750207
 30
0.0
 10
4.927198
 20
40.775331
 30
0.0
 10
5.062504
 20
40.787984
 30
0.0
 11
5.062504
 21
38.489152
 31
0.0
 11
4.664659
 21
38.556286
 31
0.0
 11
4.319086
 21
38.752985
 31
0.0
 11
4.058227
 21
39.060784
 31
0.0
 11
3.919767
 21
39.439752
 31
0.0
 11
3.919767
 21
39.837384
 31
0.0
 11
4.058227
 21
40.216351
 31
0.0
 11
4.319086
 21
40.524150
 31
0.0
 11
4.664659
 21
40.720849
 31
0.0
 11
5.062504
 21
40.787984
 31
0.0
  0
LWPOLYLINE
  5
111
100
AcDbEntity
  8
0
 62
7
100
AcDbPolyline
 90
2
 70
0
 10
5.062504
 20
40.787984
 30
0.0
 10
7.158207
 20
40.787984
 30
0.0
  0
SPLINE
  5
112
100
AcDbEntity
  8
0
 62
7
100
AcDbSpline
 70
0
 71
3
 72
25
 73
21
 74
19
 40
0.000000
 40
0.000000
 40
0.000000
 40
0.000000
 40
0.614037
 40
1.219287
 40
1.833324
 40
2.447362
 40
3.052611
 40
3.666649
 40
4.280686
 40
4.885936
 40
5.499973
 40
6.114010
 40
6.719260
 40
7.333297
 40
7.947335
 40
8.552584
 40
9.166622
 40
9.780659
 40
10.385909
 40
10.999946
 40
10.999946
 40
10.999946
 40
10.999946
 10
32.490208
 20
44.839310
 30
0.0
 10
32.469184
 20
45.045033
 30
0.0
 10
32.427438
 20
45.453535
 30
0.0
 10
32.103554
 20
45.993377
 30
0.0
 10
31.629334
 20
46.394735
 30
0.0
 10
31.042101
 20
46.607602
 30
0.0
 10
30.418980
 20
46.607602
 30
0.0
 10
29.832570
 20
46.394735
 30
0.0
 10
29.355065
 20
45.993377
 30
0.0
 10
29.043383
 20
45.453535
 30
0.0
 10
28.934559
 20
44.839310
 30
0.0
 10
29.043383
 20
44.225085
 30
0.0
 10
29.355065
 20
43.685244
 30
0.0
 10
29.832570
 20
43.283886
 30
0.0
 10
30.418980
 20
43.071019
 30
0.0
 10
31.042101
 20
43.071019
 30
0.0
 10
31.629334
 20
43.283886
 30
0.0
 10
32.103554
 20
43.685244
 30
0.0
 10
32.427438
 20
44.225085
 30
0.0
 10
32.469184
 20
44.633587
 30
0.0
 10
32.490208
 20
44.839310
 30
0.0
 11
32.490208
 21
44.839310
 31
0.0
 11
32.383095
 21
45.443933
 31
0.0
 11
32.080470
 21
45.968094
 31
0.0
 11
31.610408
 21
46.363169
 31
0.0
 11
31.033233
 21
46.572717
 31
0.0
 11
30.427983
 21
46.572717
 31
0.0
 11
29.850808
 21
46.363169
 31
0.0
 11
29.380746
 21
45.968094
 31
0.0
 11
29.078121
 21
45.443933
 31
0.0
 11
28.971007
 21
44.839310
 31
0.0
 11
29.078121
 21
44.234688
 31
0.0
 11
29.380746
 21
43.710526
 31
0.0
 11
29.850808
 21
43.315452
 31
0.0
 11
30.427983
 21
43.105903
 31
0.0
 11
31.033233
 21
43.105903
 31
0.0
 11
31.610408
 21
43.315452
 31
0.0
 11
32.080470
 21
43.710526
 31
0.0
 11
32.383095
 21
44.234688
 31
0.0
 11
32.490208
 21
44.839310
 31
0.0
  0
LWPOLYLINE
  5
113
100
AcDbEntity
  8
0
 62
7
100
AcDbPolyline
 90
1
 70
1
 10
32.490208
 20
44.839310
 30
0.0
  0
SPLINE
  5
114
100
AcDbEntity
  8
0
 62
7
100
AcDbSpline
 70
0
 71
3
 72
25
 73
21
 74
19
 40
0.000000
 40
0.000000
 40
0.000000
 40
0.000000
 40
0.375694
 40
0.746012
 40
1.121706
 40
1.497400
 40
1.867717
 40
2.243412
 40
2.619106
 40
2.989423
 40
3.365117
 40
3.740811
 40
4.111129
 40
4.486823
 40
4.862517
 40
5.232835
 40
5.608529
 40
5.984223
 40
6.354540
 40
6.730235
 40
6.730235
 40
6.730235
 40
6.730235
 10
6.107208
 20
12.899313
 30
0.0
 10
6.094345
 20
13.025183
 30
0.0
 10
6.068803
 20
13.275122
 30
0.0
 10
5.870637
 20
13.605420
 30
0.0
 10
5.580489
 20
13.850988
 30
0.0
 10
5.221195
 20
13.981229
 30
0.0
 10
4.839943
 20
13.981229
 30
0.0
 10
4.481152
 20
13.850988
 30
0.0
 10
4.188994
 20
13.605420
 30
0.0
 10
3.998294
 20
13.275122
 30
0.0
 10
3.931711
 20
12.899313
 30
0.0
 10
3.998294
 20
12.523504
 30
0.0
 10
4.188994
 20
12.193206
 30
0.0
 10
4.481152
 20
11.947638
 30
0.0
 10
4.839943
 20
11.817397
 30
0.0
 10
5.221195
 20
11.817397
 30
0.0
 10
5.580489
 20
11.947638
 30
0.0
 10
5.870637
 20
12.193206
 30
0.0
 10
6.068803
 20
12.523504
 30
0.0
 10
6.094345
 20
12.773443
 30
0.0
 10
6.107208
 20
12.899313
 30
0.0
 11
6.107208
 21
12.899313
 31
0.0
 11
6.041672
 21
13.269247
 31
0.0
 11
5.856513
 21
13.589951
 31
0.0
 11
5.568909
 21
13.831674
 31
0.0
 11
5.215769
 21
13.959885
 31
0.0
 11
4.845451
 21
13.959885
 31
0.0
 11
4.492311
 21
13.831674
 31
0.0
 11
4.204707
 21
13.589951
 31
0.0
 11
4.019548
 21
13.269247
 31
0.0
 11
3.954012
 21
12.899313
 31
0.0
 11
4.019548
 21
12.529379
 31
0.0
 11
4.204707
 21
12.208675
 31
0.0
 11
4.492311
 21
11.966951
 31
0.0
 11
4.845451
 21
11.838741
 31
0.0
 11
5.215769
 21
11.838741
 31
0.0
 11
5.568909
 21
11.966951
 31
0.0
 11
5.856513
 21
12.208675
 31
0.0
 11
6.041672
 21
12.529379
 31
0.0
 11
6.107208
 21
12.899313
 31
0.0
  0
LWPOLYLINE
  5
115
100
AcDbEntity
  8
0
 62
7
100
AcDbPolyline
 90
1
 70
1
 10
6.107208
 20
12.899313
 30
0.0
  0
SPLINE
  5
116
100
AcDbEntity
  8
0
 62
7
100
AcDbSpline
 70
0
 71
3
 72
25
 73
21
 74
19
 40
0.000000
 40
0.000000
 40
0.000000
 40
0.000000
 40
0.320733
 40
0.636875
 40
0.957608
 40
1.278341
 40
1.594483
 40
1.915216
 40
2.235949
 40
2.552091
 40
2.872824
 40
3.193557
 40
3.509700
 40
3.830432
 40
4.151165
 40
4.467308
 40
4.788040
 40
5.108773
 40
5.424916
 40
5.745648
 40
5.745648
 40
5.745648
 40
5.745648
 10
24.409707
 20
61.599315
 30
0.0
 10
24.398726
 20
61.706771
 30
0.0
 10
24.376920
 20
61.920146
 30
0.0
 10
24.207744
 20
62.202123
 30
0.0
 10
23.960043
 20
62.411766
 30
0.0
 10
23.653311
 20
62.522954
 30
0.0
 10
23.327834
 20
62.522954
 30
0.0
 10
23.021531
 20
62.411766
 30
0.0
 10
22.772114
 20
62.202123
 30
0.0
 10
22.609312
 20
61.920146
 30
0.0
 10
22.552470
 20
61.599315
 30
0.0
 10
22.609312
 20
61.278484
 30
0.0
 10
22.772114
 20
60.996507
 30
0.0
 10
23.021531
 20
60.786864
 30
0.0
 10
23.327834
 20
60.675676
 30
0.0
 10
23.653311
 20
60.675676
 30
0.0
 10
23.960043
 20
60.786864
 30
0.0
 10
24.207744
 20
60.996507
 30
0.0
 10
24.376920
 20
61.278484
 30
0.0
 10
24.398726
 20
61.491859
 30
0.0
 10
24.409707
 20
61.599315
 30
0.0
 11
24.409707
 21
61.599315
 31
0.0
 11
24.353758
 21
61.915130
 31
0.0
 11
24.195687
 21
62.188918
 31
0.0
 11
23.950157
 21
62.395279
 31
0.0
 11
23.648679
 21
62.504733
 31
0.0
 11
23.332536
 21
62.504733
 31
0.0
 11
23.031058
 21
62.395279
 31
0.0
 11
22.785528
 21
62.188918
 31
0.0
 11
22.627457
 21
61.915130
 31
0.0
 11
22.571508
 21
61.599315
 31
0.0
 11
22.627457
 21
61.283500
 31
0.0
 11
22.785528
 21
61.009712
 31
0.0
 11
23.031058
 21
60.803352
 31
0.0
 11
23.332536
 21
60.693897
 31
0.0
 11
23.648679
 21
60.693897
 31
0.0
 11
23.950157
 21
60.803352
 31
0.0
 11
24.195687
 21
61.009712
 31
0.0
 11
24.353758
 21
61.283500
 31
0.0
 11
24.409707
 21
61.599315
 31
0.0
  0
LWPOLYLINE
  5
117
100
AcDbEntity
  8
0
 62
7
100
AcDbPolyline
 90
1
 70
1
 10
24.409707
 20
61.599315
 30
0.0
  0
SPLINE
  5
118
100
AcDbEntity
  8
0
 62
7
100
AcDbSpline
 70
0
 71
3
 72
25
 73
21
 74
19
 40
0.000000
 40
0.000000
 40
0.000000
 40
0.000000
 40
0.320733
 40
0.636875
 40
0.957608
 40
1.278341
 40
1.594483
 40
1.915216
 40
2.235949
 40
2.552091
 40
2.872824
 40
3.193557
 40
3.509700
 40
3.830432
 40
4.151165
 40
4.467308
 40
4.788040
 40
5.108773
 40
5.424916
 40
5.745648
 40
5.745648
 40
5.745648
 40
5.745648
 10
24.409707
 20
59.059315
 30
0.0
 10
24.398726
 20
59.166771
 30
0.0
 10
24.376920
 20
59.380146
 30
0.0
 10
24.207744
 20
59.662123
 30
0.0
 10
23.960043
 20
59.871766
 30
0.0
 10
23.653311
 20
59.982954
 30
0.0
 10
23.327834
 20
59.982954
 30
0.0
 10
23.021531
 20
59.871766
 30
0.0
 10
22.772114
 20
59.662123
 30
0.0
 10
22.609312
 20
59.380146
 30
0.0
 10
22.552470
 20
59.059315
 30
0.0
 10
22.609312
 20
58.738484
 30
0.0
 10
22.772114
 20
58.456507
 30
0.0
 10
23.021531
 20
58.246864
 30
0.0
 10
23.327834
 20
58.135676
 30
0.0
 10
23.653311
 20
58.135676
 30
0.0
 10
23.960043
 20
58.246864
 30
0.0
 10
24.207744
 20
58.456507
 30
0.0
 10
24.376920
 20
58.738484
 30
0.0
 10
24.398726
 20
58.951859
 30
0.0
 10
24.409707
 20
59.059315
 30
0.0
 11
24.409707
 21
59.059315
 31
0.0
 11
24.353758
 21
59.375130
 31
0.0
 11
24.195687
 21
59.648918
 31
0.0
 11
23.950157
 21
59.855279
 31
0.0
 11
23.648679
 21
59.964733
 31
0.0
 11
23.332536
 21
59.964733
 31
0.0
 11
23.031058
 21
59.855279
 31
0.0
 11
22.785528
 21
59.648918
 31
0.0
 11
22.627457
 21
59.375130
 31
0.0
 11
22.571508
 21
59.059315
 31
0.0
 11
22.627457
 21
58.743500
 31
0.0
 11
22.785528
 21
58.469712
 31
0.0
 11
23.031058
 21
58.263352
 31
0.0
 11
23.332536
 21
58.153897
 31
0.0
 11
23.648679
 21
58.153897
 31
0.0
 11
23.950157
 21
58.263352
 31
0.0
 11
24.195687
 21
58.469712
 31
0.0
 11
24.353758
 21
58.743500
 31
0.0
 11
24.409707
 21
59.059315
 31
0.0
  0
LWPOLYLINE
  5
119
100
AcDbEntity
  8
0
 62
7
100
AcDbPolyline
 90
1
 70
1
 10
24.409707
 20
59.059315
 30
0.0
  0
LWPOLYLINE
  5
11a
100
AcDbEntity
  8
0
 62
7
100
AcDbPolyline
 90
1
 70
1
 10
24.409707
 20
64.139315
 30
0.0
  0
SPLINE
  5
11b
100
AcDbEntity
  8
0
 62
7
100
AcDbSpline
 70
0
 71
3
 72
25
 73
21
 74
19
 40
0.000000
 40
0.000000
 40
0.000000
 40
0.000000
 40
0.320733
 40
0.636875
 40
0.957608
 40
1.278341
 40
1.594483
 40
1.915216
 40
2.235949
 40
2.552091
 40
2.872824
 40
3.193557
 40
3.509700
 40
3.830432
 40
4.151165
 40
4.467308
 40
4.788040
 40
5.108773
 40
5.424916
 40
5.745648
 40
5.745648
 40
5.745648
 40
5.745648
 10
24.409707
 20
64.139315
 30
0.0
 10
24.398726
 20
64.246771
 30
0.0
 10
24.376920
 20
64.460146
 30
0.0
 10
24.207744
 20
64.742123
 30
0.0
 10
23.960043
 20
64.951766
 30
0.0
 10
23.653311
 20
65.062954
 30
0.0
 10
23.327834
 20
65.062954
 30
0.0
 10
23.021531
 20
64.951766
 30
0.0
 10
22.772114
 20
64.742123
 30
0.0
 10
22.609312
 20
64.460146
 30
0.0
 10
22.552470
 20
64.139315
 30
0.0
 10
22.609312
 20
63.818484
 30
0.0
 10
22.772114
 20
63.536507
 30
0.0
 10
23.021531
 20
63.326864
 30
0.0
 10
23.327834
 20
63.215676
 30
0.0
 10
23.653311
 20
63.215676
 30
0.0
 10
23.960043
 20
63.326864
 30
0.0
 10
24.207744
 20
63.536507
 30
0.0
 10
24.376920
 20
63.818484
 30
0.0
 10
24.398726
 20
64.031859
 30
0.0
 10
24.409707
 20
64.139315
 30
0.0
 11
24.409707
 21
64.139315
 31
0.0
 11
24.353758
 21
64.455130
 31
0.0
 11
24.195687
 21
64.728918
 31
0.0
 11
23.950157
 21
64.935279
 31
0.0
 11
23.648679
 21
65.044733
 31
0.0
 11
23.332536
 21
65.044733
 31
0.0
 11
23.031058
 21
64.935279
 31
0.0
 11
22.785528
 21
64.728918
 31
0.0
 11
22.627457
 21
64.455130
 31
0.0
 11
22.571508
 21
64.139315
 31
0.0
 11
22.627457
 21
63.823500
 31
0.0
 11
22.785528
 21
63.549712
 31
0.0
 11
23.031058
 21
63.343352
 31
0.0
 11
23.332536
 21
63.233897
 31
0.0
 11
23.648679
 21
63.233897
 31
0.0
 11
23.950157
 21
63.343352
 31
0.0
 11
24.195687
 21
63.549712
 31
0.0
 11
24.353758
 21
63.823500
 31
0.0
 11
24.409707
 21
64.139315
 31
0.0
  0
LWPOLYLINE
  5
11c
100
AcDbEntity
  8
0
 62
7
100
AcDbPolyline
 90
8
 70
1
 10
25.190009
 20
40.413360
 30
0.0
 10
25.190010
 20
39.725258
 30
0.0
 10
25.676563
 20
39.238716
 30
0.0
 10
26.364653
 20
39.238716
 30
0.0
 10
26.851206
 20
39.725258
 30
0.0
 10
26.851206
 20
40.413360
 30
0.0
 10
26.364653
 20
40.899903
 30
0.0
 10
25.676562
 20
40.899903
 30
0.0
  0
SPLINE
  5
11d
100
AcDbEntity
  8
0
 62
7
100
AcDbSpline
 70
0
 71
3
 72
25
 73
21
 74
19
 40
0.000000
 40
0.000000
 40
0.000000
 40
0.000000
 40
0.320733
 40
0.636875
 40
0.957608
 40
1.278341
 40
1.594484
 40
1.915216
 40
2.235949
 40
2.552092
 40
2.872825
 40
3.193558
 40
3.509700
 40
3.830433
 40
4.151166
 40
4.467308
 40
4.788041
 40
5.108774
 40
5.424917
 40
5.745649
 40
5.745649
 40
5.745649
 40
5.745649
 10
29.489707
 20
64.139315
 30
0.0
 10
29.478726
 20
64.246771
 30
0.0
 10
29.456921
 20
64.460146
 30
0.0
 10
29.287745
 20
64.742124
 30
0.0
 10
29.040043
 20
64.951767
 30
0.0
 10
28.733311
 20
65.062954
 30
0.0
 10
28.407834
 20
65.062954
 30
0.0
 10
28.101532
 20
64.951767
 30
0.0
 10
27.852115
 20
64.742124
 30
0.0
 10
27.689312
 20
64.460146
 30
0.0
 10
27.632470
 20
64.139315
 30
0.0
 10
27.689312
 20
63.818484
 30
0.0
 10
27.852115
 20
63.536507
 30
0.0
 10
28.101532
 20
63.326863
 30
0.0
 10
28.407834
 20
63.215676
 30
0.0
 10
28.733311
 20
63.215676
 30
0.0
 10
29.040043
 20
63.326863
 30
0.0
 10
29.287745
 20
63.536507
 30
0.0
 10
29.456921
 20
63.818484
 30
0.0
 10
29.478726
 20
64.031859
 30
0.0
 10
29.489707
 20
64.139315
 30
0.0
 11
29.489707
 21
64.139315
 31
0.0
 11
29.433758
 21
64.455130
 31
0.0
 11
29.275687
 21
64.728918
 31
0.0
 11
29.030158
 21
64.935279
 31
0.0
 11
28.728679
 21
65.044733
 31
0.0
 11
28.412536
 21
65.044733
 31
0.0
 11
28.111058
 21
64.935279
 31
0.0
 11
27.865529
 21
64.728918
 31
0.0
 11
27.707457
 21
64.455130
 31
0.0
 11
27.651508
 21
64.139315
 31
0.0
 11
27.707457
 21
63.823500
 31
0.0
 11
27.865529
 21
63.549712
 31
0.0
 11
28.111058
 21
63.343351
 31
0.0
 11
28.412536
 21
63.233897
 31
0.0
 11
28.728679
 21
63.233897
 31
0.0
 11
29.030158
 21
63.343351
 31
0.0
 11
29.275687
 21
63.549712
 31
0.0
 11
29.433758
 21
63.823500
 31
0.0
 11
29.489707
 21
64.139315
 31
0.0
  0
LWPOLYLINE
  5
11e
100
AcDbEntity
  8
0
 62
7
100
AcDbPolyline
 90
1
 70
1
 10
29.489707
 20
64.139315
 30
0.0
  0
LWPOLYLINE
  5
11f
100
AcDbEntity
  8
0
 62
7
100
AcDbPolyline
 90
1
 70
1
 10
29.489707
 20
59.059315
 30
0.0
  0
SPLINE
  5
120
100
AcDbEntity
  8
0
 62
7
100
AcDbSpline
 70
0
 71
3
 72
25
 73
21
 74
19
 40
0.000000
 40
0.000000
 40
0.000000
 40
0.000000
 40
0.320733
 40
0.636875
 40
0.957608
 40
1.278341
 40
1.594484
 40
1.915216
 40
2.235949
 40
2.552092
 40
2.872825
 40
3.193558
 40
3.509700
 40
3.830433
 40
4.151166
 40
4.467308
 40
4.788041
 40
5.108774
 40
5.424917
 40
5.745649
 40
5.745649
 40
5.745649
 40
5.745649
 10
29.489707
 20
59.059315
 30
0.0
 10
29.478726
 20
59.166771
 30
0.0
 10
29.456921
 20
59.380146
 30
0.0
 10
29.287745
 20
59.662124
 30
0.0
 10
29.040043
 20
59.871767
 30
0.0
 10
28.733311
 20
59.982954
 30
0.0
 10
28.407834
 20
59.982954
 30
0.0
 10
28.101532
 20
59.871767
 30
0.0
 10
27.852115
 20
59.662124
 30
0.0
 10
27.689312
 20
59.380146
 30
0.0
 10
27.632470
 20
59.059315
 30
0.0
 10
27.689312
 20
58.738484
 30
0.0
 10
27.852115
 20
58.456507
 30
0.0
 10
28.101532
 20
58.246863
 30
0.0
 10
28.407834
 20
58.135676
 30
0.0
 10
28.733311
 20
58.135676
 30
0.0
 10
29.040043
 20
58.246863
 30
0.0
 10
29.287745
 20
58.456507
 30
0.0
 10
29.456921
 20
58.738484
 30
0.0
 10
29.478726
 20
58.951859
 30
0.0
 10
29.489707
 20
59.059315
 30
0.0
 11
29.489707
 21
59.059315
 31
0.0
 11
29.433758
 21
59.375130
 31
0.0
 11
29.275687
 21
59.648918
 31
0.0
 11
29.030158
 21
59.855279
 31
0.0
 11
28.728679
 21
59.964733
 31
0.0
 11
28.412536
 21
59.964733
 31
0.0
 11
28.111058
 21
59.855279
 31
0.0
 11
27.865529
 21
59.648918
 31
0.0
 11
27.707457
 21
59.375130
 31
0.0
 11
27.651508
 21
59.059315
 31
0.0
 11
27.707457
 21
58.743500
 31
0.0
 11
27.865529
 21
58.469712
 31
0.0
 11
28.111058
 21
58.263351
 31
0.0
 11
28.412536
 21
58.153897
 31
0.0
 11
28.728679
 21
58.153897
 31
0.0
 11
29.030158
 21
58.263351
 31
0.0
 11
29.275687
 21
58.469712
 31
0.0
 11
29.433758
 21
58.743500
 31
0.0
 11
29.489707
 21
59.059315
 31
0.0
  0
LWPOLYLINE
  5
121
100
AcDbEntity
  8
0
 62
7
100
AcDbPolyline
 90
8
 70
1
 10
25.190009
 20
37.913339
 30
0.0
 10
25.190010
 20
37.225263
 30
0.0
 10
25.676563
 20
36.738695
 30
0.0
 10
26.364653
 20
36.738695
 30
0.0
 10
26.851206
 20
37.225263
 30
0.0
 10
26.851206
 20
37.913339
 30
0.0
 10
26.364653
 20
38.399881
 30
0.0
 10
25.676562
 20
38.399881
 30
0.0
  0
SPLINE
  5
122
100
AcDbEntity
  8
0
 62
7
100
AcDbSpline
 70
0
 71
3
 72
25
 73
21
 74
19
 40
0.000000
 40
0.000000
 40
0.000000
 40
0.000000
 40
0.375694
 40
0.746012
 40
1.121706
 40
1.497400
 40
1.867717
 40
2.243412
 40
2.619106
 40
2.989423
 40
3.365117
 40
3.740811
 40
4.111129
 40
4.486823
 40
4.862517
 40
5.232835
 40
5.608529
 40
5.984223
 40
6.354540
 40
6.730235
 40
6.730235
 40
6.730235
 40
6.730235
 10
18.107206
 20
12.899313
 30
0.0
 10
18.094343
 20
13.025183
 30
0.0
 10
18.068801
 20
13.275122
 30
0.0
 10
17.870635
 20
13.605420
 30
0.0
 10
17.580487
 20
13.850988
 30
0.0
 10
17.221192
 20
13.981229
 30
0.0
 10
16.839941
 20
13.981229
 30
0.0
 10
16.481150
 20
13.850988
 30
0.0
 10
16.188992
 20
13.605420
 30
0.0
 10
15.998292
 20
13.275122
 30
0.0
 10
15.931709
 20
12.899313
 30
0.0
 10
15.998292
 20
12.523504
 30
0.0
 10
16.188992
 20
12.193206
 30
0.0
 10
16.481150
 20
11.947638
 30
0.0
 10
16.839941
 20
11.817397
 30
0.0
 10
17.221192
 20
11.817397
 30
0.0
 10
17.580487
 20
11.947638
 30
0.0
 10
17.870635
 20
12.193206
 30
0.0
 10
18.068801
 20
12.523504
 30
0.0
 10
18.094343
 20
12.773443
 30
0.0
 10
18.107206
 20
12.899313
 30
0.0
 11
18.107206
 21
12.899313
 31
0.0
 11
18.041670
 21
13.269247
 31
0.0
 11
17.856511
 21
13.589951
 31
0.0
 11
17.568907
 21
13.831674
 31
0.0
 11
17.215767
 21
13.959885
 31
0.0
 11
16.845449
 21
13.959885
 31
0.0
 11
16.492309
 21
13.831674
 31
0.0
 11
16.204705
 21
13.589951
 31
0.0
 11
16.019546
 21
13.269247
 31
0.0
 11
15.954010
 21
12.899313
 31
0.0
 11
16.019546
 21
12.529379
 31
0.0
 11
16.204705
 21
12.208675
 31
0.0
 11
16.492309
 21
11.966951
 31
0.0
 11
16.845449
 21
11.838741
 31
0.0
 11
17.215767
 21
11.838741
 31
0.0
 11
17.568907
 21
11.966951
 31
0.0
 11
17.856511
 21
12.208675
 31
0.0
 11
18.041670
 21
12.529379
 31
0.0
 11
18.107206
 21
12.899313
 31
0.0
  0
LWPOLYLINE
  5
123
100
AcDbEntity
  8
0
 62
7
100
AcDbPolyline
 90
1
 70
1
 10
18.107206
 20
12.899313
 30
0.0
  0
SPLINE
  5
124
100
AcDbEntity
  8
0
 62
7
100
AcDbSpline
 70
0
 71
3
 72
25
 73
21
 74
19
 40
0.000000
 40
0.000000
 40
0.000000
 40
0.000000
 40
0.375694
 40
0.746012
 40
1.121706
 40
1.497400
 40
1.867717
 40
2.243412
 40
2.619106
 40
2.989423
 40
3.365117
 40
3.740811
 40
4.111129
 40
4.486823
 40
4.862517
 40
5.232835
 40
5.608529
 40
5.984223
 40
6.354540
 40
6.730235
 40
6.730235
 40
6.730235
 40
6.730235
 10
12.107206
 20
27.099315
 30
0.0
 10
12.094343
 20
27.225185
 30
0.0
 10
12.068801
 20
27.475124
 30
0.0
 10
11.870635
 20
27.805422
 30
0.0
 10
11.580487
 20
28.050990
 30
0.0
 10
11.221193
 20
28.181231
 30
0.0
 10
10.839941
 20
28.181231
 30
0.0
 10
10.481150
 20
28.050990
 30
0.0
 10
10.188992
 20
27.805422
 30
0.0
 10
9.998292
 20
27.475124
 30
0.0
 10
9.931709
 20
27.099315
 30
0.0
 10
9.998292
 20
26.723506
 30
0.0
 10
10.188992
 20
26.393208
 30
0.0
 10
10.481150
 20
26.147641
 30
0.0
 10
10.839941
 20
26.017399
 30
0.0
 10
11.221193
 20
26.017399
 30
0.0
 10
11.580487
 20
26.147641
 30
0.0
 10
11.870635
 20
26.393208
 30
0.0
 10
12.068801
 20
26.723506
 30
0.0
 10
12.094343
 20
26.973445
 30
0.0
 10
12.107206
 20
27.099315
 30
0.0
 11
12.107206
 21
27.099315
 31
0.0
 11
12.041670
 21
27.469249
 31
0.0
 11
11.856511
 21
27.789953
 31
0.0
 11
11.568907
 21
28.031677
 31
0.0
 11
11.215767
 21
28.159887
 31
0.0
 11
10.845449
 21
28.159887
 31
0.0
 11
10.492309
 21
28.031677
 31
0.0
 11
10.204705
 21
27.789953
 31
0.0
 11
10.019546
 21
27.469249
 31
0.0
 11
9.954010
 21
27.099315
 31
0.0
 11
10.019546
 21
26.729381
 31
0.0
 11
10.204705
 21
26.408677
 31
0.0
 11
10.492309
 21
26.166954
 31
0.0
 11
10.845449
 21
26.038743
 31
0.0
 11
11.215767
 21
26.038743
 31
0.0
 11
11.568907
 21
26.166954
 31
0.0
 11
11.856511
 21
26.408677
 31
0.0
 11
12.041670
 21
26.729381
 31
0.0
 11
12.107206
 21
27.099315
 31
0.0
  0
LWPOLYLINE
  5
125
100
AcDbEntity
  8
0
 62
7
100
AcDbPolyline
 90
1
 70
1
 10
12.107206
 20
27.099315
 30
0.0
  0
SPLINE
  5
126
100
AcDbEntity
  8
0
 62
7
100
AcDbSpline
 70
0
 71
3
 72
25
 73
21
 74
19
 40
0.000000
 40
0.000000
 40
0.000000
 40
0.000000
 40
0.375694
 40
0.746012
 40
1.121706
 40
1.497400
 40
1.867717
 40
2.243412
 40
2.619106
 40
2.989423
 40
3.365117
 40
3.740811
 40
4.111129
 40
4.486823
 40
4.862517
 40
5.232835
 40
5.608529
 40
5.984223
 40
6.354540
 40
6.730235
 40
6.730235
 40
6.730235
 40
6.730235
 10
6.107208
 20
25.099303
 30
0.0
 10
6.094345
 20
25.225173
 30
0.0
 10
6.068803
 20
25.475112
 30
0.0
 10
5.870637
 20
25.805410
 30
0.0
 10
5.580489
 20
26.050978
 30
0.0
 10
5.221195
 20
26.181219
 30
0.0
 10
4.839943
 20
26.181219
 30
0.0
 10
4.481152
 20
26.050978
 30
0.0
 10
4.188994
 20
25.805410
 30
0.0
 10
3.998294
 20
25.475112
 30
0.0
 10
3.931711
 20
25.099303
 30
0.0
 10
3.998294
 20
24.723494
 30
0.0
 10
4.188994
 20
24.393197
 30
0.0
 10
4.481152
 20
24.147629
 30
0.0
 10
4.839943
 20
24.017388
 30
0.0
 10
5.221195
 20
24.017388
 30
0.0
 10
5.580489
 20
24.147629
 30
0.0
 10
5.870637
 20
24.393197
 30
0.0
 10
6.068803
 20
24.723494
 30
0.0
 10
6.094345
 20
24.973433
 30
0.0
 10
6.107208
 20
25.099303
 30
0.0
 11
6.107208
 21
25.099303
 31
0.0
 11
6.041672
 21
25.469237
 31
0.0
 11
5.856513
 21
25.789942
 31
0.0
 11
5.568909
 21
26.031665
 31
0.0
 11
5.215769
 21
26.159875
 31
0.0
 11
4.845451
 21
26.159875
 31
0.0
 11
4.492311
 21
26.031665
 31
0.0
 11
4.204707
 21
25.789942
 31
0.0
 11
4.019548
 21
25.469237
 31
0.0
 11
3.954012
 21
25.099303
 31
0.0
 11
4.019548
 21
24.729370
 31
0.0
 11
4.204707
 21
24.408665
 31
0.0
 11
4.492311
 21
24.166942
 31
0.0
 11
4.845451
 21
24.038731
 31
0.0
 11
5.215769
 21
24.038731
 31
0.0
 11
5.568909
 21
24.166942
 31
0.0
 11
5.856513
 21
24.408665
 31
0.0
 11
6.041672
 21
24.729370
 31
0.0
 11
6.107208
 21
25.099303
 31
0.0
  0
LWPOLYLINE
  5
127
100
AcDbEntity
  8
0
 62
7
100
AcDbPolyline
 90
1
 70
1
 10
6.107208
 20
25.099303
 30
0.0
  0
SPLINE
  5
128
100
AcDbEntity
  8
0
 62
7
100
AcDbSpline
 70
0
 71
3
 72
25
 73
21
 74
19
 40
0.000000
 40
0.000000
 40
0.000000
 40
0.000000
 40
0.297178
 40
0.590102
 40
0.887280
 40
1.184457
 40
1.477382
 40
1.774560
 40
2.071737
 40
2.364662
 40
2.661840
 40
2.959017
 40
3.251942
 40
3.549119
 40
3.846297
 40
4.139222
 40
4.436399
 40
4.733577
 40
5.026501
 40
5.323679
 40
5.323679
 40
5.323679
 40
5.323679
 10
24.882208
 20
12.099319
 30
0.0
 10
24.872033
 20
12.198883
 30
0.0
 10
24.851829
 20
12.396587
 30
0.0
 10
24.695078
 20
12.657856
 30
0.0
 10
24.465568
 20
12.852103
 30
0.0
 10
24.181363
 20
12.955124
 30
0.0
 10
23.879789
 20
12.955124
 30
0.0
 10
23.595982
 20
12.852103
 30
0.0
 10
23.364882
 20
12.657856
 30
0.0
 10
23.214037
 20
12.396587
 30
0.0
 10
23.161369
 20
12.099319
 30
0.0
 10
23.214037
 20
11.802050
 30
0.0
 10
23.364882
 20
11.540782
 30
0.0
 10
23.595982
 20
11.346535
 30
0.0
 10
23.879789
 20
11.243513
 30
0.0
 10
24.181363
 20
11.243513
 30
0.0
 10
24.465568
 20
11.346535
 30
0.0
 10
24.695078
 20
11.540782
 30
0.0
 10
24.851829
 20
11.802050
 30
0.0
 10
24.872033
 20
11.999754
 30
0.0
 10
24.882208
 20
12.099319
 30
0.0
 11
24.882208
 21
12.099319
 31
0.0
 11
24.830368
 21
12.391940
 31
0.0
 11
24.683905
 21
12.645620
 31
0.0
 11
24.456408
 21
12.836826
 31
0.0
 11
24.177071
 21
12.938241
 31
0.0
 11
23.884146
 21
12.938241
 31
0.0
 11
23.604809
 21
12.836826
 31
0.0
 11
23.377311
 21
12.645620
 31
0.0
 11
23.230849
 21
12.391940
 31
0.0
 11
23.179009
 21
12.099319
 31
0.0
 11
23.230849
 21
11.806698
 31
0.0
 11
23.377311
 21
11.553018
 31
0.0
 11
23.604809
 21
11.361812
 31
0.0
 11
23.884146
 21
11.260396
 31
0.0
 11
24.177071
 21
11.260396
 31
0.0
 11
24.456408
 21
11.361812
 31
0.0
 11
24.683905
 21
11.553018
 31
0.0
 11
24.830368
 21
11.806698
 31
0.0
 11
24.882208
 21
12.099319
 31
0.0
  0
LWPOLYLINE
  5
129
100
AcDbEntity
  8
0
 62
7
100
AcDbPolyline
 90
1
 70
1
 10
24.882208
 20
12.099319
 30
0.0
  0
SPLINE
  5
12a
100
AcDbEntity
  8
0
 62
7
100
AcDbSpline
 70
0
 71
3
 72
25
 73
21
 74
19
 40
0.000000
 40
0.000000
 40
0.000000
 40
0.000000
 40
0.297178
 40
0.590102
 40
0.887280
 40
1.184457
 40
1.477382
 40
1.774560
 40
2.071737
 40
2.364662
 40
2.661840
 40
2.959017
 40
3.251942
 40
3.549119
 40
3.846297
 40
4.139222
 40
4.436399
 40
4.733577
 40
5.026501
 40
5.323679
 40
5.323679
 40
5.323679
 40
5.323679
 10
22.882209
 20
12.099319
 30
0.0
 10
22.872034
 20
12.198883
 30
0.0
 10
22.851830
 20
12.396587
 30
0.0
 10
22.695079
 20
12.657856
 30
0.0
 10
22.465569
 20
12.852103
 30
0.0
 10
22.181364
 20
12.955124
 30
0.0
 10
21.879790
 20
12.955124
 30
0.0
 10
21.595983
 20
12.852103
 30
0.0
 10
21.364884
 20
12.657856
 30
0.0
 10
21.214038
 20
12.396587
 30
0.0
 10
21.161370
 20
12.099319
 30
0.0
 10
21.214038
 20
11.802050
 30
0.0
 10
21.364884
 20
11.540782
 30
0.0
 10
21.595983
 20
11.346535
 30
0.0
 10
21.879790
 20
11.243513
 30
0.0
 10
22.181364
 20
11.243513
 30
0.0
 10
22.465569
 20
11.346535
 30
0.0
 10
22.695079
 20
11.540782
 30
0.0
 10
22.851830
 20
11.802050
 30
0.0
 10
22.872034
 20
11.999754
 30
0.0
 10
22.882209
 20
12.099319
 30
0.0
 11
22.882209
 21
12.099319
 31
0.0
 11
22.830369
 21
12.391940
 31
0.0
 11
22.683906
 21
12.645620
 31
0.0
 11
22.456409
 21
12.836826
 31
0.0
 11
22.177072
 21
12.938241
 31
0.0
 11
21.884147
 21
12.938241
 31
0.0
 11
21.604810
 21
12.836826
 31
0.0
 11
21.377312
 21
12.645620
 31
0.0
 11
21.230850
 21
12.391940
 31
0.0
 11
21.179010
 21
12.099319
 31
0.0
 11
21.230850
 21
11.806698
 31
0.0
 11
21.377312
 21
11.553018
 31
0.0
 11
21.604810
 21
11.361812
 31
0.0
 11
21.884147
 21
11.260396
 31
0.0
 11
22.177072
 21
11.260396
 31
0.0
 11
22.456409
 21
11.361812
 31
0.0
 11
22.683906
 21
11.553018
 31
0.0
 11
22.830369
 21
11.806698
 31
0.0
 11
22.882209
 21
12.099319
 31
0.0
  0
LWPOLYLINE
  5
12b
100
AcDbEntity
  8
0
 62
7
100
AcDbPolyline
 90
1
 70
1
 10
22.882209
 20
12.099319
 30
0.0
  0
SPLINE
  5
12c
100
AcDbEntity
  8
0
 62
7
100
AcDbSpline
 70
0
 71
3
 72
16
 73
12
 74
10
 40
0.000000
 40
0.000000
 40
0.000000
 40
0.000000
 40
0.307256
 40
0.609953
 40
0.917208
 40
1.224464
 40
1.527161
 40
1.834416
 40
2.141672
 40
2.444369
 40
2.751625
 40
2.751625
 40
2.751625
 40
2.751625
 10
10.603519
 20
54.502820
 30
0.0
 10
10.706761
 20
54.495240
 30
0.0
 10
10.911712
 20
54.480193
 30
0.0
 10
11.185315
 20
54.323457
 30
0.0
 10
11.389468
 20
54.088814
 30
0.0
 10
11.498043
 20
53.795468
 30
0.0
 10
11.498043
 20
53.483606
 30
0.0
 10
11.389468
 20
53.190260
 30
0.0
 10
11.185315
 20
52.955617
 30
0.0
 10
10.911712
 20
52.798881
 30
0.0
 10
10.706761
 20
52.783834
 30
0.0
 10
10.603519
 20
52.776255
 30
0.0
 11
10.603519
 21
54.502820
 31
0.0
 11
10.907407
 21
54.457450
 31
0.0
 11
11.172581
 21
54.311477
 31
0.0
 11
11.373459
 21
54.078982
 31
0.0
 11
11.480261
 21
53.790886
 31
0.0
 11
11.480261
 21
53.488189
 31
0.0
 11
11.373459
 21
53.200093
 31
0.0
 11
11.172581
 21
52.967598
 31
0.0
 11
10.907407
 21
52.821624
 31
0.0
 11
10.603519
 21
52.776255
 31
0.0
  0
LWPOLYLINE
  5
12d
100
AcDbEntity
  8
0
 62
7
100
AcDbPolyline
 90
2
 70
0
 10
10.603519
 20
52.776255
 30
0.0
 10
9.078129
 20
52.776255
 30
0.0
  0
SPLINE
  5
12e
100
AcDbEntity
  8
0
 62
7
100
AcDbSpline
 70
0
 71
3
 72
16
 73
12
 74
10
 40
0.000000
 40
0.000000
 40
0.000000
 40
0.000000
 40
0.307256
 40
0.609953
 40
0.917208
 40
1.224464
 40
1.527161
 40
1.834416
 40
2.141672
 40
2.444369
 40
2.751625
 40
2.751625
 40
2.751625
 40
2.751625
 10
9.078129
 20
52.776255
 30
0.0
 10
8.974887
 20
52.783834
 30
0.0
 10
8.769936
 20
52.798881
 30
0.0
 10
8.496333
 20
52.955617
 30
0.0
 10
8.292180
 20
53.190260
 30
0.0
 10
8.183605
 20
53.483606
 30
0.0
 10
8.183605
 20
53.795468
 30
0.0
 10
8.292180
 20
54.088814
 30
0.0
 10
8.496333
 20
54.323457
 30
0.0
 10
8.769936
 20
54.480193
 30
0.0
 10
8.974887
 20
54.495240
 30
0.0
 10
9.078129
 20
54.502820
 30
0.0
 11
9.078129
 21
52.776255
 31
0.0
 11
8.774241
 21
52.821624
 31
0.0
 11
8.509067
 21
52.967598
 31
0.0
 11
8.308189
 21
53.200093
 31
0.0
 11
8.201387
 21
53.488189
 31
0.0
 11
8.201387
 21
53.790886
 31
0.0
 11
8.308189
 21
54.078982
 31
0.0
 11
8.509067
 21
54.311477
 31
0.0
 11
8.774241
 21
54.457450
 31
0.0
 11
9.078129
 21
54.502820
 31
0.0
  0
LWPOLYLINE
  5
12f
100
AcDbEntity
  8
0
 62
7
100
AcDbPolyline
 90
2
 70
0
 10
9.078129
 20
54.502820
 30
0.0
 10
10.603519
 20
54.502820
 30
0.0
  0
SPLINE
  5
130
100
AcDbEntity
  8
0
 62
7
100
AcDbSpline
 70
0
 71
3
 72
25
 73
21
 74
19
 40
0.000000
 40
0.000000
 40
0.000000
 40
0.000000
 40
0.297284
 40
0.590310
 40
0.887594
 40
1.184877
 40
1.477903
 40
1.775187
 40
2.072471
 40
2.365497
 40
2.662781
 40
2.960064
 40
3.253091
 40
3.550374
 40
3.847658
 40
4.140684
 40
4.437968
 40
4.735252
 40
5.028278
 40
5.325561
 40
5.325561
 40
5.325561
 40
5.325561
 10
9.082207
 20
22.999305
 30
0.0
 10
9.072080
 20
23.098911
 30
0.0
 10
9.051971
 20
23.296697
 30
0.0
 10
8.895258
 20
23.558121
 30
0.0
 10
8.665712
 20
23.752496
 30
0.0
 10
8.381415
 20
23.855591
 30
0.0
 10
8.079731
 20
23.855591
 30
0.0
 10
7.795830
 20
23.752496
 30
0.0
 10
7.564702
 20
23.558121
 30
0.0
 10
7.413866
 20
23.296697
 30
0.0
 10
7.361447
 20
22.999305
 30
0.0
 10
7.413866
 20
22.701914
 30
0.0
 10
7.564702
 20
22.440490
 30
0.0
 10
7.795830
 20
22.246115
 30
0.0
 10
8.079731
 20
22.143020
 30
0.0
 10
8.381415
 20
22.143020
 30
0.0
 10
8.665712
 20
22.246115
 30
0.0
 10
8.895258
 20
22.440490
 30
0.0
 10
9.051971
 20
22.701914
 30
0.0
 10
9.072080
 20
22.899700
 30
0.0
 10
9.082207
 20
22.999305
 30
0.0
 11
9.082207
 21
22.999305
 31
0.0
 11
9.030493
 21
23.292057
 31
0.0
 11
8.884074
 21
23.545879
 31
0.0
 11
8.656543
 21
23.737209
 31
0.0
 11
8.377118
 21
23.838696
 31
0.0
 11
8.084092
 21
23.838696
 31
0.0
 11
7.804668
 21
23.737209
 31
0.0
 11
7.577137
 21
23.545879
 31
0.0
 11
7.430718
 21
23.292057
 31
0.0
 11
7.379004
 21
22.999305
 31
0.0
 11
7.430718
 21
22.706554
 31
0.0
 11
7.577137
 21
22.452732
 31
0.0
 11
7.804668
 21
22.261401
 31
0.0
 11
8.084092
 21
22.159915
 31
0.0
 11
8.377118
 21
22.159915
 31
0.0
 11
8.656543
 21
22.261401
 31
0.0
 11
8.884074
 21
22.452732
 31
0.0
 11
9.030493
 21
22.706554
 31
0.0
 11
9.082207
 21
22.999305
 31
0.0
  0
LWPOLYLINE
  5
131
100
AcDbEntity
  8
0
 62
7
100
AcDbPolyline
 90
1
 70
1
 10
9.082207
 20
22.999305
 30
0.0
  0
SPLINE
  5
132
100
AcDbEntity
  8
0
 62
7
100
AcDbSpline
 70
0
 71
3
 72
28
 73
24
 74
22
 40
0.000000
 40
0.000000
 40
0.000000
 40
0.000000
 40
0.302602
 40
0.600847
 40
0.903449
 40
1.206052
 40
1.504296
 40
1.806899
 40
2.109501
 40
2.407746
 40
2.710348
 40
3.105820
 40
3.840267
 40
4.235739
 40
4.538341
 40
4.836586
 40
5.139188
 40
5.441791
 40
5.740036
 40
6.042638
 40
6.345240
 40
6.643485
 40
6.946087
 40
6.946087
 40
6.946087
 40
6.946087
 10
10.603519
 20
51.963746
 30
0.0
 10
10.704958
 20
51.953882
 30
0.0
 10
10.906374
 20
51.934295
 30
0.0
 10
11.173007
 20
51.775578
 30
0.0
 10
11.371362
 20
51.542327
 30
0.0
 10
11.476614
 20
51.253004
 30
0.0
 10
11.476611
 20
50.945965
 30
0.0
 10
11.371371
 20
50.656802
 30
0.0
 10
11.172976
 20
50.422912
 30
0.0
 10
10.906487
 20
50.266569
 30
0.0
 10
10.571904
 20
50.224207
 30
0.0
 10
10.095508
 20
50.240768
 30
0.0
 10
9.586140
 20
50.240768
 30
0.0
 10
9.109744
 20
50.224207
 30
0.0
 10
8.775161
 20
50.266569
 30
0.0
 10
8.508672
 20
50.422912
 30
0.0
 10
8.310278
 20
50.656802
 30
0.0
 10
8.205037
 20
50.945965
 30
0.0
 10
8.205035
 20
51.253004
 30
0.0
 10
8.310286
 20
51.542327
 30
0.0
 10
8.508642
 20
51.775578
 30
0.0
 10
8.775274
 20
51.934295
 30
0.0
 10
8.976690
 20
51.953882
 30
0.0
 10
9.078129
 20
51.963746
 30
0.0
 11
10.603519
 21
51.963746
 31
0.0
 11
10.901725
 21
51.912348
 31
0.0
 11
11.160533
 21
51.764130
 31
0.0
 11
11.355770
 21
51.532936
 31
0.0
 11
11.459367
 21
51.248620
 31
0.0
 11
11.459367
 21
50.950375
 31
0.0
 11
11.355770
 21
50.666058
 31
0.0
 11
11.160533
 21
50.434865
 31
0.0
 11
10.901725
 21
50.286647
 31
0.0
 11
10.603519
 21
50.235249
 31
0.0
 11
10.208048
 21
50.235249
 31
0.0
 11
9.473600
 21
50.235249
 31
0.0
 11
9.078129
 21
50.235249
 31
0.0
 11
8.779923
 21
50.286647
 31
0.0
 11
8.521116
 21
50.434865
 31
0.0
 11
8.325878
 21
50.666058
 31
0.0
 11
8.222282
 21
50.950375
 31
0.0
 11
8.222282
 21
51.248620
 31
0.0
 11
8.325878
 21
51.532936
 31
0.0
 11
8.521116
 21
51.764130
 31
0.0
 11
8.779923
 21
51.912348
 31
0.0
 11
9.078129
 21
51.963746
 31
0.0
  0
LWPOLYLINE
  5
133
100
AcDbEntity
  8
0
 62
7
100
AcDbPolyline
 90
2
 70
0
 10
9.078129
 20
51.963746
 30
0.0
 10
10.603519
 20
51.963746
 30
0.0
  0
SPLINE
  5
134
100
AcDbEntity
  8
0
 62
7
100
AcDbSpline
 70
0
 71
3
 72
28
 73
24
 74
22
 40
0.000000
 40
0.000000
 40
0.000000
 40
0.000000
 40
0.240034
 40
0.476565
 40
0.716600
 40
0.956634
 40
1.193165
 40
1.433199
 40
1.673234
 40
1.909765
 40
2.149799
 40
2.709283
 40
3.748323
 40
4.307807
 40
4.547841
 40
4.784372
 40
5.024407
 40
5.264441
 40
5.500972
 40
5.741006
 40
5.981041
 40
6.217572
 40
6.457606
 40
6.457606
 40
6.457606
 40
6.457606
 10
26.951397
 20
19.438596
 30
0.0
 10
26.870842
 20
19.445569
 30
0.0
 10
26.710908
 20
19.459413
 30
0.0
 10
26.498396
 20
19.583772
 30
0.0
 10
26.340091
 20
19.768029
 30
0.0
 10
26.256005
 20
19.997381
 30
0.0
 10
26.256007
 20
20.240972
 30
0.0
 10
26.340085
 20
20.470247
 30
0.0
 10
26.498416
 20
20.654814
 30
0.0
 10
26.710834
 20
20.778022
 30
0.0
 10
27.059044
 20
20.814400
 30
0.0
 10
27.669786
 20
20.791236
 30
0.0
 10
28.391017
 20
20.791236
 30
0.0
 10
29.001758
 20
20.814400
 30
0.0
 10
29.349968
 20
20.778022
 30
0.0
 10
29.562386
 20
20.654814
 30
0.0
 10
29.720717
 20
20.470247
 30
0.0
 10
29.804796
 20
20.240972
 30
0.0
 10
29.804797
 20
19.997381
 30
0.0
 10
29.720712
 20
19.768029
 30
0.0
 10
29.562406
 20
19.583772
 30
0.0
 10
29.349894
 20
19.459413
 30
0.0
 10
29.189960
 20
19.445569
 30
0.0
 10
29.109405
 20
19.438596
 30
0.0
 11
26.951397
 21
19.438596
 31
0.0
 11
26.714452
 21
19.476984
 31
0.0
 11
26.508315
 21
19.592977
 31
0.0
 11
26.352521
 21
19.775582
 31
0.0
 11
26.269780
 21
20.000905
 31
0.0
 11
26.269780
 21
20.237436
 31
0.0
 11
26.352521
 21
20.462759
 31
0.0
 11
26.508315
 21
20.645364
 31
0.0
 11
26.714452
 21
20.761357
 31
0.0
 11
26.951397
 21
20.799745
 31
0.0
 11
27.510881
 21
20.799745
 31
0.0
 11
28.549921
 21
20.799745
 31
0.0
 11
29.109405
 21
20.799745
 31
0.0
 11
29.346350
 21
20.761357
 31
0.0
 11
29.552487
 21
20.645364
 31
0.0
 11
29.708281
 21
20.462759
 31
0.0
 11
29.791022
 21
20.237436
 31
0.0
 11
29.791022
 21
20.000905
 31
0.0
 11
29.708281
 21
19.775582
 31
0.0
 11
29.552487
 21
19.592977
 31
0.0
 11
29.346350
 21
19.476984
 31
0.0
 11
29.109405
 21
19.438596
 31
0.0
  0
LWPOLYLINE
  5
135
100
AcDbEntity
  8
0
 62
7
100
AcDbPolyline
 90
2
 70
0
 10
29.109405
 20
19.438596
 30
0.0
 10
26.951397
 20
19.438596
 30
0.0
  0
SPLINE
  5
136
100
AcDbEntity
  8
0
 62
7
100
AcDbSpline
 70
0
 71
3
 72
16
 73
12
 74
10
 40
0.000000
 40
0.000000
 40
0.000000
 40
0.000000
 40
0.307256
 40
0.609953
 40
0.917208
 40
1.224464
 40
1.527161
 40
1.834416
 40
2.141672
 40
2.444369
 40
2.751625
 40
2.751625
 40
2.751625
 40
2.751625
 10
10.603519
 20
49.422740
 30
0.0
 10
10.706761
 20
49.415161
 30
0.0
 10
10.911712
 20
49.400114
 30
0.0
 10
11.185315
 20
49.243377
 30
0.0
 10
11.389468
 20
49.008735
 30
0.0
 10
11.498043
 20
48.715389
 30
0.0
 10
11.498043
 20
48.403527
 30
0.0
 10
11.389468
 20
48.110181
 30
0.0
 10
11.185315
 20
47.875538
 30
0.0
 10
10.911712
 20
47.718802
 30
0.0
 10
10.706761
 20
47.703755
 30
0.0
 10
10.603519
 20
47.696175
 30
0.0
 11
10.603519
 21
49.422740
 31
0.0
 11
10.907407
 21
49.377371
 31
0.0
 11
11.172581
 21
49.231397
 31
0.0
 11
11.373459
 21
48.998902
 31
0.0
 11
11.480261
 21
48.710806
 31
0.0
 11
11.480261
 21
48.408109
 31
0.0
 11
11.373459
 21
48.120013
 31
0.0
 11
11.172581
 21
47.887518
 31
0.0
 11
10.907407
 21
47.741545
 31
0.0
 11
10.603519
 21
47.696175
 31
0.0
  0
LWPOLYLINE
  5
137
100
AcDbEntity
  8
0
 62
7
100
AcDbPolyline
 90
2
 70
0
 10
10.603519
 20
47.696175
 30
0.0
 10
9.078129
 20
47.696175
 30
0.0
  0
SPLINE
  5
138
100
AcDbEntity
  8
0
 62
7
100
AcDbSpline
 70
0
 71
3
 72
16
 73
12
 74
10
 40
0.000000
 40
0.000000
 40
0.000000
 40
0.000000
 40
0.307256
 40
0.609953
 40
0.917208
 40
1.224464
 40
1.527161
 40
1.834416
 40
2.141672
 40
2.444369
 40
2.751625
 40
2.751625
 40
2.751625
 40
2.751625
 10
9.078129
 20
47.696175
 30
0.0
 10
8.974887
 20
47.703755
 30
0.0
 10
8.769936
 20
47.718802
 30
0.0
 10
8.496333
 20
47.875538
 30
0.0
 10
8.292180
 20
48.110181
 30
0.0
 10
8.183605
 20
48.403527
 30
0.0
 10
8.183605
 20
48.715389
 30
0.0
 10
8.292180
 20
49.008735
 30
0.0
 10
8.496333
 20
49.243377
 30
0.0
 10
8.769936
 20
49.400114
 30
0.0
 10
8.974887
 20
49.415161
 30
0.0
 10
9.078129
 20
49.422740
 30
0.0
 11
9.078129
 21
47.696175
 31
0.0
 11
8.774241
 21
47.741545
 31
0.0
 11
8.509067
 21
47.887518
 31
0.0
 11
8.308189
 21
48.120013
 31
0.0
 11
8.201387
 21
48.408109
 31
0.0
 11
8.201387
 21
48.710806
 31
0.0
 11
8.308189
 21
48.998902
 31
0.0
 11
8.509067
 21
49.231397
 31
0.0
 11
8.774241
 21
49.377371
 31
0.0
 11
9.078129
 21
49.422740
 31
0.0
  0
LWPOLYLINE
  5
139
100
AcDbEntity
  8
0
 62
7
100
AcDbPolyline
 90
2
 70
0
 10
9.078129
 20
49.422740
 30
0.0
 10
10.603519
 20
49.422740
 30
0.0
  0
SPLINE
  5
13a
100
AcDbEntity
  8
0
 62
7
100
AcDbSpline
 70
0
 71
3
 72
16
 73
12
 74
10
 40
0.000000
 40
0.000000
 40
0.000000
 40
0.000000
 40
0.302495
 40
0.600637
 40
0.903133
 40
1.205628
 40
1.503770
 40
1.806265
 40
2.108760
 40
2.406902
 40
2.709398
 40
2.709398
 40
2.709398
 40
2.709398
 10
10.603519
 20
45.155170
 30
0.0
 10
10.704916
 20
45.165083
 30
0.0
 10
10.906251
 20
45.184766
 30
0.0
 10
11.172726
 20
45.343523
 30
0.0
 10
11.370952
 20
45.576735
 30
0.0
 10
11.476129
 20
45.865978
 30
0.0
 10
11.476129
 20
46.172859
 30
0.0
 10
11.370952
 20
46.462101
 30
0.0
 10
11.172726
 20
46.695313
 30
0.0
 10
10.906251
 20
46.854070
 30
0.0
 10
10.704916
 20
46.873753
 30
0.0
 10
10.603519
 20
46.883666
 30
0.0
 11
10.603519
 21
45.155170
 31
0.0
 11
10.901594
 21
45.206696
 31
0.0
 11
11.160258
 21
45.354958
 31
0.0
 11
11.355369
 21
45.586118
 31
0.0
 11
11.458894
 21
45.870347
 31
0.0
 11
11.458894
 21
46.168489
 31
0.0
 11
11.355369
 21
46.452718
 31
0.0
 11
11.160258
 21
46.683878
 31
0.0
 11
10.901594
 21
46.832140
 31
0.0
 11
10.603519
 21
46.883666
 31
0.0
  0
LWPOLYLINE
  5
13b
100
AcDbEntity
  8
0
 62
7
100
AcDbPolyline
 90
2
 70
0
 10
10.603519
 20
45.155170
 30
0.0
 10
9.078129
 20
45.155170
 30
0.0
  0
SPLINE
  5
13c
100
AcDbEntity
  8
0
 62
7
100
AcDbSpline
 70
0
 71
3
 72
16
 73
12
 74
10
 40
0.000000
 40
0.000000
 40
0.000000
 40
0.000000
 40
0.302495
 40
0.600637
 40
0.903133
 40
1.205628
 40
1.503770
 40
1.806265
 40
2.108760
 40
2.406902
 40
2.709398
 40
2.709398
 40
2.709398
 40
2.709398
 10
9.078129
 20
46.883666
 30
0.0
 10
8.976732
 20
46.873753
 30
0.0
 10
8.775398
 20
46.854070
 30
0.0
 10
8.508922
 20
46.695313
 30
0.0
 10
8.310696
 20
46.462101
 30
0.0
 10
8.205519
 20
46.172859
 30
0.0
 10
8.205519
 20
45.865978
 30
0.0
 10
8.310696
 20
45.576735
 30
0.0
 10
8.508922
 20
45.343523
 30
0.0
 10
8.775398
 20
45.184766
 30
0.0
 10
8.976732
 20
45.165083
 30
0.0
 10
9.078129
 20
45.155170
 30
0.0
 11
9.078129
 21
46.883666
 31
0.0
 11
8.780054
 21
46.832140
 31
0.0
 11
8.521390
 21
46.683878
 31
0.0
 11
8.326279
 21
46.452718
 31
0.0
 11
8.222754
 21
46.168489
 31
0.0
 11
8.222754
 21
45.870347
 31
0.0
 11
8.326279
 21
45.586118
 31
0.0
 11
8.521390
 21
45.354958
 31
0.0
 11
8.780054
 21
45.206696
 31
0.0
 11
9.078129
 21
45.155170
 31
0.0
  0
LWPOLYLINE
  5
13d
100
AcDbEntity
  8
0
 62
7
100
AcDbPolyline
 90
2
 70
0
 10
9.078129
 20
46.883666
 30
0.0
 10
10.603519
 20
46.883666
 30
0.0
  0
SPLINE
  5
13e
100
AcDbEntity
  8
0
 62
7
100
AcDbSpline
 70
0
 71
3
 72
16
 73
12
 74
10
 40
0.000000
 40
0.000000
 40
0.000000
 40
0.000000
 40
0.237588
 40
0.471777
 40
0.709365
 40
0.946953
 40
1.181141
 40
1.418730
 40
1.656318
 40
1.890506
 40
2.128095
 40
2.128095
 40
2.128095
 40
2.128095
 10
21.951187
 20
24.739047
 30
0.0
 10
21.871587
 20
24.747181
 30
0.0
 10
21.713526
 20
24.763334
 30
0.0
 10
21.504646
 20
24.888655
 30
0.0
 10
21.349349
 20
25.072138
 30
0.0
 10
21.266985
 20
25.299380
 30
0.0
 10
21.266985
 20
25.540392
 30
0.0
 10
21.349349
 20
25.767633
 30
0.0
 10
21.504646
 20
25.951116
 30
0.0
 10
21.713526
 20
26.076438
 30
0.0
 10
21.871587
 20
26.092590
 30
0.0
 10
21.951187
 20
26.100725
 30
0.0
 11
21.951187
 21
24.739047
 31
0.0
 11
21.717241
 21
24.780492
 31
0.0
 11
21.514428
 21
24.897586
 31
0.0
 11
21.361563
 21
25.079466
 31
0.0
 11
21.280483
 21
25.302792
 31
0.0
 11
21.280483
 21
25.536980
 31
0.0
 11
21.361563
 21
25.760305
 31
0.0
 11
21.514428
 21
25.942186
 31
0.0
 11
21.717241
 21
26.059280
 31
0.0
 11
21.951187
 21
26.100725
 31
0.0
  0
LWPOLYLINE
  5
13f
100
AcDbEntity
  8
0
 62
7
100
AcDbPolyline
 90
2
 70
0
 10
21.951187
 20
26.100725
 30
0.0
 10
24.109195
 20
26.100725
 30
0.0
  0
SPLINE
  5
140
100
AcDbEntity
  8
0
 62
7
100
AcDbSpline
 70
0
 71
3
 72
16
 73
12
 74
10
 40
0.000000
 40
0.000000
 40
0.000000
 40
0.000000
 40
0.237588
 40
0.471777
 40
0.709365
 40
0.946953
 40
1.181141
 40
1.418730
 40
1.656318
 40
1.890506
 40
2.128095
 40
2.128095
 40
2.128095
 40
2.128095
 10
24.109195
 20
26.100725
 30
0.0
 10
24.188795
 20
26.092590
 30
0.0
 10
24.346856
 20
26.076438
 30
0.0
 10
24.555736
 20
25.951116
 30
0.0
 10
24.711032
 20
25.767633
 30
0.0
 10
24.793397
 20
25.540392
 30
0.0
 10
24.793397
 20
25.299380
 30
0.0
 10
24.711032
 20
25.072138
 30
0.0
 10
24.555736
 20
24.888655
 30
0.0
 10
24.346856
 20
24.763334
 30
0.0
 10
24.188795
 20
24.747181
 30
0.0
 10
24.109195
 20
24.739047
 30
0.0
 11
24.109195
 21
26.100725
 31
0.0
 11
24.343140
 21
26.059280
 31
0.0
 11
24.545953
 21
25.942186
 31
0.0
 11
24.698819
 21
25.760305
 31
0.0
 11
24.779899
 21
25.536980
 31
0.0
 11
24.779899
 21
25.302792
 31
0.0
 11
24.698819
 21
25.079466
 31
0.0
 11
24.545953
 21
24.897586
 31
0.0
 11
24.343140
 21
24.780492
 31
0.0
 11
24.109195
 21
24.739047
 31
0.0
  0
LWPOLYLINE
  5
141
100
AcDbEntity
  8
0
 62
7
100
AcDbPolyline
 90
2
 70
0
 10
24.109195
 20
24.739047
 30
0.0
 10
21.951187
 20
24.739047
 30
0.0
  0
SPLINE
  5
142
100
AcDbEntity
  8
0
 62
7
100
AcDbSpline
 70
0
 71
3
 72
16
 73
12
 74
10
 40
0.000000
 40
0.000000
 40
0.000000
 40
0.000000
 40
0.240542
 40
0.477559
 40
0.718100
 40
0.958642
 40
1.195659
 40
1.436201
 40
1.676742
 40
1.913760
 40
2.154301
 40
2.154301
 40
2.154301
 40
2.154301
 10
21.951187
 20
9.139504
 30
0.0
 10
21.870437
 20
9.146246
 30
0.0
 10
21.710121
 20
9.159632
 30
0.0
 10
21.496870
 20
9.283807
 30
0.0
 10
21.337953
 20
9.468231
 30
0.0
 10
21.253518
 20
9.698030
 30
0.0
 10
21.253518
 20
9.942128
 30
0.0
 10
21.337953
 20
10.171926
 30
0.0
 10
21.496870
 20
10.356351
 30
0.0
 10
21.710121
 20
10.480526
 30
0.0
 10
21.870437
 20
10.493911
 30
0.0
 10
21.951187
 20
10.500653
 30
0.0
 11
21.951187
 21
9.139504
 31
0.0
 11
21.713631
 21
9.177286
 31
0.0
 11
21.506818
 21
9.293067
 31
0.0
 11
21.350428
 21
9.475831
 31
0.0
 11
21.267350
 21
9.701570
 31
0.0
 11
21.267350
 21
9.938588
 31
0.0
 11
21.350428
 21
10.164327
 31
0.0
 11
21.506818
 21
10.347091
 31
0.0
 11
21.713631
 21
10.462872
 31
0.0
 11
21.951187
 21
10.500653
 31
0.0
  0
LWPOLYLINE
  5
143
100
AcDbEntity
  8
0
 62
7
100
AcDbPolyline
 90
2
 70
0
 10
21.951187
 20
10.500653
 30
0.0
 10
24.109195
 20
10.500653
 30
0.0
  0
SPLINE
  5
144
100
AcDbEntity
  8
0
 62
7
100
AcDbSpline
 70
0
 71
3
 72
16
 73
12
 74
10
 40
0.000000
 40
0.000000
 40
0.000000
 40
0.000000
 40
0.240542
 40
0.477559
 40
0.718100
 40
0.958642
 40
1.195659
 40
1.436201
 40
1.676742
 40
1.913760
 40
2.154301
 40
2.154301
 40
2.154301
 40
2.154301
 10
24.109195
 20
10.500653
 30
0.0
 10
24.189944
 20
10.493911
 30
0.0
 10
24.350261
 20
10.480526
 30
0.0
 10
24.563511
 20
10.356351
 30
0.0
 10
24.722428
 20
10.171926
 30
0.0
 10
24.806863
 20
9.942128
 30
0.0
 10
24.806863
 20
9.698030
 30
0.0
 10
24.722428
 20
9.468231
 30
0.0
 10
24.563511
 20
9.283807
 30
0.0
 10
24.350261
 20
9.159632
 30
0.0
 10
24.189944
 20
9.146246
 30
0.0
 10
24.109195
 20
9.139504
 30
0.0
 11
24.109195
 21
10.500653
 31
0.0
 11
24.346751
 21
10.462872
 31
0.0
 11
24.553564
 21
10.347091
 31
0.0
 11
24.709954
 21
10.164327
 31
0.0
 11
24.793032
 21
9.938588
 31
0.0
 11
24.793032
 21
9.701570
 31
0.0
 11
24.709954
 21
9.475831
 31
0.0
 11
24.553564
 21
9.293067
 31
0.0
 11
24.346751
 21
9.177286
 31
0.0
 11
24.109195
 21
9.139504
 31
0.0
  0
LWPOLYLINE
  5
145
100
AcDbEntity
  8
0
 62
7
100
AcDbPolyline
 90
2
 70
0
 10
24.109195
 20
9.139504
 30
0.0
 10
21.951187
 20
9.139504
 30
0.0
  0
LWPOLYLINE
  5
146
100
AcDbEntity
  8
0
 62
7
100
AcDbPolyline
 90
1
 70
1
 10
32.932211
 20
72.569313
 30
0.0
  0
SPLINE
  5
147
100
AcDbEntity
  8
0
 62
7
100
AcDbSpline
 70
0
 71
3
 72
25
 73
21
 74
19
 40
0.000000
 40
0.000000
 40
0.000000
 40
0.000000
 40
0.593797
 40
1.179097
 40
1.772894
 40
2.366691
 40
2.951991
 40
3.545788
 40
4.139585
 40
4.724884
 40
5.318682
 40
5.912479
 40
6.497778
 40
7.091576
 40
7.685373
 40
8.270672
 40
8.864470
 40
9.458267
 40
10.043566
 40
10.637364
 40
10.637364
 40
10.637364
 40
10.637364
 10
32.932211
 20
72.569313
 30
0.0
 10
32.911880
 20
72.768255
 30
0.0
 10
32.871510
 20
73.163292
 30
0.0
 10
32.558302
 20
73.685339
 30
0.0
 10
32.099713
 20
74.073467
 30
0.0
 10
31.531836
 20
74.279318
 30
0.0
 10
30.929255
 20
74.279318
 30
0.0
 10
30.362174
 20
74.073467
 30
0.0
 10
29.900409
 20
73.685339
 30
0.0
 10
29.599000
 20
73.163292
 30
0.0
 10
29.493763
 20
72.569313
 30
0.0
 10
29.599000
 20
71.975334
 30
0.0
 10
29.900409
 20
71.453287
 30
0.0
 10
30.362174
 20
71.065159
 30
0.0
 10
30.929255
 20
70.859308
 30
0.0
 10
31.531836
 20
70.859308
 30
0.0
 10
32.099713
 20
71.065159
 30
0.0
 10
32.558302
 20
71.453287
 30
0.0
 10
32.871510
 20
71.975334
 30
0.0
 10
32.911880
 20
72.370371
 30
0.0
 10
32.932211
 20
72.569313
 30
0.0
 11
32.932211
 21
72.569313
 31
0.0
 11
32.828628
 21
73.154006
 31
0.0
 11
32.535978
 21
73.660890
 31
0.0
 11
32.081411
 21
74.042942
 31
0.0
 11
31.523260
 21
74.245583
 31
0.0
 11
30.937961
 21
74.245583
 31
0.0
 11
30.379811
 21
74.042942
 31
0.0
 11
29.925243
 21
73.660890
 31
0.0
 11
29.632593
 21
73.154006
 31
0.0
 11
29.529011
 21
72.569313
 31
0.0
 11
29.632593
 21
71.984620
 31
0.0
 11
29.925243
 21
71.477736
 31
0.0
 11
30.379811
 21
71.095684
 31
0.0
 11
30.937961
 21
70.893043
 31
0.0
 11
31.523260
 21
70.893043
 31
0.0
 11
32.081411
 21
71.095684
 31
0.0
 11
32.535978
 21
71.477736
 31
0.0
 11
32.828628
 21
71.984620
 31
0.0
 11
32.932211
 21
72.569313
 31
0.0
  0
LWPOLYLINE
  5
148
100
AcDbEntity
  8
0
 62
7
100
AcDbPolyline
 90
2
 70
0
 10
25.458981
 20
21.200271
 30
0.0
 10
23.300974
 20
21.200271
 30
0.0
  0
SPLINE
  5
149
100
AcDbEntity
  8
0
 62
7
100
AcDbSpline
 70
0
 71
3
 72
16
 73
12
 74
10
 40
0.000000
 40
0.000000
 40
0.000000
 40
0.000000
 40
0.237593
 40
0.471786
 40
0.709379
 40
0.946972
 40
1.181164
 40
1.418757
 40
1.656350
 40
1.890543
 40
2.128136
 40
2.128136
 40
2.128136
 40
2.128136
 10
23.300974
 20
21.200271
 30
0.0
 10
23.221372
 20
21.192136
 30
0.0
 10
23.063308
 20
21.175983
 30
0.0
 10
22.854424
 20
21.050660
 30
0.0
 10
22.699125
 20
20.867173
 30
0.0
 10
22.616759
 20
20.639927
 30
0.0
 10
22.616759
 20
20.398910
 30
0.0
 10
22.699125
 20
20.171664
 30
0.0
 10
22.854424
 20
19.988178
 30
0.0
 10
23.063308
 20
19.862854
 30
0.0
 10
23.221372
 20
19.846701
 30
0.0
 10
23.300974
 20
19.838567
 30
0.0
 11
23.300974
 21
21.200271
 31
0.0
 11
23.067024
 21
21.158825
 31
0.0
 11
22.864207
 21
21.041729
 31
0.0
 11
22.711339
 21
20.859845
 31
0.0
 11
22.630257
 21
20.636515
 31
0.0
 11
22.630257
 21
20.402322
 31
0.0
 11
22.711339
 21
20.178993
 31
0.0
 11
22.864207
 21
19.997109
 31
0.0
 11
23.067024
 21
19.880013
 31
0.0
 11
23.300974
 21
19.838567
 31
0.0
  0
LWPOLYLINE
  5
14a
100
AcDbEntity
  8
0
 62
7
100
AcDbPolyline
 90
2
 70
0
 10
23.300974
 20
19.838567
 30
0.0
 10
25.458981
 20
19.838567
 30
0.0
  0
SPLINE
  5
14b
100
AcDbEntity
  8
0
 62
7
100
AcDbSpline
 70
0
 71
3
 72
16
 73
12
 74
10
 40
0.000000
 40
0.000000
 40
0.000000
 40
0.000000
 40
0.237593
 40
0.471786
 40
0.709379
 40
0.946972
 40
1.181164
 40
1.418757
 40
1.656350
 40
1.890543
 40
2.128136
 40
2.128136
 40
2.128136
 40
2.128136
 10
25.458981
 20
19.838567
 30
0.0
 10
25.538583
 20
19.846701
 30
0.0
 10
25.696647
 20
19.862854
 30
0.0
 10
25.905531
 20
19.988178
 30
0.0
 10
26.060831
 20
20.171664
 30
0.0
 10
26.143197
 20
20.398910
 30
0.0
 10
26.143197
 20
20.639927
 30
0.0
 10
26.060831
 20
20.867173
 30
0.0
 10
25.905531
 20
21.050660
 30
0.0
 10
25.696647
 20
21.175983
 30
0.0
 10
25.538583
 20
21.192136
 30
0.0
 10
25.458981
 20
21.200271
 30
0.0
 11
25.458981
 21
19.838567
 31
0.0
 11
25.692932
 21
19.880013
 31
0.0
 11
25.895748
 21
19.997109
 31
0.0
 11
26.048617
 21
20.178993
 31
0.0
 11
26.129699
 21
20.402322
 31
0.0
 11
26.129699
 21
20.636515
 31
0.0
 11
26.048617
 21
20.859845
 31
0.0
 11
25.895748
 21
21.041729
 31
0.0
 11
25.692932
 21
21.158825
 31
0.0
 11
25.458981
 21
21.200271
 31
0.0
  0
LWPOLYLINE
  5
14c
100
AcDbEntity
  8
0
 62
7
100
AcDbPolyline
 90
1
 70
1
 10
25.458981
 20
21.200271
 30
0.0
  0
SPLINE
  5
14d
100
AcDbEntity
  8
0
 62
7
100
AcDbSpline
 70
0
 71
3
 72
28
 73
24
 74
22
 40
0.000000
 40
0.000000
 40
0.000000
 40
0.000000
 40
0.240686
 40
0.477842
 40
0.718528
 40
0.959213
 40
1.196369
 40
1.437055
 40
1.677741
 40
1.914897
 40
2.155583
 40
2.715066
 40
3.754107
 40
4.313590
 40
4.554276
 40
4.791432
 40
5.032118
 40
5.272804
 40
5.509959
 40
5.750645
 40
5.991331
 40
6.228487
 40
6.469173
 40
6.469173
 40
6.469173
 40
6.469173
 10
23.300974
 20
14.037921
 30
0.0
 10
23.220169
 20
14.044595
 30
0.0
 10
23.059744
 20
14.057845
 30
0.0
 10
22.846280
 20
14.181964
 30
0.0
 10
22.687187
 20
14.366435
 30
0.0
 10
22.602650
 20
14.596353
 30
0.0
 10
22.602652
 20
14.840623
 30
0.0
 10
22.687181
 20
15.070467
 30
0.0
 10
22.846302
 20
15.255235
 30
0.0
 10
23.059665
 20
15.378250
 30
0.0
 10
23.408470
 20
15.413029
 30
0.0
 10
24.019308
 20
15.390928
 30
0.0
 10
24.740647
 20
15.390928
 30
0.0
 10
25.351485
 20
15.413029
 30
0.0
 10
25.700290
 20
15.378250
 30
0.0
 10
25.913654
 20
15.255235
 30
0.0
 10
26.072774
 20
15.070467
 30
0.0
 10
26.157303
 20
14.840623
 30
0.0
 10
26.157305
 20
14.596353
 30
0.0
 10
26.072768
 20
14.366435
 30
0.0
 10
25.913675
 20
14.181964
 30
0.0
 10
25.700212
 20
14.057845
 30
0.0
 10
25.539787
 20
14.044595
 30
0.0
 10
25.458981
 20
14.037921
 30
0.0
 11
23.300974
 21
14.037921
 31
0.0
 11
23.063243
 21
14.075523
 31
0.0
 11
22.856235
 21
14.191240
 31
0.0
 11
22.699674
 21
14.374047
 31
0.0
 11
22.616498
 21
14.599904
 31
0.0
 11
22.616498
 21
14.837060
 31
0.0
 11
22.699674
 21
15.062917
 31
0.0
 11
22.856235
 21
15.245724
 31
0.0
 11
23.063243
 21
15.361441
 31
0.0
 11
23.300974
 21
15.399043
 31
0.0
 11
23.860457
 21
15.399043
 31
0.0
 11
24.899498
 21
15.399043
 31
0.0
 11
25.458981
 21
15.399043
 31
0.0
 11
25.696712
 21
15.361441
 31
0.0
 11
25.903720
 21
15.245724
 31
0.0
 11
26.060281
 21
15.062917
 31
0.0
 11
26.143457
 21
14.837060
 31
0.0
 11
26.143457
 21
14.599904
 31
0.0
 11
26.060281
 21
14.374047
 31
0.0
 11
25.903720
 21
14.191240
 31
0.0
 11
25.696712
 21
14.075523
 31
0.0
 11
25.458981
 21
14.037921
 31
0.0
  0
LWPOLYLINE
  5
14e
100
AcDbEntity
  8
0
 62
7
100
AcDbPolyline
 90
2
 70
0
 10
25.458981
 20
14.037921
 30
0.0
 10
23.300974
 20
14.037921
 30
0.0
  0
SPLINE
  5
14f
100
AcDbEntity
  8
0
 62
7
100
AcDbSpline
 70
0
 71
3
 72
28
 73
24
 74
22
 40
0.000000
 40
0.000000
 40
0.000000
 40
0.000000
 40
0.240542
 40
0.477559
 40
0.718100
 40
0.958642
 40
1.195659
 40
1.436201
 40
1.676742
 40
1.913760
 40
2.154301
 40
2.713785
 40
3.752825
 40
4.312309
 40
4.552850
 40
4.789868
 40
5.030409
 40
5.270951
 40
5.507968
 40
5.748510
 40
5.989051
 40
6.226068
 40
6.466610
 40
6.466610
 40
6.466610
 40
6.466610
 10
26.951397
 20
14.438394
 30
0.0
 10
26.870648
 20
14.445136
 30
0.0
 10
26.710332
 20
14.458522
 30
0.0
 10
26.497081
 20
14.582697
 30
0.0
 10
26.338164
 20
14.767122
 30
0.0
 10
26.253728
 20
14.996915
 30
0.0
 10
26.253730
 20
15.241035
 30
0.0
 10
26.338158
 20
15.470752
 30
0.0
 10
26.497102
 20
15.655478
 30
0.0
 10
26.710254
 20
15.778539
 30
0.0
 10
27.058927
 20
15.813680
 30
0.0
 10
27.669744
 20
15.791338
 30
0.0
 10
28.391058
 20
15.791338
 30
0.0
 10
29.001875
 20
15.813680
 30
0.0
 10
29.350549
 20
15.778539
 30
0.0
 10
29.563700
 20
15.655478
 30
0.0
 10
29.722644
 20
15.470752
 30
0.0
 10
29.807072
 20
15.241035
 30
0.0
 10
29.807074
 20
14.996915
 30
0.0
 10
29.722638
 20
14.767122
 30
0.0
 10
29.563721
 20
14.582697
 30
0.0
 10
29.350471
 20
14.458522
 30
0.0
 10
29.190155
 20
14.445136
 30
0.0
 10
29.109405
 20
14.438394
 30
0.0
 11
26.951397
 21
14.438394
 31
0.0
 11
26.713841
 21
14.476175
 31
0.0
 11
26.507028
 21
14.591957
 31
0.0
 11
26.350638
 21
14.774721
 31
0.0
 11
26.267560
 21
15.000460
 31
0.0
 11
26.267560
 21
15.237477
 31
0.0
 11
26.350638
 21
15.463217
 31
0.0
 11
26.507028
 21
15.645980
 31
0.0
 11
26.713841
 21
15.761762
 31
0.0
 11
26.951397
 21
15.799543
 31
0.0
 11
27.510881
 21
15.799543
 31
0.0
 11
28.549921
 21
15.799543
 31
0.0
 11
29.109405
 21
15.799543
 31
0.0
 11
29.346961
 21
15.761762
 31
0.0
 11
29.553774
 21
15.645980
 31
0.0
 11
29.710164
 21
15.463217
 31
0.0
 11
29.793242
 21
15.237477
 31
0.0
 11
29.793242
 21
15.000460
 31
0.0
 11
29.710164
 21
14.774721
 31
0.0
 11
29.553774
 21
14.591957
 31
0.0
 11
29.346961
 21
14.476175
 31
0.0
 11
29.109405
 21
14.438394
 31
0.0
  0
LWPOLYLINE
  5
150
100
AcDbEntity
  8
0
 62
7
100
AcDbPolyline
 90
2
 70
0
 10
29.109405
 20
14.438394
 30
0.0
 10
26.951397
 20
14.438394
 30
0.0
  0
SPLINE
  5
151
100
AcDbEntity
  8
0
 62
7
100
AcDbSpline
 70
0
 71
3
 72
16
 73
12
 74
10
 40
0.000000
 40
0.000000
 40
0.000000
 40
0.000000
 40
0.307256
 40
0.609953
 40
0.917208
 40
1.224464
 40
1.527161
 40
1.834416
 40
2.141672
 40
2.444369
 40
2.751625
 40
2.751625
 40
2.751625
 40
2.751625
 10
19.251957
 20
64.502826
 30
0.0
 10
19.355198
 20
64.495246
 30
0.0
 10
19.560150
 20
64.480200
 30
0.0
 10
19.833753
 20
64.323463
 30
0.0
 10
20.037905
 20
64.088821
 30
0.0
 10
20.146481
 20
63.795475
 30
0.0
 10
20.146481
 20
63.483613
 30
0.0
 10
20.037905
 20
63.190267
 30
0.0
 10
19.833753
 20
62.955624
 30
0.0
 10
19.560150
 20
62.798888
 30
0.0
 10
19.355198
 20
62.783841
 30
0.0
 10
19.251957
 20
62.776261
 30
0.0
 11
19.251957
 21
64.502826
 31
0.0
 11
19.555845
 21
64.457457
 31
0.0
 11
19.821018
 21
64.311483
 31
0.0
 11
20.021897
 21
64.078988
 31
0.0
 11
20.128699
 21
63.790892
 31
0.0
 11
20.128699
 21
63.488195
 31
0.0
 11
20.021897
 21
63.200099
 31
0.0
 11
19.821018
 21
62.967604
 31
0.0
 11
19.555845
 21
62.821631
 31
0.0
 11
19.251957
 21
62.776261
 31
0.0
  0
LWPOLYLINE
  5
152
100
AcDbEntity
  8
0
 62
7
100
AcDbPolyline
 90
2
 70
0
 10
19.251957
 20
62.776261
 30
0.0
 10
17.728519
 20
62.776261
 30
0.0
  0
SPLINE
  5
153
100
AcDbEntity
  8
0
 62
7
100
AcDbSpline
 70
0
 71
3
 72
16
 73
12
 74
10
 40
0.000000
 40
0.000000
 40
0.000000
 40
0.000000
 40
0.307256
 40
0.609953
 40
0.917208
 40
1.224464
 40
1.527161
 40
1.834416
 40
2.141672
 40
2.444369
 40
2.751625
 40
2.751625
 40
2.751625
 40
2.751625
 10
17.728519
 20
62.776261
 30
0.0
 10
17.625278
 20
62.783841
 30
0.0
 10
17.420327
 20
62.798888
 30
0.0
 10
17.146724
 20
62.955624
 30
0.0
 10
16.942571
 20
63.190267
 30
0.0
 10
16.833995
 20
63.483613
 30
0.0
 10
16.833995
 20
63.795475
 30
0.0
 10
16.942571
 20
64.088821
 30
0.0
 10
17.146724
 20
64.323463
 30
0.0
 10
17.420327
 20
64.480200
 30
0.0
 10
17.625278
 20
64.495246
 30
0.0
 10
17.728519
 20
64.502826
 30
0.0
 11
17.728519
 21
62.776261
 31
0.0
 11
17.424632
 21
62.821631
 31
0.0
 11
17.159458
 21
62.967604
 31
0.0
 11
16.958580
 21
63.200099
 31
0.0
 11
16.851778
 21
63.488195
 31
0.0
 11
16.851778
 21
63.790892
 31
0.0
 11
16.958580
 21
64.078988
 31
0.0
 11
17.159458
 21
64.311483
 31
0.0
 11
17.424632
 21
64.457457
 31
0.0
 11
17.728519
 21
64.502826
 31
0.0
  0
LWPOLYLINE
  5
154
100
AcDbEntity
  8
0
 62
7
100
AcDbPolyline
 90
2
 70
0
 10
17.728519
 20
64.502826
 30
0.0
 10
19.251957
 20
64.502826
 30
0.0
  0
SPLINE
  5
155
100
AcDbEntity
  8
0
 62
7
100
AcDbSpline
 70
0
 71
3
 72
22
 73
18
 74
16
 40
0.000000
 40
0.000000
 40
0.000000
 40
0.000000
 40
0.447307
 40
0.881353
 40
1.328660
 40
1.719573
 40
2.445554
 40
2.836467
 40
3.139345
 40
3.437772
 40
3.740650
 40
4.043528
 40
4.341954
 40
4.644832
 40
4.947710
 40
5.246137
 40
5.549015
 40
5.549015
 40
5.549015
 40
5.549015
 10
33.542973
 20
19.241084
 30
0.0
 10
33.692965
 20
19.215461
 30
0.0
 10
33.988504
 20
19.164974
 30
0.0
 10
34.317902
 20
18.820353
 30
0.0
 10
34.402269
 20
18.391880
 30
0.0
 10
34.379613
 20
17.871807
 30
0.0
 10
34.382638
 20
17.368145
 30
0.0
 10
34.395752
 20
16.896291
 30
0.0
 10
34.360576
 20
16.562352
 30
0.0
 10
34.206657
 20
16.293728
 30
0.0
 10
33.974131
 20
16.093293
 30
0.0
 10
33.684970
 20
15.986813
 30
0.0
 10
33.377560
 20
15.986810
 30
0.0
 10
33.088265
 20
16.093304
 30
0.0
 10
32.856271
 20
16.293688
 30
0.0
 10
32.700375
 20
16.562499
 30
0.0
 10
32.684022
 20
16.764405
 30
0.0
 10
32.675785
 20
16.866105
 30
0.0
 11
33.542973
 21
19.241084
 31
0.0
 11
33.973108
 21
19.118336
 31
0.0
 11
34.275794
 21
18.807247
 31
0.0
 11
34.386722
 21
18.373913
 31
0.0
 11
34.386722
 21
17.983000
 31
0.0
 11
34.386722
 21
17.257018
 31
0.0
 11
34.386722
 21
16.866105
 31
0.0
 11
34.339856
 21
16.566875
 31
0.0
 11
34.194539
 21
16.306220
 31
0.0
 11
33.964645
 21
16.109029
 31
0.0
 11
33.680467
 21
16.004254
 31
0.0
 11
33.382041
 21
16.004254
 31
0.0
 11
33.097862
 21
16.109029
 31
0.0
 11
32.867969
 21
16.306220
 31
0.0
 11
32.722651
 21
16.566875
 31
0.0
 11
32.675785
 21
16.866105
 31
0.0
  0
LWPOLYLINE
  5
156
100
AcDbEntity
  8
0
 62
7
100
AcDbPolyline
 90
2
 70
0
 10
32.675785
 20
16.866105
 30
0.0
 10
32.675785
 20
18.373913
 30
0.0
  0
SPLINE
  5
157
100
AcDbEntity
  8
0
 62
7
100
AcDbSpline
 70
0
 71
3
 72
13
 73
9
 74
7
 40
0.000000
 40
0.000000
 40
0.000000
 40
0.000000
 40
0.227853
 40
0.453757
 40
0.681609
 40
0.909462
 40
1.135366
 40
1.363219
 40
1.363219
 40
1.363219
 40
1.363219
 10
32.675785
 20
18.373913
 30
0.0
 10
32.680660
 20
18.450166
 30
0.0
 10
32.690367
 20
18.602020
 30
0.0
 10
32.780342
 20
18.814960
 30
0.0
 10
32.918907
 20
18.997974
 30
0.0
 10
33.101923
 20
19.136535
 30
0.0
 10
33.314864
 20
19.226507
 30
0.0
 10
33.466719
 20
19.236211
 30
0.0
 10
33.542973
 20
19.241084
 30
0.0
 11
32.675785
 21
18.373913
 31
0.0
 11
32.703064
 21
18.600126
 31
0.0
 11
32.788103
 21
18.809414
 31
0.0
 11
32.926337
 21
18.990544
 31
0.0
 11
33.107469
 21
19.128775
 31
0.0
 11
33.316758
 21
19.213809
 31
0.0
 11
33.542973
 21
19.241084
 31
0.0
  0
LWPOLYLINE
  5
158
100
AcDbEntity
  8
0
 62
7
100
AcDbPolyline
 90
1
 70
1
 10
33.542973
 20
19.241084
 30
0.0
  0
SPLINE
  5
159
100
AcDbEntity
  8
0
 62
7
100
AcDbSpline
 70
0
 71
3
 72
25
 73
21
 74
19
 40
0.000000
 40
0.000000
 40
0.000000
 40
0.000000
 40
0.332074
 40
0.659396
 40
0.991470
 40
1.323545
 40
1.650866
 40
1.982941
 40
2.315015
 40
2.642337
 40
2.974411
 40
3.306485
 40
3.633807
 40
3.965881
 40
4.297955
 40
4.625277
 40
4.957351
 40
5.289426
 40
5.616747
 40
5.948822
 40
5.948822
 40
5.948822
 40
5.948822
 10
32.482208
 20
20.119289
 30
0.0
 10
32.470839
 20
20.230545
 30
0.0
 10
32.448262
 20
20.451465
 30
0.0
 10
32.273104
 20
20.743414
 30
0.0
 10
32.016644
 20
20.960470
 30
0.0
 10
31.699065
 20
21.075590
 30
0.0
 10
31.362079
 20
21.075590
 30
0.0
 10
31.044945
 20
20.960470
 30
0.0
 10
30.786709
 20
20.743414
 30
0.0
 10
30.618149
 20
20.451465
 30
0.0
 10
30.559297
 20
20.119289
 30
0.0
 10
30.618149
 20
19.787114
 30
0.0
 10
30.786709
 20
19.495165
 30
0.0
 10
31.044945
 20
19.278109
 30
0.0
 10
31.362079
 20
19.162989
 30
0.0
 10
31.699065
 20
19.162989
 30
0.0
 10
32.016644
 20
19.278109
 30
0.0
 10
32.273104
 20
19.495165
 30
0.0
 10
32.448262
 20
19.787114
 30
0.0
 10
32.470839
 20
20.008033
 30
0.0
 10
32.482208
 20
20.119289
 30
0.0
 11
32.482208
 21
20.119289
 31
0.0
 11
32.424281
 21
20.446272
 31
0.0
 11
32.260620
 21
20.729741
 31
0.0
 11
32.006408
 21
20.943399
 31
0.0
 11
31.694269
 21
21.056724
 31
0.0
 11
31.366948
 21
21.056724
 31
0.0
 11
31.054808
 21
20.943399
 31
0.0
 11
30.800597
 21
20.729741
 31
0.0
 11
30.636936
 21
20.446272
 31
0.0
 11
30.579008
 21
20.119289
 31
0.0
 11
30.636936
 21
19.792307
 31
0.0
 11
30.800597
 21
19.508838
 31
0.0
 11
31.054808
 21
19.295180
 31
0.0
 11
31.366948
 21
19.181855
 31
0.0
 11
31.694269
 21
19.181855
 31
0.0
 11
32.006408
 21
19.295180
 31
0.0
 11
32.260620
 21
19.508838
 31
0.0
 11
32.424281
 21
19.792307
 31
0.0
 11
32.482208
 21
20.119289
 31
0.0
  0
LWPOLYLINE
  5
15a
100
AcDbEntity
  8
0
 62
7
100
AcDbPolyline
 90
1
 70
1
 10
32.482208
 20
20.119289
 30
0.0
  0
SPLINE
  5
15b
100
AcDbEntity
  8
0
 62
7
100
AcDbSpline
 70
0
 71
3
 72
25
 73
21
 74
19
 40
0.000000
 40
0.000000
 40
0.000000
 40
0.000000
 40
0.332074
 40
0.659396
 40
0.991470
 40
1.323545
 40
1.650866
 40
1.982941
 40
2.315015
 40
2.642337
 40
2.974411
 40
3.306485
 40
3.633807
 40
3.965881
 40
4.297955
 40
4.625277
 40
4.957351
 40
5.289426
 40
5.616747
 40
5.948822
 40
5.948822
 40
5.948822
 40
5.948822
 10
32.482208
 20
14.619290
 30
0.0
 10
32.470839
 20
14.730546
 30
0.0
 10
32.448262
 20
14.951466
 30
0.0
 10
32.273104
 20
15.243414
 30
0.0
 10
32.016644
 20
15.460471
 30
0.0
 10
31.699065
 20
15.575590
 30
0.0
 10
31.362079
 20
15.575590
 30
0.0
 10
31.044945
 20
15.460471
 30
0.0
 10
30.786709
 20
15.243414
 30
0.0
 10
30.618149
 20
14.951466
 30
0.0
 10
30.559297
 20
14.619290
 30
0.0
 10
30.618149
 20
14.287114
 30
0.0
 10
30.786709
 20
13.995165
 30
0.0
 10
31.044945
 20
13.778109
 30
0.0
 10
31.362079
 20
13.662990
 30
0.0
 10
31.699065
 20
13.662990
 30
0.0
 10
32.016644
 20
13.778109
 30
0.0
 10
32.273104
 20
13.995165
 30
0.0
 10
32.448262
 20
14.287114
 30
0.0
 10
32.470839
 20
14.508034
 30
0.0
 10
32.482208
 20
14.619290
 30
0.0
 11
32.482208
 21
14.619290
 31
0.0
 11
32.424281
 21
14.946273
 31
0.0
 11
32.260620
 21
15.229742
 31
0.0
 11
32.006408
 21
15.443400
 31
0.0
 11
31.694269
 21
15.556724
 31
0.0
 11
31.366948
 21
15.556724
 31
0.0
 11
31.054808
 21
15.443400
 31
0.0
 11
30.800597
 21
15.229742
 31
0.0
 11
30.636936
 21
14.946273
 31
0.0
 11
30.579008
 21
14.619290
 31
0.0
 11
30.636936
 21
14.292307
 31
0.0
 11
30.800597
 21
14.008838
 31
0.0
 11
31.054808
 21
13.795180
 31
0.0
 11
31.366948
 21
13.681855
 31
0.0
 11
31.694269
 21
13.681855
 31
0.0
 11
32.006408
 21
13.795180
 31
0.0
 11
32.260620
 21
14.008838
 31
0.0
 11
32.424281
 21
14.292307
 31
0.0
 11
32.482208
 21
14.619290
 31
0.0
  0
LWPOLYLINE
  5
15c
100
AcDbEntity
  8
0
 62
7
100
AcDbPolyline
 90
1
 70
1
 10
32.482208
 20
14.619290
 30
0.0
  0
SPLINE
  5
15d
100
AcDbEntity
  8
0
 62
7
100
AcDbSpline
 70
0
 71
3
 72
25
 73
21
 74
19
 40
0.000000
 40
0.000000
 40
0.000000
 40
0.000000
 40
0.596589
 40
1.184640
 40
1.781229
 40
2.377818
 40
2.965869
 40
3.562458
 40
4.159047
 40
4.747098
 40
5.343687
 40
5.940276
 40
6.528327
 40
7.124916
 40
7.721505
 40
8.309556
 40
8.906145
 40
9.502734
 40
10.090785
 40
10.687374
 40
10.687374
 40
10.687374
 40
10.687374
 10
33.240208
 20
25.419317
 30
0.0
 10
33.219782
 20
25.619194
 30
0.0
 10
33.179222
 20
26.016088
 30
0.0
 10
32.864542
 20
26.540590
 30
0.0
 10
32.403796
 20
26.930543
 30
0.0
 10
31.833250
 20
27.137361
 30
0.0
 10
31.227836
 20
27.137361
 30
0.0
 10
30.658089
 20
26.930543
 30
0.0
 10
30.194153
 20
26.540590
 30
0.0
 10
29.891327
 20
26.016088
 30
0.0
 10
29.785596
 20
25.419317
 30
0.0
 10
29.891327
 20
24.822546
 30
0.0
 10
30.194153
 20
24.298044
 30
0.0
 10
30.658089
 20
23.908091
 30
0.0
 10
31.227836
 20
23.701273
 30
0.0
 10
31.833250
 20
23.701273
 30
0.0
 10
32.403796
 20
23.908091
 30
0.0
 10
32.864542
 20
24.298044
 30
0.0
 10
33.179222
 20
24.822546
 30
0.0
 10
33.219782
 20
25.219440
 30
0.0
 10
33.240208
 20
25.419317
 30
0.0
 11
33.240208
 21
25.419317
 31
0.0
 11
33.136139
 21
26.006759
 31
0.0
 11
32.842113
 21
26.516026
 31
0.0
 11
32.385409
 21
26.899874
 31
0.0
 11
31.824634
 21
27.103468
 31
0.0
 11
31.236583
 21
27.103468
 31
0.0
 11
30.675809
 21
26.899874
 31
0.0
 11
30.219104
 21
26.516026
 31
0.0
 11
29.925079
 21
26.006759
 31
0.0
 11
29.821009
 21
25.419317
 31
0.0
 11
29.925079
 21
24.831875
 31
0.0
 11
30.219104
 21
24.322608
 31
0.0
 11
30.675809
 21
23.938760
 31
0.0
 11
31.236583
 21
23.735166
 31
0.0
 11
31.824634
 21
23.735166
 31
0.0
 11
32.385409
 21
23.938760
 31
0.0
 11
32.842113
 21
24.322608
 31
0.0
 11
33.136139
 21
24.831875
 31
0.0
 11
33.240208
 21
25.419317
 31
0.0
  0
LWPOLYLINE
  5
15e
100
AcDbEntity
  8
0
 62
7
100
AcDbPolyline
 90
1
 70
1
 10
33.240208
 20
25.419317
 30
0.0
  0
SPLINE
  5
15f
100
AcDbEntity
  8
0
 62
7
100
AcDbSpline
 70
0
 71
3
 72
16
 73
12
 74
10
 40
0.000000
 40
0.000000
 40
0.000000
 40
0.000000
 40
0.307256
 40
0.609953
 40
0.917208
 40
1.224464
 40
1.527161
 40
1.834416
 40
2.141672
 40
2.444369
 40
2.751625
 40
2.751625
 40
2.751625
 40
2.751625
 10
19.251957
 20
59.422747
 30
0.0
 10
19.355198
 20
59.415167
 30
0.0
 10
19.560150
 20
59.400120
 30
0.0
 10
19.833753
 20
59.243384
 30
0.0
 10
20.037905
 20
59.008741
 30
0.0
 10
20.146481
 20
58.715395
 30
0.0
 10
20.146481
 20
58.403533
 30
0.0
 10
20.037905
 20
58.110187
 30
0.0
 10
19.833753
 20
57.875545
 30
0.0
 10
19.560150
 20
57.718808
 30
0.0
 10
19.355198
 20
57.703761
 30
0.0
 10
19.251957
 20
57.696182
 30
0.0
 11
19.251957
 21
59.422747
 31
0.0
 11
19.555845
 21
59.377377
 31
0.0
 11
19.821018
 21
59.231404
 31
0.0
 11
20.021897
 21
58.998909
 31
0.0
 11
20.128699
 21
58.710813
 31
0.0
 11
20.128699
 21
58.408116
 31
0.0
 11
20.021897
 21
58.120020
 31
0.0
 11
19.821018
 21
57.887525
 31
0.0
 11
19.555845
 21
57.741551
 31
0.0
 11
19.251957
 21
57.696182
 31
0.0
  0
LWPOLYLINE
  5
160
100
AcDbEntity
  8
0
 62
7
100
AcDbPolyline
 90
2
 70
0
 10
19.251957
 20
57.696182
 30
0.0
 10
17.728519
 20
57.696182
 30
0.0
  0
SPLINE
  5
161
100
AcDbEntity
  8
0
 62
7
100
AcDbSpline
 70
0
 71
3
 72
16
 73
12
 74
10
 40
0.000000
 40
0.000000
 40
0.000000
 40
0.000000
 40
0.307256
 40
0.609953
 40
0.917208
 40
1.224464
 40
1.527161
 40
1.834416
 40
2.141672
 40
2.444369
 40
2.751625
 40
2.751625
 40
2.751625
 40
2.751625
 10
17.728519
 20
57.696182
 30
0.0
 10
17.625278
 20
57.703761
 30
0.0
 10
17.420327
 20
57.718808
 30
0.0
 10
17.146724
 20
57.875545
 30
0.0
 10
16.942571
 20
58.110187
 30
0.0
 10
16.833995
 20
58.403533
 30
0.0
 10
16.833995
 20
58.715395
 30
0.0
 10
16.942571
 20
59.008741
 30
0.0
 10
17.146724
 20
59.243384
 30
0.0
 10
17.420327
 20
59.400120
 30
0.0
 10
17.625278
 20
59.415167
 30
0.0
 10
17.728519
 20
59.422747
 30
0.0
 11
17.728519
 21
57.696182
 31
0.0
 11
17.424632
 21
57.741551
 31
0.0
 11
17.159458
 21
57.887525
 31
0.0
 11
16.958580
 21
58.120020
 31
0.0
 11
16.851778
 21
58.408116
 31
0.0
 11
16.851778
 21
58.710813
 31
0.0
 11
16.958580
 21
58.998909
 31
0.0
 11
17.159458
 21
59.231404
 31
0.0
 11
17.424632
 21
59.377377
 31
0.0
 11
17.728519
 21
59.422747
 31
0.0
  0
LWPOLYLINE
  5
162
100
AcDbEntity
  8
0
 62
7
100
AcDbPolyline
 90
2
 70
0
 10
17.728519
 20
59.422747
 30
0.0
 10
19.251957
 20
59.422747
 30
0.0
  0
SPLINE
  5
163
100
AcDbEntity
  8
0
 62
7
100
AcDbSpline
 70
0
 71
3
 72
25
 73
21
 74
19
 40
0.000000
 40
0.000000
 40
0.000000
 40
0.000000
 40
0.596589
 40
1.184640
 40
1.781229
 40
2.377818
 40
2.965869
 40
3.562458
 40
4.159047
 40
4.747098
 40
5.343687
 40
5.940276
 40
6.528327
 40
7.124916
 40
7.721505
 40
8.309556
 40
8.906145
 40
9.502734
 40
10.090785
 40
10.687374
 40
10.687374
 40
10.687374
 40
10.687374
 10
33.240208
 20
9.819325
 30
0.0
 10
33.219782
 20
10.019202
 30
0.0
 10
33.179222
 20
10.416096
 30
0.0
 10
32.864542
 20
10.940598
 30
0.0
 10
32.403796
 20
11.330551
 30
0.0
 10
31.833250
 20
11.537369
 30
0.0
 10
31.227836
 20
11.537369
 30
0.0
 10
30.658089
 20
11.330551
 30
0.0
 10
30.194153
 20
10.940598
 30
0.0
 10
29.891327
 20
10.416096
 30
0.0
 10
29.785596
 20
9.819325
 30
0.0
 10
29.891327
 20
9.222554
 30
0.0
 10
30.194153
 20
8.698052
 30
0.0
 10
30.658089
 20
8.308099
 30
0.0
 10
31.227836
 20
8.101281
 30
0.0
 10
31.833250
 20
8.101281
 30
0.0
 10
32.403796
 20
8.308099
 30
0.0
 10
32.864542
 20
8.698052
 30
0.0
 10
33.179222
 20
9.222554
 30
0.0
 10
33.219782
 20
9.619448
 30
0.0
 10
33.240208
 20
9.819325
 30
0.0
 11
33.240208
 21
9.819325
 31
0.0
 11
33.136139
 21
10.406767
 31
0.0
 11
32.842113
 21
10.916034
 31
0.0
 11
32.385409
 21
11.299882
 31
0.0
 11
31.824634
 21
11.503476
 31
0.0
 11
31.236583
 21
11.503476
 31
0.0
 11
30.675809
 21
11.299882
 31
0.0
 11
30.219104
 21
10.916034
 31
0.0
 11
29.925079
 21
10.406767
 31
0.0
 11
29.821009
 21
9.819325
 31
0.0
 11
29.925079
 21
9.231883
 31
0.0
 11
30.219104
 21
8.722616
 31
0.0
 11
30.675809
 21
8.338768
 31
0.0
 11
31.236583
 21
8.135174
 31
0.0
 11
31.824634
 21
8.135174
 31
0.0
 11
32.385409
 21
8.338768
 31
0.0
 11
32.842113
 21
8.722616
 31
0.0
 11
33.136139
 21
9.231883
 31
0.0
 11
33.240208
 21
9.819325
 31
0.0
  0
LWPOLYLINE
  5
164
100
AcDbEntity
  8
0
 62
7
100
AcDbPolyline
 90
1
 70
1
 10
33.240208
 20
9.819325
 30
0.0
  0
SPLINE
  5
165
100
AcDbEntity
  8
0
 62
7
100
AcDbSpline
 70
0
 71
3
 72
16
 73
12
 74
10
 40
0.000000
 40
0.000000
 40
0.000000
 40
0.000000
 40
0.301596
 40
0.598876
 40
0.900472
 40
1.202069
 40
1.499349
 40
1.800945
 40
2.102541
 40
2.399821
 40
2.701417
 40
2.701417
 40
2.701417
 40
2.701417
 10
19.251957
 20
61.963752
 30
0.0
 10
19.353002
 20
61.953426
 30
0.0
 10
19.553645
 20
61.932922
 30
0.0
 10
19.818799
 20
61.773838
 30
0.0
 10
20.015933
 20
61.540924
 30
0.0
 10
20.120487
 20
61.252462
 30
0.0
 10
20.120487
 20
60.946520
 30
0.0
 10
20.015933
 20
60.658058
 30
0.0
 10
19.818799
 20
60.425143
 30
0.0
 10
19.553645
 20
60.266059
 30
0.0
 10
19.353002
 20
60.245555
 30
0.0
 10
19.251957
 20
60.235229
 30
0.0
 11
19.251957
 21
61.963752
 31
0.0
 11
19.548929
 21
61.911141
 31
0.0
 11
19.806381
 21
61.762501
 31
0.0
 11
20.000429
 21
61.531621
 31
0.0
 11
20.103353
 21
61.248131
 31
0.0
 11
20.103353
 21
60.950851
 31
0.0
 11
20.000429
 21
60.667360
 31
0.0
 11
19.806381
 21
60.436480
 31
0.0
 11
19.548929
 21
60.287840
 31
0.0
 11
19.251957
 21
60.235229
 31
0.0
  0
LWPOLYLINE
  5
166
100
AcDbEntity
  8
0
 62
7
100
AcDbPolyline
 90
2
 70
0
 10
19.251957
 20
60.235229
 30
0.0
 10
17.728519
 20
60.235229
 30
0.0
  0
SPLINE
  5
167
100
AcDbEntity
  8
0
 62
7
100
AcDbSpline
 70
0
 71
3
 72
16
 73
12
 74
10
 40
0.000000
 40
0.000000
 40
0.000000
 40
0.000000
 40
0.301596
 40
0.598876
 40
0.900472
 40
1.202069
 40
1.499349
 40
1.800945
 40
2.102541
 40
2.399821
 40
2.701417
 40
2.701417
 40
2.701417
 40
2.701417
 10
17.728519
 20
60.235229
 30
0.0
 10
17.627475
 20
60.245555
 30
0.0
 10
17.426831
 20
60.266059
 30
0.0
 10
17.161678
 20
60.425143
 30
0.0
 10
16.964543
 20
60.658058
 30
0.0
 10
16.859989
 20
60.946520
 30
0.0
 10
16.859989
 20
61.252462
 30
0.0
 10
16.964543
 20
61.540924
 30
0.0
 10
17.161678
 20
61.773838
 30
0.0
 10
17.426831
 20
61.932922
 30
0.0
 10
17.627475
 20
61.953426
 30
0.0
 10
17.728519
 20
61.963752
 30
0.0
 11
17.728519
 21
60.235229
 31
0.0
 11
17.431547
 21
60.287840
 31
0.0
 11
17.174096
 21
60.436480
 31
0.0
 11
16.980047
 21
60.667360
 31
0.0
 11
16.877123
 21
60.950851
 31
0.0
 11
16.877123
 21
61.248131
 31
0.0
 11
16.980047
 21
61.531621
 31
0.0
 11
17.174096
 21
61.762501
 31
0.0
 11
17.431547
 21
61.911141
 31
0.0
 11
17.728519
 21
61.963752
 31
0.0
  0
LWPOLYLINE
  5
168
100
AcDbEntity
  8
0
 62
7
100
AcDbPolyline
 90
2
 70
0
 10
17.728519
 20
61.963752
 30
0.0
 10
19.251957
 20
61.963752
 30
0.0
  0
SPLINE
  5
169
100
AcDbEntity
  8
0
 62
7
100
AcDbSpline
 70
0
 71
3
 72
25
 73
21
 74
19
 40
0.000000
 40
0.000000
 40
0.000000
 40
0.000000
 40
0.593946
 40
1.179387
 40
1.773333
 40
2.367278
 40
2.952720
 40
3.546665
 40
4.140611
 40
4.726052
 40
5.319998
 40
5.913944
 40
6.499385
 40
7.093331
 40
7.687277
 40
8.272718
 40
8.866664
 40
9.460609
 40
10.046051
 40
10.639996
 40
10.639996
 40
10.639996
 40
10.639996
 10
5.332210
 20
3.569311
 30
0.0
 10
5.311948
 20
3.768311
 30
0.0
 10
5.271713
 20
4.163462
 30
0.0
 10
4.958559
 20
4.685727
 30
0.0
 10
4.499920
 20
5.074036
 30
0.0
 10
3.931915
 20
5.279989
 30
0.0
 10
3.329180
 20
5.279989
 30
0.0
 10
2.761967
 20
5.074036
 30
0.0
 10
2.300163
 20
4.685727
 30
0.0
 10
1.998769
 20
4.163462
 30
0.0
 10
1.893885
 20
3.569311
 30
0.0
 10
1.998769
 20
2.975160
 30
0.0
 10
2.300163
 20
2.452894
 30
0.0
 10
2.761967
 20
2.064586
 30
0.0
 10
3.329180
 20
1.858633
 30
0.0
 10
3.931915
 20
1.858633
 30
0.0
 10
4.499920
 20
2.064586
 30
0.0
 10
4.958559
 20
2.452894
 30
0.0
 10
5.271713
 20
2.975160
 30
0.0
 10
5.311948
 20
3.370311
 30
0.0
 10
5.332210
 20
3.569311
 30
0.0
 11
5.332210
 21
3.569311
 31
0.0
 11
5.228806
 21
4.154186
 31
0.0
 11
4.936219
 21
4.661270
 31
0.0
 11
4.481605
 21
5.043497
 31
0.0
 11
3.923333
 21
5.246238
 31
0.0
 11
3.337891
 21
5.246238
 31
0.0
 11
2.779619
 21
5.043497
 31
0.0
 11
2.325005
 21
4.661270
 31
0.0
 11
2.032418
 21
4.154186
 31
0.0
 11
1.929014
 21
3.569311
 31
0.0
 11
2.032418
 21
2.984436
 31
0.0
 11
2.325005
 21
2.477352
 31
0.0
 11
2.779619
 21
2.095124
 31
0.0
 11
3.337891
 21
1.892384
 31
0.0
 11
3.923333
 21
1.892384
 31
0.0
 11
4.481605
 21
2.095124
 31
0.0
 11
4.936219
 21
2.477352
 31
0.0
 11
5.228806
 21
2.984436
 31
0.0
 11
5.332210
 21
3.569311
 31
0.0
  0
LWPOLYLINE
  5
16a
100
AcDbEntity
  8
0
 62
7
100
AcDbPolyline
 90
1
 70
1
 10
5.332210
 20
3.569311
 30
0.0
  0
SPLINE
  5
16b
100
AcDbEntity
  8
0
 62
7
100
AcDbSpline
 70
0
 71
3
 72
25
 73
21
 74
19
 40
0.000000
 40
0.000000
 40
0.000000
 40
0.000000
 40
0.327957
 40
0.651220
 40
0.979176
 40
1.307133
 40
1.630396
 40
1.958353
 40
2.286309
 40
2.609573
 40
2.937529
 40
3.265486
 40
3.588749
 40
3.916706
 40
4.244662
 40
4.567925
 40
4.895882
 40
5.223839
 40
5.547102
 40
5.875058
 40
5.875058
 40
5.875058
 40
5.875058
 10
20.370409
 20
34.919340
 30
0.0
 10
20.359180
 20
35.029217
 30
0.0
 10
20.336884
 20
35.247397
 30
0.0
 10
20.163898
 20
35.535726
 30
0.0
 10
19.910617
 20
35.750091
 30
0.0
 10
19.596976
 20
35.863783
 30
0.0
 10
19.264168
 20
35.863783
 30
0.0
 10
18.950967
 20
35.750091
 30
0.0
 10
18.695933
 20
35.535726
 30
0.0
 10
18.529463
 20
35.247397
 30
0.0
 10
18.471341
 20
34.919340
 30
0.0
 10
18.529463
 20
34.591283
 30
0.0
 10
18.695933
 20
34.302955
 30
0.0
 10
18.950967
 20
34.088590
 30
0.0
 10
19.264168
 20
33.974898
 30
0.0
 10
19.596976
 20
33.974898
 30
0.0
 10
19.910617
 20
34.088590
 30
0.0
 10
20.163898
 20
34.302955
 30
0.0
 10
20.336884
 20
34.591283
 30
0.0
 10
20.359180
 20
34.809464
 30
0.0
 10
20.370409
 20
34.919340
 30
0.0
 11
20.370409
 21
34.919340
 31
0.0
 11
20.313200
 21
35.242269
 31
0.0
 11
20.151568
 21
35.522223
 31
0.0
 11
19.900509
 21
35.733231
 31
0.0
 11
19.592240
 21
35.845151
 31
0.0
 11
19.268977
 21
35.845151
 31
0.0
 11
18.960708
 21
35.733231
 31
0.0
 11
18.709649
 21
35.522223
 31
0.0
 11
18.548017
 21
35.242269
 31
0.0
 11
18.490808
 21
34.919340
 31
0.0
 11
18.548017
 21
34.596412
 31
0.0
 11
18.709649
 21
34.316458
 31
0.0
 11
18.960708
 21
34.105449
 31
0.0
 11
19.268977
 21
33.993530
 31
0.0
 11
19.592240
 21
33.993530
 31
0.0
 11
19.900509
 21
34.105449
 31
0.0
 11
20.151568
 21
34.316458
 31
0.0
 11
20.313200
 21
34.596412
 31
0.0
 11
20.370409
 21
34.919340
 31
0.0
  0
LWPOLYLINE
  5
16c
100
AcDbEntity
  8
0
 62
7
100
AcDbPolyline
 90
1
 70
1
 10
20.370409
 20
34.919340
 30
0.0
  0
SPLINE
  5
16d
100
AcDbEntity
  8
0
 62
7
100
AcDbSpline
 70
0
 71
3
 72
25
 73
21
 74
19
 40
0.000000
 40
0.000000
 40
0.000000
 40
0.000000
 40
0.327957
 40
0.651220
 40
0.979176
 40
1.307133
 40
1.630396
 40
1.958353
 40
2.286309
 40
2.609573
 40
2.937529
 40
3.265486
 40
3.588749
 40
3.916706
 40
4.244662
 40
4.567925
 40
4.895882
 40
5.223839
 40
5.547102
 40
5.875058
 40
5.875058
 40
5.875058
 40
5.875058
 10
20.370409
 20
45.079314
 30
0.0
 10
20.359180
 20
45.189190
 30
0.0
 10
20.336884
 20
45.407371
 30
0.0
 10
20.163898
 20
45.695699
 30
0.0
 10
19.910617
 20
45.910064
 30
0.0
 10
19.596976
 20
46.023756
 30
0.0
 10
19.264168
 20
46.023756
 30
0.0
 10
18.950967
 20
45.910064
 30
0.0
 10
18.695933
 20
45.695699
 30
0.0
 10
18.529463
 20
45.407371
 30
0.0
 10
18.471341
 20
45.079314
 30
0.0
 10
18.529463
 20
44.751257
 30
0.0
 10
18.695933
 20
44.462928
 30
0.0
 10
18.950967
 20
44.248563
 30
0.0
 10
19.264168
 20
44.134871
 30
0.0
 10
19.596976
 20
44.134871
 30
0.0
 10
19.910617
 20
44.248563
 30
0.0
 10
20.163898
 20
44.462928
 30
0.0
 10
20.336884
 20
44.751257
 30
0.0
 10
20.359180
 20
44.969437
 30
0.0
 10
20.370409
 20
45.079314
 30
0.0
 11
20.370409
 21
45.079314
 31
0.0
 11
20.313200
 21
45.402242
 31
0.0
 11
20.151568
 21
45.682196
 31
0.0
 11
19.900509
 21
45.893205
 31
0.0
 11
19.592240
 21
46.005124
 31
0.0
 11
19.268977
 21
46.005124
 31
0.0
 11
18.960708
 21
45.893205
 31
0.0
 11
18.709649
 21
45.682196
 31
0.0
 11
18.548017
 21
45.402242
 31
0.0
 11
18.490808
 21
45.079314
 31
0.0
 11
18.548017
 21
44.756386
 31
0.0
 11
18.709649
 21
44.476431
 31
0.0
 11
18.960708
 21
44.265423
 31
0.0
 11
19.268977
 21
44.153503
 31
0.0
 11
19.592240
 21
44.153503
 31
0.0
 11
19.900509
 21
44.265423
 31
0.0
 11
20.151568
 21
44.476431
 31
0.0
 11
20.313200
 21
44.756386
 31
0.0
 11
20.370409
 21
45.079314
 31
0.0
  0
LWPOLYLINE
  5
16e
100
AcDbEntity
  8
0
 62
7
100
AcDbPolyline
 90
1
 70
1
 10
20.370409
 20
45.079314
 30
0.0
  0
SPLINE
  5
16f
100
AcDbEntity
  8
0
 62
7
100
AcDbSpline
 70
0
 71
3
 72
16
 73
12
 74
10
 40
0.000000
 40
0.000000
 40
0.000000
 40
0.000000
 40
0.301596
 40
0.598876
 40
0.900472
 40
1.202069
 40
1.499349
 40
1.800945
 40
2.102541
 40
2.399821
 40
2.701417
 40
2.701417
 40
2.701417
 40
2.701417
 10
10.603519
 20
57.043825
 30
0.0
 10
10.704564
 20
57.033499
 30
0.0
 10
10.905208
 20
57.012995
 30
0.0
 10
11.170361
 20
56.853911
 30
0.0
 10
11.367496
 20
56.620997
 30
0.0
 10
11.472050
 20
56.332535
 30
0.0
 10
11.472050
 20
56.026592
 30
0.0
 10
11.367496
 20
55.738131
 30
0.0
 10
11.170361
 20
55.505216
 30
0.0
 10
10.905208
 20
55.346132
 30
0.0
 10
10.704564
 20
55.325628
 30
0.0
 10
10.603519
 20
55.315302
 30
0.0
 11
10.603519
 21
57.043825
 31
0.0
 11
10.900491
 21
56.991214
 31
0.0
 11
11.157943
 21
56.842574
 31
0.0
 11
11.351992
 21
56.611694
 31
0.0
 11
11.454915
 21
56.328204
 31
0.0
 11
11.454915
 21
56.030924
 31
0.0
 11
11.351992
 21
55.747433
 31
0.0
 11
11.157943
 21
55.516553
 31
0.0
 11
10.900491
 21
55.367913
 31
0.0
 11
10.603519
 21
55.315302
 31
0.0
  0
LWPOLYLINE
  5
170
100
AcDbEntity
  8
0
 62
7
100
AcDbPolyline
 90
2
 70
0
 10
10.603519
 20
55.315302
 30
0.0
 10
9.078129
 20
55.315302
 30
0.0
  0
SPLINE
  5
171
100
AcDbEntity
  8
0
 62
7
100
AcDbSpline
 70
0
 71
3
 72
16
 73
12
 74
10
 40
0.000000
 40
0.000000
 40
0.000000
 40
0.000000
 40
0.301596
 40
0.598876
 40
0.900472
 40
1.202069
 40
1.499349
 40
1.800945
 40
2.102541
 40
2.399821
 40
2.701417
 40
2.701417
 40
2.701417
 40
2.701417
 10
9.078129
 20
55.315302
 30
0.0
 10
8.977084
 20
55.325628
 30
0.0
 10
8.776440
 20
55.346132
 30
0.0
 10
8.511287
 20
55.505216
 30
0.0
 10
8.314152
 20
55.738131
 30
0.0
 10
8.209599
 20
56.026592
 30
0.0
 10
8.209599
 20
56.332535
 30
0.0
 10
8.314152
 20
56.620997
 30
0.0
 10
8.511287
 20
56.853911
 30
0.0
 10
8.776440
 20
57.012995
 30
0.0
 10
8.977084
 20
57.033499
 30
0.0
 10
9.078129
 20
57.043825
 30
0.0
 11
9.078129
 21
55.315302
 31
0.0
 11
8.781157
 21
55.367913
 31
0.0
 11
8.523705
 21
55.516553
 31
0.0
 11
8.329656
 21
55.747433
 31
0.0
 11
8.226733
 21
56.030924
 31
0.0
 11
8.226733
 21
56.328204
 31
0.0
 11
8.329656
 21
56.611694
 31
0.0
 11
8.523705
 21
56.842574
 31
0.0
 11
8.781157
 21
56.991214
 31
0.0
 11
9.078129
 21
57.043825
 31
0.0
  0
LWPOLYLINE
  5
172
100
AcDbEntity
  8
0
 62
7
100
AcDbPolyline
 90
2
 70
0
 10
9.078129
 20
57.043825
 30
0.0
 10
10.603519
 20
57.043825
 30
0.0
  0
SPLINE
  5
173
100
AcDbEntity
  8
0
 62
7
100
AcDbSpline
 70
0
 71
3
 72
25
 73
21
 74
19
 40
0.000000
 40
0.000000
 40
0.000000
 40
0.000000
 40
0.593946
 40
1.179387
 40
1.773333
 40
2.367278
 40
2.952720
 40
3.546665
 40
4.140611
 40
4.726052
 40
5.319998
 40
5.913944
 40
6.499385
 40
7.093331
 40
7.687277
 40
8.272718
 40
8.866664
 40
9.460609
 40
10.046051
 40
10.639996
 40
10.639996
 40
10.639996
 40
10.639996
 10
5.332210
 20
72.569313
 30
0.0
 10
5.311948
 20
72.768313
 30
0.0
 10
5.271713
 20
73.163464
 30
0.0
 10
4.958559
 20
73.685730
 30
0.0
 10
4.499920
 20
74.074038
 30
0.0
 10
3.931915
 20
74.279991
 30
0.0
 10
3.329180
 20
74.279991
 30
0.0
 10
2.761967
 20
74.074038
 30
0.0
 10
2.300163
 20
73.685730
 30
0.0
 10
1.998769
 20
73.163464
 30
0.0
 10
1.893885
 20
72.569313
 30
0.0
 10
1.998769
 20
71.975162
 30
0.0
 10
2.300163
 20
71.452897
 30
0.0
 10
2.761967
 20
71.064588
 30
0.0
 10
3.329180
 20
70.858635
 30
0.0
 10
3.931915
 20
70.858635
 30
0.0
 10
4.499920
 20
71.064588
 30
0.0
 10
4.958559
 20
71.452897
 30
0.0
 10
5.271713
 20
71.975162
 30
0.0
 10
5.311948
 20
72.370313
 30
0.0
 10
5.332210
 20
72.569313
 30
0.0
 11
5.332210
 21
72.569313
 31
0.0
 11
5.228806
 21
73.154188
 31
0.0
 11
4.936219
 21
73.661272
 31
0.0
 11
4.481605
 21
74.043500
 31
0.0
 11
3.923333
 21
74.246240
 31
0.0
 11
3.337891
 21
74.246240
 31
0.0
 11
2.779619
 21
74.043500
 31
0.0
 11
2.325005
 21
73.661272
 31
0.0
 11
2.032418
 21
73.154188
 31
0.0
 11
1.929014
 21
72.569313
 31
0.0
 11
2.032418
 21
71.984438
 31
0.0
 11
2.325005
 21
71.477354
 31
0.0
 11
2.779619
 21
71.095127
 31
0.0
 11
3.337891
 21
70.892386
 31
0.0
 11
3.923333
 21
70.892386
 31
0.0
 11
4.481605
 21
71.095127
 31
0.0
 11
4.936219
 21
71.477354
 31
0.0
 11
5.228806
 21
71.984438
 31
0.0
 11
5.332210
 21
72.569313
 31
0.0
  0
LWPOLYLINE
  5
174
100
AcDbEntity
  8
0
 62
7
100
AcDbPolyline
 90
1
 70
1
 10
5.332210
 20
72.569313
 30
0.0
  0
LWPOLYLINE
  5
175
100
AcDbEntity
  8
0
 62
7
100
AcDbPolyline
 90
1
 70
1
 10
32.932211
 20
3.569311
 30
0.0
  0
SPLINE
  5
176
100
AcDbEntity
  8
0
 62
7
100
AcDbSpline
 70
0
 71
3
 72
25
 73
21
 74
19
 40
0.000000
 40
0.000000
 40
0.000000
 40
0.000000
 40
0.593797
 40
1.179097
 40
1.772894
 40
2.366691
 40
2.951991
 40
3.545788
 40
4.139585
 40
4.724884
 40
5.318682
 40
5.912479
 40
6.497778
 40
7.091576
 40
7.685373
 40
8.270672
 40
8.864470
 40
9.458267
 40
10.043566
 40
10.637364
 40
10.637364
 40
10.637364
 40
10.637364
 10
32.932211
 20
3.569311
 30
0.0
 10
32.911880
 20
3.768253
 30
0.0
 10
32.871510
 20
4.163290
 30
0.0
 10
32.558302
 20
4.685337
 30
0.0
 10
32.099713
 20
5.073465
 30
0.0
 10
31.531836
 20
5.279315
 30
0.0
 10
30.929255
 20
5.279315
 30
0.0
 10
30.362174
 20
5.073465
 30
0.0
 10
29.900409
 20
4.685337
 30
0.0
 10
29.599000
 20
4.163290
 30
0.0
 10
29.493763
 20
3.569311
 30
0.0
 10
29.599000
 20
2.975332
 30
0.0
 10
29.900409
 20
2.453285
 30
0.0
 10
30.362174
 20
2.065157
 30
0.0
 10
30.929255
 20
1.859306
 30
0.0
 10
31.531836
 20
1.859306
 30
0.0
 10
32.099713
 20
2.065157
 30
0.0
 10
32.558302
 20
2.453285
 30
0.0
 10
32.871510
 20
2.975332
 30
0.0
 10
32.911880
 20
3.370369
 30
0.0
 10
32.932211
 20
3.569311
 30
0.0
 11
32.932211
 21
3.569311
 31
0.0
 11
32.828628
 21
4.154004
 31
0.0
 11
32.535978
 21
4.660888
 31
0.0
 11
32.081411
 21
5.042940
 31
0.0
 11
31.523260
 21
5.245581
 31
0.0
 11
30.937961
 21
5.245581
 31
0.0
 11
30.379811
 21
5.042940
 31
0.0
 11
29.925243
 21
4.660888
 31
0.0
 11
29.632593
 21
4.154004
 31
0.0
 11
29.529011
 21
3.569311
 31
0.0
 11
29.632593
 21
2.984618
 31
0.0
 11
29.925243
 21
2.477734
 31
0.0
 11
30.379811
 21
2.095682
 31
0.0
 11
30.937961
 21
1.893041
 31
0.0
 11
31.523260
 21
1.893041
 31
0.0
 11
32.081411
 21
2.095682
 31
0.0
 11
32.535978
 21
2.477734
 31
0.0
 11
32.828628
 21
2.984618
 31
0.0
 11
32.932211
 21
3.569311
 31
0.0
  0
LWPOLYLINE
  5
177
100
AcDbEntity
  8
0
 62
7
100
AcDbPolyline
 90
4
 70
1
 10
35.000005
 20
76.200005
 30
0.0
 10
35.000001
 20
0.000002
 30
0.0
 10
0.000000
 20
0.000002
 30
0.0
 10
0.000000
 20
76.200005
 30
0.0
  0
ENDSEC
  0
SECTION
  2
OBJECTS
  0
DICTIONARY
  5
C
330
0
100
AcDbDictionary
  3
ACAD_GROUP
350
D
  3
ACAD_MLINESTYLE
350
17
  0
DICTIONARY
  5
D
330
C
100
AcDbDictionary
  0
DICTIONARY
  5
1A
330
C
100
AcDbDictionary
  0
DICTIONARY
  5
17
330
C
100
AcDbDictionary
  3
STANDARD
350
18
  0
DICTIONARY
  5
19
330
C
100
AcDbDictionary
  0
ENDSEC
  0
EOF
