<?xml version="1.0" encoding="UTF-8" standalone="no"?>
<!-- Created with Inkscape (http://www.inkscape.org/) -->

<svg
   xmlns:dc="http://purl.org/dc/elements/1.1/"
   xmlns:cc="http://creativecommons.org/ns#"
   xmlns:rdf="http://www.w3.org/1999/02/22-rdf-syntax-ns#"
   xmlns:svg="http://www.w3.org/2000/svg"
   xmlns="http://www.w3.org/2000/svg"
   xmlns:sodipodi="http://sodipodi.sourceforge.net/DTD/sodipodi-0.dtd"
   xmlns:inkscape="http://www.inkscape.org/namespaces/inkscape"
   width="35mm"
   height="76.199997mm"
   viewBox="0 0 35 76.199996"
   version="1.1"
   id="svg966"
   inkscape:version="0.92.2 (5c3e80d, 2017-08-06)"
   sodipodi:docname="soldermask_top_cut.svg">
  <defs
     id="defs960" />
  <sodipodi:namedview
     id="base"
     pagecolor="#ffffff"
     bordercolor="#666666"
     borderopacity="1.0"
     inkscape:pageopacity="0.0"
     inkscape:pageshadow="2"
     inkscape:zoom="2.8"
     inkscape:cx="-49.52815"
     inkscape:cy="133.46199"
     inkscape:document-units="mm"
     inkscape:current-layer="layer1"
     showgrid="false"
     fit-margin-top="0"
     fit-margin-left="0"
     fit-margin-right="0"
     fit-margin-bottom="0"
     inkscape:window-width="1920"
     inkscape:window-height="1017"
     inkscape:window-x="-8"
     inkscape:window-y="-8"
     inkscape:window-maximized="1" />
  <metadata
     id="metadata963">
    <rdf:RDF>
      <cc:Work
         rdf:about="">
        <dc:format>image/svg+xml</dc:format>
        <dc:type
           rdf:resource="http://purl.org/dc/dcmitype/StillImage" />
        <dc:title></dc:title>
      </cc:Work>
    </rdf:RDF>
  </metadata>
  <g
     inkscape:label="Layer 1"
     inkscape:groupmode="layer"
     id="layer1"
     transform="translate(0.40038845,-222.39461)">
    <path
       id="circle1911"
       style="fill:none;stroke:#000000;stroke-width:0.26458332;stroke-miterlimit:4;stroke-dasharray:none"
       d="m 27.220607,275.59531 a 0.85159999,0.85159999 0 0 1 -0.8516,0.8516 0.85159999,0.85159999 0 0 1 -0.8516,-0.8516 0.85159999,0.85159999 0 0 1 0.8516,-0.8516 0.85159999,0.85159999 0 0 1 0.8516,0.8516 z M 13.420604,286.4953 a 0.85159999,0.85159999 0 0 1 -0.8516,0.8516 0.85159999,0.85159999 0 0 1 -0.8516,-0.8516 0.85159999,0.85159999 0 0 1 0.8516,-0.8516 0.85159999,0.85159999 0 0 1 0.8516,0.8516 z m -1.999999,0 a 0.85159999,0.85159999 0 0 1 -0.8516,0.8516 0.85159999,0.85159999 0 0 1 -0.8516,-0.8516 0.85159999,0.85159999 0 0 1 0.8516,-0.8516 0.85159999,0.85159999 0 0 1 0.8516,0.8516 z m -2,0 a 0.85159999,0.85159999 0 0 1 -0.8516,0.8516 0.85159999,0.85159999 0 0 1 -0.8516,-0.8516 0.85159999,0.85159999 0 0 1 0.8516,-0.8516 0.85159999,0.85159999 0 0 1 0.8516,0.8516 z m -2,0 a 0.85159999,0.85159999 0 0 1 -0.8516,0.8516 0.85159999,0.85159999 0 0 1 -0.8516,-0.8516 0.85159999,0.85159999 0 0 1 0.8516,-0.8516 0.85159999,0.85159999 0 0 1 0.8516,0.8516 z m 20.020801,-23.60858 a 1.1494649,1.1494649 0 1 0 0,2.29883 h 2.095703 a 1.1494649,1.1494649 0 1 0 0,-2.29883 z m 0,-5.08008 a 1.1494649,1.1494649 0 1 0 0,2.29883 h 2.095703 a 1.1494649,1.1494649 0 1 0 0,-2.29883 z M 5.6286055,253.75529 a 1.7596,1.7596 0 0 1 -1.7596001,1.7596 1.7596,1.7596 0 0 1 -1.7596,-1.7596 1.7596,1.7596 0 0 1 1.7596,-1.7596 1.7596,1.7596 0 0 1 1.7596001,1.7596 z m 0,12.04 a 1.7596,1.7596 0 0 1 -1.7596001,1.7596 1.7596,1.7596 0 0 1 -1.7596,-1.7596 1.7596,1.7596 0 0 1 1.7596,-1.7596 1.7596,1.7596 0 0 1 1.7596001,1.7596 z m 1.7809978,-6.92594 -0.4865531,0.48655 h -0.68809 l -0.4865531,-0.48655 v -0.6881 l 0.4865531,-0.48655 h 0.68809 l 0.4865531,0.48655 z m 0,2.49999 -0.4865531,0.48656 h -0.68809 l -0.4865531,-0.48656 v -0.68809 l 0.4865531,-0.48655 h 0.68809 l 0.4865531,0.48655 z m 2,0 -0.4865532,0.48656 H 8.2349602 l -0.4865531,-0.48656 v -0.68809 l 0.4865531,-0.48655 h 0.6880899 l 0.4865532,0.48655 z m 0,-2.49999 -0.4865532,0.48655 H 8.2349602 l -0.4865531,-0.48655 v -0.6881 l 0.4865531,-0.48655 h 0.6880899 l 0.4865532,0.48655 z M 6.9481055,239.53529 a 0.91909999,0.91909999 0 0 1 -0.9191,0.9191 0.91909999,0.91909999 0 0 1 -0.9191,-0.9191 0.91909999,0.91909999 0 0 1 0.9191,-0.9191 0.91909999,0.91909999 0 0 1 0.9191,0.9191 z m 0,-5.07998 a 0.91909999,0.91909999 0 0 1 -0.9191,0.9191 0.91909999,0.91909999 0 0 1 -0.9191,-0.9191 0.91909999,0.91909999 0 0 1 0.9191,-0.9191 0.91909999,0.91909999 0 0 1 0.9191,0.9191 z m 5.0800005,0 a 0.91909999,0.91909999 0 0 1 -0.9191,0.9191 0.91909999,0.91909999 0 0 1 -0.9191,-0.9191 0.91909999,0.91909999 0 0 1 0.9191,-0.9191 0.91909999,0.91909999 0 0 1 0.9191,0.9191 z m 0,5.07998 a 0.91909999,0.91909999 0 0 1 -0.9191,0.9191 0.91909999,0.91909999 0 0 1 -0.9191,-0.9191 0.91909999,0.91909999 0 0 1 0.9191,-0.9191 0.91909999,0.91909999 0 0 1 0.9191,0.9191 z m 0,-2.53999 a 0.91909999,0.91909999 0 0 1 -0.9191,0.9191 0.91909999,0.91909999 0 0 1 -0.9191,-0.9191 0.91909999,0.91909999 0 0 1 0.9191,-0.9191 0.91909999,0.91909999 0 0 1 0.9191,0.9191 z m 18.617498,48.70001 a 1.0766,1.0766 0 0 1 -1.0766,1.0766 1.0766,1.0766 0 0 1 -1.0766,-1.0766 1.0766,1.0766 0 0 1 1.0766,-1.0766 1.0766,1.0766 0 0 1 1.0766,1.0766 z m -11.999998,0 a 1.0766,1.0766 0 0 1 -1.0766,1.0766 1.0766,1.0766 0 0 1 -1.0766,-1.0766 1.0766,1.0766 0 0 1 1.0766,-1.0766 1.0766,1.0766 0 0 1 1.0766,1.0766 z M 30.645604,273.4953 a 1.0766,1.0766 0 0 1 -1.0766,1.0766 1.0766,1.0766 0 0 1 -1.0766,-1.0766 1.0766,1.0766 0 0 1 1.0766,-1.0766 1.0766,1.0766 0 0 1 1.0766,1.0766 z m -5.999998,-2 a 1.0766,1.0766 0 0 1 -1.0766,1.0766 1.0766,1.0766 0 0 1 -1.0766,-1.0766 1.0766,1.0766 0 0 1 1.0766,-1.0766 1.0766,1.0766 0 0 1 1.0766,1.0766 z m -6,2 a 1.0766,1.0766 0 0 1 -1.0766,1.0766 1.0766,1.0766 0 0 1 -1.0766,-1.0766 1.0766,1.0766 0 0 1 1.0766,-1.0766 1.0766,1.0766 0 0 1 1.0766,1.0766 z m 5.350488,-31.94452 a 0.86426,0.86426 0 1 0 0,1.72852 h 1.52539 a 0.86426,0.86426 0 1 0 0,-1.72852 z m 0,2.54102 a 0.86368632,0.86368632 0 1 0 0,1.72656 h 1.52539 a 0.86368632,0.86368632 0 1 0 0,-1.72656 z m 0,2.53906 a 0.86426,0.86426 0 1 0 0,1.72852 h 1.52539 a 0.86426,0.86426 0 1 0 0,-1.72852 z m 0,2.54102 a 0.86368632,0.86368632 0 1 0 0,1.72656 h 1.52539 a 0.86368632,0.86368632 0 1 0 0,-1.72656 z m 0,2.53906 a 0.864255,0.864255 0 1 0 0,1.72851 h 1.52539 a 0.864255,0.864255 0 1 0 0,-1.72851 z m -13.505675,20.78295 a 0.68083641,0.68083641 0 1 0 0,1.36167 h 0.999939 0.15813 0.999939 a 0.68083641,0.68083641 0 1 0 0,-1.36167 h -0.999939 -0.15813 z m 0,15.60008 a 0.68070869,0.68070869 0 1 0 0,1.36116 h 0.999939 0.15813 0.999939 a 0.68070869,0.68070869 0 1 0 0,-1.36116 h -0.999939 -0.15813 z M 9.1406312,277.39436 a 0.68083773,0.68083773 0 1 0 0,1.36168 h 0.9999388 0.15813 0.999939 a 0.68083773,0.68083773 0 1 0 0,-1.36168 H 10.2987 10.14057 Z m 0,5.8012 a 0.68070869,0.68070869 0 1 0 0,1.36115 h 0.9999388 0.15813 0.999939 a 0.68070869,0.68070869 0 1 0 0,-1.36115 H 10.2987 10.14057 Z M 5.490208,277.79485 a 0.68066805,0.68066805 0 1 0 0,1.36116 h 0.999939 0.1581298 0.999939 a 0.68066805,0.68066805 0 1 0 0,-1.36116 H 6.6482768 6.490147 Z m 0,5.00022 a 0.68070869,0.68070869 0 1 0 0,1.36115 h 0.999939 0.1581298 0.999939 a 0.68070869,0.68070869 0 1 0 0,-1.36115 H 6.6482768 6.490147 Z m -4.4335674,-3.44155 a 0.8556855,0.8556855 0 0 0 -0.84374998,0.86718 v 1.50782 a 0.8556855,0.8556855 0 1 0 1.71093748,0 v -1.50782 a 0.8556855,0.8556855 0 0 0 -0.8671875,-0.86718 z m 2.9639641,-0.87821 a 0.95159996,0.95159996 0 0 1 -0.9515999,0.9516 0.95159996,0.95159996 0 0 1 -0.9516,-0.9516 0.95159996,0.95159996 0 0 1 0.9516,-0.9516 0.95159996,0.95159996 0 0 1 0.9515999,0.9516 z m 0,5.5 a 0.95159996,0.95159996 0 0 1 -0.9515999,0.9516 0.95159996,0.95159996 0 0 1 -0.9516,-0.9516 0.95159996,0.95159996 0 0 1 0.9516,-0.9516 0.95159996,0.95159996 0 0 1 0.9515999,0.9516 z m 0.758,-10.80002 a 1.7096,1.7096 0 0 1 -1.7095999,1.7096 1.7096,1.7096 0 0 1 -1.7096,-1.7096 1.7096,1.7096 0 0 1 1.7096,-1.7096 1.7096,1.7096 0 0 1 1.7095999,1.7096 z m 0,15.60001 a 1.7096,1.7096 0 0 1 -1.7095999,1.7096 1.7096,1.7096 0 0 1 -1.7096,-1.7096 1.7096,1.7096 0 0 1 1.7096,-1.7096 1.7096,1.7096 0 0 1 1.7095999,1.7096 z M 15.347656,239.17188 a 0.86368632,0.86368632 0 1 0 0,1.72656 h 1.523438 a 0.86368632,0.86368632 0 1 0 0,-1.72656 z m 0,-2.54102 a 0.86426,0.86426 0 1 0 0,1.72852 h 1.523438 a 0.86426,0.86426 0 1 0 0,-1.72852 z m 0,-2.53906 a 0.86368632,0.86368632 0 1 0 0,1.72656 h 1.523438 a 0.86368632,0.86368632 0 1 0 0,-1.72656 z m 0.761149,29.58349 a 0.93980002,0.93980002 0 0 1 -0.9398,0.9398 0.93980002,0.93980002 0 0 1 -0.9398,-0.9398 0.93980002,0.93980002 0 0 1 0.9398,-0.9398 0.93980002,0.93980002 0 0 1 0.9398,0.9398 z m 0,-10.15999 a 0.93980002,0.93980002 0 0 1 -0.9398,0.9398 0.93980002,0.93980002 0 0 1 -0.9398,-0.9398 0.93980002,0.93980002 0 0 1 0.9398,-0.9398 0.93980002,0.93980002 0 0 1 0.9398,0.9398 z m 16.561799,41.51 a 1.7016,1.7016 0 0 1 -1.7016,1.7016 1.7016,1.7016 0 0 1 -1.7016,-1.7016 1.7016,1.7016 0 0 1 1.7016,-1.7016 1.7016,1.7016 0 0 1 1.7016,1.7016 z m 0,-69 a 1.7016,1.7016 0 0 1 -1.7016,1.7016 1.7016,1.7016 0 0 1 -1.7016,-1.7016 1.7016,1.7016 0 0 1 1.7016,-1.7016 1.7016,1.7016 0 0 1 1.7016,1.7016 z m -27.5999984,69 a 1.7016,1.7016 0 0 1 -1.7015999,1.7016 1.7016,1.7016 0 0 1 -1.7016,-1.7016 1.7016,1.7016 0 0 1 1.7016,-1.7016 1.7016,1.7016 0 0 1 1.7015999,1.7016 z m 0,-69 a 1.7016,1.7016 0 0 1 -1.7015999,1.7016 1.7016,1.7016 0 0 1 -1.7016,-1.7016 1.7016,1.7016 0 0 1 1.7016,-1.7016 1.7016,1.7016 0 0 1 1.7015999,1.7016 z m -5.47099405,-3.63069 H 34.599612 V 298.5946 H -0.40038845 Z" />
  </g>
</svg>
