<?xml version="1.0" encoding="UTF-8"?>
<!DOCTYPE svg PUBLIC "-//W3C//DTD SVG 1.1//EN" "http://www.w3.org/Graphics/SVG/1.1/DTD/svg11.dtd">
<svg xmlns="http://www.w3.org/2000/svg" xmlns:xlink="http://www.w3.org/1999/xlink" width="100%" height="100%" viewBox="22.67716535 -15.38267717 132.2834646 288"><circle fill="black" cx="37.0393700787402" cy="-1.77637795275591" r="6.43124409448819"/>
	<circle fill="black" cx="37.0393700787402" cy="259.011023622047" r="6.43124409448819"/>
	<circle fill="black" cx="141.354330708661" cy="-1.77637795275591" r="6.43124409448819"/>
	<circle fill="black" cx="141.354330708661" cy="259.011023622047" r="6.43124409448819"/>
	<circle fill="black" cx="81.6377952755906" cy="102.122834645669" r="3.552"/>
	<circle fill="black" cx="81.6377952755906" cy="140.522834645669" r="3.552"/>
	<path stroke="black" stroke-linecap="round" stroke-width="6.528" d="M 82.3105511811024 31.9748031496063 L 88.0705511811024 31.9748031496063"/>
	<path stroke="black" stroke-linecap="round" stroke-width="6.528" d="M 88.0705511811024 41.5748031496063 L 82.3105511811024 41.5748031496063"/>
	<path stroke="black" stroke-linecap="round" stroke-width="6.528" d="M 82.3105511811024 51.1748031496063 L 88.0705511811024 51.1748031496063"/>
	<circle fill="black" cx="35.9055118110236" cy="235.388976377953" r="6.46148031496063"/>
	<circle fill="black" cx="35.9055118110236" cy="176.428346456693" r="6.46148031496063"/>
	<circle fill="black" cx="35.9055118110236" cy="217.247244094488" r="3.59659842519685"/>
	<circle fill="black" cx="35.9055118110236" cy="196.459842519685" r="3.59659842519685"/>
	<path stroke="black" stroke-linecap="round" stroke-width="6.46752755905512" d="M 28.3464566929134 203.058897637795 L 28.3464566929134 208.75842519685"/>
	<circle fill="black" cx="28.3464566929134" cy="203.64094488189" r="3.23376377952756"/>
	<circle fill="black" cx="28.3464566929134" cy="208.176377952756" r="3.23376377952756"/>
	<path stroke="black" stroke-linecap="round" stroke-width="5.14469291338583" d="M 48.8352755905512 215.357480314961 L 53.211968503937 215.357480314961"/>
	<path stroke="black" stroke-linecap="round" stroke-width="5.14469291338583" d="M 49.4324409448819 215.357480314961 L 45.0557480314961 215.357480314961"/>
	<circle fill="black" cx="45.1653543307087" cy="215.357480314961" r="2.57234645669291"/>
	<circle fill="black" cx="53.1023622047244" cy="215.357480314961" r="2.57234645669291"/>
	<circle fill="black" cx="49.1338582677165" cy="215.357480314961" r="2.57234645669291"/>
	<path stroke="black" stroke-linecap="round" stroke-width="5.14469291338583" d="M 48.8352755905512 196.459842519685 L 53.211968503937 196.459842519685"/>
	<path stroke="black" stroke-linecap="round" stroke-width="5.14469291338583" d="M 49.4324409448819 196.459842519685 L 45.0557480314961 196.459842519685"/>
	<circle fill="black" cx="45.1653543307087" cy="196.459842519685" r="2.57234645669291"/>
	<circle fill="black" cx="53.1023622047244" cy="196.459842519685" r="2.57234645669291"/>
	<circle fill="black" cx="49.1338582677165" cy="196.459842519685" r="2.57234645669291"/>
	<path stroke="black" stroke-linecap="round" stroke-width="5.14469291338583" d="M 62.6305511811024 216.869291338583 L 67.0072440944882 216.869291338583"/>
	<path stroke="black" stroke-linecap="round" stroke-width="5.14469291338583" d="M 63.2277165354331 216.869291338583 L 58.8510236220473 216.869291338583"/>
	<circle fill="black" cx="58.9606299212598" cy="216.869291338583" r="2.57234645669291"/>
	<circle fill="black" cx="66.8976377952756" cy="216.869291338583" r="2.57234645669291"/>
	<circle fill="black" cx="62.9291338582677" cy="216.869291338583" r="2.57234645669291"/>
	<path stroke="black" stroke-linecap="round" stroke-width="5.14469291338583" d="M 62.6305511811024 194.948031496063 L 67.0072440944882 194.948031496063"/>
	<path stroke="black" stroke-linecap="round" stroke-width="5.14469291338583" d="M 63.2277165354331 194.948031496063 L 58.8510236220473 194.948031496063"/>
	<circle fill="black" cx="58.9606299212598" cy="194.948031496063" r="2.57234645669291"/>
	<circle fill="black" cx="66.8976377952756" cy="194.948031496063" r="2.57234645669291"/>
	<circle fill="black" cx="62.9291338582677" cy="194.948031496063" r="2.57234645669291"/>
	<path stroke="black" stroke-linecap="round" stroke-width="5.14469291338583" d="M 67.7329133858268 235.388976377953 L 72.1096062992126 235.388976377953"/>
	<path stroke="black" stroke-linecap="round" stroke-width="5.14469291338583" d="M 68.3300787401575 235.388976377953 L 63.9533858267717 235.388976377953"/>
	<circle fill="black" cx="64.0629921259843" cy="235.388976377953" r="2.57234645669291"/>
	<circle fill="black" cx="72." cy="235.388976377953" r="2.57234645669291"/>
	<circle fill="black" cx="68.0314960629921" cy="235.388976377953" r="2.57234645669291"/>
	<path stroke="black" stroke-linecap="round" stroke-width="5.14469291338583" d="M 67.7329133858268 176.428346456693 L 72.1096062992126 176.428346456693"/>
	<path stroke="black" stroke-linecap="round" stroke-width="5.14469291338583" d="M 68.3300787401575 176.428346456693 L 63.9533858267717 176.428346456693"/>
	<circle fill="black" cx="64.0629921259843" cy="176.428346456693" r="2.57234645669291"/>
	<circle fill="black" cx="72." cy="176.428346456693" r="2.57234645669291"/>
	<circle fill="black" cx="68.0314960629921" cy="176.428346456693" r="2.57234645669291"/>
	<circle fill="black" cx="48.1889763779528" cy="215.357480314961" r="2.57234645669291"/>
	<circle fill="black" cx="46.2992125984252" cy="215.357480314961" r="2.57234645669291"/>
	<circle fill="black" cx="51.9685039370079" cy="215.357480314961" r="2.57234645669291"/>
	<circle fill="black" cx="50.0787401574803" cy="215.357480314961" r="2.57234645669291"/>
	<circle fill="black" cx="48.1889763779528" cy="196.459842519685" r="2.57234645669291"/>
	<circle fill="black" cx="46.2992125984252" cy="196.459842519685" r="2.57234645669291"/>
	<circle fill="black" cx="50.0787401574803" cy="196.459842519685" r="2.57234645669291"/>
	<circle fill="black" cx="51.9685039370079" cy="196.459842519685" r="2.57234645669291"/>
	<circle fill="black" cx="61.9842519685039" cy="194.948031496063" r="2.57234645669291"/>
	<circle fill="black" cx="60.0944881889764" cy="194.948031496063" r="2.57234645669291"/>
	<circle fill="black" cx="63.8740157480315" cy="194.948031496063" r="2.57234645669291"/>
	<circle fill="black" cx="65.7637795275591" cy="194.948031496063" r="2.57234645669291"/>
	<circle fill="black" cx="65.7637795275591" cy="216.869291338583" r="2.57234645669291"/>
	<circle fill="black" cx="63.8740157480315" cy="216.869291338583" r="2.57234645669291"/>
	<circle fill="black" cx="61.9842519685039" cy="216.869291338583" r="2.57234645669291"/>
	<circle fill="black" cx="60.0944881889764" cy="216.869291338583" r="2.57234645669291"/>
	<circle fill="black" cx="67.0866141732284" cy="235.388976377953" r="2.57234645669291"/>
	<circle fill="black" cx="65.1968503937008" cy="235.388976377953" r="2.57234645669291"/>
	<circle fill="black" cx="68.9763779527559" cy="235.388976377953" r="2.57234645669291"/>
	<circle fill="black" cx="70.8661417322835" cy="235.388976377953" r="2.57234645669291"/>
	<circle fill="black" cx="65.1968503937008" cy="176.428346456693" r="2.57234645669291"/>
	<circle fill="black" cx="67.0866141732284" cy="176.428346456693" r="2.57234645669291"/>
	<circle fill="black" cx="68.9763779527559" cy="176.428346456693" r="2.57234645669291"/>
	<circle fill="black" cx="70.8661417322835" cy="176.428346456693" r="2.57234645669291"/>
	<path stroke="black" stroke-linecap="round" stroke-width="6.528" d="M 115.003464566929 98.5700787401575 L 120.763464566929 98.5700787401575"/>
	<path stroke="black" stroke-linecap="round" stroke-width="6.528" d="M 120.763464566929 88.9700787401575 L 115.003464566929 88.9700787401575"/>
	<path stroke="black" stroke-linecap="round" stroke-width="6.528" d="M 115.003464566929 79.3700787401575 L 120.763464566929 79.3700787401575"/>
	<path stroke="black" stroke-linecap="round" stroke-width="6.528" d="M 120.763464566929 69.7700787401575 L 115.003464566929 69.7700787401575"/>
	<path stroke="black" stroke-linecap="round" stroke-width="6.528" d="M 115.003464566929 60.1700787401575 L 120.763464566929 60.1700787401575"/>
	<circle fill="black" cx="90.7086614173228" cy="177.637795275591" r="4.06903937007874"/>
	<circle fill="black" cx="113.385826771654" cy="170.07874015748" r="4.06903937007874"/>
	<circle fill="black" cx="136.062992125984" cy="177.637795275591" r="4.06903937007874"/>
	<circle fill="black" cx="90.7086614173228" cy="223.748031496063" r="4.06903937007874"/>
	<circle fill="black" cx="136.062992125984" cy="223.748031496063" r="4.06903937007874"/>
	<circle fill="black" cx="66.2929133858268" cy="39.6850393700787" r="3.47376377952756"/>
	<circle fill="black" cx="66.2929133858268" cy="49.2850393700787" r="3.47376377952756"/>
	<circle fill="black" cx="66.2929133858268" cy="30.0850393700787" r="3.47376377952756"/>
	<circle fill="black" cx="47.0929133858268" cy="30.0850393700787" r="3.47376377952756"/>
	<circle fill="black" cx="47.0929133858268" cy="49.2850393700787" r="3.47376377952756"/>
	<path fill="black" d="M 59.8699774025281 122.358595405037 L 58.0310363499193 124.197536457646 L 55.4303809729153 124.197536457646 L 53.5914399203066 122.358595405037 L 53.5914399203066 119.757940028033 L 55.4303809729153 117.918998975425 L 58.0310363499193 117.918998975425 L 59.8699774025281 119.757940028033 Z"/>
	<path fill="black" d="M 59.8699774025281 131.807414302675 L 58.0310363499193 133.646355355284 L 55.4303809729153 133.646355355284 L 53.5914399203066 131.807414302675 L 53.5914399203066 129.206758925671 L 55.4303809729153 127.367817873062 L 58.0310363499193 127.367817873062 L 59.8699774025281 129.206758925671 Z"/>
	<path fill="black" d="M 52.3109222844178 131.807414302675 L 50.4719812318091 133.646355355284 L 47.8713258548051 133.646355355284 L 46.0323848021963 131.807414302675 L 46.0323848021963 129.206758925671 L 47.8713258548051 127.367817873062 L 50.4719812318091 127.367817873062 L 52.3109222844178 129.206758925671 Z"/>
	<path fill="black" d="M 52.3109222844178 122.358595405037 L 50.4719812318091 124.197536457646 L 47.8713258548051 124.197536457646 L 46.0323848021963 122.358595405037 L 46.0323848021963 119.757940028033 L 47.8713258548051 117.918998975425 L 50.4719812318091 117.918998975425 L 52.3109222844178 119.757940028033 Z"/>
	<circle fill="black" cx="38.9291338582677" cy="148.535433070866" r="6.65045669291339"/>
	<circle fill="black" cx="38.9291338582677" cy="103.029921259843" r="6.65045669291339"/>
	<path stroke="black" stroke-linecap="round" stroke-width="8.688" d="M 128.021291338583 122.683464566929 L 135.941291338583 122.683464566929"/>
	<path stroke="black" stroke-linecap="round" stroke-width="8.688" d="M 135.941291338583 141.883464566929 L 128.021291338583 141.883464566929"/>
	<circle fill="black" cx="49.1338582677165" cy="226.771653543307" r="3.21864566929134"/>
	<circle fill="black" cx="56.6929133858268" cy="226.771653543307" r="3.21864566929134"/>
	<circle fill="black" cx="64.251968503937" cy="226.771653543307" r="3.21864566929134"/>
	<circle fill="black" cx="71.8110236220473" cy="226.771653543307" r="3.21864566929134"/>
	<circle fill="black" cx="123.968503937008" cy="185.574803149606" r="3.21864566929134"/>
</svg>
